<?xml version="1.0" encoding="utf-8"?>
<!-- Generator: Adobe Illustrator 25.4.8, SVG Export Plug-In . SVG Version: 6.00 Build 0)  -->
<svg version="1.1" id="Layer_1" xmlns="http://www.w3.org/2000/svg" xmlns:xlink="http://www.w3.org/1999/xlink" x="0px" y="0px"
	 viewBox="0 0 174 243" style="enable-background:new 0 0 174 243;" xml:space="preserve">
<style type="text/css">
	.st0{fill:#AB3F8A;}
	.st1{opacity:0.75;fill:#AB3F8A;enable-background:new    ;}
	.st2{opacity:0.44;fill:#AB3F8A;enable-background:new    ;}
	.st3{opacity:0.53;fill:#AB3F8A;enable-background:new    ;}
</style>
<path class="st0" d="M60.3,181c-3,0.9-5.8-0.7-7.9-1.9c-1.7-1-6.6-3.8-7.9-9.6c-0.3-1.3-0.8-4.6,0.7-8.1c0.5-1.2,1.7-3.9,4.8-5.5
	c3.9-2,7.8-0.5,8.6-0.2c0.5,0.2,3.2,1.3,5.3,4.1c1.9,2.6,2.1,5.2,2.4,8.1c0.3,3.2,0.6,6.2-1.2,9.1C64.6,177.8,63.1,180.2,60.3,181z"
	/>
<path class="st0" d="M78.7,165.7c-3.2-0.2-5.2-2.7-6.7-4.6c-1.2-1.5-4.8-5.9-4-11.8c0.2-1.3,0.8-4.6,3.5-7.4c0.9-0.9,3-3.1,6.4-3.5
	c4.4-0.5,7.5,2.2,8.2,2.8c0.4,0.4,2.6,2.3,3.5,5.7c0.9,3.1,0.2,5.6-0.6,8.5c-0.9,3.1-1.7,6-4.3,8.1
	C83.9,164.1,81.7,165.9,78.7,165.7z"/>
<path class="st0" d="M100,167.1c-2.8-1.6-3.5-4.6-4.1-7c-0.5-1.9-1.8-7.4,1.4-12.4c0.7-1.1,2.7-3.8,6.4-5.1c1.2-0.4,4-1.5,7.3-0.4
	c4.2,1.4,5.8,5.3,6.2,6.1c0.2,0.5,1.3,3.2,0.7,6.6c-0.6,3.2-2.3,5.2-4.2,7.4c-2.1,2.5-4.1,4.7-7.4,5.5
	C105.3,168,102.5,168.6,100,167.1z"/>
<path class="st0" d="M114.2,187.1c-2.1-2.4-1.9-5.5-1.8-7.9c0.1-2,0.5-7.6,5.1-11.3c1.1-0.9,3.8-2.8,7.6-2.9
	c1.3-0.1,4.3-0.2,7.1,1.9c3.5,2.6,3.9,6.8,4,7.6c0.1,0.6,0.3,3.5-1.3,6.5c-1.5,2.9-3.7,4.2-6.3,5.7c-2.8,1.7-5.3,3.2-8.7,2.9
	C119,189.5,116.2,189.3,114.2,187.1z"/>
<path class="st0" d="M62.5,211.7c-2.6-2.4-4.3-4.1-5.3-6.7c-1.2-3.4-0.5-6.6,0-8.6c0.4-1.6,1.1-4.4,3.4-6.9c1-1.1,2.5-2.1,5.5-4.1
	c2.2-1.5,2.8-1.7,4.3-2.9c1.1-0.8,1.9-1.7,3.6-3.4c3-3,2.9-3.2,4.1-4.1c2.2-1.7,4.4-2.3,5.5-2.6c1.6-0.4,4.7-1.3,8.4-0.2
	c3.4,0.9,5.6,3,6.7,4.1c2.1,2.1,3.3,4.3,3.8,5.3c1.1,2,0.9,2.4,1.9,4.1c1.2,1.9,2.2,2.6,3.8,4.3c1.6,1.7,3.5,3.6,4.8,6.2
	c2.1,4.1,1.8,8.1,1.7,9.6c-0.1,1.8-0.3,4-1.7,6.2c-1.1,1.8-2.4,2.8-4.1,4.1c-1.5,1.1-3.1,2.4-5.5,3.1c-2.9,0.9-5.4,0.6-6.7,0.5
	c-3.7-0.5-3.9-1.7-8.4-2.6c-2.5-0.6-4.5-0.6-7.2-0.7c-3.8-0.1-4.1,0.2-7.4,0c-3.1-0.2-5-0.4-7.2-1.4C65,214.1,64,213.1,62.5,211.7z"
	/>
<path class="st1" d="M111.1,112.8c-1.8,1.7-4.3,1.5-6.2,1.4c-1.5-0.1-5.9-0.3-8.8-3.9c-0.7-0.8-2.2-2.9-2.3-5.9
	c-0.1-1-0.2-3.3,1.4-5.5c2-2.8,5.3-3.1,5.9-3.2c0.4-0.1,2.7-0.2,5.1,1c2.2,1.2,3.3,2.9,4.5,4.8c1.3,2.2,2.5,4.1,2.3,6.8
	C113,109,112.8,111.2,111.1,112.8z"/>
<path class="st1" d="M118.6,95.6c-2.3,0.9-4.5-0.1-6.3-0.8c-1.4-0.6-5.4-2.4-6.9-6.8c-0.3-1-1-3.5-0.1-6.4c0.3-0.9,1-3.2,3.3-4.7
	c2.9-1.9,6-1.1,6.7-0.9c0.4,0.1,2.6,0.7,4.4,2.7c1.7,1.9,2.1,3.9,2.5,6.1c0.5,2.5,0.9,4.8-0.2,7.2C121.7,92.7,120.7,94.8,118.6,95.6
	z"/>
<path class="st1" d="M133.9,89.2c-2.5-0.2-4.1-2-5.3-3.5c-1-1.2-3.8-4.5-3.3-9.1c0.1-1.1,0.6-3.6,2.7-5.8c0.7-0.7,2.3-2.4,5-2.8
	c3.4-0.5,5.9,1.6,6.4,2.1c0.3,0.3,2,1.8,2.8,4.4c0.7,2.4,0.2,4.4-0.4,6.6c-0.6,2.5-1.2,4.7-3.3,6.4C138,87.9,136.2,89.4,133.9,89.2z
	"/>
<path class="st1" d="M150.8,98.2c-2.3-0.9-3.2-3.2-4-4.9c-0.6-1.4-2.3-5.4-0.4-9.7c0.4-1,1.7-3.2,4.3-4.7c0.9-0.5,2.9-1.6,5.6-1.2
	c3.4,0.6,5.1,3.4,5.5,3.9c0.2,0.4,1.4,2.3,1.3,5c-0.1,2.5-1.1,4.2-2.4,6.2c-1.4,2.2-2.6,4.1-5.1,5.1C155,98.2,152.9,99.1,150.8,98.2
	z"/>
<path class="st1" d="M123.3,133.4c-2.7-0.8-4.4-1.3-6-2.9c-2.1-2-2.6-4.4-3-6c-0.3-1.3-0.8-3.5-0.1-6c0.3-1.1,1-2.3,2.4-4.8
	c1-1.8,1.4-2.1,2-3.5c0.4-1,0.8-1.8,1.3-3.6c1.1-3.1,0.9-3.2,1.4-4.3c1-2,2.3-3.2,2.9-3.8c1-0.9,2.8-2.5,5.8-3.1
	c2.7-0.5,4.9,0.1,6.1,0.5c2.2,0.7,3.8,1.9,4.5,2.3c1.4,1,1.5,1.4,2.8,2.2c1.5,0.9,2.4,1.1,4.2,1.7c1.7,0.6,3.7,1.3,5.5,2.7
	c2.9,2.2,4.1,5,4.5,6.1c0.5,1.3,1.2,2.9,1,4.9c-0.1,1.6-0.7,2.8-1.4,4.3c-0.6,1.3-1.3,2.7-2.8,4.1c-1.7,1.7-3.6,2.3-4.5,2.7
	c-2.8,1-3.3,0.2-6.8,1.1c-1.9,0.5-3.4,1.1-5.3,2c-2.7,1.2-2.8,1.6-5.2,2.6c-2.2,0.9-3.6,1.5-5.5,1.5
	C125.9,134.1,124.9,133.8,123.3,133.4z"/>
<path class="st2" d="M67.3,49.8c-1.6,0.9-3.3,0.3-4.7-0.1c-1.1-0.3-4.2-1.3-5.7-4.5c-0.3-0.7-1-2.5-0.6-4.7c0.2-0.7,0.5-2.4,2-3.7
	c2-1.6,4.4-1.3,4.8-1.2c0.3,0,2,0.3,3.5,1.7c1.4,1.2,1.8,2.7,2.4,4.3c0.6,1.8,1.1,3.4,0.4,5.3C69.4,47.5,68.8,49,67.3,49.8z"/>
<path class="st2" d="M75.9,38.9c-1.8,0.2-3.2-0.9-4.4-1.8c-0.9-0.7-3.4-2.7-3.7-6.1c-0.1-0.8-0.1-2.7,1.1-4.6
	c0.4-0.6,1.3-2.1,3.2-2.8c2.4-0.8,4.5,0.3,5,0.6c0.3,0.2,1.7,1,2.7,2.8c0.9,1.7,0.8,3.2,0.7,4.9c-0.1,1.9-0.2,3.6-1.4,5.1
	C78.6,37.4,77.6,38.7,75.9,38.9z"/>
<path class="st2" d="M88.1,37.1c-1.8-0.6-2.6-2.2-3.2-3.5c-0.5-1-1.9-3.9-0.7-7.1c0.3-0.7,1.1-2.5,3-3.7c0.6-0.4,2.1-1.3,4.1-1.1
	c2.5,0.3,3.9,2.3,4.2,2.7c0.2,0.3,1.1,1.6,1.2,3.7c0.1,1.9-0.7,3.2-1.5,4.7c-0.9,1.7-1.7,3.2-3.5,4C91.2,36.9,89.7,37.6,88.1,37.1z"
	/>
<path class="st2" d="M98.6,46.6c-1.5-1.1-1.8-2.9-2-4.3c-0.2-1.1-0.7-4.3,1.5-7c0.5-0.6,1.8-2,3.9-2.6c0.7-0.2,2.4-0.6,4.2,0.2
	c2.3,1,3.1,3.3,3.2,3.8c0.1,0.3,0.6,1.9,0.1,3.9c-0.5,1.8-1.6,2.8-2.8,4c-1.4,1.3-2.6,2.5-4.6,2.7C101.6,47.4,99.9,47.6,98.6,46.6z"
	/>
<path class="st2" d="M72.4,66.9c-1.8-1.1-2.9-1.8-3.8-3.2c-1.1-1.8-1.1-3.7-1.1-4.9c0-1,0.1-2.7,1-4.3c0.4-0.8,1.2-1.5,2.6-3
	c1.1-1.1,1.4-1.3,2.1-2.2c0.5-0.6,0.9-1.2,1.6-2.3c1.3-2,1.3-2.2,1.8-2.8c1.1-1.2,2.2-1.9,2.8-2.2c0.8-0.5,2.5-1.3,4.7-1.2
	c2.1,0.1,3.5,1,4.3,1.5c1.5,0.9,2.4,2,2.8,2.5c0.8,1,0.8,1.3,1.6,2.1c0.9,0.9,1.6,1.2,2.7,2s2.4,1.6,3.5,2.9c1.7,2.1,2,4.3,2.1,5.2
	c0.2,1.1,0.3,2.3-0.2,3.7c-0.4,1.2-1,1.9-1.8,2.8c-0.7,0.8-1.4,1.7-2.7,2.4c-1.6,0.9-3,1-3.7,1.1c-2.2,0.2-2.4-0.5-5.1-0.5
	c-1.5,0-2.6,0.2-4.2,0.5c-2.2,0.4-2.3,0.6-4.2,0.9c-1.8,0.3-2.9,0.4-4.2,0.1C74.1,67.9,73.4,67.5,72.4,66.9z"/>
<path class="st3" d="M64.6,113.5c1.8,1.7,4.3,1.5,6.2,1.4c1.5-0.1,5.9-0.3,8.8-3.9c0.7-0.8,2.2-2.9,2.3-5.9c0.1-1,0.2-3.3-1.4-5.5
	c-2-2.8-5.3-3.1-5.9-3.2c-0.4-0.1-2.7-0.2-5.1,1c-2.2,1.2-3.3,2.9-4.5,4.8c-1.3,2.2-2.5,4.1-2.3,6.8
	C62.8,109.7,62.9,111.9,64.6,113.5z"/>
<path class="st3" d="M57.1,96.4c2.3,0.9,4.5-0.1,6.3-0.8c1.4-0.6,5.4-2.4,6.9-6.8c0.3-1,1-3.5,0.1-6.4c-0.3-0.9-1-3.2-3.3-4.7
	c-2.9-1.9-6-1.1-6.7-0.9c-0.4,0.1-2.6,0.7-4.4,2.7c-1.7,1.9-2.1,3.9-2.5,6.1c-0.5,2.5-0.9,4.8,0.2,7.2C54,93.5,55,95.5,57.1,96.4z"
	/>
<path class="st3" d="M41.8,90c2.5-0.2,4.1-2,5.3-3.5c1-1.2,3.8-4.5,3.3-9.1c-0.1-1.1-0.6-3.6-2.7-5.8c-0.7-0.7-2.3-2.4-5-2.8
	c-3.4-0.5-5.9,1.6-6.4,2.1c-0.3,0.3-2,1.8-2.8,4.4c-0.7,2.4-0.2,4.4,0.4,6.6c0.6,2.5,1.2,4.7,3.3,6.4C37.7,88.7,39.5,90.1,41.8,90z"
	/>
<path class="st3" d="M24.9,99c2.3-0.9,3.2-3.2,4-4.9c0.6-1.4,2.3-5.4,0.4-9.7c-0.4-1-1.7-3.2-4.3-4.7c-0.9-0.5-2.9-1.6-5.6-1.2
	c-3.4,0.6-5.1,3.4-5.5,3.9c-0.2,0.4-1.4,2.3-1.3,5c0.1,2.5,1.1,4.2,2.4,6.2c1.4,2.2,2.6,4.1,5.1,5.1C20.7,99,22.8,99.8,24.9,99z"/>
<path class="st3" d="M52.4,134.1c2.7-0.8,4.4-1.3,6-2.9c2.1-2,2.6-4.4,3-6c0.3-1.3,0.8-3.5,0.1-6c-0.3-1.1-1-2.3-2.4-4.8
	c-1-1.8-1.4-2.1-2-3.5c-0.4-1-0.8-1.8-1.3-3.6c-1.1-3.1-0.9-3.2-1.4-4.3c-1-2-2.3-3.2-2.9-3.8c-1-0.9-2.8-2.5-5.8-3.1
	c-2.7-0.5-4.9,0.1-6.1,0.5c-2.2,0.7-3.8,1.9-4.5,2.3c-1.4,1-1.5,1.4-2.8,2.2c-1.5,0.9-2.4,1.1-4.2,1.7c-1.7,0.6-3.7,1.3-5.5,2.7
	c-2.9,2.2-4.1,5-4.5,6.1c-0.5,1.3-1.2,2.9-1,4.9c0.1,1.6,0.7,2.8,1.4,4.3c0.6,1.3,1.3,2.7,2.8,4.1c1.7,1.7,3.6,2.3,4.5,2.7
	c2.8,1,3.3,0.2,6.8,1.1c1.9,0.5,3.4,1.1,5.3,2c2.7,1.2,2.8,1.6,5.2,2.6c2.2,0.9,3.6,1.5,5.5,1.5C49.9,134.9,50.8,134.6,52.4,134.1z"
	/>
<g>
	<g>
		<path class="st0" d="M156.9,213v2.3l-6.9,9.4h-3.6l6.7-9.4l1.7,0.5l-11.6,0.1v-2.8L156.9,213z M148.9,210v3.1l-0.1,2.8v2.8h-3.2
			l-0.1-8.6L148.9,210z"/>
	</g>
</g>
<g>
	<g>
		<path class="st0" d="M18.9,26.2v-2.3l6.9-9.3h3.6l-6.8,9.3l-1.7-0.5h11.6v2.8H18.9z M26.8,29.3v-3.1l0.1-2.8v-2.8h3.2v8.6
			L26.8,29.3L26.8,29.3z"/>
	</g>
</g>
</svg>
