<?xml version="1.0" encoding="utf-8"?>
<!-- Generator: Adobe Illustrator 25.4.8, SVG Export Plug-In . SVG Version: 6.00 Build 0)  -->
<svg version="1.1" id="Layer_1" xmlns="http://www.w3.org/2000/svg" xmlns:xlink="http://www.w3.org/1999/xlink" x="0px" y="0px"
	 viewBox="0 0 174 243" style="enable-background:new 0 0 174 243;" xml:space="preserve">
<style type="text/css">
	.st0{fill:#E0B660;}
	.st1{fill:#AC3F8B;}
	.st2{fill:#FFFFFF;}
</style>
<g id="Layer_1_00000157995510322908766240000003032234928709176458_">
	<g>
		<g>
			<path class="st0" d="M52.2,60.69c-0.86,0-1.67-0.14-2.41-0.42s-1.38-0.69-1.93-1.21s-0.97-1.14-1.27-1.84s-0.46-1.48-0.46-2.32
				s0.15-1.62,0.46-2.32c0.3-0.7,0.73-1.32,1.28-1.84s1.19-0.93,1.94-1.21s1.54-0.42,2.41-0.42c0.97,0,1.85,0.17,2.64,0.5
				c0.79,0.34,1.45,0.83,1.98,1.48l-1.68,1.54c-0.37-0.44-0.8-0.77-1.27-0.99s-0.99-0.34-1.54-0.34c-0.52,0-1,0.09-1.44,0.26
				c-0.44,0.18-0.82,0.42-1.14,0.74c-0.32,0.32-0.57,0.7-0.74,1.14c-0.18,0.44-0.26,0.92-0.26,1.46c0,0.53,0.09,1.02,0.26,1.46
				c0.18,0.44,0.42,0.82,0.74,1.14c0.32,0.32,0.7,0.57,1.14,0.74c0.44,0.18,0.92,0.26,1.44,0.26c0.55,0,1.07-0.11,1.54-0.34
				s0.9-0.56,1.27-1l1.68,1.54c-0.53,0.65-1.19,1.15-1.98,1.49C54.06,60.52,53.18,60.69,52.2,60.69z"/>
			<path class="st0" d="M57.09,60.5l4.98-11.2h2.56l5.02,11.2h-2.72l-4.11-9.89h1.04l-4.11,9.89H57.09z M59.6,58.1l0.66-1.97h5.79
				l0.67,1.97H59.6z"/>
			<path class="st0" d="M73.14,60.5v-9.09h-3.58V49.3h9.76v2.11h-3.58v9.09H73.14z"/>
			<path class="st0" d="M87.81,58.42h6.1v2.08h-8.67V49.3h8.46v2.08h-5.89V58.42z M87.62,53.79h5.39v2.03h-5.39V53.79z"/>
			<path class="st0" d="M98.76,60.5v-4.58l0.59,1.57L94.4,49.3h2.77l3.78,6.27h-1.58l3.79-6.27h2.53l-4.91,8.19l0.59-1.57v4.58
				H98.76z"/>
			<path class="st0" d="M109.36,58.42h6.1v2.08h-8.67V49.3h8.46v2.08h-5.89V58.42z M109.17,53.79h5.39v2.03h-5.39V53.79z"/>
			<path class="st0" d="M121.22,60.69c-0.9,0-1.76-0.12-2.58-0.36c-0.83-0.24-1.49-0.55-1.99-0.94l0.88-1.95
				c0.47,0.34,1.03,0.62,1.7,0.84c0.66,0.22,1.33,0.33,2,0.33c0.51,0,0.92-0.05,1.24-0.16s0.55-0.25,0.7-0.42
				c0.15-0.18,0.22-0.38,0.22-0.62c0-0.3-0.12-0.54-0.35-0.71c-0.23-0.18-0.55-0.32-0.94-0.43s-0.81-0.22-1.27-0.32
				s-0.92-0.22-1.38-0.37c-0.46-0.14-0.89-0.34-1.28-0.58s-0.7-0.55-0.93-0.94s-0.34-0.88-0.34-1.46c0-0.64,0.17-1.22,0.51-1.75
				c0.34-0.53,0.86-0.95,1.56-1.26s1.58-0.47,2.63-0.47c0.7,0,1.4,0.09,2.09,0.26c0.69,0.17,1.29,0.42,1.8,0.74l-0.82,1.95
				c-0.5-0.29-1.02-0.5-1.55-0.65s-1.05-0.22-1.54-0.22c-0.51,0-0.92,0.06-1.23,0.17c-0.31,0.11-0.54,0.26-0.68,0.46
				c-0.14,0.19-0.22,0.41-0.22,0.64c0,0.3,0.12,0.54,0.35,0.72c0.24,0.18,0.54,0.32,0.93,0.42c0.38,0.1,0.81,0.2,1.28,0.3
				s0.93,0.23,1.39,0.38s0.88,0.34,1.26,0.57s0.7,0.54,0.94,0.93c0.24,0.39,0.36,0.87,0.36,1.45c0,0.63-0.17,1.21-0.52,1.73
				s-0.87,0.94-1.58,1.26C123.16,60.53,122.28,60.69,121.22,60.69z"/>
		</g>
	</g>
	<path class="st0" d="M102.25,114.76c0.39-1.2,5.59-16.31,21.63-20.84c15.72-4.44,27.88,5.24,28.94,6.11
		c-0.71,1.76-6.25,14.86-21.04,19.5C116.21,124.4,103.64,115.75,102.25,114.76z"/>
	<g>
		<g>
			<path class="st0" d="M118.62,189.84c0.86,0,1.67,0.13,2.41,0.41c0.74,0.28,1.39,0.68,1.93,1.2s0.97,1.13,1.28,1.83
				s0.46,1.48,0.47,2.32c0.01,0.84-0.14,1.62-0.44,2.32c-0.3,0.71-0.72,1.32-1.27,1.85c-0.55,0.53-1.19,0.93-1.93,1.22
				c-0.74,0.29-1.54,0.43-2.41,0.44c-0.97,0-1.85-0.16-2.64-0.49s-1.46-0.82-1.99-1.47l1.67-1.55c0.38,0.43,0.8,0.76,1.28,0.98
				c0.48,0.22,0.99,0.33,1.55,0.33c0.52,0,1-0.09,1.44-0.27c0.44-0.18,0.81-0.43,1.13-0.75s0.56-0.7,0.74-1.14
				c0.17-0.44,0.26-0.92,0.26-1.46c0-0.53-0.09-1.02-0.27-1.46s-0.43-0.81-0.75-1.13s-0.7-0.56-1.14-0.74
				c-0.44-0.17-0.92-0.26-1.44-0.26c-0.55,0-1.07,0.12-1.54,0.35c-0.47,0.23-0.9,0.57-1.27,1.01l-1.69-1.53
				c0.53-0.65,1.19-1.15,1.98-1.5S117.64,189.85,118.62,189.84z"/>
			<path class="st0" d="M113.72,190.06l-4.91,11.23l-2.56,0.02l-5.09-11.17l2.72-0.02l4.17,9.87l-1.04,0.01l4.05-9.91L113.72,190.06
				z M111.22,192.47l-0.64,1.97l-5.79,0.03l-0.68-1.96L111.22,192.47z"/>
			<path class="st0" d="M97.68,190.15l0.05,9.09l3.58-0.02l0.01,2.11l-9.76,0.06l-0.01-2.11l3.58-0.02l-0.05-9.09L97.68,190.15z"/>
			<path class="st0" d="M83.02,192.32l-6.1,0.04l-0.01-2.08l8.67-0.05l0.06,11.2l-8.46,0.05l-0.01-2.08l5.89-0.03L83.02,192.32z
				 M83.24,196.94l-5.39,0.03l-0.01-2.03l5.39-0.03L83.24,196.94z"/>
			<path class="st0" d="M72.06,190.3l0.03,4.58l-0.6-1.56l4.99,8.16l-2.77,0.02l-3.81-6.25l1.58-0.01l-3.76,6.29l-2.53,0.01
				l4.86-8.22l-0.58,1.57l-0.03-4.58L72.06,190.3z"/>
			<path class="st0" d="M61.46,192.44l-6.1,0.04l-0.01-2.08l8.67-0.05l0.06,11.2l-8.46,0.05l-0.01-2.08l5.89-0.03L61.46,192.44z
				 M61.68,197.07l-5.39,0.03l-0.01-2.03l5.39-0.03L61.68,197.07z"/>
			<path class="st0" d="M49.6,190.24c0.9,0,1.76,0.11,2.59,0.34c0.83,0.24,1.49,0.54,2,0.92l-0.87,1.96
				c-0.47-0.34-1.04-0.62-1.7-0.83s-1.33-0.32-2-0.32c-0.51,0-0.92,0.06-1.24,0.17c-0.31,0.11-0.54,0.25-0.69,0.43
				c-0.15,0.18-0.22,0.38-0.22,0.62c0,0.3,0.12,0.54,0.36,0.71c0.24,0.17,0.55,0.32,0.94,0.43c0.39,0.11,0.82,0.21,1.27,0.31
				c0.46,0.1,0.92,0.22,1.39,0.36s0.89,0.33,1.28,0.57s0.7,0.55,0.93,0.94s0.35,0.88,0.35,1.46c0,0.64-0.16,1.22-0.5,1.75
				s-0.86,0.96-1.55,1.27c-0.7,0.32-1.57,0.48-2.63,0.49c-0.7,0-1.4-0.08-2.09-0.24c-0.69-0.17-1.29-0.41-1.8-0.73l0.81-1.96
				c0.5,0.28,1.02,0.5,1.56,0.64c0.53,0.14,1.05,0.21,1.54,0.21c0.51,0,0.92-0.06,1.23-0.17s0.53-0.27,0.68-0.46
				c0.14-0.19,0.21-0.41,0.21-0.64c0-0.3-0.12-0.54-0.36-0.72c-0.24-0.18-0.55-0.32-0.93-0.42c-0.38-0.1-0.81-0.2-1.28-0.3
				c-0.47-0.1-0.93-0.22-1.39-0.37s-0.88-0.33-1.27-0.56c-0.38-0.23-0.7-0.54-0.94-0.92c-0.24-0.39-0.36-0.87-0.37-1.45
				c0-0.63,0.17-1.21,0.51-1.73c0.34-0.53,0.87-0.95,1.57-1.27S48.54,190.25,49.6,190.24z"/>
		</g>
	</g>
	<g>
		<g>
			<path class="st1" d="M151.52,219.54"/>
		</g>
	</g>
</g>
<g id="Layer_2_00000082354926272447243410000012098813531288510641_">
	<path class="st0" d="M69.61,114.76c-0.39-1.2-5.59-16.31-21.63-20.84c-15.72-4.44-27.88,5.24-28.94,6.11
		c0.71,1.76,6.25,14.86,21.04,19.5C55.65,124.4,68.21,115.75,69.61,114.76z"/>
	<path class="st1" d="M123.7,93.92c-4.48,1.27-8.12,3.36-11.04,5.75c-0.47,1.42-0.73,2.93-0.73,4.51c0,7.96,6.45,14.42,14.42,14.42
		c7.96,0,14.42-6.45,14.42-14.42c0-4.54-2.1-8.58-5.37-11.22C131.84,92.56,127.9,92.73,123.7,93.92z"/>
	<path class="st1" d="M59.92,104.17c0-1.58-0.26-3.09-0.73-4.51c-2.92-2.39-6.56-4.48-11.04-5.75c-4.2-1.19-8.14-1.36-11.69-0.97
		c-3.28,2.64-5.37,6.68-5.37,11.22c0,7.96,6.45,14.42,14.42,14.42S59.92,112.13,59.92,104.17z"/>
</g>
<g id="Layer_3">
	<circle class="st2" cx="39.44" cy="100.81" r="6.07"/>
	<circle class="st2" cx="132.42" cy="100.81" r="6.07"/>
	<path class="st0" d="M78.08,133.5h15.67c2.59,0,3.99,3.04,2.31,5.01l-4.52,5.29c-2.86,3.35-8.05,3.35-10.91,0l-4.74-5.54
		C74.29,136.39,75.62,133.5,78.08,133.5z"/>
</g>
<g id="Layer_4">
	<g>
		<path class="st0" d="M78.39,146.52c-3.48-1.17-7.04-2.01-10.64-2.57c-3.6-0.55-7.24-0.84-10.87-0.89
			c-3.64-0.05-7.28,0.18-10.9,0.58c-1.81,0.21-3.61,0.49-5.41,0.84c-1.8,0.32-3.58,0.73-5.36,1.19c3.43-1.33,7.02-2.19,10.66-2.79
			c3.64-0.59,7.33-0.85,11.02-0.82c3.69,0.07,7.38,0.4,10.99,1.13c1.81,0.37,3.6,0.81,5.36,1.35
			C74.99,145.11,76.73,145.73,78.39,146.52z"/>
	</g>
	<g>
		<path class="st0" d="M136.03,148.3c-3.48-1.17-7.04-2.01-10.64-2.57c-3.6-0.55-7.24-0.84-10.87-0.89
			c-3.64-0.05-7.28,0.18-10.9,0.58c-1.81,0.21-3.61,0.49-5.41,0.84c-1.8,0.32-3.58,0.73-5.36,1.19c3.43-1.33,7.02-2.19,10.66-2.79
			c3.64-0.59,7.33-0.85,11.02-0.82c3.69,0.07,7.38,0.4,10.99,1.13c1.81,0.37,3.6,0.81,5.36,1.35
			C132.63,146.89,134.37,147.51,136.03,148.3z"/>
	</g>
	<g>
		<path class="st0" d="M77.45,149.48c-2.49,0.08-4.96,0.36-7.38,0.82c-2.42,0.47-4.81,1.09-7.15,1.86
			c-2.34,0.76-4.62,1.71-6.87,2.74c-1.12,0.52-2.22,1.09-3.3,1.69c-1.1,0.58-2.16,1.22-3.22,1.88c1.87-1.66,3.98-3.04,6.17-4.26
			c2.2-1.21,4.52-2.2,6.9-3c2.39-0.77,4.85-1.37,7.34-1.67c1.25-0.15,2.5-0.25,3.75-0.28C74.95,149.27,76.21,149.31,77.45,149.48z"
			/>
	</g>
	<g>
		<path class="st0" d="M121.13,157.88c-2.13-1.3-4.34-2.41-6.62-3.36c-2.28-0.93-4.62-1.73-7-2.36c-2.38-0.64-4.8-1.1-7.24-1.47
			c-1.22-0.18-2.45-0.31-3.69-0.39c-1.24-0.12-2.48-0.16-3.72-0.19c2.47-0.37,4.99-0.36,7.5-0.18c2.5,0.19,4.99,0.63,7.42,1.27
			c2.42,0.67,4.8,1.51,7.06,2.62c1.13,0.56,2.23,1.16,3.29,1.82C119.16,156.34,120.2,157.05,121.13,157.88z"/>
	</g>
	<g>
		<path class="st0" d="M76.93,147.93c-2.6-0.56-5.23-0.86-7.87-1.01s-5.29-0.14-7.93,0.04c-2.64,0.15-5.27,0.49-7.87,0.94
			c-2.6,0.47-5.19,1.05-7.73,1.83c2.48-0.96,5.05-1.67,7.66-2.21c2.61-0.53,5.26-0.87,7.91-1.06c2.66-0.14,5.33-0.16,7.99,0.07
			C71.74,146.76,74.38,147.2,76.93,147.93z"/>
	</g>
	<g>
		<path class="st0" d="M125.31,152c-2.47-0.99-5.01-1.73-7.59-2.33c-2.58-0.59-5.19-1.03-7.82-1.29c-2.63-0.29-5.27-0.4-7.92-0.4
			c-2.64,0.03-5.29,0.16-7.93,0.5c2.6-0.53,5.26-0.8,7.92-0.89c2.66-0.09,5.33,0.03,7.98,0.28c2.65,0.31,5.28,0.74,7.86,1.42
			C120.39,149.97,122.91,150.84,125.31,152z"/>
	</g>
</g>
</svg>
