<?xml version="1.0" encoding="utf-8"?>
<!-- Generator: Adobe Illustrator 25.4.8, SVG Export Plug-In . SVG Version: 6.00 Build 0)  -->
<svg version="1.1" id="Layer_1" xmlns="http://www.w3.org/2000/svg" xmlns:xlink="http://www.w3.org/1999/xlink" x="0px" y="0px"
	 viewBox="0 0 174 243" style="enable-background:new 0 0 174 243;" xml:space="preserve">
<style type="text/css">
	.st0{fill:#AB3F8A;}
	.st1{opacity:0.75;fill:#AB3F8A;enable-background:new    ;}
	.st2{opacity:0.44;fill:#AB3F8A;enable-background:new    ;}
</style>
<path class="st0" d="M57.1,184.9c-3.4,1-6.5-0.8-8.9-2.1c-1.9-1.1-7.4-4.2-8.9-10.8c-0.3-1.5-0.9-5.2,0.8-9.1
	c0.6-1.3,1.9-4.4,5.4-6.2c4.4-2.3,8.8-0.6,9.7-0.3c0.6,0.2,3.6,1.4,5.9,4.6c2.1,2.9,2.4,5.9,2.7,9.1c0.3,3.6,0.6,6.9-1.3,10.2
	C62,181.2,60.3,184,57.1,184.9z"/>
<path class="st0" d="M77.8,167.7c-3.6-0.3-5.8-3-7.6-5.1c-1.4-1.7-5.4-6.6-4.5-13.2c0.2-1.5,0.9-5.2,4-8.3c1-1,3.4-3.4,7.2-3.9
	c4.9-0.6,8.4,2.5,9.2,3.1c0.5,0.4,2.9,2.6,3.9,6.4c1,3.5,0.2,6.3-0.7,9.5c-1,3.5-1.9,6.7-4.8,9.1C83.7,165.9,81.1,167.9,77.8,167.7z
	"/>
<path class="st0" d="M101.7,169.3c-3.1-1.8-3.9-5.2-4.6-7.9c-0.5-2.1-2.1-8.2,1.6-13.9c0.8-1.3,3.1-4.3,7.1-5.8
	c1.3-0.5,4.5-1.7,8.2-0.4c4.7,1.6,6.5,5.9,6.9,6.8c0.3,0.6,1.5,3.6,0.8,7.4c-0.6,3.6-2.6,5.8-4.7,8.3c-2.4,2.8-4.6,5.3-8.3,6.1
	C107.7,170.2,104.6,171,101.7,169.3z"/>
<path class="st0" d="M117.6,191.7c-2.4-2.6-2.2-6.1-2-8.9c0.2-2.2,0.6-8.5,5.7-12.7c1.2-1,4.2-3.1,8.6-3.3c1.4-0.1,4.8-0.2,7.9,2.1
	c4,2.9,4.4,7.6,4.5,8.6c0.1,0.6,0.3,3.9-1.5,7.3c-1.7,3.2-4.2,4.7-7,6.4c-3.1,1.9-6,3.6-9.8,3.3C123,194.4,119.8,194.1,117.6,191.7z
	"/>
<path class="st0" d="M59.7,219.3c-2.9-2.7-4.8-4.5-5.9-7.5c-1.4-3.9-0.6-7.4,0-9.7c0.4-1.8,1.2-5,3.8-7.8c1.1-1.2,2.8-2.4,6.2-4.6
	c2.5-1.6,3.1-1.9,4.8-3.2c1.2-0.9,2.1-1.9,4-3.8c3.4-3.3,3.3-3.6,4.6-4.6c2.5-1.9,5-2.6,6.2-3c1.8-0.5,5.3-1.4,9.4-0.3
	c3.9,1.1,6.3,3.4,7.5,4.6c2.4,2.3,3.8,4.9,4.3,5.9c1.2,2.2,1,2.7,2.2,4.6c1.3,2.1,2.5,2.9,4.3,4.8c1.8,1.9,3.9,4.1,5.4,7
	c2.3,4.6,2,9.1,1.9,10.8c-0.2,2.1-0.3,4.5-1.9,7c-1.2,2-2.7,3.1-4.6,4.6c-1.6,1.2-3.4,2.6-6.2,3.5c-3.3,1-6.1,0.7-7.5,0.5
	c-4.2-0.5-4.4-1.9-9.4-3c-2.8-0.6-5.1-0.7-8.1-0.8c-4.3-0.2-4.6,0.2-8.3,0c-3.5-0.2-5.6-0.4-8.1-1.6
	C62.4,221.9,61.4,220.9,59.7,219.3z"/>
<path class="st1" d="M98.9,109.3c-2,1.9-4.8,1.7-6.9,1.6c-1.7-0.1-6.6-0.4-9.9-4.4c-0.8-0.9-2.5-3.3-2.6-6.7
	c-0.1-1.1-0.2-3.8,1.6-6.2c2.3-3.1,5.9-3.5,6.7-3.6c0.5-0.1,3-0.3,5.7,1.1c2.5,1.3,3.7,3.2,5.1,5.4c1.5,2.4,2.8,4.6,2.6,7.6
	C101,105.1,100.8,107.6,98.9,109.3z"/>
<path class="st1" d="M107.4,90.1c-2.6,1-5.1-0.1-7.1-1c-1.6-0.7-6.1-2.7-7.7-7.6c-0.4-1.1-1.2-3.9-0.1-7.2c0.3-1.1,1.2-3.6,3.7-5.2
	c3.2-2.1,6.8-1.2,7.5-1c0.5,0.1,2.9,0.8,4.9,3.1c1.9,2.1,2.3,4.3,2.8,6.9c0.5,2.8,1,5.3-0.2,8C110.8,86.9,109.8,89.1,107.4,90.1z"/>
<path class="st1" d="M124.6,83c-2.8-0.2-4.6-2.2-5.9-3.9c-1.1-1.3-4.3-5-3.7-10.2c0.1-1.2,0.7-4,3-6.5c0.8-0.8,2.6-2.7,5.6-3.1
	c3.8-0.5,6.6,1.8,7.2,2.3c0.4,0.3,2.3,2,3.2,4.9c0.8,2.7,0.2,4.9-0.4,7.4c-0.7,2.8-1.4,5.3-3.7,7.2C129.1,81.5,127.2,83.1,124.6,83z
	"/>
<path class="st1" d="M143.5,93c-2.6-1-3.6-3.5-4.5-5.5c-0.7-1.6-2.6-6.1-0.4-10.9c0.5-1.1,1.9-3.7,4.8-5.3c1-0.5,3.3-1.8,6.2-1.3
	c3.8,0.7,5.7,3.8,6.1,4.4c0.3,0.4,1.6,2.6,1.5,5.6c-0.1,2.8-1.3,4.8-2.7,6.9c-1.5,2.4-2.9,4.6-5.7,5.7C148.2,93.1,145.9,94,143.5,93
	z"/>
<path class="st1" d="M112.7,132.5c-3-0.9-4.9-1.5-6.7-3.2c-2.3-2.2-2.9-5-3.4-6.8c-0.3-1.4-0.9-3.9-0.1-6.8c0.4-1.3,1.2-2.6,2.7-5.3
	c1.2-2,1.5-2.4,2.2-3.9c0.5-1.1,0.8-2.1,1.5-4c1.2-3.5,1-3.7,1.6-4.8c1.1-2.2,2.6-3.6,3.3-4.2c1.1-1,3.2-2.8,6.5-3.5
	c3.1-0.6,5.5,0.2,6.8,0.6c2.5,0.8,4.3,2.1,5.1,2.6c1.6,1.1,1.6,1.6,3.1,2.4c1.7,1,2.7,1.2,4.7,1.9c1.9,0.7,4.1,1.5,6.2,3
	c3.2,2.4,4.6,5.6,5.1,6.8c0.6,1.5,1.3,3.2,1.1,5.5c-0.1,1.8-0.8,3.1-1.6,4.8c-0.7,1.4-1.5,3-3.1,4.6c-1.9,1.9-4,2.6-5.1,3
	c-3.1,1.1-3.7,0.2-7.6,1.2c-2.2,0.6-3.8,1.3-5.9,2.2c-3.1,1.4-3.1,1.8-5.8,2.9c-2.5,1.1-4.1,1.7-6.2,1.7
	C115.5,133.3,114.4,133,112.7,132.5z"/>
<path class="st2" d="M50.5,46.2c-1.8,1-3.8,0.4-5.3-0.1c-1.2-0.4-4.7-1.5-6.3-5c-0.4-0.8-1.2-2.8-0.7-5.3c0.2-0.8,0.6-2.7,2.3-4.2
	c2.2-1.8,4.9-1.4,5.4-1.3c0.4,0.1,2.2,0.4,3.9,1.9c1.6,1.4,2.1,3,2.6,4.8c0.6,2,1.2,3.8,0.5,5.9C52.8,43.5,52.2,45.3,50.5,46.2z"/>
<path class="st2" d="M60.1,33.9c-2,0.3-3.6-1-4.9-2c-1-0.8-3.9-3-4.2-6.9c-0.1-0.9-0.1-3,1.2-5.2c0.4-0.7,1.5-2.4,3.6-3.1
	c2.7-0.9,5.1,0.4,5.6,0.7c0.3,0.2,2,1.1,3,3.1c1,1.9,0.9,3.5,0.8,5.5c-0.1,2.1-0.2,4-1.6,5.7C63.2,32.2,62,33.6,60.1,33.9z"/>
<path class="st2" d="M73.8,31.9c-2-0.6-2.9-2.5-3.6-3.9c-0.6-1.1-2.2-4.4-0.8-8c0.3-0.8,1.2-2.8,3.3-4.1c0.7-0.4,2.3-1.5,4.6-1.2
	c2.8,0.3,4.4,2.5,4.7,3c0.2,0.3,1.3,1.9,1.4,4.1c0.1,2.1-0.7,3.6-1.7,5.3c-1,1.9-1.9,3.5-3.9,4.5C77.3,31.7,75.6,32.5,73.8,31.9z"/>
<path class="st2" d="M85.5,42.6c-1.7-1.2-2-3.2-2.2-4.8c-0.2-1.3-0.7-4.9,1.7-7.9c0.6-0.7,2-2.3,4.4-2.9c0.8-0.2,2.7-0.7,4.7,0.2
	c2.6,1.2,3.4,3.8,3.6,4.3c0.1,0.4,0.7,2.2,0.1,4.3c-0.6,2-1.8,3.2-3.2,4.5c-1.5,1.5-2.9,2.8-5.1,3.1C88.9,43.4,87.1,43.7,85.5,42.6z
	"/>
<path class="st2" d="M56.2,65.3c-2-1.2-3.3-2-4.3-3.5c-1.3-2-1.2-4.1-1.2-5.5c0-1.1,0.1-3,1.2-4.9c0.5-0.8,1.3-1.7,2.9-3.3
	c1.2-1.2,1.5-1.4,2.3-2.4c0.5-0.7,1-1.3,1.8-2.6c1.5-2.3,1.4-2.4,2-3.2c1.2-1.4,2.5-2.1,3.1-2.4c1-0.5,2.8-1.4,5.3-1.3
	c2.3,0.1,4,1.1,4.8,1.7c1.6,1,2.7,2.3,3.2,2.8c0.9,1.1,0.9,1.4,1.8,2.3c1,1,1.8,1.3,3,2.2c1.3,0.8,2.7,1.8,3.9,3.3
	c1.9,2.3,2.2,4.9,2.4,5.8c0.2,1.2,0.3,2.6-0.2,4.2c-0.4,1.3-1.1,2.1-2,3.2c-0.8,0.9-1.6,1.9-3.1,2.7c-1.7,1-3.3,1.2-4.2,1.2
	c-2.4,0.2-2.7-0.5-5.7-0.5c-1.7,0-3,0.2-4.7,0.5c-2.4,0.4-2.5,0.7-4.7,1c-2,0.3-3.2,0.5-4.8,0.1C58.1,66.5,57.3,66,56.2,65.3z"/>
<g>
	<g>
		<path class="st0" d="M23.5,30.2c-1,0-2-0.1-3-0.4s-1.8-0.7-2.6-1.2l1.3-2.6c0.6,0.4,1.2,0.7,1.9,1c0.7,0.2,1.5,0.4,2.3,0.4
			c0.9,0,1.5-0.2,2-0.5s0.7-0.8,0.7-1.4s-0.2-1-0.7-1.3c-0.4-0.3-1.1-0.5-2.1-0.5h-1.4v-2.2l4.1-4.7l0.4,1.2h-7.7v-2.7h10.2v2.2
			l-4.1,4.6l-1.7-1h1c1.8,0,3.2,0.4,4.1,1.2c0.9,0.8,1.4,1.8,1.4,3.1c0,0.8-0.2,1.6-0.7,2.4c-0.4,0.7-1.1,1.3-2,1.8
			C26,29.9,24.9,30.2,23.5,30.2z"/>
	</g>
</g>
<g>
	<g>
		<path class="st0" d="M147.2,209.4c1,0,2,0.1,3,0.4c1,0.3,1.9,0.7,2.6,1.2l-1.3,2.6c-0.6-0.4-1.2-0.7-1.9-1s-1.5-0.4-2.3-0.4
			c-0.9,0-1.5,0.2-2,0.5s-0.7,0.8-0.7,1.4c0,0.6,0.2,1,0.7,1.3c0.4,0.3,1.1,0.5,2.1,0.5h1.5v2.2l-4,4.7l-0.4-1.2h7.7v2.7l-10.3,0.1
			v-2.2l4-4.7l1.7,1h-1c-1.8,0-3.2-0.4-4.1-1.2c-0.9-0.8-1.4-1.8-1.4-3.1c0-0.8,0.2-1.6,0.6-2.4s1.1-1.3,2-1.8
			C144.6,209.6,145.7,209.4,147.2,209.4z"/>
	</g>
</g>
</svg>
