<?xml version="1.0" encoding="utf-8"?>
<!-- Generator: Adobe Illustrator 25.4.8, SVG Export Plug-In . SVG Version: 6.00 Build 0)  -->
<svg version="1.1" id="Layer_1" xmlns="http://www.w3.org/2000/svg" xmlns:xlink="http://www.w3.org/1999/xlink" x="0px" y="0px"
	 viewBox="0 0 230 400" style="enable-background:new 0 0 230 400;" xml:space="preserve">
<style type="text/css">
	.st0{opacity:0.24;}
	.st1{fill:#9F9E5A;}
	.st2{opacity:0.24;fill:#9F9E5A;}
	.st3{fill:#7A7675;}
	.st4{fill:#5E4E1F;}
	.st5{fill:#9F9E5A;stroke:#9F9E5A;stroke-miterlimit:10;}
	.st6{fill:#632D91;}
	.st7{fill:#7951A1;}
	.st8{fill:#94286F;}
	.st9{fill:#AE61A7;}
	.st10{opacity:0.33;}
	.st11{opacity:0.33;fill:#9F9E5A;}
	.st12{fill:#E4E3C1;}
	.st13{fill:#DDDBBF;}
</style>
<g class="st0">
	<path class="st1" d="M140.66,77.96c-2.03,0.15-4.14-0.26-6.02-1.14c-1.9-0.87-3.58-2.16-5.02-3.65c-1.44-1.5-2.63-3.23-3.56-5.06
		c-0.94-1.83-1.62-3.78-2.07-5.77c0.82,1.87,1.73,3.67,2.75,5.39c1.04,1.71,2.2,3.33,3.59,4.75c1.37,1.43,2.93,2.68,4.65,3.65
		C136.71,77.08,138.63,77.72,140.66,77.96z"/>
</g>
<g class="st0">
	<path class="st1" d="M121.57,38.22c0.62,1.31,1.3,2.58,2.05,3.78c0.76,1.19,1.6,2.33,2.61,3.28c0.99,0.96,2.12,1.78,3.41,2.25
		c1.28,0.47,2.71,0.65,4.14,0.38c-1.31,0.65-2.91,0.76-4.37,0.36c-1.49-0.37-2.79-1.25-3.87-2.28
		C123.38,43.87,122.09,41.07,121.57,38.22z"/>
</g>
<g class="st0">
	<path class="st1" d="M116.3,65.53c1-0.65,3.02-6.33,3.44-9.06c1.24-8.07,3.97-4.28,3.71-9.62"/>
	<path class="st1" d="M116.3,65.53c0.31-0.29,0.47-0.7,0.66-1.07c0.18-0.38,0.33-0.78,0.47-1.18c0.28-0.8,0.55-1.6,0.78-2.41
		c0.47-1.63,0.92-3.25,1.13-4.91c0.14-0.85,0.3-1.72,0.58-2.56c0.27-0.84,0.66-1.69,1.27-2.39c0.3-0.36,0.67-0.64,0.99-0.9
		c0.32-0.26,0.58-0.5,0.74-0.85c0.35-0.69,0.42-1.57,0.52-2.42c0.15,0.84,0.28,1.72,0.01,2.63c-0.13,0.46-0.45,0.88-0.77,1.18
		c-0.31,0.31-0.58,0.59-0.82,0.9c-0.9,1.26-1.27,2.93-1.59,4.56c-0.29,1.71-0.83,3.37-1.45,4.96c-0.32,0.8-0.66,1.59-1.06,2.35
		C117.36,64.17,117,65,116.3,65.53z"/>
</g>
<g class="st0">
	<path class="st1" d="M121.3,99.53c0.84-2.61,1.44-5.28,1.67-7.97c0.23-2.7,0.08-5.39-0.34-8.07c-0.38-2.68-0.93-5.43-0.81-8.23
		c0.06-1.39,0.25-2.78,0.57-4.13c0.36-1.34,0.82-2.65,1.49-3.86c-0.93,2.58-1.34,5.3-1.29,7.99c0.05,2.69,0.62,5.35,1.03,8.08
		c0.4,2.73,0.53,5.55,0.11,8.3C123.34,94.39,122.53,97.07,121.3,99.53z"/>
</g>
<g class="st0">
	<path class="st1" d="M104.54,12.42c3.87,3.19,7.33,6.89,10.22,11.01c2.87,4.14,5.14,8.69,6.78,13.46c1.65,4.77,2.53,9.81,2.8,14.84
		c0.3,5.04,0.01,10.06,0.19,15.04c0.11,4.98,0.82,9.93,2.32,14.67c1.48,4.74,3.74,9.22,6.53,13.34c2.77,4.14,6.13,7.87,9.81,11.25
		c3.65,3.41,7.66,6.44,11.8,9.26c-8.5-5.26-16.44-11.77-22.24-20.07c-2.93-4.11-5.22-8.69-6.76-13.5
		c-1.55-4.81-2.31-9.88-2.45-14.92c-0.16-5.04,0.17-10.05-0.1-15.02c-0.22-4.98-1.11-9.9-2.62-14.65
		C117.79,27.64,112.04,19.07,104.54,12.42z"/>
</g>
<path class="st2" d="M138.09,100.66c-1.06,1.59,9.87,1,15.38,5.38c10.8,8.6,18.9,28.87,18.9,28.87s-9.98-1.45-13-3.2
	c-9.78-5.66-15.15-14.88-16.3-16.93C141.43,111.88,138.09,100.66,138.09,100.66z"/>
<path class="st2" d="M134,75.7c-0.27,1.41,5.34-3.48,9.01-3.07c7.19,0.79,15.04,9.86,15.04,9.86s-5.48,3.25-7.37,3.43
	c-6.13,0.59-10.58-2.84-11.55-3.62C137.75,81.2,134,75.7,134,75.7z"/>
<path class="st2" d="M123.53,91.38c-0.82-0.93,1.58,8.8,0.99,13.72c-1.15,9.67-7.32,16.99-7.32,16.99s-1.43-8.89-1.35-11.6
	c0.23-8.74,2.7-13.57,3.25-14.61C119.89,94.42,123.53,91.38,123.53,91.38z"/>
<path class="st2" d="M129.05,47.5c-0.18,0.95,3.59-2.34,6.05-2.06c4.82,0.53,10.09,6.62,10.09,6.62s-3.68,2.18-4.95,2.3
	c-4.11,0.39-7.1-1.91-7.75-2.43C131.57,51.19,129.05,47.5,129.05,47.5z"/>
<path class="st2" d="M118.58,61.22c-0.29-1.01-1.33,5.63-3.05,7.86c-3.37,4.38-9.44,4.39-9.44,4.39s1.45-5.59,2.23-6.97
	c2.51-4.47,5.45-5.47,6.1-5.67C115.34,60.54,118.58,61.22,118.58,61.22z"/>
<g class="st0">
	<path class="st3" d="M140.2,78.6c-2.04,0.11-4.11-0.35-5.98-1.23c-1.88-0.87-3.54-2.17-4.98-3.64c-1.44-1.49-2.62-3.2-3.56-5.03
		c-0.94-1.82-1.68-3.74-2.16-5.72c0.78,1.88,1.64,3.71,2.67,5.44c1.03,1.72,2.19,3.36,3.59,4.79c1.38,1.44,2.95,2.69,4.7,3.65
		C136.23,77.8,138.18,78.4,140.2,78.6z"/>
</g>
<g class="st0">
	<path class="st3" d="M121.11,38.85c0.59,1.33,1.21,2.62,1.96,3.83c0.76,1.2,1.59,2.36,2.61,3.32c1,0.98,2.15,1.79,3.46,2.26
		c1.3,0.47,2.76,0.59,4.17,0.28c-1.33,0.61-2.9,0.66-4.34,0.27c-1.46-0.38-2.75-1.25-3.81-2.28c-1.07-1.04-1.92-2.26-2.58-3.57
		C121.91,41.65,121.41,40.27,121.11,38.85z"/>
</g>
<g class="st0">
	<path class="st3" d="M115.84,66.16c0.32-0.28,0.49-0.69,0.68-1.06c0.18-0.38,0.34-0.77,0.49-1.17c0.29-0.79,0.57-1.59,0.83-2.4
		c0.49-1.63,0.94-3.25,1.16-4.92c0.14-0.85,0.3-1.71,0.58-2.54c0.27-0.83,0.64-1.67,1.24-2.36c0.6-0.72,1.42-1.06,1.72-1.79
		c0.34-0.72,0.38-1.6,0.45-2.45c0.12,0.84,0.23,1.72-0.06,2.6c-0.14,0.44-0.46,0.83-0.77,1.14c-0.31,0.31-0.59,0.59-0.84,0.9
		c-0.94,1.29-1.3,2.97-1.62,4.61c-0.28,1.7-0.81,3.36-1.42,4.95c-0.31,0.8-0.63,1.6-1.02,2.36
		C116.87,64.79,116.53,65.63,115.84,66.16z"/>
</g>
<g class="st0">
	<path class="st3" d="M120.85,100.16c0.89-2.59,1.51-5.26,1.76-7.96c0.26-2.7,0.13-5.42-0.31-8.1c-0.36-2.69-0.93-5.42-0.83-8.21
		c0.09-2.77,0.69-5.54,1.96-7.98c-0.98,2.56-1.41,5.29-1.39,7.99c0.02,2.71,0.57,5.38,1,8.1c0.38,2.73,0.53,5.53,0.14,8.27
		C122.81,95.01,122.03,97.68,120.85,100.16z"/>
</g>
<g class="st0">
	<path class="st3" d="M104.08,13.05c3.83,3.23,7.3,6.92,10.17,11.05c2.86,4.14,5.12,8.69,6.74,13.46c1.63,4.77,2.51,9.79,2.78,14.81
		c0.29,5.03,0,10.05,0.18,15.04c0.11,4.98,0.83,9.95,2.33,14.7c1.49,4.75,3.76,9.24,6.56,13.36c2.79,4.14,6.16,7.87,9.84,11.25
		c3.67,3.4,7.67,6.44,11.84,9.21c-8.46-5.32-16.4-11.82-22.16-20.13c-2.91-4.11-5.2-8.68-6.74-13.48c-1.55-4.8-2.3-9.86-2.43-14.88
		c-0.16-5.03,0.16-10.04-0.11-15.03c-0.23-4.98-1.11-9.92-2.64-14.67C117.4,28.24,111.64,19.65,104.08,13.05z"/>
</g>
<g class="st0">
	<path class="st3" d="M137.63,101.29c-0.06,0.12-0.1,0.26,0,0.37c0.08,0.1,0.2,0.17,0.32,0.23c0.25,0.11,0.5,0.18,0.76,0.24
		c0.52,0.13,1.05,0.21,1.58,0.3l3.18,0.52c2.12,0.38,4.23,0.84,6.25,1.65c1.01,0.4,1.98,0.9,2.89,1.51c0.9,0.64,1.66,1.39,2.5,2.08
		c0.76,0.77,1.54,1.52,2.27,2.32c0.69,0.83,1.45,1.6,2.1,2.47c2.7,3.37,5,7.04,7.11,10.79c2.1,3.77,4,7.63,5.67,11.62l0.25,0.61
		l-0.66-0.1c-2.16-0.33-4.3-0.72-6.44-1.18c-2.13-0.49-4.27-0.95-6.32-1.91c-3.85-2.17-7.25-5-10.18-8.26
		c-1.47-1.62-2.82-3.34-4.06-5.14c-0.62-0.9-1.21-1.82-1.77-2.76c-0.57-0.93-1.08-1.92-1.47-2.94
		C140.07,109.65,138.85,105.47,137.63,101.29z M137.63,101.29c1.33,4.14,2.67,8.29,4.33,12.29c0.81,2,2.06,3.79,3.29,5.57
		c1.26,1.76,2.63,3.44,4.1,5.02c1.48,1.58,3.05,3.06,4.72,4.43c1.68,1.34,3.48,2.58,5.34,3.61c1.9,0.88,4.06,1.34,6.16,1.82
		c2.12,0.45,4.26,0.82,6.4,1.14l-0.4,0.51c-1.63-3.95-3.5-7.82-5.57-11.57c-2.07-3.75-4.37-7.38-6.97-10.77
		c-0.62-0.87-1.36-1.65-2.03-2.48c-0.7-0.8-1.46-1.55-2.2-2.32c-0.81-0.69-1.57-1.46-2.42-2.08c-0.86-0.61-1.81-1.1-2.78-1.52
		c-1.96-0.84-4.05-1.37-6.15-1.8l-3.16-0.61c-0.53-0.1-1.06-0.21-1.58-0.35c-0.26-0.07-0.52-0.15-0.76-0.27
		c-0.12-0.06-0.24-0.13-0.32-0.24C137.53,101.56,137.57,101.4,137.63,101.29z"/>
</g>
<g class="st0">
	<path class="st3" d="M133.54,76.34c-0.01,0.07-0.01,0.15,0.04,0.2c0.05,0.05,0.13,0.04,0.2,0.03c0.14-0.03,0.28-0.09,0.41-0.15
		c0.26-0.13,0.52-0.27,0.77-0.42l1.52-0.89c1.02-0.59,2.07-1.15,3.19-1.57c1.1-0.41,2.38-0.69,3.56-0.39
		c1.2,0.16,2.33,0.59,3.43,1.04c2.19,0.97,4.16,2.34,6.02,3.81c1.85,1.49,3.57,3.11,5.18,4.88l0.31,0.34l-0.4,0.23
		c-2.11,1.2-4.21,2.39-6.55,3.22c-0.3,0.09-0.61,0.18-0.95,0.22l-0.93,0.05c-0.61,0.01-1.23,0.01-1.85-0.06
		c-1.23-0.11-2.44-0.37-3.6-0.78c-1.16-0.4-2.27-0.93-3.32-1.56c-1.03-0.65-2.08-1.32-2.86-2.29
		C136.2,80.36,134.85,78.36,133.54,76.34z M133.54,76.34c1.45,1.93,2.86,3.89,4.47,5.67c0.77,0.89,1.8,1.52,2.82,2.12
		c1.04,0.58,2.13,1.07,3.26,1.42c1.13,0.35,2.3,0.58,3.47,0.68c0.59,0.06,1.18,0.05,1.77,0.04l0.88-0.06
		c0.26-0.04,0.53-0.11,0.81-0.2c2.2-0.8,4.32-2.03,6.38-3.21l-0.09,0.56c-1.54-1.73-3.24-3.37-5.04-4.84
		c-1.81-1.47-3.74-2.8-5.83-3.82c-1.06-0.46-2.14-0.91-3.28-1.1c-1.12-0.31-2.26-0.09-3.36,0.27c-1.1,0.36-2.17,0.86-3.21,1.4
		l-1.57,0.82c-0.26,0.13-0.53,0.26-0.8,0.37c-0.14,0.05-0.28,0.1-0.43,0.13c-0.07,0-0.16,0.02-0.21-0.05
		C133.52,76.49,133.53,76.4,133.54,76.34z"/>
</g>
<g class="st0">
	<path class="st3" d="M123.07,92.01c-0.03-0.03-0.06-0.07-0.1-0.06c-0.04,0.02-0.04,0.07-0.05,0.11c-0.01,0.08-0.01,0.17-0.01,0.25
		c0.01,0.17,0.03,0.34,0.05,0.51l0.15,1.01l0.34,2.02c0.23,1.34,0.45,2.69,0.63,4.05c0.17,1.36,0.29,2.72,0.31,4.1
		c0.03,1.39-0.19,2.76-0.44,4.11c-0.52,2.7-1.43,5.33-2.61,7.81c-1.19,2.49-2.59,4.85-4.31,7.04l-0.52,0.67l-0.13-0.85
		c-0.42-2.73-0.8-5.47-1.1-8.22c-0.13-1.37-0.29-2.78-0.18-4.18c0.05-1.39,0.19-2.77,0.39-4.15c0.41-2.75,1.08-5.47,2.16-8.03
		c0.28-0.64,0.58-1.26,0.94-1.87c0.39-0.6,0.88-1.1,1.37-1.59C120.95,93.78,122,92.88,123.07,92.01z M123.07,92.01
		c-1.03,0.92-2.04,1.86-2.98,2.87c-0.46,0.5-0.93,1.03-1.26,1.6c-0.32,0.59-0.59,1.23-0.84,1.87c-1,2.55-1.6,5.25-1.93,7.97
		c-0.16,1.36-0.27,2.73-0.32,4.1c-0.09,1.36,0.07,2.71,0.21,4.08c0.31,2.73,0.72,5.46,1.15,8.18l-0.65-0.18
		c1.67-2.09,3.09-4.43,4.27-6.85c1.19-2.43,2.07-5,2.66-7.63c0.27-1.32,0.53-2.65,0.53-4c0.02-1.35-0.08-2.71-0.2-4.06
		c-0.12-1.36-0.28-2.71-0.45-4.06l-0.25-2.03l-0.1-1.02c-0.01-0.17-0.02-0.34-0.03-0.51c0-0.09,0-0.17,0.02-0.26
		c0.01-0.04,0.02-0.09,0.06-0.11C123.01,91.94,123.05,91.98,123.07,92.01z"/>
</g>
<g class="st0">
	<path class="st3" d="M128.59,48.13c-0.03,0.11,0.06,0.19,0.16,0.15c0.09-0.02,0.18-0.06,0.27-0.1c0.18-0.09,0.35-0.19,0.51-0.29
		l1.02-0.61c0.68-0.4,1.38-0.79,2.13-1.08c0.74-0.29,1.62-0.48,2.42-0.28c0.81,0.1,1.58,0.39,2.33,0.69
		c1.49,0.64,2.82,1.57,4.07,2.56c1.25,1,2.41,2.09,3.5,3.28l0.31,0.34l-0.4,0.23c-1.43,0.81-2.83,1.6-4.43,2.16
		c-0.21,0.06-0.42,0.12-0.66,0.15l-0.63,0.03c-0.42,0.01-0.84,0.01-1.25-0.04c-0.83-0.07-1.65-0.26-2.43-0.54
		c-0.78-0.28-1.53-0.64-2.24-1.07c-0.69-0.44-1.4-0.9-1.93-1.56C130.34,50.86,129.45,49.51,128.59,48.13z M128.59,48.13
		c0.99,1.28,1.96,2.59,3.04,3.76c0.51,0.59,1.2,1,1.89,1.4c0.69,0.38,1.42,0.7,2.18,0.93c0.75,0.23,1.53,0.38,2.31,0.44
		c0.39,0.04,0.78,0.03,1.17,0.02l0.58-0.04c0.16-0.02,0.34-0.07,0.52-0.13c1.46-0.53,2.88-1.36,4.26-2.15l-0.09,0.56
		c-1.03-1.15-2.16-2.26-3.36-3.24c-1.21-0.99-2.5-1.88-3.88-2.57c-1.4-0.62-2.93-1.18-4.4-0.58c-0.74,0.23-1.46,0.56-2.16,0.91
		l-1.06,0.54c-0.18,0.09-0.36,0.17-0.54,0.24c-0.09,0.04-0.19,0.07-0.29,0.08C128.64,48.35,128.54,48.23,128.59,48.13z"/>
</g>
<g class="st0">
	<path class="st3" d="M118.12,61.86c-0.02-0.04-0.04-0.11-0.09-0.09c-0.04,0.02-0.06,0.07-0.08,0.12c-0.04,0.09-0.07,0.19-0.1,0.28
		l-0.15,0.59l-0.29,1.18c-0.19,0.79-0.38,1.58-0.6,2.36c-0.23,0.78-0.49,1.56-0.82,2.31c-0.17,0.38-0.35,0.75-0.59,1.11
		c-0.25,0.35-0.52,0.65-0.78,0.98c-1.14,1.22-2.58,2.14-4.12,2.75c-1.55,0.61-3.16,0.97-4.85,1.04l-0.49,0.02l0.13-0.49
		c0.43-1.62,0.9-3.23,1.43-4.83c0.28-0.79,0.52-1.6,0.98-2.38c0.42-0.74,0.91-1.44,1.45-2.09c1.09-1.3,2.42-2.45,3.99-3.13
		c0.39-0.15,0.8-0.33,1.26-0.33c0.43,0,0.85,0.04,1.27,0.1C116.49,61.48,117.31,61.65,118.12,61.86z M118.12,61.86
		c-0.83-0.12-1.66-0.23-2.48-0.3c-0.41-0.03-0.83-0.05-1.23-0.02c-0.38,0.02-0.75,0.21-1.12,0.38c-1.47,0.71-2.7,1.86-3.69,3.16
		c-0.49,0.66-0.94,1.34-1.35,2.05c-0.39,0.67-0.63,1.48-0.89,2.26c-0.5,1.58-0.93,3.19-1.36,4.8l-0.36-0.47
		c1.54-0.05,3.14-0.37,4.61-0.93c1.48-0.55,2.83-1.42,3.96-2.51c1.17-1.07,1.72-2.6,2.26-4.12c0.27-0.76,0.52-1.53,0.76-2.3
		l0.37-1.16l0.21-0.57c0.04-0.09,0.08-0.19,0.13-0.28c0.03-0.04,0.05-0.09,0.1-0.12C118.09,61.73,118.11,61.82,118.12,61.86z"/>
</g>
<g class="st0">
	<path class="st1" d="M132.34,188.99c-1.2,0.53-2.51,0.85-3.84,0.89c-1.34,0.06-2.69-0.17-3.96-0.62c-1.26-0.46-2.46-1.19-3.41-2.14
		c-0.96-0.94-1.7-2.08-2.17-3.3c1.62,2.05,3.56,3.69,5.92,4.51C127.2,189.19,129.74,189.3,132.34,188.99z"/>
</g>
<g class="st0">
	<path class="st1" d="M116.39,170.56c1.26,1.45,2.7,2.58,4.39,3.03c1.68,0.5,3.51,0.29,5.34-0.24c-1.47,1.25-3.64,1.77-5.62,1.2
		c-0.98-0.29-1.89-0.8-2.59-1.51C117.2,172.34,116.66,171.48,116.39,170.56z"/>
</g>
<g class="st0">
	<path class="st1" d="M113.1,187.37c0.76-0.6,2.16-4.3,2.4-5.96c0.73-4.89,2.95-3.35,2.59-6.34"/>
	<path class="st1" d="M113.1,187.37c0.35-0.45,0.52-0.99,0.72-1.51c0.19-0.53,0.37-1.06,0.52-1.6c0.31-1.08,0.62-2.13,0.74-3.23
		c0.18-1.14,0.49-2.38,1.36-3.32c0.42-0.47,0.92-0.77,1.2-1.13c0.3-0.37,0.38-0.95,0.45-1.52c0.18,0.54,0.32,1.16,0.05,1.79
		c-0.28,0.63-0.75,0.98-1.02,1.41c-0.58,0.83-0.88,1.86-1.09,2.93c-0.22,1.14-0.61,2.25-1.07,3.29c-0.24,0.52-0.49,1.04-0.79,1.53
		C113.87,186.51,113.57,187.03,113.1,187.37z"/>
</g>
<g class="st0">
	<path class="st1" d="M117.97,205.69c0.46-1.57,0.81-3.16,0.94-4.74c0.12-1.59-0.03-3.14-0.45-4.67c-0.39-1.53-0.96-3.17-0.88-4.89
		c0.04-1.7,0.58-3.35,1.46-4.73c-0.53,1.55-0.76,3.16-0.68,4.72c0.08,1.57,0.64,3.04,1.07,4.66c0.43,1.61,0.55,3.37,0.25,5.02
		C119.41,202.71,118.79,204.27,117.97,205.69z"/>
</g>
<g class="st0">
	<path class="st1" d="M102.44,159.64c2.8,0.82,5.5,2.03,7.93,3.7c2.41,1.69,4.5,3.88,6.02,6.44c1.53,2.55,2.39,5.5,2.69,8.43
		c0.34,2.94,0.26,5.87,0.6,8.72c0.17,1.42,0.44,2.82,0.86,4.18c0.45,1.35,1.03,2.65,1.8,3.85c1.5,2.42,3.64,4.4,6.02,6
		c2.38,1.61,5.03,2.83,7.76,3.8c2.73,1,5.55,1.71,8.4,2.35c-5.75-0.87-11.55-2.35-16.58-5.51c-2.52-1.55-4.75-3.64-6.37-6.16
		c-0.82-1.25-1.45-2.62-1.94-4.04c-0.46-1.43-0.76-2.89-0.94-4.36c-0.32-2.95-0.21-5.88-0.51-8.74c-0.26-2.86-1.09-5.64-2.45-8.15
		c-1.38-2.51-3.34-4.69-5.64-6.43C107.8,161.97,105.16,160.67,102.44,159.64z"/>
</g>
<path class="st2" d="M131.01,202.55c-0.78,1.15,7.68-1.66,12.08-0.39c8.62,2.48,15.49,12.25,15.49,12.25s-7.77,1.42-10.17,1.1
	c-7.74-1.03-12.17-5.09-13.13-6.01C133.92,208.22,131.01,202.55,131.01,202.55z"/>
<path class="st2" d="M127.11,189.19c-0.17,0.87,4.04-3.2,6.89-3.79c5.59-1.17,11.94,2.25,11.94,2.25s-4.15,3.09-5.61,3.63
	c-4.73,1.72-8.28,0.76-9.05,0.53C130.18,191.49,127.11,189.19,127.11,189.19z"/>
<path class="st2" d="M119.46,200.52c-0.66-0.35,1.48,4.68,1.17,7.63c-0.61,5.79-5.17,11.37-5.17,11.37s-1.36-4.77-1.39-6.33
	c-0.08-5.05,1.69-8.37,2.1-9.09C116.72,203.08,119.46,200.52,119.46,200.52z"/>
<path class="st2" d="M122.45,174.18c-0.11,0.58,2.71-2.15,4.62-2.54c3.75-0.78,8.01,1.51,8.01,1.51s-2.79,2.08-3.77,2.43
	c-3.18,1.15-5.56,0.51-6.08,0.36C124.51,175.72,122.45,174.18,122.45,174.18z"/>
<path class="st2" d="M114.74,184.39c-0.25-0.51-0.86,3.52-2.13,5.19c-2.49,3.27-7.18,4.64-7.18,4.64s0.96-3.52,1.52-4.49
	c1.81-3.12,4.06-4.36,4.56-4.62C112.21,184.73,114.74,184.39,114.74,184.39z"/>
<g class="st0">
	<path class="st3" d="M132,189.45c-1.21,0.49-2.52,0.75-3.84,0.79c-1.33,0.05-2.67-0.19-3.92-0.64c-1.25-0.46-2.43-1.17-3.38-2.1
		c-0.96-0.92-1.73-2.02-2.23-3.23c0.77,1.05,1.63,2,2.61,2.79c0.99,0.79,2.07,1.41,3.26,1.83c1.17,0.44,2.41,0.68,3.67,0.77
		C129.43,189.75,130.71,189.65,132,189.45z"/>
</g>
<g class="st0">
	<path class="st3" d="M116.05,171.02c1.17,1.5,2.63,2.69,4.36,3.15c1.72,0.5,3.59,0.26,5.38-0.36c-1.51,1.16-3.65,1.64-5.58,1.08
		c-0.96-0.28-1.86-0.78-2.57-1.46C116.92,172.76,116.38,171.92,116.05,171.02z"/>
</g>
<g class="st0">
	<path class="st3" d="M112.76,187.84c0.67-0.91,0.95-2.03,1.32-3.08c0.33-1.07,0.65-2.14,0.78-3.24c0.18-1.13,0.5-2.34,1.32-3.27
		c0.4-0.46,0.9-0.77,1.18-1.17c0.31-0.4,0.35-0.99,0.39-1.55c0.14,0.54,0.26,1.16-0.02,1.76c-0.28,0.6-0.75,0.94-1.05,1.38
		c-0.62,0.84-0.91,1.9-1.12,2.98c-0.2,1.14-0.59,2.24-1.03,3.29c-0.23,0.52-0.47,1.04-0.76,1.54
		C113.5,186.95,113.22,187.48,112.76,187.84z"/>
</g>
<g class="st0">
	<path class="st3" d="M117.63,206.16c0.5-1.56,0.91-3.13,1.04-4.72c0.14-1.6,0-3.18-0.43-4.72c-0.39-1.54-0.97-3.16-0.9-4.86
		c0.04-1.68,0.51-3.33,1.36-4.73c-0.56,1.53-0.86,3.14-0.78,4.72c0.07,1.58,0.62,3.08,1.05,4.69c0.42,1.6,0.56,3.33,0.27,4.97
		C118.98,203.15,118.42,204.72,117.63,206.16z"/>
</g>
<g class="st0">
	<path class="st3" d="M102.1,160.11c2.78,0.87,5.48,2.07,7.9,3.75c2.4,1.7,4.47,3.88,5.97,6.44c1.51,2.55,2.36,5.47,2.66,8.4
		c0.33,2.93,0.26,5.86,0.59,8.72c0.17,1.43,0.45,2.84,0.87,4.2c0.45,1.35,1.04,2.67,1.81,3.87c1.52,2.43,3.67,4.42,6.06,6.02
		c2.4,1.6,5.06,2.82,7.8,3.77c2.74,0.98,5.56,1.7,8.42,2.3c-2.88-0.47-5.74-1.08-8.54-1.95c-2.79-0.89-5.5-2.06-8-3.64
		c-2.5-1.55-4.72-3.63-6.32-6.14c-0.81-1.25-1.44-2.61-1.92-4.01c-0.45-1.42-0.75-2.87-0.93-4.34c-0.32-2.94-0.22-5.86-0.52-8.73
		c-0.26-2.87-1.1-5.67-2.48-8.19C112.67,165.5,107.58,162.02,102.1,160.11z"/>
</g>
<g class="st0">
	<path class="st3" d="M130.67,203.01c-0.04,0.07-0.07,0.17,0.01,0.22c0.08,0.04,0.16,0.04,0.24,0.05c0.17,0,0.34-0.01,0.5-0.03
		c0.34-0.04,0.67-0.09,1-0.15l2-0.37c1.33-0.24,2.67-0.46,4.03-0.58c1.36-0.1,2.74-0.13,4.11,0.18c0.67,0.18,1.31,0.41,1.96,0.63
		c0.62,0.29,1.27,0.51,1.87,0.85c2.45,1.25,4.65,2.91,6.65,4.76c2,1.86,3.85,3.87,5.48,6.08l0.35,0.48l-0.59,0.1
		c-2.73,0.47-5.46,0.89-8.24,1.08c-0.7,0.03-1.4,0.07-2.13-0.03c-0.69-0.12-1.38-0.21-2.06-0.38c-1.36-0.3-2.71-0.71-3.99-1.25
		c-2.57-1.07-4.98-2.56-7-4.49c-0.98-1.06-1.6-2.29-2.3-3.48C131.92,205.48,131.28,204.25,130.67,203.01z M130.67,203.01
		c0.66,1.21,1.35,2.4,2.07,3.58c0.74,1.15,1.44,2.38,2.39,3.31c2.02,1.84,4.42,3.24,6.96,4.22c1.27,0.49,2.58,0.87,3.91,1.16
		c0.66,0.16,1.34,0.25,2.01,0.35c0.64,0.09,1.32,0.05,2,0.01c2.72-0.2,5.45-0.66,8.15-1.14l-0.24,0.58
		c-1.56-2.16-3.38-4.17-5.33-6.01c-1.95-1.84-4.11-3.46-6.45-4.75c-0.58-0.34-1.2-0.58-1.8-0.87c-0.62-0.23-1.25-0.47-1.88-0.66
		c-1.27-0.33-2.63-0.33-3.97-0.28c-1.34,0.06-2.69,0.22-4.03,0.4l-2.01,0.28c-0.34,0.04-0.67,0.08-1.01,0.11
		c-0.17,0.01-0.34,0.02-0.51,0.01c-0.08-0.01-0.17-0.02-0.25-0.06C130.59,203.19,130.63,203.08,130.67,203.01z"/>
</g>
<g class="st0">
	<path class="st3" d="M126.78,189.66c-0.04,0.15,0.13,0.12,0.21,0.07c0.09-0.05,0.18-0.1,0.27-0.16c0.18-0.12,0.34-0.25,0.51-0.38
		l1.01-0.78c0.68-0.52,1.36-1.03,2.09-1.5c0.73-0.46,1.48-0.88,2.33-1.16c0.86-0.25,1.71-0.34,2.59-0.4
		c1.74-0.08,3.47,0.2,5.14,0.62c1.67,0.45,3.29,1.03,4.85,1.82l0.54,0.27l-0.49,0.36c-1.41,1.03-2.83,2.03-4.35,2.94
		c-0.38,0.23-0.76,0.44-1.19,0.63c-0.44,0.17-0.84,0.29-1.27,0.42c-0.85,0.25-1.72,0.41-2.6,0.51c-1.76,0.19-3.55,0.1-5.26-0.38
		c-0.89-0.26-1.59-0.81-2.31-1.29C128.14,190.74,127.45,190.21,126.78,189.66z M126.78,189.66c0.72,0.48,1.45,0.96,2.19,1.41
		c0.74,0.43,1.49,0.93,2.29,1.1c1.66,0.39,3.4,0.41,5.09,0.16c0.84-0.13,1.68-0.31,2.49-0.56c0.4-0.12,0.83-0.26,1.2-0.41
		c0.36-0.16,0.74-0.38,1.1-0.6c1.46-0.9,2.86-1.92,4.25-2.95l0.05,0.63c-1.47-0.76-3.07-1.36-4.68-1.82
		c-1.62-0.44-3.29-0.7-4.95-0.71c-0.83,0.03-1.68,0.09-2.47,0.28c-0.79,0.22-1.54,0.61-2.27,1.03c-0.74,0.41-1.45,0.87-2.16,1.34
		l-1.06,0.71c-0.18,0.11-0.36,0.23-0.55,0.33c-0.09,0.05-0.19,0.1-0.29,0.14c-0.05,0.02-0.1,0.03-0.16,0.04
		C126.77,189.79,126.77,189.71,126.78,189.66z"/>
</g>
<g class="st0">
	<path class="st3" d="M119.12,200.99c-0.14-0.06-0.12,0.13-0.11,0.21c0.02,0.1,0.04,0.21,0.06,0.31c0.05,0.21,0.11,0.41,0.17,0.62
		l0.37,1.23c0.25,0.82,0.48,1.65,0.66,2.49c0.17,0.85,0.3,1.71,0.26,2.6c-0.03,0.44-0.1,0.87-0.15,1.3
		c-0.09,0.42-0.16,0.86-0.27,1.28c-0.42,1.69-1.11,3.29-1.91,4.83c-0.82,1.53-1.73,2.99-2.8,4.37l-0.45,0.58l-0.2-0.72
		c-0.46-1.68-0.89-3.36-1.21-5.09c-0.07-0.44-0.15-0.87-0.15-1.34c0.01-0.44,0-0.88,0.03-1.32c0.04-0.88,0.15-1.76,0.33-2.62
		c0.35-1.72,0.91-3.41,1.75-4.95c0.44-0.8,1.09-1.4,1.7-2.01C117.82,202.14,118.46,201.56,119.12,200.99z M119.12,200.99
		c-0.6,0.63-1.19,1.26-1.77,1.9c-0.56,0.65-1.17,1.29-1.51,2.05c-0.75,1.54-1.24,3.2-1.51,4.88c-0.13,0.84-0.22,1.69-0.25,2.55
		c-0.03,0.43-0.01,0.85-0.02,1.28c0.01,0.39,0.09,0.82,0.16,1.23c0.32,1.68,0.79,3.35,1.25,5.01l-0.65-0.13
		c2.07-2.64,3.76-5.66,4.74-8.88c0.12-0.4,0.21-0.81,0.31-1.22c0.06-0.41,0.15-0.83,0.2-1.24c0.07-0.82-0.02-1.67-0.15-2.5
		c-0.12-0.84-0.3-1.67-0.49-2.51l-0.29-1.25c-0.04-0.21-0.09-0.42-0.12-0.63c-0.02-0.11-0.03-0.21-0.04-0.32
		C118.97,201.12,118.99,200.91,119.12,200.99z"/>
</g>
<g class="st0">
	<path class="st3" d="M122.12,174.64c-0.02,0.1,0.09,0.08,0.14,0.04c0.06-0.03,0.12-0.07,0.18-0.11l0.34-0.26l0.67-0.53
		c0.45-0.36,0.91-0.71,1.39-1.03c0.49-0.32,1-0.61,1.57-0.8c0.59-0.18,1.16-0.24,1.76-0.29c1.18-0.07,2.35,0.12,3.48,0.4
		c1.13,0.3,2.22,0.69,3.29,1.22l0.54,0.27l-0.49,0.36c-0.95,0.69-1.91,1.36-2.93,1.97c-0.26,0.15-0.52,0.3-0.82,0.43
		c-0.3,0.12-0.57,0.2-0.87,0.28c-0.57,0.17-1.17,0.28-1.76,0.33c-1.19,0.11-2.4,0.04-3.56-0.29c-0.61-0.19-1.07-0.57-1.55-0.9
		C123.02,175.39,122.56,175.02,122.12,174.64z M122.12,174.64c0.49,0.31,0.99,0.62,1.49,0.92c0.5,0.28,1.01,0.61,1.54,0.71
		c1.11,0.25,2.27,0.25,3.39,0.07c1.1-0.22,2.26-0.44,3.17-1.05c0.97-0.6,1.91-1.29,2.84-1.98l0.05,0.63
		c-1.97-1.01-4.19-1.67-6.4-1.71c-0.55,0.01-1.12,0.05-1.63,0.17c-0.52,0.14-1.03,0.4-1.52,0.67c-0.5,0.27-0.98,0.57-1.46,0.88
		l-0.72,0.46l-0.37,0.22c-0.06,0.03-0.13,0.07-0.2,0.09C122.21,174.75,122.08,174.74,122.12,174.64z"/>
</g>
<g class="st0">
	<path class="st3" d="M114.4,184.86c-0.05-0.09-0.12,0.02-0.14,0.08c-0.03,0.07-0.05,0.14-0.07,0.21l-0.11,0.44l-0.21,0.88
		c-0.14,0.58-0.29,1.17-0.48,1.75c-0.19,0.58-0.42,1.15-0.74,1.69c-0.34,0.54-0.74,0.99-1.17,1.45c-0.86,0.89-1.88,1.59-2.94,2.2
		c-1.07,0.6-2.17,1.11-3.36,1.5l-0.66,0.21l0.19-0.67c0.34-1.18,0.7-2.35,1.13-3.51c0.2-0.58,0.53-1.19,0.87-1.69
		c0.34-0.52,0.73-1.01,1.15-1.47c0.84-0.92,1.81-1.73,2.9-2.33c0.56-0.33,1.21-0.41,1.8-0.51
		C113.18,184.97,113.79,184.9,114.4,184.86z M114.4,184.86c-0.6,0.13-1.19,0.26-1.78,0.4c-0.59,0.16-1.18,0.29-1.65,0.64
		c-1.01,0.64-1.9,1.46-2.65,2.39c-0.72,0.95-1.47,1.9-1.82,3.02c-0.4,1.13-0.73,2.31-1.05,3.47l-0.46-0.46
		c2.22-0.7,4.37-1.83,6.11-3.39c0.42-0.4,0.84-0.83,1.17-1.29c0.32-0.47,0.56-1.02,0.79-1.56c0.23-0.55,0.43-1.11,0.63-1.68
		l0.29-0.85l0.17-0.42c0.03-0.07,0.06-0.14,0.1-0.21C114.26,184.87,114.36,184.75,114.4,184.86z"/>
</g>
<g>
	<path class="st4" d="M95.58,321.98c0.18,1.06,0.24,2.1,0.27,3.12c0.04,1.02,0.02,2.03-0.03,3.03c-0.05,1-0.12,1.99-0.23,2.98
		c-0.09,0.99-0.24,1.97-0.49,2.94c-0.49,1.94-1.31,3.87-1.57,5.87c-0.28,1.99-0.15,4.01,0.17,6.01c0.15,1,0.35,2,0.48,2.99
		c0.14,0.99,0.22,1.99,0.32,2.98c0.19,1.98,0.44,3.95,0.52,5.93c0.07,1.98,0.07,3.97-0.01,5.98c-0.08,2.01-0.18,4.04-0.54,6.13
		l-0.39,0.06c-1-1.88-1.65-3.85-2.2-5.83c-0.54-1.99-0.91-4.01-1.12-6.05c-0.21-2.04-0.14-4.09-0.04-6.14
		c0.05-1.02,0.11-2.04,0.25-3.06c0.12-1.02,0.36-2.03,0.54-3.04c0.43-2.02,0.73-4.02,0.73-6.05c0.02-2.02-0.44-4.1-0.46-6.16
		c-0.01-1.03,0.09-2.04,0.27-3.05c0.17-1.01,0.4-2,0.67-2.99c0.28-0.99,0.6-1.96,1.01-2.92c0.39-0.96,0.85-1.9,1.44-2.81
		L95.58,321.98z"/>
</g>
<g>
	<path class="st4" d="M108.38,320.61c0.74,1.4,1.32,2.85,1.81,4.34c0.51,1.48,0.91,2.99,1.23,4.52c0.62,3.05,1.04,6.17,0.88,9.3
		c-0.16,3.13-0.86,6.21-1.23,9.27c-0.38,3.06-0.63,6.13-0.7,9.21l-0.09,4.58l-0.13,4.52c-0.06,3.01,0.02,6,0.02,9l-0.02,9.04
		c-0.01,3.03,0.04,6.08-0.09,9.21l-0.39,0.07c-2.35-5.81-3.47-12.01-3.77-18.24c-0.13-3.12,0.12-6.24,0.48-9.34
		c0.19-1.55,0.4-3.09,0.71-4.62c0.3-1.53,0.73-3.03,1.11-4.52c0.81-2.98,1.48-5.96,1.58-9c0.13-3.04-0.46-6.08-0.82-9.06
		c-0.18-1.5-0.29-2.99-0.37-4.48l-0.27-4.5c-0.09-1.5-0.18-3.01-0.24-4.54c-0.07-1.52-0.13-3.06-0.11-4.64L108.38,320.61z"/>
</g>
<g>
	<path class="st4" d="M124.79,305.43c0.5,1.49,0.88,3,1.18,4.51c0.33,1.51,0.55,3.04,0.73,4.56c0.18,1.53,0.31,3.06,0.38,4.59
		c0.08,1.53,0.07,3.07-0.05,4.61c-0.25,3.07-0.95,6.13-1.19,9.17c-0.26,3.05-0.23,6.11-0.12,9.19c0.04,1.54,0.13,3.06,0.15,4.57
		l0.06,4.52c0.05,3,0.24,5.99,0.31,8.99c0.08,6,0.33,11.99,0.24,18.2l-0.39,0.08c-2.44-5.75-3.65-11.9-4.12-18.09
		c-0.2-3.1-0.07-6.21,0.18-9.3c0.12-1.55,0.28-3.09,0.52-4.62c0.23-1.53,0.58-3.04,0.87-4.54c0.63-2.99,1.04-6.02,1.02-9.06
		c0-3.04-0.59-6.09-0.86-9.11c-0.14-1.51-0.19-3.02-0.17-4.54c-0.01-1.51,0.02-3.03,0.07-4.55c0.05-1.52,0.13-3.04,0.26-4.57
		c0.12-1.53,0.27-3.06,0.55-4.61L124.79,305.43z"/>
</g>
<g>
	<path class="st4" d="M136.02,311.34c0.52,0.95,0.91,1.93,1.22,2.93c0.34,0.99,0.57,2,0.77,3.01c0.19,1.01,0.33,2.04,0.41,3.06
		c0.09,1.03,0.1,2.06-0.02,3.09c-0.23,2.06-0.9,4.09-1.11,6.12c-0.23,2.02-0.17,4.06,0,6.13c0.06,1.03,0.16,2.08,0.14,3.11
		c0,1.04-0.08,2.07-0.18,3.09c-0.19,2.05-0.43,4.12-0.94,6.11c-0.53,2-1.22,3.95-2.08,5.84c-0.87,1.88-1.86,3.72-3.17,5.4
		l-0.38-0.13c0.03-2.13,0.27-4.14,0.52-6.15c0.25-2,0.58-3.96,0.94-5.91c0.38-1.94,0.91-3.85,1.38-5.79
		c0.24-0.97,0.45-1.94,0.72-2.9c0.26-0.97,0.59-1.93,0.86-2.91c0.58-1.95,0.95-3.95,0.89-5.96c-0.03-2.02-0.65-4.03-0.94-6.01
		c-0.15-0.99-0.21-1.98-0.2-2.98c-0.02-0.99,0-1.99,0.04-2.99c0.04-1,0.1-2.01,0.22-3.03c0.11-1.02,0.24-2.04,0.5-3.09
		L136.02,311.34z"/>
</g>
<g>
	<g>
		<path class="st1" d="M94.04,364.31c-0.19,0.06-0.39,0.1-0.59,0.13c0.44-0.06,0.89-0.12,1.33-0.18c-0.34,0.04-0.68,0.04-1.02,0
			c0.44,0.06,0.89,0.12,1.33,0.18c-0.32-0.05-0.64-0.13-0.94-0.26c0.4,0.17,0.8,0.34,1.19,0.5c-0.04-0.02-0.08-0.04-0.13-0.06
			c-0.57-0.37-1.19-0.56-1.86-0.59c-0.66-0.15-1.33-0.12-1.99,0.09c-0.65,0.15-1.22,0.45-1.7,0.89c-0.54,0.35-0.97,0.82-1.29,1.4
			c-0.17,0.4-0.34,0.8-0.5,1.19c-0.24,0.89-0.24,1.77,0,2.66c0.17,0.4,0.34,0.8,0.5,1.19c0.44,0.75,1.04,1.35,1.79,1.79
			c0.59,0.27,1.21,0.58,1.85,0.74c0.64,0.16,1.31,0.23,1.97,0.28c0.23,0.02,0.46,0.01,0.7-0.01c0.65-0.07,1.37-0.12,2.01-0.32
			c0.65-0.15,1.22-0.45,1.7-0.89c0.54-0.35,0.97-0.82,1.29-1.4c0.37-0.57,0.56-1.19,0.59-1.86c0.15-0.66,0.12-1.33-0.09-1.99
			c-0.17-0.4-0.34-0.8-0.5-1.19c-0.44-0.75-1.04-1.35-1.79-1.79c-0.4-0.17-0.8-0.34-1.19-0.5
			C95.81,364.07,94.92,364.07,94.04,364.31L94.04,364.31z"/>
	</g>
</g>
<g>
	<g>
		<path class="st1" d="M110.53,387.23c-0.32,0.01-0.65,0.02-0.97,0.02c-0.9,0-1.74,0.23-2.52,0.68c-0.58,0.31-1.05,0.74-1.4,1.29
			c-0.44,0.48-0.74,1.05-0.89,1.7c-0.24,0.89-0.24,1.77,0,2.66c0.01,0.07,0.03,0.15,0.05,0.22c0.14,0.46,0.41,1.02,0.57,1.38
			c0.06,0.14,0.13,0.26,0.22,0.38c0.26,0.34,0.53,0.7,0.8,1.04c0.01,0.01,0.02,0.03,0.03,0.04c0.02,0.03,0.05,0.06,0.08,0.08
			c0.05,0.05,0.1,0.1,0.16,0.15c0.02,0.01,0.03,0.03,0.05,0.04c0.34,0.26,0.69,0.55,1.04,0.8c0.03,0.02,0.06,0.04,0.09,0.06
			c0.06,0.04,0.13,0.08,0.2,0.11c0.78,0.45,1.62,0.68,2.52,0.68c0.9,0,1.74-0.23,2.52-0.68c1.5-0.88,2.51-2.56,2.48-4.32
			c0-0.09,0-0.18,0.02-0.28c-0.06,0.44-0.12,0.89-0.18,1.33c0.02-0.15,0.06-0.3,0.12-0.44c-0.17,0.4-0.34,0.8-0.5,1.19
			c0.06-0.13,0.13-0.26,0.22-0.38c-0.26,0.34-0.52,0.67-0.78,1.01c0.01-0.01,0.02-0.02,0.03-0.04c0.49-0.45,0.83-0.99,1.03-1.61
			c0.31-0.6,0.46-1.24,0.43-1.93c0.03-0.69-0.12-1.33-0.43-1.93c-0.2-0.62-0.55-1.16-1.03-1.61c-0.34-0.26-0.67-0.52-1.01-0.78
			c-0.78-0.45-1.62-0.68-2.52-0.68c-0.44,0.06-0.89,0.12-1.33,0.18c-0.85,0.24-1.58,0.67-2.21,1.29c-0.3,0.37-0.6,0.73-0.87,1.12
			c-0.03,0.04-0.06,0.09-0.09,0.14c-0.26,0.46-0.45,0.97-0.63,1.47c-0.04,0.1-0.06,0.21-0.08,0.31c-0.03,0.23-0.06,0.46-0.09,0.69
			c-0.03,0.23-0.06,0.46-0.09,0.69c0,0.03-0.01,0.06-0.01,0.09c0,0.05,0,0.11,0,0.16c2.51-1.44,5.02-2.88,7.52-4.32
			c-0.11-0.05-0.22-0.12-0.32-0.19c0.34,0.26,0.67,0.52,1.01,0.78c-0.13-0.1-0.24-0.21-0.33-0.33c0.26,0.34,0.52,0.67,0.78,1.01
			c-0.09-0.12-0.17-0.25-0.23-0.39c0.17,0.4,0.34,0.8,0.5,1.19c-0.05-0.13-0.09-0.26-0.11-0.39c-1.61,2.11-3.21,4.22-4.82,6.33
			c0.32-0.01,0.65-0.02,0.97-0.02c0.69,0.03,1.33-0.12,1.93-0.43c0.62-0.2,1.16-0.55,1.61-1.03c0.49-0.45,0.83-0.99,1.03-1.61
			c0.31-0.6,0.46-1.24,0.43-1.93c-0.06-0.44-0.12-0.89-0.18-1.33c-0.24-0.85-0.67-1.58-1.29-2.21c-0.34-0.26-0.67-0.52-1.01-0.78
			C112.28,387.46,111.43,387.23,110.53,387.23L110.53,387.23z"/>
	</g>
</g>
<g>
	<g>
		<path class="st1" d="M121.29,377.89c-0.01,0.11-0.02,0.21-0.01,0.32c0,0.06,0.01,0.11,0.01,0.17c0.05,0.49,0.11,0.97,0.2,1.46
			c0.02,0.11,0.04,0.21,0.08,0.31c0.17,0.5,0.38,1,0.62,1.47c0.31,0.58,0.74,1.05,1.29,1.4c0.48,0.44,1.05,0.74,1.7,0.89
			c0.66,0.21,1.33,0.24,1.99,0.09c0.67-0.03,1.29-0.23,1.86-0.59c0.34-0.26,0.67-0.52,1.01-0.78c0.62-0.62,1.05-1.36,1.29-2.21
			c0.06-0.44,0.12-0.89,0.18-1.33c0-0.9-0.23-1.74-0.68-2.52c-0.02-0.04-0.04-0.09-0.06-0.14c0.17,0.4,0.34,0.8,0.5,1.19
			c-0.07-0.17-0.12-0.35-0.14-0.54c0.06,0.44,0.12,0.89,0.18,1.33c-0.02-0.18-0.02-0.36,0-0.53c0.03-0.69-0.12-1.33-0.43-1.93
			c-0.2-0.62-0.55-1.16-1.03-1.61c-0.45-0.49-0.99-0.83-1.61-1.03c-0.6-0.31-1.24-0.46-1.93-0.43c-0.44,0.06-0.89,0.12-1.33,0.18
			c-0.85,0.24-1.58,0.67-2.21,1.29c-0.26,0.34-0.52,0.67-0.78,1.01C121.52,376.15,121.29,376.99,121.29,377.89L121.29,377.89z"/>
	</g>
</g>
<g>
	<g>
		<path class="st1" d="M128.02,362.38c0.53,0.26,1.07,0.48,1.62,0.69c0.15,0.06,0.3,0.1,0.45,0.14s0.31,0.07,0.47,0.09
			c0.58,0.09,1.19,0.19,1.79,0.22c0.69,0.03,1.33-0.12,1.93-0.43c0.62-0.2,1.16-0.55,1.61-1.03c0.49-0.45,0.83-0.99,1.03-1.61
			c0.31-0.6,0.46-1.24,0.43-1.93c-0.06-0.44-0.12-0.89-0.18-1.33c-0.24-0.85-0.67-1.58-1.29-2.21c-0.34-0.26-0.67-0.52-1.01-0.78
			c-0.78-0.45-1.62-0.68-2.52-0.68c-0.13-0.01-0.26-0.02-0.39-0.04c0.44,0.06,0.89,0.12,1.33,0.18c-0.4-0.06-0.79-0.16-1.17-0.32
			c0.4,0.17,0.8,0.34,1.19,0.5c-0.08-0.03-0.16-0.07-0.24-0.11c-0.57-0.37-1.19-0.56-1.86-0.59c-0.66-0.15-1.33-0.12-1.99,0.09
			c-0.65,0.15-1.22,0.45-1.7,0.89c-0.54,0.35-0.97,0.82-1.29,1.4c-0.17,0.4-0.34,0.8-0.5,1.19c-0.24,0.89-0.24,1.77,0,2.66
			c0.17,0.4,0.34,0.8,0.5,1.19C126.67,361.34,127.27,361.94,128.02,362.38L128.02,362.38z"/>
	</g>
</g>
<path class="st5" d="M88.44,10.99c2.42-0.36,11.4,39.99,8.69,68.89c-1.31,13.99-0.85,28.86,1.01,43.46
	c0.76,5.91,2.37,12.16-1.47,14.56c-3.38,2.11-10.28,0.81-12.83-2.5c-3.23-4.19,1.51-10.38,4.52-16.51c2.2-4.48,3.47-8.91,2.26-40.02
	C89.26,43.59,87,11.21,88.44,10.99z"/>
<path class="st6" d="M87.59,236.13c-6.09-0.56-15.29,14.71-33.44,45.3c-9.26,15.59-12.17,21.65-9.99,28.1
	c3.11,9.22,14.49,12.9,25.82,16.58c13.46,4.36,30.93,10.02,40.08,1.75c9.22-8.33,4.74-26.04-0.81-48.04
	C104.33,260.34,98.47,237.14,87.59,236.13z"/>
<path class="st6" d="M112.43,238.49c-5.8,1.93-8.07,19.62-12.39,54.92c-2.2,18-2.42,24.72,2.16,29.74
	c6.55,7.19,18.46,5.98,30.31,4.79c14.08-1.42,32.35-3.27,37.39-14.53c5.08-11.34-6.14-25.75-20.07-43.65
	C137.5,253.92,122.79,235.04,112.43,238.49z"/>
<path class="st7" d="M81.94,239.05c-8.39,3.12-9.54,26.91-3.39,43.96c1.51,4.2,5.37,10.28,13.08,22.43
	c11.54,18.19,15.31,20.84,18.42,22.4c7.49,3.75,18.92,4.28,25.3-0.2c19.21-13.47,8.11-38.15,2.62-46.5
	C131.9,271.9,92.3,235.2,81.94,239.05z"/>
<path class="st8" d="M92.21,191.9c-7.25-0.23-5.13,26.55-22.17,40.88c-14.7,12.37-28.06,2.33-44.17,16.73
	c-9.52,8.51-13.01,19.3-14.88,25.1c-5.45,16.89-3.7,34.78-0.47,35.33c3.16,0.54,3.56-16.25,17.67-31.15
	c2.84-3,5.98-5.65,30.22-18.59c29.35-15.68,33.22-16.31,37.66-23.24c7.17-11.2,7.58-25.94,2.79-36.73
	C97.26,196.62,95.21,192,92.21,191.9z"/>
<path class="st8" d="M104.26,185.17c4.77-1.38,9.56,25.02,24.21,36.26c12.64,9.7,19.19-2.17,33.23,9.28
	c8.3,6.77,13.12,16.72,15.71,22.06c7.54,15.56,10.52,33.25,8.5,34.29c-1.98,1.02-6.13-15.24-18.96-27.5
	c-2.58-2.47-5.28-4.55-24.39-13.3c-23.14-10.6-25.86-10.61-30.41-16.64c-7.36-9.76-11.05-24.04-10.37-35.28
	C102,190.56,102.29,185.73,104.26,185.17z"/>
<path class="st8" d="M98.76,151.17c-0.96,15.43,4.11,27.14,11.85,45.04c8.54,19.75,18.73,21.98,26.07,34.37
	c8.39,14.17,12.02,39.82-14.23,90.07c-8.06-6.01-19.73-16.34-29.44-32.29c-4.63-7.6-13.66-24.47-16.01-47.41
	c-0.47-4.58,0.42-12.34,2.8-42.38c1.98-25.02,1.58-34.28,1.45-40.11c-0.03-1.42-0.87-18.55,1.05-21.31
	c2.5-3.59,10.02-4.28,13.8-1.17C100.1,139.28,99.07,146.18,98.76,151.17z"/>
<g>
	<path class="st3" d="M72.37,232.78l-2.26,1.84c-0.75,0.62-1.62,1.08-2.42,1.64c-1.67,1-3.47,1.83-5.33,2.46
		c-3.72,1.3-7.64,1.83-11.47,2.39c-3.83,0.53-7.61,1.17-11.13,2.53c-0.86,0.38-1.74,0.71-2.59,1.11l-2.48,1.33l-2.33,1.58
		c-0.4,0.25-0.76,0.54-1.12,0.85l-1.08,0.91c-5.79,4.85-10.04,11.33-12.88,18.34c-1.4,3.5-2.64,7.19-3.61,10.84
		c-0.96,3.67-1.61,7.43-1.99,11.22c-0.39,3.78-0.54,7.6-0.25,11.35c0.14,1.86,0.39,3.74,0.87,5.43c0.12,0.42,0.26,0.82,0.42,1.18
		c0.15,0.34,0.36,0.68,0.46,0.76c0.05,0.05,0.04,0.01-0.09-0.01c-0.14-0.06-0.38,0.05-0.38,0.05c-0.02,0.03,0.25-0.26,0.42-0.61
		c0.76-1.48,1.38-3.41,2.04-5.21c0.66-1.83,1.35-3.67,2.12-5.49c1.52-3.64,3.34-7.17,5.52-10.47c2.18-3.3,4.66-6.4,7.47-9.18
		c1.44-1.42,3.07-2.62,4.71-3.69c1.65-1.08,3.32-2.08,5.02-3.04c3.4-1.91,6.84-3.7,10.29-5.48c3.44-1.79,6.93-3.5,10.42-5.19
		c-6.67,3.97-13.44,7.76-19.96,11.93c-1.63,1.03-3.25,2.08-4.8,3.2c-1.56,1.12-3.01,2.29-4.28,3.65c-2.59,2.78-4.91,5.82-6.9,9.06
		c-1.99,3.24-3.64,6.68-5.07,10.21c-0.71,1.77-1.35,3.57-1.97,5.4c-0.66,1.84-1.15,3.65-2.12,5.64c-0.28,0.5-0.53,1.06-1.35,1.67
		c-0.17,0.14-0.5,0.27-0.79,0.36c-0.3,0.07-0.66,0.07-0.96,0.02c-0.6-0.13-1.04-0.44-1.33-0.72c-0.61-0.59-0.85-1.13-1.11-1.66
		c-0.24-0.53-0.42-1.04-0.57-1.55c-0.59-2.04-0.84-4.03-1.02-6.03c-0.32-3.99-0.19-7.95,0.19-11.88c0.42-3.93,1.12-7.83,2.14-11.66
		c0.51-1.91,1.11-3.81,1.74-5.65c0.63-1.86,1.31-3.72,2.09-5.54c3.1-7.26,7.69-14.13,14.01-19.05l1.18-0.93
		c0.39-0.32,0.78-0.62,1.22-0.87l2.54-1.6l2.69-1.34c0.91-0.41,1.87-0.72,2.8-1.08c3.8-1.28,7.75-1.79,11.61-2.14
		c3.87-0.33,7.71-0.63,11.4-1.69C65.82,236.94,69.28,235.14,72.37,232.78z"/>
</g>
<g>
	<path class="st3" d="M106.59,185.17c0.53-0.17,1.09,0.06,1.51,0.38c0.44,0.32,0.8,0.74,1.13,1.16c0.66,0.85,1.21,1.78,1.74,2.71
		c1.03,1.88,1.95,3.81,2.89,5.73c1.86,3.84,3.75,7.66,5.9,11.31c2.13,3.65,4.51,7.17,7.36,10.2c2.84,3.01,6.17,5.66,9.96,6.91
		c1.89,0.6,3.86,0.86,5.91,0.79c2.05-0.06,4.17-0.3,6.39-0.36c1.11-0.05,2.24,0.03,3.37,0.11c1.13,0.19,2.27,0.32,3.36,0.69
		c1.12,0.27,2.15,0.76,3.2,1.21c1.03,0.48,1.97,1.1,2.96,1.65c3.75,2.47,6.87,5.65,9.61,9.07c2.71,3.45,5.01,7.18,7.02,11.01
		c4.01,7.63,7.2,15.78,9.3,24.16c0.52,2.1,0.98,4.22,1.34,6.37c0.35,2.16,0.66,4.3,0.62,6.63c-0.04,0.6-0.05,1.18-0.28,1.95
		c-0.07,0.2-0.12,0.39-0.3,0.66c-0.11,0.21-0.44,0.59-0.9,0.77c-0.56,0.23-1.1,0.09-1.44-0.08c-0.13-0.07-0.26-0.16-0.38-0.25
		c-0.12-0.09-0.17-0.15-0.25-0.23c-0.56-0.59-0.82-1.08-1.13-1.58c-0.28-0.49-0.54-0.98-0.79-1.46l-2.84-5.74
		c-1.91-3.77-4.03-7.42-6.46-10.86c-2.42-3.42-5.17-6.71-8.27-9.44c-1.58-1.32-3.4-2.42-5.22-3.49c-1.84-1.06-3.71-2.07-5.6-3.07
		c-3.78-1.97-7.6-3.89-11.41-5.82c3.95,1.63,7.88,3.31,11.76,5.1c1.94,0.9,3.88,1.81,5.79,2.79c1.91,0.99,3.81,2.01,5.59,3.33
		c6.77,5.56,11.8,12.79,15.89,20.36l3,5.66c0.25,0.46,0.5,0.91,0.75,1.34c0.25,0.41,0.54,0.85,0.73,1.02
		c0.01,0.01,0.05,0.06,0.04,0.04c-0.01-0.02-0.03-0.03-0.05-0.03c-0.1-0.06-0.36-0.14-0.67-0.02c-0.47,0.24-0.32,0.33-0.32,0.17
		c0.08-0.26,0.12-0.76,0.13-1.22c0-1.95-0.31-4.05-0.68-6.09c-0.38-2.05-0.86-4.1-1.4-6.14c-1.08-4.07-2.37-8.09-3.91-12.01
		c-1.51-3.92-3.35-7.72-5.29-11.47c-1.93-3.73-4.11-7.31-6.66-10.59c-2.56-3.25-5.51-6.23-8.87-8.52c-3.37-2.26-7.17-3.56-11.28-3.4
		c-2.05,0.01-4.18,0.23-6.4,0.24c-2.22,0.02-4.54-0.33-6.68-1.08c-4.32-1.58-7.8-4.53-10.66-7.8c-2.87-3.3-5.18-7-7.19-10.8
		c-1.99-3.82-3.69-7.76-5.34-11.69c-0.83-1.96-1.65-3.93-2.57-5.85c-0.46-0.96-0.94-1.91-1.52-2.79c-0.29-0.44-0.61-0.87-1.02-1.2
		C107.64,185.3,107.13,185.03,106.59,185.17z"/>
</g>
<g>
	<path class="st3" d="M101.09,151.17c-0.23,3.86-0.08,7.73,0.46,11.55c0.54,3.82,1.47,7.58,2.64,11.26
		c2.33,7.37,5.54,14.41,8.62,21.49c1.58,3.52,3.29,6.98,5.4,10.2c2.1,3.23,4.56,6.19,7.25,8.94c2.68,2.76,5.58,5.31,8.25,8.15
		c2.67,2.83,5.07,5.98,6.89,9.45c1.84,3.46,3.19,7.18,4.1,11c0.21,0.96,0.36,1.93,0.54,2.89l0.26,1.45l0.15,1.46l0.3,2.92l0.08,2.93
		c0.15,7.83-1.05,15.62-2.9,23.18c-1.88,7.56-4.3,14.99-7.3,22.15c-1.38,3.64-3.08,7.13-4.64,10.69c-1.62,3.53-3.42,6.97-5.13,10.45
		l-0.76,1.54l-1.4-1.04c-7.76-5.8-14.87-12.5-20.94-20.06c-6.07-7.55-11.25-15.85-15.2-24.69c-3.95-8.84-6.85-18.16-8.46-27.7
		l-0.54-3.59c-0.17-1.2-0.28-2.4-0.42-3.6c-0.15-1.17-0.23-2.48-0.22-3.69c0-1.23,0.06-2.44,0.13-3.64c0.3-4.81,0.77-9.57,1.2-14.34
		c0.87-9.53,1.79-19.06,2.58-28.59c0.76-9.53,1.39-19.08,1.37-28.64c0-4.78-0.27-9.56-0.21-14.35c0.02-2.39,0.09-4.79,0.3-7.18
		c0.13-1.19,0.25-2.39,0.6-3.55c0.3-1.21,1.27-2.09,2.27-2.73c2.07-1.26,4.57-1.63,6.95-1.43c2.36,0.21,4.82,1.16,6.25,3.14
		c1.44,1.97,1.79,4.46,1.87,6.83C101.5,146.39,101.25,148.78,101.09,151.17z M101.09,151.17c0.15-2.39,0.39-4.77,0.32-7.17
		c-0.09-2.36-0.46-4.85-1.89-6.79c-1.42-1.95-3.86-2.89-6.21-3.09c-2.36-0.2-4.84,0.19-6.87,1.44c-0.98,0.63-1.91,1.51-2.18,2.67
		c-0.33,1.14-0.43,2.34-0.54,3.52c-0.19,2.38-0.22,4.77-0.21,7.16c0.01,4.78,0.31,9.56,0.41,14.35c0.23,9.58-0.2,19.17-0.75,28.73
		c-0.58,9.56-1.3,19.1-1.96,28.65c-0.33,4.77-0.69,9.55-0.89,14.3c-0.08,2.39-0.14,4.68,0.23,6.99c0.16,1.17,0.3,2.35,0.48,3.52
		l0.6,3.5c1.81,9.29,4.68,18.38,8.68,26.95c7.92,17.18,20.2,32.25,35.32,43.6l-2.15,0.49l2.59-5.15c0.85-1.72,1.79-3.41,2.57-5.16
		c1.59-3.49,3.31-6.94,4.72-10.51c0.73-1.78,1.5-3.53,2.19-5.32l1.98-5.4c0.71-1.79,1.2-3.64,1.81-5.45l0.87-2.74
		c0.26-0.92,0.49-1.85,0.73-2.77c1.98-7.39,3.31-14.98,3.32-22.61l-0.02-2.86l-0.23-2.85l-0.11-1.42l-0.23-1.41
		c-0.16-0.94-0.28-1.88-0.47-2.81c-0.8-3.72-2.03-7.34-3.74-10.74c-1.7-3.41-3.95-6.51-6.52-9.35c-2.56-2.85-5.42-5.46-8.06-8.3
		c-2.66-2.83-5.09-5.88-7.13-9.19c-2.06-3.29-3.75-6.79-5.29-10.34c-3.01-7.11-6.07-14.22-8.4-21.6c-1.15-3.69-2.06-7.46-2.59-11.29
		C100.98,158.9,100.84,155.02,101.09,151.17z"/>
</g>
<g>
	<path class="st3" d="M65.97,259.07c-5.15,9.11-10.34,18.16-15.16,27.39c-2.36,4.61-4.77,9.29-6.68,13.98
		c-0.85,2.24-1.16,4.59-0.59,6.82c0.54,2.23,1.86,4.26,3.52,6.02c3.38,3.55,7.92,6.08,12.51,8.41c4.54,2.35,9.39,4.09,14.34,5.46
		c4.98,1.3,10.09,2.17,15.25,2.66c5.17,0.49,10.38,0.58,15.61,0.45c-10.34,1.55-21.04,1.43-31.41-0.83
		c-5.18-1.13-10.24-2.89-15.06-5.19c-4.72-2.32-9.51-4.89-13.42-8.9c-1.89-2.03-3.52-4.53-4.19-7.41c-0.71-2.87-0.29-5.95,0.8-8.53
		c1.09-2.51,2.26-4.81,3.47-7.17c1.21-2.33,2.48-4.63,3.8-6.9C54.01,276.25,59.77,267.5,65.97,259.07z"/>
</g>
<g>
	<path class="st3" d="M74.75,258.26c0,6.23,0.72,12.43,2.32,18.37c1.53,5.96,4.34,11.45,7.49,16.75c3.2,5.28,6.61,10.48,10.03,15.67
		c3.42,5.15,6.85,10.37,10.88,14.85c1,1.11,2.06,2.15,3.19,2.98c0.56,0.43,1.15,0.78,1.79,1.12c0.65,0.34,1.34,0.68,2.01,0.99
		c2.71,1.22,5.59,2.04,8.51,2.32c2.92,0.32,5.87-0.02,8.65-0.91c2.77-0.94,5.34-2.45,7.5-4.47c2.17-2.01,3.93-4.48,5.37-7.13
		c1.38-2.67,2.53-5.54,3.03-8.51c1.08-5.98,0.03-12.32-2.64-17.94c3.26,5.31,4.83,11.78,4.1,18.15c-0.36,3.21-1.41,6.26-2.72,9.17
		c-1.38,2.9-3.2,5.62-5.5,7.94c-2.29,2.33-5.15,4.16-8.26,5.27c-3.12,1.08-6.48,1.54-9.76,1.25c-3.29-0.25-6.48-1.17-9.45-2.47
		c-0.75-0.33-1.46-0.68-2.19-1.05c-0.74-0.39-1.49-0.83-2.17-1.34c-1.38-1-2.56-2.16-3.65-3.35c-2.15-2.4-4.03-4.94-5.84-7.51
		c-1.8-2.58-3.55-5.17-5.2-7.83c-3.29-5.29-6.66-10.54-9.68-16.05c-3.03-5.48-5.66-11.35-6.89-17.57
		C74.41,270.79,74.09,264.46,74.75,258.26z"/>
</g>
<g>
	<path class="st3" d="M145.61,326.59c3.43-0.42,6.81-1.06,10.03-2.11c3.23-1,6.27-2.5,8.92-4.42c1.3-1,2.46-2.12,3.48-3.34
		c0.98-1.25,1.74-2.64,2.26-4.09c1.05-2.92,0.86-6.15-0.02-9.29c-0.84-3.17-2.2-6.28-3.59-9.42c-0.69-1.58-1.37-3.14-2.1-4.66
		c-0.37-0.76-0.75-1.52-1.15-2.26c-0.38-0.76-0.79-1.5-1.2-2.24c-3.32-5.92-7.41-11.43-12.02-16.58
		c5.47,4.24,10.21,9.49,14.02,15.37c1.94,2.9,3.55,6.09,5.04,9.19c1.47,3.13,2.92,6.34,3.9,9.83c0.45,1.75,0.76,3.59,0.77,5.47
		c0.01,1.88-0.29,3.8-0.99,5.57c-0.71,1.76-1.7,3.39-2.91,4.8c-1.23,1.39-2.65,2.58-4.16,3.58c-3.06,1.95-6.44,3.22-9.88,3.92
		C152.56,326.59,149.06,326.83,145.61,326.59z"/>
</g>
<g>
	<path class="st3" d="M90.86,10.84c0.31-0.01,0.44,0.18,0.56,0.3c0.12,0.14,0.22,0.29,0.31,0.44c0.18,0.3,0.33,0.62,0.47,0.94
		c0.28,0.63,0.51,1.28,0.74,1.93c0.44,1.3,0.83,2.62,1.19,3.95c0.73,2.65,1.39,5.31,1.97,8c1.23,5.35,2.26,10.76,3.1,16.19
		c1.68,10.86,2.69,21.91,1.93,33l-0.71,8.18c-0.2,2.71-0.39,5.43-0.5,8.15c-0.22,5.45-0.25,10.91,0.02,16.38
		c0.07,1.37,0.17,2.73,0.26,4.09l0.4,4.08c0.26,2.73,0.68,5.41,1.1,8.13c0.2,1.36,0.39,2.74,0.43,4.15c0.02,1.4-0.06,2.89-0.72,4.29
		c-0.32,0.7-0.83,1.33-1.44,1.82c-0.61,0.5-1.32,0.83-2.03,1.07c-1.43,0.46-2.91,0.56-4.36,0.46c-1.45-0.1-2.89-0.4-4.26-0.94
		c-1.37-0.54-2.72-1.3-3.8-2.54c-0.53-0.62-0.96-1.38-1.19-2.19c-0.23-0.81-0.29-1.65-0.23-2.44c0.12-1.59,0.61-3,1.16-4.33
		c1.12-2.65,2.53-5.02,3.77-7.41c0.62-1.2,1.19-2.36,1.58-3.55c0.39-1.19,0.63-2.46,0.82-3.76c0.66-5.24,0.52-10.74,0.51-16.18
		c-0.1-5.45-0.19-10.92-0.36-16.39c-0.36-10.95-0.57-21.91-0.78-32.88l-0.34-16.45l-0.16-8.23c-0.02-1.37-0.04-2.74-0.02-4.12
		c0.01-0.69,0.03-1.37,0.07-2.06c0.02-0.34,0.05-0.69,0.09-1.03c0.02-0.17,0.05-0.35,0.09-0.52c0.02-0.09,0.05-0.18,0.08-0.27
		C90.63,11.04,90.65,10.91,90.86,10.84z M90.91,11.14c0.03-0.03-0.1,0.18-0.11,0.32c-0.04,0.16-0.06,0.32-0.08,0.49
		c-0.04,0.33-0.06,0.67-0.08,1.01c-0.03,0.68-0.04,1.36-0.04,2.05c0,1.37,0.03,2.74,0.07,4.1c0.09,2.74,0.25,5.47,0.41,8.21
		c0.36,5.47,0.79,10.93,1.21,16.4c0.88,10.93,1.75,21.87,2.27,32.83c0.25,5.48,0.53,10.97,0.56,16.48
		c0.04,5.51,0.02,11.02-0.8,16.65c-0.24,1.41-0.53,2.84-1.03,4.24c-0.49,1.42-1.18,2.71-1.84,3.92c-1.33,2.45-2.82,4.75-3.93,7.11
		c-0.54,1.18-0.99,2.38-1.12,3.53c-0.12,1.15,0.09,2.19,0.76,3.08c0.67,0.89,1.72,1.61,2.87,2.14c1.15,0.53,2.41,0.87,3.68,1.04
		c1.27,0.16,2.58,0.13,3.78-0.19c1.2-0.32,2.22-0.99,2.78-2.07c0.58-1.06,0.75-2.4,0.76-3.72c0-1.33-0.14-2.68-0.31-4.03
		c-0.82-5.42-1.4-10.89-1.94-16.36c-0.54-5.47-0.92-10.97-1.01-16.49c-0.04-2.76-0.06-5.52,0.08-8.28c0.09-2.75,0.39-5.54,0.58-8.21
		c0.38-5.4,0.4-10.84,0.26-16.28c-0.16-5.44-0.46-10.9-1-16.34c-0.54-5.44-1.25-10.87-2.21-16.26c-0.51-2.69-1.06-5.37-1.73-8.02
		c-0.35-1.32-0.72-2.64-1.15-3.94c-0.22-0.65-0.44-1.29-0.71-1.91c-0.13-0.31-0.28-0.62-0.44-0.91
		C91.32,11.48,91.06,11.13,90.91,11.14z"/>
</g>
<g>
	<path class="st4" d="M173.86,174.75c0.6,0.85,0.97,1.78,1.28,2.71c0.28,0.94,0.52,1.91,0.52,2.9c0,0.99-0.21,2-0.2,2.97
		c0.01,0.97,0.16,1.93,0.38,2.91c0.22,0.97,0.37,1.95,0.4,2.94c0.05,0.98,0.08,1.97-0.03,2.96c-0.25,1.95-0.75,3.89-1.74,5.68
		l-0.2-0.04c-0.28-2.01-0.26-3.91-0.2-5.81c0.05-0.95,0.17-1.89,0.27-2.83c0.08-0.95,0.23-1.9,0.4-2.86
		c0.16-0.96,0.21-1.93,0.07-2.88c-0.14-0.95-0.56-1.87-0.81-2.8c-0.25-0.93-0.32-1.87-0.4-2.83c-0.05-0.96-0.09-1.93,0.06-2.95
		L173.86,174.75z"/>
</g>
<g>
	<path class="st4" d="M166.76,174.19c-0.02,1.51-0.17,2.95-0.27,4.4c-0.11,1.44-0.19,2.86-0.36,4.29c-0.18,1.43-0.47,2.88-0.39,4.34
		c0.07,1.46,0.42,2.88,0.85,4.3c0.44,1.42,0.8,2.89,0.97,4.38c0.2,1.49,0.31,3,0.25,4.5c-0.15,3-0.75,5.99-1.99,8.74l-0.2-0.04
		c-0.03-3,0.08-5.87,0.05-8.74c0.02-1.43,0.03-2.86,0-4.3l-0.17-4.35c-0.06-1.48-0.21-2.95-0.41-4.42
		c-0.19-1.47-0.55-2.95-0.62-4.46c-0.06-1.51,0.15-3.01,0.49-4.47c0.36-1.46,0.84-2.89,1.61-4.21L166.76,174.19z"/>
</g>
<g>
	<path class="st4" d="M157.67,166.88c0.25,1.49,0.31,2.95,0.37,4.4c0.04,1.46,0.06,2.9-0.06,4.35c-0.13,1.45-0.43,2.91-0.42,4.37
		c0,1.46,0.21,2.91,0.54,4.34c0.34,1.43,0.62,2.9,0.73,4.39c0.14,1.49,0.18,2.99,0.08,4.48c-0.25,2.97-0.9,5.93-2.18,8.64l-0.2-0.04
		c0.02-2.99,0.18-5.85,0.24-8.71c0.06-1.43,0.13-2.86,0.16-4.29c0-1.43,0.02-2.88,0.07-4.35c0.04-1.48,0.04-2.95-0.1-4.41
		c-0.12-1.46-0.48-2.93-0.6-4.4c-0.11-1.48-0.01-2.95,0.18-4.42c0.2-1.46,0.47-2.92,0.98-4.35L157.67,166.88z"/>
</g>
<g>
	<path class="st4" d="M151.44,169.72c0.23,1.02,0.28,1.99,0.33,2.95c0.02,0.96,0.05,1.91-0.09,2.86c-0.15,0.95-0.45,1.92-0.46,2.89
		c-0.02,0.97,0.17,1.93,0.47,2.86c0.31,0.93,0.61,1.85,0.84,2.77c0.25,0.92,0.54,1.83,0.75,2.75c0.39,1.86,0.78,3.73,0.91,5.77
		l-0.19,0.08c-1.33-1.57-2.19-3.4-2.79-5.3c-0.28-0.96-0.43-1.95-0.54-2.94c-0.13-0.99-0.15-1.99-0.07-3c0.07-1,0.08-1.98-0.03-2.96
		c-0.11-0.97-0.45-1.95-0.56-2.95c-0.11-1,0.02-1.99,0.21-2.97c0.22-0.97,0.5-1.94,1.03-2.85L151.44,169.72z"/>
</g>
<g>
	<g>
		<path class="st1" d="M173.11,199.8c0.07,0.02,0.13,0.03,0.2,0.04c0.27,0.05,0.55,0.08,0.82,0.11c0.13,0.01,0.26,0.02,0.39,0.01
			c0.34-0.02,0.69-0.07,1.03-0.14c0.13-0.03,0.25-0.07,0.37-0.11c0.33-0.08,0.61-0.23,0.85-0.45c0.27-0.18,0.49-0.41,0.64-0.7
			c0.18-0.29,0.28-0.6,0.3-0.93c0.07-0.33,0.06-0.66-0.04-1c-0.08-0.2-0.17-0.4-0.25-0.6c-0.22-0.38-0.52-0.67-0.9-0.9
			c-0.2-0.08-0.4-0.17-0.6-0.25c-0.44-0.12-0.89-0.12-1.33,0c-0.18,0.07-0.36,0.12-0.55,0.15c0.22-0.03,0.44-0.06,0.66-0.09
			c-0.22,0.03-0.44,0.03-0.65,0c0.22,0.03,0.44,0.06,0.66,0.09c-0.09-0.01-0.19-0.03-0.28-0.06c-0.33-0.1-0.66-0.12-1-0.04
			c-0.33,0.02-0.64,0.11-0.93,0.3c-0.29,0.16-0.53,0.37-0.7,0.64c-0.22,0.24-0.37,0.52-0.45,0.85c-0.03,0.22-0.06,0.44-0.09,0.66
			c0,0.45,0.12,0.87,0.34,1.26c0.13,0.17,0.26,0.34,0.39,0.51C172.32,199.47,172.69,199.68,173.11,199.8L173.11,199.8z"/>
	</g>
</g>
<g>
	<g>
		<path class="st1" d="M165.36,210.96c0.18,0,0.36,0.01,0.54,0.01c-0.8-1.05-1.61-2.11-2.41-3.16c-0.01,0.05-0.03,0.1-0.05,0.15
			c0.08-0.2,0.17-0.4,0.25-0.6c-0.03,0.06-0.06,0.12-0.1,0.18c0.13-0.17,0.26-0.34,0.39-0.51c-0.05,0.06-0.1,0.12-0.17,0.17
			c0.17-0.13,0.34-0.26,0.51-0.39c-0.07,0.05-0.14,0.09-0.22,0.13c0.2-0.08,0.4-0.17,0.6-0.25c0,0-0.01,0-0.01,0
			c1.05,0.8,2.11,1.61,3.16,2.41c0-0.03,0-0.05,0-0.08c-0.02-0.24-0.05-0.49-0.1-0.73c-0.01-0.05-0.02-0.1-0.04-0.15
			c-0.08-0.21-0.17-0.45-0.28-0.66c-0.01-0.02-0.02-0.04-0.04-0.07c-0.01-0.01-0.01-0.02-0.02-0.03c-0.13-0.18-0.27-0.36-0.41-0.53
			c-0.02-0.02-0.04-0.05-0.06-0.07c-0.23-0.24-0.49-0.42-0.8-0.52c-0.3-0.16-0.62-0.23-0.96-0.22c-0.34-0.01-0.67,0.06-0.96,0.22
			c-0.31,0.1-0.58,0.27-0.8,0.52c-0.13,0.17-0.26,0.34-0.39,0.51c-0.23,0.39-0.34,0.81-0.34,1.26c0.03,0.22,0.06,0.44,0.09,0.66
			c0.12,0.42,0.33,0.79,0.64,1.1c0.02,0.02,0.04,0.04,0.06,0.07c-0.13-0.17-0.26-0.34-0.39-0.51c0.04,0.05,0.07,0.11,0.1,0.17
			c-0.08-0.2-0.17-0.4-0.25-0.6c0.02,0.06,0.04,0.12,0.05,0.19c-0.03-0.22-0.06-0.44-0.09-0.66c0,0.04,0.01,0.07,0.01,0.11
			c0,0.45,0.12,0.87,0.34,1.26c0.16,0.29,0.37,0.53,0.64,0.7c0.24,0.22,0.52,0.37,0.85,0.45c0.44,0.12,0.89,0.12,1.33,0
			c0.21-0.09,0.43-0.17,0.64-0.27c0.02-0.01,0.04-0.02,0.05-0.03c0.04-0.02,0.07-0.04,0.1-0.06c0.2-0.14,0.4-0.29,0.59-0.45
			c0.03-0.03,0.06-0.05,0.08-0.08c0.01-0.01,0.02-0.03,0.04-0.04c0.13-0.17,0.27-0.35,0.4-0.52c0.01-0.01,0.01-0.01,0.02-0.02
			c0.02-0.03,0.04-0.06,0.06-0.09c0.11-0.22,0.21-0.46,0.29-0.69c0.01-0.03,0.02-0.07,0.03-0.11c0.12-0.44,0.12-0.89,0-1.33
			c-0.08-0.33-0.23-0.61-0.45-0.85c-0.18-0.27-0.41-0.49-0.7-0.64c-0.39-0.23-0.81-0.34-1.26-0.34c-0.18,0-0.36-0.01-0.54-0.01
			c-0.34-0.01-0.67,0.06-0.96,0.22c-0.31,0.1-0.58,0.27-0.8,0.52c-0.24,0.23-0.42,0.49-0.52,0.8c-0.16,0.3-0.23,0.62-0.22,0.96
			c0.03,0.22,0.06,0.44,0.09,0.66c0.12,0.42,0.33,0.79,0.64,1.1c0.17,0.13,0.34,0.26,0.51,0.39
			C164.49,210.84,164.91,210.96,165.36,210.96L165.36,210.96z"/>
	</g>
</g>
<g>
	<g>
		<path class="st1" d="M154.22,202.25C154.22,202.26,154.22,202.26,154.22,202.25c-0.03-0.21-0.06-0.43-0.09-0.65
			c0.01,0.08,0.01,0.15,0,0.23c0.03-0.22,0.06-0.44,0.09-0.66c-0.01,0.08-0.03,0.16-0.06,0.23c0.08-0.2,0.17-0.4,0.25-0.6
			c-0.02,0.04-0.03,0.07-0.05,0.11c-0.18,0.29-0.28,0.6-0.3,0.93c-0.07,0.33-0.06,0.66,0.04,1c0.08,0.33,0.23,0.61,0.45,0.85
			c0.18,0.27,0.41,0.49,0.7,0.64c0.2,0.08,0.4,0.17,0.6,0.25c0.44,0.12,0.89,0.12,1.33,0c0.2-0.08,0.4-0.17,0.6-0.25
			c0.38-0.22,0.67-0.52,0.9-0.9c0.01-0.02,0.03-0.05,0.04-0.07c0.1-0.22,0.19-0.44,0.28-0.66c0.02-0.05,0.03-0.1,0.04-0.15
			c0.05-0.24,0.07-0.49,0.1-0.73c0-0.03,0.01-0.05,0.01-0.08c0-0.03,0-0.05,0-0.08c-0.02-0.25-0.06-0.49-0.1-0.73
			c-0.08-0.33-0.23-0.61-0.45-0.85c-0.18-0.27-0.41-0.49-0.7-0.64c-0.29-0.18-0.6-0.28-0.93-0.3c-0.33-0.07-0.66-0.06-1,0.04
			c-0.2,0.08-0.4,0.17-0.6,0.25c-0.38,0.22-0.67,0.52-0.9,0.9c-0.08,0.2-0.17,0.4-0.25,0.6C154.1,201.37,154.1,201.81,154.22,202.25
			L154.22,202.25z"/>
	</g>
</g>
<g>
	<g>
		<path class="st1" d="M153,189.93c-0.01,0-0.01,0-0.02,0.01c0.2-0.08,0.4-0.17,0.6-0.25c-0.23,0.09-0.46,0.16-0.7,0.19
			c0.22-0.03,0.44-0.06,0.66-0.09c-0.09,0.01-0.18,0.02-0.28,0.02c-0.34-0.01-0.67,0.06-0.96,0.22c-0.31,0.1-0.58,0.27-0.8,0.52
			c-0.24,0.23-0.42,0.49-0.52,0.8c-0.16,0.3-0.23,0.62-0.22,0.96c0.03,0.22,0.06,0.44,0.09,0.66c0.12,0.42,0.33,0.79,0.64,1.1
			c0.17,0.13,0.34,0.26,0.51,0.39c0.39,0.23,0.81,0.34,1.26,0.34c0.09,0,0.18-0.01,0.28-0.02c0.29-0.04,0.61-0.07,0.9-0.13
			c0.38-0.08,0.73-0.26,1.08-0.41c0.29-0.16,0.53-0.37,0.7-0.64c0.22-0.24,0.37-0.52,0.45-0.85c0.1-0.33,0.12-0.66,0.04-1
			c-0.02-0.33-0.11-0.64-0.3-0.93c-0.13-0.17-0.26-0.34-0.39-0.51c-0.31-0.31-0.68-0.52-1.1-0.64c-0.22-0.03-0.44-0.06-0.66-0.09
			C153.81,189.59,153.39,189.7,153,189.93L153,189.93z"/>
	</g>
</g>
<path class="st5" d="M165.61,37.31c-1.34-0.17,5.68,7.62,7.18,21.47c0.73,6.7,0.47,13.83-0.56,20.83c-0.42,2.83-1.31,5.83,0.81,6.98
	c1.87,1.01,5.7,0.39,7.11-1.2c1.79-2.01-0.84-4.98-2.5-7.91c-1.22-2.15-1.92-4.27-1.25-19.17
	C177.16,41.39,166.41,37.42,165.61,37.31z"/>
<path class="st6" d="M178.09,133.66c3.38-0.27,8.48,7.05,18.55,21.71c5.13,7.47,6.75,10.38,5.54,13.46
	c-1.72,4.42-8.04,6.18-14.32,7.94c-7.47,2.09-17.15,4.8-22.23,0.84c-5.11-3.99-2.63-12.48,0.45-23.02
	C168.8,145.26,172.06,134.14,178.09,133.66z"/>
<path class="st6" d="M164.31,134.79c3.22,0.93,4.48,9.4,6.87,26.32c1.22,8.63,1.34,11.84-1.2,14.25
	c-3.64,3.44-10.24,2.87-16.81,2.29c-7.81-0.68-17.94-1.57-20.74-6.96c-2.82-5.43,3.4-12.34,11.13-20.92
	C150.41,142.18,158.57,133.13,164.31,134.79z"/>
<path class="st7" d="M181.22,135.06c4.65,1.5,5.29,12.89,1.88,21.06c-0.84,2.01-2.98,4.93-7.26,10.75
	c-6.4,8.72-8.49,9.99-10.22,10.73c-4.16,1.8-10.49,2.05-14.03-0.09c-10.65-6.46-4.5-18.28-1.45-22.28
	C153.52,150.8,175.48,133.21,181.22,135.06z"/>
<path class="st9" d="M175.53,112.46c4.02-0.11,2.84,12.72,12.29,19.59c8.15,5.93,15.56,1.12,24.49,8.02
	c5.28,4.08,7.21,9.25,8.25,12.03c3.02,8.09,2.05,16.67,0.26,16.93c-1.75,0.26-1.97-7.79-9.8-14.92c-1.58-1.44-3.31-2.71-16.76-8.91
	c-16.28-7.51-18.42-7.82-20.88-11.14c-3.98-5.37-4.2-12.43-1.55-17.6C172.73,114.73,173.86,112.51,175.53,112.46z"/>
<path class="st9" d="M168.84,109.24c-2.64-0.66-5.3,11.99-13.43,17.37c-7.01,4.65-10.64-1.04-18.43,4.45
	c-4.6,3.25-7.27,8.01-8.71,10.57c-4.18,7.46-5.83,15.93-4.71,16.43c1.1,0.49,3.4-7.3,10.52-13.18c1.43-1.18,2.93-2.18,13.53-6.37
	c12.83-5.08,14.34-5.08,16.87-7.98c4.08-4.68,6.13-11.52,5.75-16.91C170.1,111.82,169.94,109.51,168.84,109.24z"/>
<path class="st9" d="M171.89,92.94c0.53,7.39-2.28,13-6.57,21.58c-4.74,9.47-10.38,10.53-14.46,16.47
	c-4.66,6.79-6.66,19.08,7.89,43.16c4.47-2.88,10.94-7.83,16.33-15.48c2.57-3.64,7.58-11.72,8.88-22.72
	c0.26-2.19-0.23-5.91-1.55-20.31c-1.1-11.99-0.88-16.43-0.8-19.22c0.02-0.68,0.48-8.89-0.58-10.21c-1.39-1.72-5.56-2.05-7.65-0.56
	C171.15,87.25,171.72,90.55,171.89,92.94z"/>
<g>
	<path class="st3" d="M186.53,132.05c1.66,1.12,3.48,1.96,5.4,2.47c1.92,0.51,3.9,0.7,5.89,0.86c1.99,0.17,3.99,0.36,5.97,0.83
		c1.97,0.47,3.89,1.22,5.63,2.28c3.49,2.1,6.33,5.21,8.25,8.79c1.88,3.59,3.24,7.45,3.78,11.48c0.26,2.01,0.35,4.05,0.17,6.08
		c-0.1,1.02-0.24,2.04-0.6,3.05c-0.1,0.25-0.2,0.51-0.35,0.76c-0.15,0.25-0.34,0.51-0.68,0.71c-0.17,0.1-0.4,0.15-0.63,0.13
		c-0.24-0.03-0.43-0.14-0.57-0.25c-0.28-0.24-0.41-0.48-0.56-0.72c-0.51-0.95-0.82-1.88-1.21-2.8c-0.37-0.92-0.76-1.83-1.19-2.71
		c-0.86-1.77-1.87-3.47-3.06-5.04c-1.18-1.57-2.54-3.04-4.03-4.29c-1.53-1.21-3.31-2.13-5.06-3.08c-3.51-1.88-7.12-3.61-10.69-5.39
		c3.67,1.58,7.31,3.21,10.91,4.95c1.78,0.91,3.59,1.79,5.23,3.02c1.59,1.28,2.99,2.73,4.25,4.32c1.26,1.58,2.34,3.32,3.22,5.13
		c0.45,0.91,0.86,1.83,1.24,2.76c0.39,0.92,0.73,1.88,1.18,2.69c0.11,0.19,0.24,0.38,0.35,0.46c0.12,0.08,0.08,0.05,0.19,0.02
		c0.2-0.11,0.45-0.56,0.6-0.98c0.31-0.87,0.44-1.85,0.53-2.81c0.16-1.94,0.05-3.92-0.21-5.86c-0.49-3.89-1.8-7.69-3.59-11.18
		c-1.82-3.48-4.56-6.45-7.85-8.57c-1.65-1.06-3.48-1.82-5.38-2.32c-1.9-0.51-3.88-0.73-5.86-0.96c-1.98-0.24-3.99-0.5-5.91-1.1
		C189.92,134.19,188.12,133.26,186.53,132.05z"/>
</g>
<g>
	<path class="st3" d="M167.55,109.24c-0.57-0.1-1.02,0.35-1.35,0.75c-0.34,0.42-0.63,0.89-0.9,1.36c-0.54,0.95-1.03,1.93-1.52,2.91
		c-0.98,1.96-1.99,3.91-3.17,5.78c-1.19,1.86-2.54,3.62-4.17,5.15c-1.62,1.51-3.55,2.77-5.73,3.42c-1.1,0.29-2.24,0.43-3.36,0.42
		c-1.12-0.01-2.21-0.1-3.29-0.13c-1.08-0.03-2.13,0.05-3.17,0.25c-0.51,0.15-1.03,0.23-1.51,0.45l-0.74,0.28l-0.71,0.36
		c-3.8,1.98-6.72,5.37-8.99,9.02c-2.32,3.68-4.19,7.62-5.44,11.78c-0.32,1.04-0.59,2.09-0.81,3.14c-0.2,1.04-0.39,2.15-0.31,3.12
		c0.01,0.12,0.03,0.23,0.06,0.31c0.02,0.09,0.07,0.09-0.01,0.05c-0.06-0.02-0.09-0.01-0.1,0c0.01-0.02,0.02-0.01,0.06-0.05
		c0.06-0.05,0.14-0.14,0.22-0.23c0.31-0.38,0.58-0.86,0.87-1.32c0.56-0.93,1.12-1.88,1.72-2.81c2.37-3.71,5.23-7.2,8.97-9.65
		c1.94-1.09,3.98-1.9,6.01-2.73c2.03-0.82,4.08-1.6,6.14-2.35l-6.04,2.6c-1.99,0.9-4.01,1.78-5.85,2.91
		c-0.92,0.56-1.72,1.28-2.52,2.02c-0.79,0.74-1.54,1.52-2.25,2.34c-1.42,1.64-2.67,3.43-3.8,5.28c-0.57,0.93-1.1,1.88-1.65,2.83
		c-0.28,0.48-0.55,0.95-0.92,1.43c-0.1,0.12-0.19,0.24-0.35,0.36c-0.06,0.06-0.18,0.12-0.28,0.18c-0.15,0.05-0.31,0.08-0.5,0.01
		c-0.34-0.15-0.44-0.41-0.5-0.57c-0.06-0.18-0.09-0.34-0.11-0.49c-0.1-1.22,0.11-2.3,0.3-3.4c0.22-1.09,0.49-2.17,0.8-3.23
		c1.24-4.24,3.14-8.3,5.47-12.05c2.35-3.73,5.38-7.23,9.42-9.3l0.76-0.38l0.8-0.3c0.52-0.23,1.09-0.32,1.64-0.47
		c1.12-0.21,2.26-0.29,3.37-0.25c2.22,0.09,4.37,0.37,6.43-0.17c2.03-0.56,3.9-1.71,5.51-3.15c1.6-1.44,2.97-3.15,4.18-4.95
		c1.23-1.8,2.29-3.71,3.34-5.63c0.53-0.96,1.05-1.93,1.62-2.86c0.29-0.46,0.6-0.92,0.97-1.34
		C166.49,109.55,166.98,109.11,167.55,109.24z"/>
</g>
<g>
	<path class="st3" d="M170.6,92.94c0.31,3.8-0.41,7.62-1.74,11.17c-1.32,3.57-3.05,6.96-4.73,10.36c-1.69,3.4-3.96,6.55-6.81,9.09
		c-1.4,1.29-2.89,2.48-4.27,3.76c-1.38,1.28-2.64,2.71-3.62,4.31c-2.03,3.18-2.94,6.96-2.96,10.71c-0.04,3.76,0.68,7.5,1.77,11.1
		c1.11,3.6,2.52,7.12,4.19,10.51c0.78,1.72,1.73,3.36,2.6,5.04c0.91,1.66,1.9,3.28,2.84,4.92l-0.65-0.15
		c7.84-5.1,14.63-11.92,19.19-20.11c2.27-4.09,3.99-8.48,5.06-13.04c0.14-0.57,0.26-1.14,0.37-1.72c0.12-0.57,0.22-1.15,0.3-1.73
		c0.08-0.57,0.19-1.17,0.23-1.72c0.04-0.57,0.03-1.15,0.01-1.73c-0.09-2.34-0.32-4.69-0.51-7.04c-0.75-9.4-1.87-18.8-1.68-28.26
		c0.05-2.36,0.22-4.72,0.19-7.07c-0.01-1.18-0.05-2.36-0.2-3.52c-0.1-0.57-0.16-1.19-0.53-1.64c-0.38-0.44-0.9-0.74-1.44-0.96
		c-1.09-0.42-2.3-0.55-3.46-0.43c-1.15,0.12-2.35,0.49-3.17,1.36c-0.82,0.86-1.09,2.09-1.14,3.26
		C170.38,90.59,170.51,91.77,170.6,92.94z M170.6,92.94c-0.09-1.17-0.24-2.35-0.19-3.53c0.04-1.16,0.31-2.4,1.13-3.28
		c0.82-0.88,2.03-1.26,3.19-1.39c1.18-0.13,2.39,0,3.5,0.41c0.55,0.22,1.08,0.53,1.48,0.98c0.4,0.48,0.45,1.11,0.56,1.68
		c0.17,1.17,0.2,2.36,0.22,3.54c0.05,2.36-0.12,4.72-0.14,7.08c-0.06,9.44,1.2,18.81,2.09,28.2c0.23,2.35,0.49,4.69,0.62,7.07
		c0.03,0.6,0.05,1.19,0.01,1.8c-0.03,0.62-0.14,1.19-0.21,1.79c-0.07,0.59-0.17,1.18-0.28,1.76c-0.1,0.59-0.21,1.17-0.35,1.75
		c-1,4.66-2.76,9.13-5.04,13.3c-4.58,8.36-11.46,15.36-19.48,20.46l-0.42,0.27l-0.24-0.42c-0.94-1.66-1.92-3.29-2.83-4.97
		c-0.87-1.7-1.81-3.35-2.59-5.1c-1.68-3.42-3.05-7.01-4.13-10.67c-1.05-3.67-1.74-7.48-1.64-11.33c0.07-3.82,1.07-7.7,3.19-10.92
		c1.03-1.62,2.33-3.05,3.75-4.33c1.42-1.28,2.92-2.44,4.33-3.7c1.42-1.26,2.73-2.62,3.88-4.13c1.15-1.51,2.11-3.14,2.99-4.83
		c1.7-3.39,3.45-6.77,4.79-10.33C170.14,100.55,170.89,96.74,170.6,92.94z"/>
</g>
<g>
	<path class="st3" d="M190.08,144.65c3.43,4.24,6.67,8.63,9.65,13.21c0.74,1.15,1.48,2.3,2.15,3.5c0.35,0.59,0.67,1.19,1,1.8
		c0.33,0.59,0.66,1.25,0.85,1.96c0.2,0.71,0.27,1.46,0.17,2.21c-0.13,0.73-0.34,1.46-0.72,2.09c-0.73,1.28-1.81,2.25-2.93,3.09
		c-2.32,1.61-4.83,2.7-7.39,3.72c-2.58,0.97-5.24,1.71-7.95,2.16c-5.41,0.94-10.94,1-16.35,0.38c2.72,0.09,5.45,0.11,8.16-0.09
		c2.71-0.15,5.4-0.5,8.05-1.04c2.64-0.56,5.26-1.26,7.76-2.26c2.48-1.02,4.99-2.15,7.14-3.68c1.06-0.77,2.06-1.66,2.69-2.76
		c0.33-0.54,0.51-1.14,0.63-1.74c0.08-0.61,0.04-1.24-0.13-1.84c-0.16-0.61-0.43-1.18-0.76-1.79c-0.31-0.6-0.63-1.2-0.96-1.78
		c-0.66-1.18-1.35-2.35-2.05-3.52c-1.41-2.32-2.89-4.6-4.41-6.86C193.19,149.12,191.63,146.89,190.08,144.65z"/>
</g>
<g>
	<path class="st3" d="M185.21,144.26c0.3,3.14,0.03,6.33-0.78,9.41c-0.84,3.08-2.45,5.89-4.18,8.52c-1.73,2.65-3.63,5.16-5.5,7.7
		c-1.91,2.51-3.81,5.05-6.21,7.22c-0.61,0.53-1.29,1.02-2.03,1.4c-0.75,0.37-1.47,0.66-2.24,0.93c-1.52,0.52-3.12,0.87-4.73,0.97
		c-3.22,0.22-6.58-0.65-9.15-2.67c-1.28-1-2.37-2.23-3.19-3.61c-0.82-1.38-1.48-2.86-1.78-4.45c-0.59-3.18,0.26-6.49,2.03-9.08
		c-1.58,2.71-2.28,5.97-1.55,8.98c0.73,2.98,2.51,5.75,4.96,7.54c4.95,3.7,12.36,2.9,17.03-0.77c2.29-2.03,4.23-4.54,6.14-7.01
		c1.89-2.5,3.78-5.03,5.59-7.58c1.8-2.56,3.43-5.25,4.35-8.23C184.91,150.56,185.29,147.41,185.21,144.26z"/>
</g>
<g>
	<path class="st3" d="M145.91,177c-3.52,0.11-7.15-0.38-10.41-1.98c-1.62-0.79-3.14-1.96-4.11-3.6c-0.49-0.81-0.78-1.75-0.85-2.7
		c-0.08-0.95,0.06-1.89,0.29-2.78c0.5-1.78,1.33-3.38,2.16-4.94c0.83-1.55,1.74-3.12,2.81-4.54c1.06-1.44,2.23-2.78,3.48-4.04
		c1.28-1.23,2.62-2.4,4.07-3.41c-2.61,2.37-4.99,4.99-6.92,7.9c-0.96,1.46-1.82,2.96-2.6,4.54c-0.8,1.56-1.6,3.12-2.04,4.75
		c-0.47,1.62-0.42,3.33,0.42,4.76c0.79,1.45,2.16,2.54,3.64,3.39c1.49,0.86,3.16,1.41,4.85,1.83
		C142.4,176.62,144.15,176.86,145.91,177z"/>
</g>
<g>
	<path class="st3" d="M164.25,35.78c-0.15-0.03-0.12,0.11-0.08,0.25c0.04,0.13,0.1,0.27,0.17,0.4c0.13,0.26,0.27,0.52,0.41,0.77
		l0.86,1.54c0.57,1.03,1.1,2.07,1.64,3.12c1.05,2.1,1.97,4.28,2.72,6.52c0.76,2.24,1.28,4.55,1.67,6.89c0.33,2.35,0.5,4.7,0.56,7.06
		c0.07,4.72-0.32,9.42-0.93,14.07c-0.17,1.16-0.32,2.33-0.52,3.48c-0.17,1.15-0.36,2.33-0.11,3.42c0.14,0.54,0.42,1.02,0.87,1.33
		c0.44,0.31,0.98,0.47,1.54,0.55c1.11,0.15,2.28,0,3.35-0.33c1.05-0.34,2.13-0.94,2.5-1.85c0.37-0.92-0.09-2.03-0.62-3.01
		c-0.54-1-1.21-1.96-1.84-2.96c-0.63-0.98-1.26-2.1-1.54-3.3c-0.56-2.39-0.59-4.76-0.62-7.11c0-2.36,0.07-4.71,0.16-7.05
		c0.08-2.36,0.27-4.67,0.13-6.98c-0.15-2.3-0.51-4.61-1.26-6.8c-0.74-2.19-1.86-4.27-3.38-6.03c-0.76-0.88-1.63-1.67-2.58-2.35
		C166.39,36.72,165.36,36.1,164.25,35.78z M164.27,35.68c1.16,0.31,2.18,0.91,3.16,1.57c0.97,0.67,1.86,1.46,2.66,2.33
		c1.63,1.72,2.87,3.79,3.74,6c0.89,2.21,1.39,4.56,1.6,6.93c0.23,2.37,0.1,4.76,0.01,7.08c-0.08,2.34-0.13,4.68-0.12,7.01
		c0.03,2.32,0.01,4.69,0.51,6.88c0.24,1.09,0.77,2.06,1.38,3.06c0.6,0.99,1.25,1.98,1.8,3.06c0.27,0.54,0.52,1.11,0.67,1.73
		c0.15,0.61,0.17,1.33-0.11,1.97c-0.27,0.64-0.79,1.1-1.32,1.43c-0.54,0.33-1.11,0.56-1.7,0.73c-1.17,0.31-2.4,0.43-3.61,0.22
		c-0.6-0.11-1.21-0.3-1.72-0.69c-0.52-0.38-0.84-0.99-0.97-1.59c-0.26-1.22-0.04-2.41,0.15-3.56c0.21-1.16,0.4-2.3,0.53-3.47
		c0.59-4.65,0.71-9.34,0.47-14c-0.24-4.66-0.82-9.29-2.08-13.78c-0.62-2.25-1.4-4.45-2.34-6.6c-0.46-1.08-0.99-2.12-1.53-3.16
		l-0.83-1.55c-0.14-0.26-0.27-0.52-0.4-0.79c-0.06-0.13-0.12-0.27-0.17-0.42c-0.02-0.07-0.04-0.15-0.03-0.24
		C164.05,35.71,164.2,35.66,164.27,35.68z"/>
</g>
<g class="st0">
	<path class="st1" d="M52.4,169.01c3.01,0.35,5.99,0.09,8.68-1.06c2.71-1.09,4.94-3.09,6.81-5.47c-0.6,1.4-1.46,2.71-2.56,3.8
		c-1.08,1.11-2.43,1.99-3.86,2.59c-1.44,0.59-3,0.94-4.55,0.95C55.36,169.85,53.82,169.56,52.4,169.01z"/>
</g>
<g class="st0">
	<path class="st1" d="M71.45,146.98c-0.74,2.09-2.49,3.91-4.7,4.67c-1.1,0.37-2.3,0.48-3.44,0.29c-1.13-0.19-2.21-0.63-3.09-1.33
		c2.11,0.66,4.26,0.78,6.2,0.1C68.38,150.06,70.02,148.67,71.45,146.98z"/>
</g>
<g class="st0">
	<path class="st1" d="M74.39,166.37c-0.83-0.67-2.25-4.91-2.45-6.82c-0.6-5.65-3.2-3.77-2.65-7.26"/>
	<path class="st1" d="M74.39,166.37c-0.52-0.4-0.82-1.01-1.14-1.57c-0.31-0.57-0.57-1.17-0.81-1.77c-0.47-1.2-0.85-2.47-1.03-3.77
		c-0.19-1.22-0.46-2.42-1.11-3.37c-0.3-0.48-0.84-0.89-1.14-1.61c-0.26-0.71-0.08-1.4,0.12-2.01c0.04,0.64,0.08,1.3,0.39,1.76
		c0.29,0.44,0.86,0.78,1.31,1.32c0.94,1.09,1.22,2.5,1.38,3.78c0.09,1.25,0.39,2.45,0.71,3.68c0.16,0.61,0.34,1.22,0.53,1.82
		C73.81,165.25,74,165.86,74.39,166.37z"/>
</g>
<g class="st0">
	<path class="st1" d="M67.97,187.83c-0.86-1.69-1.47-3.53-1.68-5.45c-0.24-1.92,0.01-3.91,0.56-5.75c0.55-1.84,1.25-3.55,1.42-5.36
		c0.17-1.81-0.03-3.68-0.6-5.49c0.93,1.65,1.43,3.58,1.38,5.54c-0.02,1.97-0.73,3.83-1.24,5.59c-0.54,1.77-0.8,3.57-0.74,5.41
		C67.14,184.15,67.47,186,67.97,187.83z"/>
</g>
<g class="st0">
	<path class="st1" d="M87.85,133.76c-6.36,2.52-12.22,6.71-15.62,12.64c-1.69,2.94-2.79,6.18-3.24,9.55
		c-0.5,3.36-0.52,6.81-1.02,10.27c-0.28,1.72-0.69,3.43-1.27,5.09c-0.62,1.64-1.38,3.23-2.35,4.7c-0.96,1.47-2.07,2.84-3.33,4.05
		c-0.6,0.63-1.29,1.18-1.95,1.75c-0.7,0.52-1.37,1.07-2.12,1.53c-5.82,3.87-12.56,5.91-19.3,7.2c3.33-0.86,6.64-1.81,9.82-3.08
		c3.19-1.24,6.26-2.78,9.04-4.75c2.77-1.96,5.26-4.34,7.07-7.19c0.92-1.41,1.64-2.95,2.22-4.53c0.54-1.6,0.93-3.24,1.18-4.92
		c0.52-3.35,0.57-6.81,1.11-10.25c0.5-3.44,1.64-6.84,3.48-9.81c1.82-2.98,4.27-5.55,7.06-7.6
		C81.45,136.38,84.59,134.85,87.85,133.76z"/>
</g>
<path class="st2" d="M53.27,184.7c0.83,1.3-8.67-1.62-13.74,0.03c-9.94,3.22-18.22,14.83-18.22,14.83s8.79,1.34,11.53,0.88
	c8.87-1.5,14.1-6.39,15.24-7.49C49.68,191.39,53.27,184.7,53.27,184.7z"/>
<path class="st2" d="M58.35,169.04c0.15,1-4.45-3.55-7.67-4.13c-6.31-1.13-13.71,3.08-13.71,3.08s4.58,3.43,6.22,3.99
	c5.31,1.81,9.39,0.56,10.29,0.26C54.74,171.83,58.35,169.04,58.35,169.04z"/>
<path class="st2" d="M66.53,181.89c0.77-0.43-1.91,5.49-1.69,8.9c0.42,6.7,5.35,12.99,5.35,12.99s1.78-5.59,1.88-7.4
	c0.33-5.87-1.53-9.65-1.95-10.47C69.52,184.75,66.53,181.89,66.53,181.89z"/>
<path class="st2" d="M64.37,151.43c0.1,0.67-2.99-2.38-5.15-2.77c-4.24-0.76-9.2,2.07-9.2,2.07s3.07,2.3,4.18,2.68
	c3.56,1.21,6.31,0.37,6.91,0.18C61.95,153.3,64.37,151.43,64.37,151.43z"/>
<path class="st2" d="M72.67,162.98c0.31-0.6,0.82,4.05,2.18,5.93c2.68,3.69,7.96,5.1,7.96,5.1s-0.93-4.05-1.52-5.15
	c-1.92-3.55-4.42-4.9-4.98-5.18C75.53,163.27,72.67,162.98,72.67,162.98z"/>
<g class="st0">
	<path class="st3" d="M52.76,169.53c1.5,0.21,3,0.29,4.47,0.14c1.47-0.16,2.91-0.51,4.26-1.08c1.36-0.55,2.61-1.34,3.74-2.29
		c1.13-0.95,2.12-2.08,3.02-3.3c-0.63,1.38-1.53,2.64-2.63,3.73c-1.09,1.09-2.42,1.96-3.84,2.55c-1.43,0.59-2.97,0.94-4.51,0.97
		C55.73,170.28,54.19,170.05,52.76,169.53z"/>
</g>
<g class="st0">
	<path class="st3" d="M71.81,147.51c-0.82,2.04-2.56,3.81-4.74,4.55c-1.09,0.37-2.26,0.48-3.39,0.31c-1.12-0.16-2.2-0.59-3.09-1.23
		c2.06,0.75,4.27,0.91,6.24,0.22C68.81,150.69,70.47,149.25,71.81,147.51z"/>
</g>
<g class="st0">
	<path class="st3" d="M74.75,166.9c-0.51-0.41-0.79-1.03-1.09-1.59c-0.3-0.57-0.54-1.17-0.76-1.78c-0.45-1.2-0.83-2.46-1-3.75
		c-0.18-1.23-0.46-2.45-1.14-3.42c-0.32-0.49-0.85-0.9-1.16-1.57c-0.27-0.68-0.12-1.36,0.05-1.97c0.01,0.64,0.02,1.3,0.32,1.79
		c0.28,0.49,0.86,0.82,1.29,1.36c0.9,1.07,1.19,2.45,1.34,3.73c0.11,1.25,0.41,2.47,0.74,3.7c0.17,0.61,0.37,1.21,0.57,1.81
		C74.14,165.79,74.34,166.4,74.75,166.9z"/>
</g>
<g class="st0">
	<path class="st3" d="M68.33,188.35c-0.82-1.7-1.38-3.55-1.58-5.46c-0.22-1.91,0.03-3.88,0.57-5.71c0.55-1.83,1.24-3.56,1.4-5.39
		c0.17-1.83-0.09-3.71-0.7-5.49c0.9,1.67,1.33,3.6,1.28,5.53c-0.03,1.96-0.74,3.79-1.25,5.56c-0.55,1.77-0.8,3.6-0.72,5.46
		C67.4,184.7,67.8,186.54,68.33,188.35z"/>
</g>
<g class="st0">
	<path class="st3" d="M88.21,134.29c-6.39,2.45-12.27,6.66-15.7,12.59c-1.71,2.94-2.82,6.2-3.27,9.58
		c-0.51,3.37-0.53,6.82-1.03,10.26c-0.27,1.72-0.69,3.42-1.26,5.07c-0.61,1.64-1.37,3.22-2.33,4.68c-0.95,1.46-2.06,2.83-3.31,4.03
		c-0.6,0.63-1.28,1.17-1.94,1.74c-0.7,0.52-1.37,1.08-2.1,1.53c-2.88,1.93-6.03,3.42-9.27,4.59c-3.25,1.15-6.6,2-9.97,2.68
		c3.34-0.8,6.65-1.77,9.84-3.03c3.19-1.23,6.28-2.77,9.07-4.73c2.79-1.95,5.29-4.34,7.11-7.21c0.92-1.42,1.65-2.96,2.23-4.55
		c0.55-1.6,0.93-3.26,1.19-4.94c0.52-3.37,0.56-6.82,1.1-10.25c0.49-3.43,1.63-6.81,3.45-9.78c1.81-2.98,4.24-5.54,7.02-7.6
		C81.83,136.94,84.97,135.42,88.21,134.29z"/>
</g>
<g class="st0">
	<path class="st3" d="M53.63,185.22c0.05,0.08,0.08,0.2-0.02,0.26c-0.09,0.05-0.19,0.07-0.29,0.08c-0.2,0.02-0.4,0.02-0.59,0.01
		c-0.4-0.02-0.79-0.05-1.18-0.09l-2.36-0.26c-1.57-0.17-3.14-0.3-4.72-0.31c-1.56,0-3.15,0.08-4.61,0.59
		c-1.46,0.55-2.9,1.18-4.24,1.99c-2.69,1.6-5.17,3.55-7.43,5.74c-2.26,2.18-4.37,4.54-6.22,7.05l-0.25-0.59
		c3.16,0.46,6.36,0.9,9.54,1c0.81,0.02,1.55,0,2.33-0.17l1.17-0.23l1.16-0.29c1.53-0.42,3.04-0.93,4.5-1.56
		c2.91-1.28,5.65-3.01,7.96-5.21c1.07-1.14,1.92-2.54,2.78-3.88C52.02,188.01,52.84,186.62,53.63,185.22z M53.63,185.22
		c-0.74,1.43-1.5,2.84-2.3,4.24c-0.82,1.39-1.59,2.79-2.68,4.05c-2.3,2.3-5.04,4.11-7.98,5.48c-1.47,0.68-3.01,1.23-4.57,1.66
		l-1.18,0.3l-1.19,0.24c-0.79,0.18-1.67,0.21-2.46,0.2c-3.25-0.09-6.44-0.49-9.64-0.94L21,200.36l0.37-0.5
		c1.92-2.57,4.05-4.92,6.36-7.11c2.3-2.19,4.82-4.18,7.61-5.74c1.38-0.8,2.86-1.42,4.37-1.94c1.55-0.5,3.18-0.55,4.76-0.51
		c1.59,0.06,3.17,0.26,4.73,0.49l2.35,0.35c0.39,0.06,0.78,0.11,1.18,0.14c0.2,0.02,0.39,0.02,0.59,0.01
		c0.1-0.01,0.19-0.03,0.28-0.07C53.7,185.42,53.68,185.31,53.63,185.22z"/>
</g>
<g class="st0">
	<path class="st3" d="M58.7,169.57c0.01,0.05,0.01,0.14-0.07,0.15c-0.06,0-0.12-0.01-0.18-0.03c-0.11-0.05-0.22-0.1-0.33-0.16
		c-0.21-0.12-0.42-0.25-0.62-0.38l-1.21-0.81c-0.8-0.54-1.62-1.06-2.46-1.52c-0.84-0.46-1.71-0.89-2.61-1.09
		c-0.45-0.09-0.94-0.11-1.4-0.17c-0.48,0-0.95-0.04-1.42,0c-1.9,0.1-3.79,0.47-5.61,1.06c-1.82,0.59-3.61,1.33-5.27,2.25l0.04-0.62
		c1.58,1.16,3.18,2.33,4.85,3.33c0.42,0.24,0.85,0.49,1.26,0.64c0.46,0.14,0.92,0.31,1.39,0.42c0.94,0.24,1.9,0.42,2.86,0.51
		c1.93,0.18,3.91,0.05,5.78-0.5c0.89-0.29,1.73-0.87,2.56-1.39C57.08,170.69,57.9,170.14,58.7,169.57z M58.7,169.57
		c-0.76,0.63-1.54,1.25-2.33,1.83c-0.81,0.57-1.58,1.19-2.56,1.58c-1.91,0.64-3.93,0.84-5.94,0.72c-1-0.05-2-0.21-2.98-0.46
		c-0.49-0.11-0.97-0.27-1.45-0.41c-0.52-0.18-0.95-0.43-1.39-0.68c-1.73-1.01-3.35-2.15-4.95-3.33l-0.48-0.35l0.51-0.28
		c1.75-0.94,3.56-1.66,5.43-2.25c1.87-0.57,3.82-0.96,5.8-0.98c0.49-0.02,0.99,0.04,1.48,0.05c0.49,0.08,0.98,0.12,1.47,0.23
		c0.98,0.25,1.86,0.72,2.69,1.23c0.83,0.52,1.62,1.09,2.39,1.68l1.16,0.88c0.19,0.15,0.39,0.29,0.59,0.42
		c0.1,0.07,0.2,0.13,0.31,0.18C58.56,169.72,58.74,169.73,58.7,169.57z"/>
</g>
<g class="st0">
	<path class="st3" d="M66.88,182.42c0.05-0.04,0.13-0.02,0.14,0.06c0.01,0.06,0.01,0.12,0.01,0.19c-0.01,0.12-0.03,0.24-0.06,0.36
		c-0.05,0.24-0.11,0.48-0.16,0.72l-0.38,1.42c-0.25,0.94-0.49,1.89-0.68,2.85c-0.19,0.95-0.34,1.91-0.33,2.87
		c0.04,0.95,0.2,1.91,0.4,2.85c0.46,1.87,1.14,3.69,1.99,5.43c0.86,1.73,1.87,3.41,3.03,4.93l-0.65,0.12
		c0.59-1.88,1.18-3.78,1.62-5.69c0.11-0.48,0.21-0.96,0.26-1.42c0.04-0.47,0.06-0.97,0.06-1.46c0.01-0.98-0.04-1.96-0.14-2.93
		c-0.2-1.95-0.67-3.88-1.45-5.68c-0.34-0.91-1.02-1.64-1.65-2.4C68.24,183.86,67.57,183.14,66.88,182.42z M66.88,182.42
		c0.74,0.66,1.47,1.34,2.16,2.06c0.67,0.72,1.42,1.44,1.84,2.38c0.87,1.81,1.41,3.77,1.69,5.76c0.14,1,0.22,2,0.21,3.01
		c0,0.51-0.01,1-0.05,1.52c-0.05,0.52-0.15,1.02-0.26,1.51c-0.44,1.96-0.99,3.87-1.58,5.77l-0.22,0.7l-0.43-0.59
		c-1.19-1.61-2.18-3.31-3.05-5.09c-0.84-1.79-1.56-3.65-1.94-5.61c-0.17-0.98-0.31-1.96-0.31-2.97c0.03-1.01,0.22-1.99,0.45-2.94
		c0.24-0.96,0.54-1.89,0.84-2.82l0.46-1.39c0.08-0.23,0.15-0.46,0.22-0.7c0.03-0.12,0.06-0.24,0.08-0.36
		C67.02,182.56,67.04,182.34,66.88,182.42z"/>
</g>
<g class="st0">
	<path class="st3" d="M64.73,151.95c0.04,0.11-0.11,0.12-0.17,0.08c-0.08-0.03-0.15-0.07-0.22-0.1c-0.14-0.08-0.28-0.16-0.42-0.25
		l-0.82-0.53c-0.54-0.35-1.09-0.7-1.66-1c-0.56-0.3-1.15-0.58-1.74-0.71c-0.3-0.05-0.62-0.07-0.93-0.11c-0.32,0-0.63-0.02-0.95,0.01
		c-2.52,0.16-5.02,1.02-7.24,2.23l0.04-0.62c1.05,0.78,2.13,1.57,3.24,2.24c0.27,0.16,0.56,0.33,0.83,0.42
		c0.31,0.1,0.61,0.21,0.93,0.28c0.62,0.16,1.26,0.28,1.9,0.35c1.28,0.13,2.6,0.06,3.85-0.3C62.52,153.51,63.62,152.66,64.73,151.95z
		 M64.73,151.95c-0.5,0.44-1.02,0.86-1.55,1.26c-0.54,0.39-1.05,0.81-1.72,1.09c-1.29,0.44-2.65,0.59-4.01,0.52
		c-0.68-0.03-1.36-0.13-2.02-0.3c-0.33-0.07-0.66-0.18-0.98-0.28c-0.37-0.13-0.65-0.3-0.95-0.46c-1.17-0.68-2.26-1.44-3.34-2.23
		l-0.48-0.35l0.52-0.28c1.19-0.63,2.41-1.12,3.67-1.51c1.27-0.38,2.58-0.65,3.92-0.64c0.33-0.01,0.67,0.03,1,0.05
		c0.33,0.06,0.66,0.09,1,0.17c0.67,0.18,1.26,0.5,1.82,0.85c0.55,0.36,1.08,0.75,1.59,1.15l0.77,0.6c0.13,0.1,0.26,0.2,0.39,0.29
		c0.07,0.05,0.13,0.09,0.21,0.13C64.63,152.05,64.75,152.06,64.73,151.95z"/>
</g>
<g class="st0">
	<path class="st3" d="M73.03,163.5c0.04-0.12,0.16,0,0.18,0.07c0.04,0.08,0.07,0.15,0.1,0.23l0.16,0.48l0.28,0.97
		c0.19,0.64,0.39,1.28,0.61,1.91c0.22,0.62,0.47,1.24,0.8,1.79c0.34,0.53,0.8,1.02,1.26,1.48c0.95,0.9,2.04,1.65,3.2,2.27
		c1.16,0.62,2.4,1.13,3.64,1.48l-0.46,0.44c-0.31-1.32-0.62-2.65-1.02-3.94c-0.34-1.29-1.14-2.36-1.93-3.45
		c-0.82-1.05-1.81-1.99-2.95-2.69c-0.54-0.38-1.21-0.5-1.87-0.66C74.37,163.74,73.7,163.62,73.03,163.5z M73.03,163.5
		c0.68,0.03,1.37,0.09,2.05,0.18c0.67,0.1,1.39,0.17,2.02,0.53c1.23,0.67,2.3,1.59,3.21,2.65c0.46,0.53,0.87,1.09,1.24,1.69
		c0.17,0.31,0.36,0.58,0.52,0.93c0.14,0.33,0.26,0.66,0.37,0.99c0.43,1.32,0.78,2.64,1.1,3.98l0.15,0.63l-0.61-0.18
		c-1.33-0.4-2.57-0.95-3.77-1.61c-1.18-0.68-2.33-1.45-3.27-2.47c-0.47-0.51-0.91-1.02-1.26-1.64c-0.33-0.62-0.55-1.26-0.74-1.91
		c-0.18-0.65-0.32-1.31-0.46-1.97l-0.2-0.99l-0.11-0.49c-0.02-0.08-0.04-0.16-0.07-0.24C73.16,163.51,73.08,163.4,73.03,163.5z"/>
</g>
<g class="st10">
	<path class="st1" d="M186.63,70.95c0.48-1.53,0.78-2.96,0.65-4.41c-0.09-1.45-0.65-2.79-1.45-4.18c0.7,0.41,1.27,1.02,1.7,1.73
		c0.43,0.71,0.68,1.55,0.75,2.38c0.05,0.83-0.05,1.68-0.34,2.46C187.66,69.69,187.22,70.39,186.63,70.95z"/>
</g>
<g class="st10">
	<path class="st1" d="M178.52,58.6c0.55,0.26,1.01,0.69,1.33,1.23c0.33,0.53,0.5,1.17,0.51,1.81c0.01,1.3-0.74,2.53-1.83,3.05
		c0.51-1.08,0.85-2.05,0.83-3.05C179.38,60.64,179.03,59.68,178.52,58.6z"/>
</g>
<g class="st10">
	<path class="st1" d="M188.88,59.59c-0.48,0.33-2.87,0.5-3.88,0.36c-2.98-0.42-2.44,1.13-4.13,0.4"/>
	<path class="st1" d="M188.88,59.59c-0.57,0.44-1.31,0.56-1.99,0.71c-0.69,0.12-1.41,0.17-2.13,0.11c-0.65-0.05-1.26-0.05-1.8,0.09
		c-0.28,0.06-0.58,0.26-1.04,0.3c-0.46,0.03-0.79-0.21-1.06-0.44c0.37,0.01,0.71,0.02,0.94-0.11c0.21-0.11,0.46-0.36,0.83-0.55
		c0.73-0.38,1.55-0.34,2.25-0.24c0.64,0.13,1.29,0.15,1.97,0.19C187.53,59.65,188.21,59.73,188.88,59.59z"/>
</g>
<g class="st10">
	<path class="st1" d="M198.78,65.53c-0.96,0.32-1.99,0.44-3.03,0.34c-1.03-0.08-2.07-0.46-2.96-0.99c-0.88-0.54-1.62-1.1-2.49-1.44
		c-0.86-0.34-1.82-0.52-2.83-0.57c0.95-0.36,2.02-0.42,3.06-0.18c1.05,0.23,1.95,0.85,2.76,1.32c0.81,0.5,1.65,0.85,2.58,1.08
		C196.8,65.34,197.77,65.44,198.78,65.53z"/>
</g>
<g class="st10">
	<path class="st1" d="M174.46,48.69c0.33,3.5,1.57,6.97,4.06,9.37c1.24,1.18,2.69,2.1,4.3,2.72c1.6,0.65,3.31,1.09,4.99,1.78
		c1.67,0.7,3.28,1.72,4.49,3.11c1.22,1.39,2.08,3.06,2.56,4.8c1,3.49,0.87,7.13,0.34,10.61c0.05-1.77,0.09-3.53-0.08-5.28
		c-0.13-1.74-0.43-3.47-0.99-5.1c-0.56-1.62-1.37-3.16-2.53-4.39c-1.13-1.26-2.59-2.17-4.17-2.83c-1.58-0.67-3.3-1.12-4.96-1.83
		c-1.66-0.7-3.25-1.71-4.49-3.06c-1.24-1.34-2.17-2.93-2.75-4.64C174.67,52.24,174.43,50.46,174.46,48.69z"/>
</g>
<path class="st11" d="M194.77,72.51c0.8-0.25-2.24,4.14-2.23,6.89c0.02,5.39,4.58,11.02,4.58,11.02s2.12-4.23,2.34-5.67
	c0.69-4.64-0.95-7.88-1.33-8.59C197.6,75.16,194.77,72.51,194.77,72.51z"/>
<path class="st11" d="M187.62,67.97c0.54,0.05-2.54,1.78-3.36,3.32c-1.61,3.02-0.67,7.26-0.67,7.26s2.5-1.86,3.05-2.61
	c1.79-2.43,1.82-4.64,1.82-5.12C188.45,70.13,187.62,67.97,187.62,67.97z"/>
<path class="st11" d="M195.51,65.51c-0.09-0.44,2.49,1.65,4.26,1.98c3.48,0.64,7.5-1.03,7.5-1.03s-2.56-1.6-3.47-1.89
	c-2.94-0.91-5.17-0.46-5.66-0.35C197.46,64.37,195.51,65.51,195.51,65.51z"/>
<path class="st11" d="M179.62,62.71c0.36,0.03-1.7,1.19-2.25,2.23c-1.08,2.03-0.45,4.88-0.45,4.88s1.68-1.25,2.05-1.75
	c1.2-1.63,1.22-3.11,1.22-3.44C180.18,64.16,179.62,62.71,179.62,62.71z"/>
<path class="st11" d="M186.87,60.02c-0.26-0.23,2.2,0.11,3.38-0.34c2.32-0.87,3.9-3.34,3.9-3.34s-2.22-0.05-2.88,0.11
	c-2.13,0.51-3.22,1.59-3.46,1.83C187.49,58.62,186.87,60.02,186.87,60.02z"/>
<g class="st10">
	<path class="st3" d="M186.96,70.83c0.57-1.48,0.91-2.95,0.78-4.42c-0.09-1.48-0.7-2.85-1.58-4.17c0.65,0.45,1.21,1.06,1.61,1.77
		c0.41,0.71,0.65,1.53,0.71,2.34C188.62,68,188.04,69.67,186.96,70.83z"/>
</g>
<g class="st10">
	<path class="st3" d="M178.85,58.48c0.51,0.3,0.94,0.73,1.24,1.27c0.31,0.53,0.47,1.15,0.48,1.77c0.01,1.26-0.69,2.46-1.71,3.05
		c0.58-1.01,0.97-2.02,0.96-3.05C179.83,60.49,179.44,59.49,178.85,58.48z"/>
</g>
<g class="st10">
	<path class="st3" d="M189.21,59.47c-0.28,0.23-0.63,0.31-0.96,0.41c-0.34,0.1-0.68,0.16-1.03,0.21c-0.69,0.1-1.4,0.14-2.11,0.07
		c-0.65-0.06-1.29-0.06-1.86,0.11c-0.29,0.08-0.58,0.28-1.01,0.33c-0.43,0.03-0.77-0.17-1.04-0.38c0.35,0.04,0.7,0.08,0.95-0.04
		c0.24-0.1,0.5-0.35,0.85-0.52c0.71-0.35,1.5-0.32,2.19-0.22c0.65,0.12,1.31,0.13,1.99,0.15C187.86,59.6,188.55,59.66,189.21,59.47z
		"/>
</g>
<g class="st10">
	<path class="st3" d="M199.1,65.42c-0.97,0.26-1.99,0.37-3.01,0.24c-1.02-0.1-2.03-0.47-2.91-1c-0.87-0.53-1.63-1.1-2.52-1.42
		c-0.88-0.32-1.85-0.48-2.85-0.48c0.96-0.3,2.02-0.34,3.03-0.08c1.03,0.24,1.9,0.86,2.73,1.34C195.18,65.05,197.1,65.37,199.1,65.42
		z"/>
</g>
<g class="st10">
	<path class="st3" d="M174.79,48.58c0.28,3.5,1.5,7,3.99,9.43c1.24,1.2,2.7,2.14,4.32,2.77c1.61,0.66,3.32,1.09,4.99,1.78
		c1.66,0.7,3.24,1.71,4.44,3.09c1.21,1.36,2.08,3.01,2.57,4.74c1.02,3.47,0.91,7.1,0.43,10.58c0.17-3.51,0.12-7.1-0.98-10.41
		c-0.55-1.64-1.36-3.2-2.52-4.45c-1.15-1.28-2.62-2.2-4.22-2.85c-1.59-0.68-3.31-1.14-4.96-1.84c-1.66-0.68-3.23-1.68-4.47-3
		c-1.24-1.32-2.17-2.9-2.76-4.59C175.04,52.12,174.78,50.34,174.79,48.58z"/>
</g>
<g class="st10">
	<path class="st3" d="M195.1,72.39c0.04-0.01,0.12-0.02,0.13,0.04c0.01,0.05,0.01,0.1,0,0.16c-0.02,0.1-0.05,0.2-0.08,0.3
		c-0.07,0.19-0.14,0.39-0.22,0.57l-0.49,1.12c-0.32,0.75-0.63,1.5-0.88,2.27c-0.25,0.76-0.46,1.55-0.47,2.32
		c0.03,0.79,0.12,1.59,0.31,2.36c0.38,1.55,0.96,3.06,1.72,4.48c0.75,1.42,1.62,2.8,2.61,4.05l-0.62,0.07
		c0.73-1.48,1.46-2.98,2.03-4.5c0.13-0.38,0.27-0.76,0.32-1.13c0.05-0.4,0.11-0.81,0.13-1.21c0.05-0.81,0.05-1.63-0.02-2.44
		c-0.14-1.62-0.55-3.24-1.27-4.7C197.47,74.79,196.21,73.61,195.1,72.39z M195.1,72.39c0.63,0.54,1.25,1.1,1.84,1.68
		c0.59,0.6,1.2,1.15,1.68,1.9c0.81,1.49,1.3,3.13,1.52,4.81c0.12,0.84,0.14,1.69,0.09,2.54c-0.02,0.42-0.07,0.85-0.12,1.27
		c-0.06,0.45-0.2,0.87-0.33,1.27c-0.58,1.59-1.28,3.1-2.01,4.61l-0.26,0.54l-0.36-0.47c-1.02-1.33-1.88-2.73-2.63-4.21
		c-0.74-1.47-1.36-3.03-1.67-4.67c-0.16-0.82-0.23-1.65-0.22-2.49c0.05-0.86,0.3-1.66,0.59-2.43c0.31-0.77,0.67-1.5,1.04-2.23
		l0.56-1.09c0.09-0.18,0.19-0.36,0.27-0.55c0.04-0.09,0.08-0.19,0.11-0.28C195.25,72.5,195.23,72.35,195.1,72.39z"/>
</g>
<g class="st10">
	<path class="st3" d="M187.95,67.86c0.09-0.01,0.07,0.11,0.02,0.15c-0.04,0.05-0.08,0.1-0.13,0.15l-0.28,0.27l-0.58,0.5
		c-0.39,0.34-0.77,0.68-1.12,1.04c-0.36,0.36-0.7,0.72-0.95,1.13c-0.23,0.41-0.4,0.89-0.55,1.36c-0.25,0.96-0.37,1.95-0.37,2.95
		c0.01,0.99,0.09,2.01,0.28,2.97l-0.59-0.22c0.82-0.62,1.65-1.26,2.41-1.93c0.76-0.61,1.25-1.54,1.71-2.43
		c0.43-0.91,0.72-1.91,0.78-2.92c0.04-0.47-0.11-0.99-0.23-1.49L187.95,67.86z M187.95,67.86c0.22,0.47,0.43,0.95,0.61,1.45
		c0.17,0.49,0.39,0.98,0.41,1.56c0.01,1.08-0.23,2.14-0.62,3.14c-0.2,0.5-0.43,0.99-0.72,1.44c-0.15,0.23-0.28,0.44-0.46,0.68
		c-0.19,0.23-0.38,0.42-0.57,0.6c-0.79,0.72-1.61,1.37-2.45,2.01l-0.48,0.36l-0.11-0.58c-0.2-1.05-0.28-2.08-0.26-3.14
		c0.04-1.05,0.18-2.1,0.53-3.11c0.19-0.5,0.39-0.98,0.7-1.44c0.32-0.45,0.7-0.81,1.1-1.14c0.4-0.33,0.82-0.63,1.24-0.92l0.63-0.44
		l0.31-0.22c0.05-0.04,0.1-0.08,0.14-0.12C188,67.95,188.04,67.87,187.95,67.86z"/>
</g>
<g class="st10">
	<path class="st3" d="M195.84,65.39c-0.02-0.09,0.1-0.07,0.15-0.05c0.06,0.02,0.12,0.04,0.18,0.07l0.35,0.17l0.69,0.36
		c0.46,0.24,0.92,0.48,1.39,0.68c0.47,0.21,0.94,0.4,1.42,0.49c0.49,0.08,1,0.11,1.5,0.11c2.02-0.03,4.06-0.48,5.93-1.23l-0.06,0.66
		c-0.88-0.55-1.78-1.11-2.69-1.58c-0.23-0.11-0.46-0.23-0.67-0.3c-0.24-0.07-0.49-0.15-0.74-0.21c-0.5-0.13-1-0.23-1.51-0.3
		c-1.01-0.15-2.06-0.17-3.08-0.02C197.74,64.41,196.79,64.98,195.84,65.39z M195.84,65.39c0.44-0.3,0.88-0.58,1.34-0.84
		c0.46-0.25,0.92-0.54,1.47-0.67c1.05-0.23,2.14-0.28,3.21-0.19c0.54,0.04,1.07,0.12,1.6,0.25c0.26,0.06,0.52,0.14,0.78,0.21
		c0.29,0.09,0.53,0.21,0.78,0.32c0.97,0.48,1.87,1.01,2.78,1.56l0.65,0.39l-0.7,0.27c-1.01,0.39-2.02,0.65-3.06,0.86
		c-1.04,0.19-2.1,0.32-3.17,0.25c-0.53-0.03-1.06-0.1-1.59-0.22c-0.54-0.14-1.02-0.37-1.48-0.62c-0.46-0.26-0.9-0.55-1.33-0.84
		l-0.65-0.44l-0.32-0.22c-0.05-0.03-0.11-0.07-0.17-0.09C195.93,65.35,195.83,65.3,195.84,65.39z"/>
</g>
<g class="st10">
	<path class="st3" d="M179.95,62.6c0.06,0,0.05,0.07,0.01,0.1c-0.02,0.04-0.05,0.07-0.08,0.1l-0.18,0.19l-0.38,0.35
		c-0.25,0.23-0.5,0.47-0.73,0.71c-0.23,0.24-0.46,0.49-0.61,0.76c-0.15,0.27-0.25,0.59-0.34,0.9c-0.31,1.26-0.27,2.64-0.03,3.91
		l-0.59-0.22c0.55-0.41,1.11-0.84,1.61-1.29c0.5-0.39,0.82-1,1.14-1.58c0.3-0.6,0.5-1.25,0.55-1.92
		C180.36,63.98,180.1,63.27,179.95,62.6z M179.95,62.6c0.16,0.31,0.31,0.63,0.44,0.96c0.12,0.33,0.28,0.65,0.3,1.06
		c0.02,0.73-0.13,1.46-0.39,2.15c-0.13,0.34-0.29,0.68-0.48,0.99c-0.17,0.3-0.44,0.65-0.71,0.89c-0.53,0.49-1.08,0.93-1.65,1.36
		l-0.48,0.37l-0.11-0.59c-0.14-0.72-0.19-1.42-0.17-2.13c0.04-0.71,0.13-1.43,0.38-2.11c0.14-0.34,0.28-0.66,0.49-0.98
		c0.22-0.31,0.49-0.55,0.76-0.77c0.28-0.22,0.57-0.41,0.85-0.6l0.43-0.28l0.21-0.14C179.9,62.72,180.04,62.64,179.95,62.6z"/>
</g>
<g class="st10">
	<path class="st3" d="M187.2,59.91c-0.06-0.04,0.03-0.08,0.06-0.09l0.14-0.03l0.27-0.03l0.54-0.04c0.36-0.03,0.72-0.06,1.07-0.11
		c0.35-0.04,0.7-0.1,1.02-0.2c0.3-0.11,0.62-0.28,0.92-0.46c0.58-0.37,1.13-0.82,1.62-1.32c0.49-0.5,0.95-1.05,1.33-1.61l0.31,0.58
		c-0.73-0.02-1.46-0.02-2.18,0.01c-0.69-0.01-1.35,0.25-2.03,0.48c-0.66,0.25-1.29,0.61-1.84,1.06
		C187.91,58.56,187.6,59.3,187.2,59.91z M187.2,59.91c0.11-0.35,0.24-0.7,0.39-1.04c0.15-0.33,0.3-0.71,0.59-0.99
		c0.54-0.54,1.17-0.98,1.86-1.32c0.68-0.33,1.42-0.61,2.22-0.66c0.76-0.05,1.49-0.05,2.24-0.05l0.7,0.01l-0.39,0.57
		c-0.44,0.64-0.92,1.19-1.46,1.71c-0.55,0.5-1.15,0.98-1.83,1.31c-0.35,0.16-0.68,0.31-1.07,0.41c-0.38,0.08-0.75,0.11-1.12,0.11
		c-0.37,0-0.73-0.03-1.1-0.06l-0.54-0.04l-0.27-0.02C187.34,59.85,187.17,59.82,187.2,59.91z"/>
</g>
<g>
	<path class="st12" d="M64.66,34.55C63.8,35.96,49.19-2.03,87.1,12.59c3.67,1.41,6.69,2.48,9.46,3.37
		c10.27,3.3,17.41,5.2,23.24,6.62c20.03,4.87,33.58,8.16,47.64,16.18c13.56,7.73,18.87,16.73,32.87,21.44
		c10.47,3.52,1.62-9.78,1.66-9.98c0.04-0.2,8.84,12.79-1.71,8.84c-9.61-3.59-17.64-10.55-18.21-11.02
		c-4.95-4.06-9.34-5.91-14.13-10.16c-12.96-11.5-36.56-12.66-78.11-29.56C47.23-9.01,65.45,33.25,64.66,34.55z"/>
	<path class="st13" d="M64.66,34.55c-0.11,0.1-0.22-0.07-0.29-0.15c-0.07-0.1-0.14-0.2-0.2-0.31c-0.13-0.21-0.24-0.44-0.34-0.66
		c-0.21-0.45-0.4-0.91-0.57-1.37c-0.35-0.93-0.65-1.87-0.92-2.83c-0.53-1.91-0.9-3.87-1.08-5.84c-0.18-1.97-0.16-3.98,0.24-5.93
		c0.39-1.94,1.21-3.85,2.61-5.29c1.39-1.45,3.29-2.33,5.23-2.71c1.96-0.4,3.97-0.35,5.95-0.15c3.96,0.47,7.79,1.64,11.5,3.03
		c3.74,1.31,7.46,2.69,11.22,3.91c3.78,1.19,7.58,2.33,11.39,3.4c7.62,2.17,15.38,3.83,23.06,5.8c7.68,1.96,15.35,4.09,22.74,7.06
		c7.36,2.97,14.49,6.69,20.83,11.52c3.19,2.38,6.21,4.96,9.34,7.38c3.12,2.42,6.41,4.6,9.96,6.3c0.89,0.42,1.8,0.79,2.7,1.18
		c0.92,0.33,1.84,0.7,2.77,0.99c0.91,0.28,1.87,0.52,2.74,0.44c0.91-0.04,1.4-0.59,1.41-1.49c0.03-0.87-0.24-1.82-0.56-2.71
		c-0.33-0.9-0.74-1.79-1.19-2.66c-0.45-0.87-0.93-1.72-1.43-2.58l-0.19-0.35c0.01,0.03-0.1-0.18-0.09-0.38
		c1.59-0.64,0.59-0.04,0.93-0.18l0.13,0.17c0.16,0.21,0.3,0.42,0.44,0.63c0.28,0.42,0.54,0.85,0.79,1.29
		c0.51,0.87,0.97,1.77,1.36,2.71c0.38,0.95,0.74,1.92,0.79,3.03c0.02,0.54-0.05,1.19-0.49,1.73c-0.44,0.53-1.11,0.72-1.66,0.75
		c-1.13,0.05-2.12-0.25-3.09-0.56c-3.79-1.37-7.33-3.24-10.71-5.36c-1.69-1.06-3.33-2.2-4.92-3.4c-1.61-1.18-3.11-2.51-4.66-3.7
		c-3.12-2.4-6.59-4.33-9.8-6.73c-1.62-1.18-3.09-2.56-4.63-3.74c-0.74-0.65-1.59-1.15-2.4-1.7l-1.23-0.8l-1.3-0.71
		c-3.44-1.91-7.12-3.39-10.85-4.7c-7.46-2.64-15.11-4.76-22.68-7.11c-7.58-2.32-15.13-4.78-22.59-7.47
		c-3.72-1.39-7.45-2.74-11.12-4.23c-3.69-1.45-7.33-3.02-11.13-4.14c-3.78-1.09-7.73-1.96-11.67-1.55c-1.95,0.21-3.9,0.81-5.47,2.02
		c-1.58,1.19-2.65,2.95-3.24,4.82c-1.16,3.8-0.84,7.88-0.23,11.76c0.32,1.96,0.75,3.89,1.24,5.81l0.76,2.87l0.38,1.44
		C64.53,33.57,64.72,34.05,64.66,34.55z M64.66,34.55c0.06-0.49-0.14-0.98-0.24-1.45l-0.39-1.43l-0.78-2.87
		c-0.5-1.92-0.94-3.85-1.27-5.81c-0.63-3.89-0.97-7.97,0.17-11.81c0.58-1.9,1.66-3.69,3.26-4.91C67,5.01,68.98,4.4,70.95,4.17
		c3.99-0.43,7.96,0.43,11.77,1.5c3.82,1.1,7.48,2.66,11.18,4.09c3.68,1.48,7.41,2.81,11.13,4.17c7.47,2.66,15.02,5.07,22.61,7.35
		c7.58,2.31,15.24,4.39,22.75,7c3.75,1.3,7.47,2.77,10.97,4.69l1.32,0.71l1.26,0.81c0.84,0.55,1.7,1.06,2.46,1.72
		c1.61,1.22,3.04,2.56,4.64,3.71c3.16,2.34,6.66,4.26,9.84,6.68c1.6,1.21,3.07,2.52,4.67,3.67c1.58,1.18,3.21,2.29,4.88,3.33
		c3.34,2.08,6.87,3.91,10.55,5.21c0.91,0.3,1.86,0.55,2.72,0.5c0.43-0.02,0.79-0.16,0.99-0.41c0.21-0.24,0.28-0.65,0.26-1.08
		c-0.04-0.88-0.37-1.8-0.73-2.68c-0.38-0.89-0.83-1.75-1.31-2.6c-0.24-0.42-0.5-0.84-0.76-1.25c-0.13-0.2-0.27-0.41-0.4-0.59
		l-0.1-0.13c0.3-0.18-0.75,0.34,0.8-0.29c0.04-0.15-0.05-0.3-0.01-0.21l0.17,0.3c0.5,0.86,0.99,1.73,1.44,2.63
		c0.45,0.9,0.87,1.82,1.22,2.77c0.33,0.96,0.64,1.96,0.6,3.08c-0.02,0.55-0.17,1.18-0.63,1.66c-0.45,0.47-1.09,0.67-1.63,0.7
		c-1.12,0.09-2.12-0.19-3.09-0.49c-0.97-0.31-1.88-0.69-2.83-1.03c-0.92-0.4-1.84-0.79-2.74-1.22c-3.6-1.75-6.95-3.99-10.08-6.44
		c-3.14-2.45-6.14-5.04-9.29-7.42c-6.27-4.81-13.31-8.54-20.62-11.54c-7.33-2.99-14.96-5.16-22.63-7.15
		c-7.66-2.01-15.42-3.72-23.04-5.93c-3.82-1.09-7.61-2.25-11.39-3.46c-3.76-1.25-7.48-2.65-11.22-3.98
		c-3.69-1.41-7.5-2.59-11.43-3.08c-1.96-0.21-3.96-0.27-5.9,0.11c-1.93,0.37-3.8,1.22-5.18,2.64c-1.39,1.41-2.21,3.29-2.61,5.22
		c-0.4,1.94-0.43,3.94-0.27,5.91c0.17,1.97,0.53,3.93,1.05,5.84c0.26,0.96,0.55,1.9,0.9,2.83c0.17,0.46,0.36,0.92,0.57,1.37
		c0.11,0.22,0.21,0.45,0.34,0.66c0.06,0.11,0.13,0.21,0.2,0.31C64.44,34.47,64.55,34.64,64.66,34.55z"/>
</g>
</svg>
