<?xml version="1.0" encoding="utf-8"?>
<!-- Generator: Adobe Illustrator 25.4.8, SVG Export Plug-In . SVG Version: 6.00 Build 0)  -->
<svg version="1.1" id="Layer_1" xmlns="http://www.w3.org/2000/svg" xmlns:xlink="http://www.w3.org/1999/xlink" x="0px" y="0px"
	 viewBox="0 0 174 243" style="enable-background:new 0 0 174 243;" xml:space="preserve">
<style type="text/css">
	.st0{fill:#AB3F8A;}
</style>
<path class="st0" d="M55.1,123.75c-3.58,1.03-6.76-0.8-9.27-2.25c-2-1.15-7.7-4.44-9.27-11.23c-0.36-1.55-0.99-5.4,0.84-9.55
	c0.6-1.36,2.03-4.61,5.62-6.46c4.59-2.37,9.17-0.64,10.11-0.28c0.63,0.24,3.79,1.49,6.18,4.77c2.23,3.06,2.5,6.11,2.81,9.55
	c0.34,3.81,0.65,7.26-1.4,10.67C60.15,119.91,58.42,122.79,55.1,123.75z"/>
<path class="st0" d="M76.71,105.73c-3.71-0.29-6.04-3.13-7.89-5.36c-1.47-1.78-5.65-6.86-4.73-13.78c0.21-1.58,0.97-5.4,4.15-8.64
	c1.04-1.06,3.52-3.6,7.53-4.07c5.13-0.61,8.81,2.63,9.56,3.29c0.51,0.45,3.02,2.72,4.11,6.64c1.01,3.65,0.19,6.6-0.73,9.93
	c-1.02,3.68-1.95,7.02-5.07,9.5C82.79,103.91,80.16,106,76.71,105.73z"/>
<path class="st0" d="M101.65,107.45c-3.22-1.86-4.11-5.42-4.81-8.23c-0.56-2.24-2.15-8.62,1.66-14.47c0.87-1.33,3.2-4.45,7.46-6.02
	c1.39-0.51,4.73-1.73,8.55-0.44c4.89,1.66,6.82,6.16,7.22,7.09c0.27,0.62,1.56,3.76,0.85,7.76c-0.66,3.73-2.67,6.04-4.93,8.65
	c-2.51,2.89-4.78,5.5-8.66,6.39C107.92,108.43,104.64,109.18,101.65,107.45z"/>
<path class="st0" d="M118.27,130.84c-2.5-2.75-2.26-6.42-2.07-9.31c0.15-2.3,0.59-8.87,6-13.27c1.23-1,4.41-3.26,8.94-3.45
	c1.48-0.06,5.03-0.21,8.27,2.2c4.15,3.07,4.61,7.95,4.71,8.95c0.06,0.67,0.33,4.05-1.56,7.65c-1.77,3.35-4.38,4.94-7.33,6.73
	c-3.27,1.98-6.23,3.78-10.2,3.44C123.95,133.68,120.6,133.4,118.27,130.84z"/>
<path class="st0" d="M57.74,159.73c-3.04-2.86-5.05-4.75-6.18-7.86c-1.47-4.04-0.58-7.71,0-10.11c0.46-1.9,1.26-5.22,3.93-8.15
	c1.19-1.31,2.95-2.46,6.46-4.77c2.59-1.71,3.28-1.95,5.06-3.37c1.24-0.99,2.25-1.98,4.21-3.93c3.52-3.49,3.43-3.75,4.77-4.77
	c2.61-2,5.19-2.74,6.46-3.09c1.87-0.52,5.49-1.47,9.83-0.28c4.04,1.11,6.55,3.5,7.86,4.77c2.49,2.42,3.91,5.08,4.49,6.18
	c1.23,2.32,1.05,2.85,2.25,4.77c1.39,2.25,2.57,3.06,4.49,5.06c1.91,1.98,4.09,4.25,5.62,7.3c2.4,4.82,2.1,9.47,1.97,11.23
	c-0.17,2.15-0.36,4.66-1.97,7.3c-1.27,2.1-2.83,3.29-4.77,4.77c-1.71,1.31-3.61,2.76-6.46,3.65c-3.44,1.08-6.35,0.75-7.86,0.56
	c-4.36-0.54-4.62-1.95-9.83-3.09c-2.94-0.64-5.3-0.73-8.43-0.84c-4.48-0.16-4.78,0.26-8.71,0c-3.63-0.24-5.86-0.41-8.43-1.69
	C60.63,162.45,59.5,161.39,57.74,159.73z"/>
</svg>
