<?xml version="1.0" encoding="utf-8"?>
<!-- Generator: Adobe Illustrator 25.4.8, SVG Export Plug-In . SVG Version: 6.00 Build 0)  -->
<svg version="1.1" id="Layer_1" xmlns="http://www.w3.org/2000/svg" xmlns:xlink="http://www.w3.org/1999/xlink" x="0px" y="0px"
	 viewBox="0 0 174 243" style="enable-background:new 0 0 174 243;" xml:space="preserve">
<style type="text/css">
	.st0{fill:#AB3F8A;}
	.st1{opacity:0.5;fill:#AB3F8A;}
	.st2{opacity:0.75;fill:#AB3F8A;}
</style>
<path class="st0" d="M107.46,68.24c-2.02,1.85-4.71,1.69-6.84,1.56c-1.7-0.1-6.53-0.39-9.79-4.36c-0.74-0.9-2.42-3.23-2.58-6.57
	c-0.05-1.09-0.18-3.7,1.58-6.1c2.24-3.07,5.83-3.43,6.57-3.51c0.5-0.05,2.98-0.26,5.64,1.12c2.47,1.28,3.66,3.2,4.99,5.37
	c1.47,2.4,2.81,4.57,2.58,7.49C109.53,64.05,109.34,66.52,107.46,68.24z"/>
<path class="st0" d="M115.78,49.27c-2.54,1.03-5.01-0.07-6.96-0.94c-1.55-0.69-5.97-2.66-7.64-7.52c-0.38-1.11-1.13-3.88-0.11-7.06
	c0.34-1.04,1.14-3.53,3.62-5.16c3.18-2.08,6.67-1.16,7.38-0.97c0.48,0.13,2.88,0.8,4.89,3.03c1.86,2.07,2.29,4.28,2.78,6.78
	c0.54,2.76,1.02,5.26-0.22,7.92C119.19,46.08,118.14,48.32,115.78,49.27z"/>
<path class="st0" d="M132.77,42.22c-2.73-0.17-4.49-2.22-5.87-3.84c-1.1-1.29-4.25-4.97-3.66-10.08c0.13-1.16,0.65-3.99,2.94-6.42
	c0.75-0.79,2.54-2.69,5.49-3.1c3.77-0.51,6.52,1.82,7.08,2.3c0.38,0.32,2.26,1.97,3.11,4.83c0.79,2.67,0.23,4.86-0.41,7.32
	c-0.7,2.72-1.34,5.19-3.6,7.06C137.22,40.8,135.31,42.37,132.77,42.22z"/>
<path class="st0" d="M151.4,52.16c-2.55-0.99-3.6-3.49-4.42-5.45c-0.66-1.57-2.53-6.03-0.41-10.71c0.48-1.07,1.83-3.6,4.76-5.21
	c0.96-0.53,3.24-1.79,6.17-1.27c3.74,0.66,5.65,3.72,6.04,4.35c0.26,0.42,1.55,2.56,1.48,5.55c-0.06,2.79-1.26,4.69-2.62,6.84
	c-1.5,2.38-2.86,4.54-5.59,5.62C156.07,52.18,153.77,53.09,151.4,52.16z"/>
<path class="st0" d="M121.02,91.08c-2.94-0.88-4.88-1.47-6.65-3.15c-2.29-2.18-2.91-4.89-3.32-6.66c-0.32-1.41-0.88-3.85-0.08-6.66
	c0.36-1.25,1.13-2.59,2.69-5.27c1.15-1.98,1.52-2.36,2.22-3.88c0.49-1.06,0.83-2.04,1.48-3.97c1.17-3.45,1.03-3.6,1.58-4.71
	c1.06-2.17,2.52-3.51,3.24-4.16c1.06-0.96,3.13-2.77,6.38-3.41c3.03-0.6,5.47,0.15,6.75,0.56c2.44,0.78,4.25,2.06,4.99,2.59
	c1.57,1.13,1.63,1.53,3.05,2.41c1.66,1.02,2.69,1.17,4.62,1.85c1.91,0.68,4.09,1.45,6.1,2.97c3.17,2.38,4.49,5.55,4.98,6.75
	c0.6,1.47,1.29,3.18,1.1,5.46c-0.15,1.8-0.78,3.09-1.58,4.71c-0.7,1.43-1.47,3-3.06,4.53c-1.91,1.84-3.94,2.58-5,2.95
	c-3.05,1.08-3.68,0.23-7.49,1.19c-2.15,0.54-3.73,1.26-5.83,2.21c-3,1.36-3.06,1.74-5.74,2.86c-2.47,1.03-3.99,1.65-6.1,1.66
	C123.81,91.92,122.72,91.59,121.02,91.08z"/>
<path class="st1" d="M141.36,203.92c1.59,1.33,3.63,1.12,5.24,0.95c1.28-0.14,4.93-0.52,7.27-3.64c0.53-0.71,1.72-2.53,1.73-5.06
	c0-0.83,0.01-2.81-1.41-4.57c-1.81-2.25-4.54-2.4-5.1-2.43c-0.38-0.02-2.27-0.1-4.23,1.04c-1.83,1.06-2.66,2.55-3.59,4.24
	c-1.03,1.87-1.97,3.56-1.7,5.76C139.64,200.82,139.88,202.68,141.36,203.92z"/>
<path class="st1" d="M134.4,189.84c1.96,0.69,3.79-0.23,5.24-0.95c1.15-0.58,4.43-2.22,5.53-5.96c0.25-0.85,0.72-2.97-0.16-5.35
	c-0.29-0.78-0.98-2.63-2.92-3.78c-2.48-1.47-5.09-0.65-5.62-0.48c-0.36,0.11-2.16,0.71-3.6,2.46c-1.34,1.63-1.59,3.32-1.87,5.23
	c-0.31,2.11-0.59,4.02,0.44,5.99C131.71,187.54,132.58,189.2,134.4,189.84z"/>
<path class="st1" d="M121.29,185.08c2.07-0.22,3.32-1.84,4.32-3.11c0.79-1.02,3.05-3.91,2.42-7.76c-0.14-0.88-0.63-3-2.45-4.76
	c-0.6-0.58-2.02-1.95-4.26-2.16c-2.87-0.26-4.87,1.6-5.29,1.98c-0.28,0.26-1.64,1.57-2.19,3.77c-0.51,2.05-0.01,3.69,0.56,5.53
	c0.63,2.04,1.19,3.89,2.97,5.22C117.87,184.16,119.37,185.28,121.29,185.08z"/>
<path class="st1" d="M107.52,193.26c1.9-0.84,2.6-2.76,3.16-4.28c0.44-1.21,1.71-4.66-0.06-8.13c-0.4-0.79-1.51-2.66-3.78-3.78
	c-0.74-0.37-2.52-1.24-4.72-0.75c-2.81,0.63-4.15,3.01-4.43,3.5c-0.19,0.33-1.09,1.99-0.93,4.26c0.14,2.11,1.12,3.51,2.22,5.09
	c1.22,1.75,2.32,3.34,4.43,4.06C103.98,193.43,105.75,194.04,107.52,193.26z"/>
<path class="st1" d="M131.87,221.69c2.2-0.77,3.65-1.28,4.93-2.62c1.66-1.73,2.04-3.8,2.29-5.16c0.2-1.08,0.54-2.95-0.17-5.05
	c-0.31-0.94-0.95-1.92-2.22-3.9c-0.94-1.46-1.23-1.74-1.82-2.86c-0.41-0.78-0.7-1.52-1.26-2.96c-1.01-2.58-0.91-2.69-1.36-3.52
	c-0.88-1.61-2.03-2.57-2.6-3.04c-0.84-0.69-2.47-1.99-4.95-2.37c-2.32-0.35-4.14,0.3-5.09,0.66c-1.82,0.67-3.15,1.71-3.69,2.14
	c-1.15,0.91-1.18,1.21-2.23,1.93c-1.22,0.83-2,0.98-3.44,1.56c-1.42,0.58-3.05,1.24-4.52,2.46c-2.32,1.92-3.21,4.36-3.54,5.29
	c-0.4,1.14-0.87,2.46-0.65,4.17c0.18,1.36,0.7,2.32,1.36,3.52c0.58,1.06,1.22,2.22,2.47,3.32c1.51,1.33,3.07,1.82,3.89,2.06
	c2.35,0.71,2.8,0.05,5.71,0.65c1.65,0.34,2.87,0.83,4.49,1.47c2.32,0.93,2.38,1.21,4.44,1.97c1.91,0.7,3.08,1.11,4.68,1.04
	C129.79,222.42,130.6,222.13,131.87,221.69z"/>
<path class="st0" d="M30.32,198.03c-1.82,1.68-4.26,1.53-6.18,1.41c-1.53-0.09-5.9-0.35-8.85-3.94c-0.67-0.82-2.19-2.92-2.33-5.93
	c-0.05-0.99-0.16-3.34,1.43-5.51c2.03-2.77,5.27-3.1,5.93-3.17c0.45-0.05,2.69-0.24,5.09,1.01c2.24,1.16,3.3,2.89,4.51,4.85
	c1.33,2.17,2.54,4.13,2.33,6.77C32.19,194.24,32.02,196.47,30.32,198.03z"/>
<path class="st0" d="M37.84,180.89c-2.29,0.93-4.52-0.07-6.28-0.85c-1.4-0.62-5.4-2.41-6.9-6.8c-0.34-1-1.02-3.5-0.1-6.37
	c0.3-0.94,1.03-3.19,3.27-4.66c2.87-1.88,6.02-1.05,6.67-0.88c0.44,0.12,2.61,0.73,4.41,2.74c1.68,1.87,2.07,3.87,2.51,6.12
	c0.49,2.5,0.93,4.76-0.2,7.16C40.92,178.01,39.97,180.03,37.84,180.89z"/>
<path class="st0" d="M53.19,174.52c-2.47-0.15-4.06-2.01-5.31-3.47c-1-1.17-3.84-4.49-3.31-9.1c0.12-1.05,0.58-3.6,2.65-5.8
	c0.68-0.72,2.3-2.43,4.96-2.8c3.4-0.46,5.89,1.64,6.4,2.08c0.34,0.29,2.04,1.78,2.81,4.37c0.72,2.42,0.21,4.39-0.37,6.61
	c-0.64,2.46-1.21,4.69-3.26,6.37C57.21,173.24,55.49,174.66,53.19,174.52z"/>
<path class="st0" d="M70.02,183.5c-2.31-0.9-3.25-3.15-3.99-4.93c-0.59-1.42-2.28-5.45-0.37-9.68c0.44-0.96,1.66-3.25,4.3-4.71
	c0.86-0.48,2.93-1.62,5.58-1.15c3.38,0.6,5.11,3.36,5.46,3.93c0.24,0.38,1.4,2.31,1.34,5.02c-0.06,2.52-1.14,4.24-2.37,6.18
	c-1.36,2.15-2.59,4.1-5.05,5.08C74.24,183.51,72.17,184.34,70.02,183.5z"/>
<path class="st0" d="M42.57,218.66c-2.66-0.8-4.41-1.33-6.01-2.85c-2.07-1.97-2.63-4.42-3-6.02c-0.29-1.27-0.8-3.48-0.08-6.01
	c0.32-1.13,1.02-2.34,2.43-4.76c1.04-1.78,1.37-2.14,2.01-3.51c0.44-0.96,0.75-1.85,1.34-3.59c1.06-3.12,0.93-3.25,1.42-4.26
	c0.96-1.96,2.28-3.17,2.93-3.76c0.96-0.86,2.83-2.51,5.77-3.08c2.74-0.54,4.94,0.14,6.1,0.51c2.2,0.7,3.84,1.86,4.51,2.34
	c1.42,1.02,1.47,1.38,2.75,2.17c1.5,0.92,2.43,1.06,4.17,1.68c1.72,0.61,3.7,1.31,5.51,2.68c2.86,2.15,4.06,5.01,4.5,6.1
	c0.54,1.33,1.17,2.88,1,4.93c-0.14,1.63-0.71,2.8-1.42,4.26c-0.63,1.29-1.33,2.71-2.76,4.09c-1.73,1.66-3.56,2.33-4.51,2.67
	c-2.76,0.97-3.33,0.21-6.77,1.08c-1.94,0.49-3.37,1.14-5.26,2c-2.71,1.23-2.76,1.57-5.18,2.58c-2.23,0.93-3.61,1.49-5.51,1.5
	C45.1,219.42,44.11,219.12,42.57,218.66z"/>
<path class="st2" d="M113.88,132.79c-2.04,1.06-4.2,0.34-5.9-0.23c-1.35-0.45-5.22-1.75-7-5.69c-0.41-0.9-1.26-3.15-0.65-5.9
	c0.2-0.9,0.67-3.04,2.62-4.61c2.5-2,5.49-1.51,6.1-1.4c0.41,0.07,2.48,0.44,4.33,2.14c1.73,1.59,2.26,3.4,2.87,5.45
	c0.67,2.27,1.28,4.33,0.45,6.65C116.48,129.84,115.78,131.8,113.88,132.79z"/>
<path class="st2" d="M124.8,119.21c-2.29,0.28-4.05-1.16-5.44-2.29c-1.11-0.9-4.27-3.47-4.55-7.79c-0.06-0.98-0.07-3.4,1.46-5.75
	c0.5-0.77,1.7-2.61,4.07-3.39c3.04-0.99,5.67,0.52,6.21,0.83c0.36,0.21,2.17,1.28,3.3,3.53c1.06,2.09,0.92,3.98,0.77,6.11
	c-0.17,2.36-0.32,4.5-1.92,6.38C128.27,117.37,126.92,118.96,124.8,119.21z"/>
<path class="st2" d="M140.14,117.21c-2.18-0.73-3.16-2.79-3.93-4.41c-0.61-1.29-2.36-4.97-0.76-8.99c0.36-0.91,1.4-3.09,3.79-4.56
	c0.78-0.48,2.66-1.63,5.14-1.31c3.17,0.41,4.89,2.91,5.25,3.42c0.24,0.35,1.4,2.09,1.46,4.61c0.06,2.34-0.88,3.99-1.94,5.85
	c-1.17,2.06-2.23,3.92-4.48,4.94C144.07,117.04,142.17,117.9,140.14,117.21z"/>
<path class="st2" d="M153.09,129.38c-1.86-1.37-2.16-3.62-2.39-5.4c-0.19-1.42-0.73-5.45,2.02-8.79c0.63-0.76,2.28-2.52,5.01-3.19
	c0.89-0.22,3.03-0.74,5.29,0.32c2.89,1.36,3.77,4.26,3.95,4.86c0.12,0.4,0.7,2.42-0.01,4.83c-0.66,2.25-2.06,3.53-3.63,4.98
	c-1.74,1.6-3.32,3.06-5.77,3.34C156.88,130.42,154.81,130.65,153.09,129.38z"/>
<path class="st2" d="M119.87,154.31c-2.19-1.36-3.64-2.26-4.71-4.02c-1.38-2.27-1.29-4.61-1.23-6.14c0.05-1.21,0.13-3.32,1.39-5.42
	c0.56-0.94,1.49-1.85,3.34-3.69c1.37-1.35,1.75-1.59,2.66-2.66c0.63-0.75,1.12-1.48,2.08-2.9c1.71-2.55,1.63-2.7,2.32-3.48
	c1.34-1.53,2.82-2.3,3.54-2.66c1.07-0.54,3.15-1.57,5.93-1.37c2.59,0.18,4.41,1.32,5.36,1.94c1.81,1.17,3,2.6,3.48,3.2
	c1.03,1.26,0.99,1.6,1.95,2.62c1.12,1.19,1.93,1.54,3.34,2.52c1.4,0.97,3,2.08,4.3,3.75c2.05,2.63,2.43,5.49,2.56,6.58
	c0.16,1.33,0.35,2.87-0.3,4.67c-0.52,1.43-1.32,2.34-2.32,3.48c-0.88,1-1.85,2.11-3.48,3c-1.96,1.07-3.77,1.23-4.71,1.3
	c-2.71,0.21-3.04-0.62-6.34-0.68c-1.86-0.03-3.31,0.2-5.22,0.52c-2.74,0.45-2.87,0.74-5.29,1.06c-2.23,0.3-3.61,0.47-5.32,0.01
	C121.96,155.61,121.14,155.1,119.87,154.31z"/>
<path class="st1" d="M58.52,62.38c1.5,1.44,3.55,1.35,5.16,1.29c1.29-0.05,4.96-0.2,7.49-3.16c0.58-0.67,1.88-2.41,2.05-4.94
	c0.06-0.83,0.19-2.8-1.11-4.65c-1.66-2.36-4.37-2.69-4.93-2.76c-0.38-0.05-2.26-0.24-4.29,0.76c-1.9,0.94-2.82,2.37-3.86,4
	c-1.15,1.8-2.2,3.42-2.07,5.64C57.01,59.18,57.12,61.05,58.52,62.38z"/>
<path class="st1" d="M52.49,47.88c1.91,0.82,3.8,0.02,5.29-0.61c1.19-0.5,4.57-1.93,5.9-5.59c0.3-0.83,0.92-2.92,0.19-5.35
	c-0.24-0.79-0.81-2.69-2.67-3.96c-2.38-1.63-5.04-0.98-5.58-0.85c-0.37,0.09-2.2,0.57-3.75,2.22c-1.44,1.54-1.8,3.21-2.21,5.1
	c-0.45,2.09-0.85,3.98,0.05,6.01C49.95,45.41,50.71,47.12,52.49,47.88z"/>
<path class="st1" d="M39.71,42.28c2.08-0.09,3.44-1.62,4.51-2.83c0.86-0.96,3.29-3.71,2.92-7.59c-0.08-0.88-0.43-3.03-2.13-4.91
	c-0.56-0.61-1.89-2.08-4.11-2.43c-2.85-0.44-4.97,1.28-5.4,1.64c-0.29,0.24-1.74,1.46-2.43,3.62c-0.64,2.02-0.25,3.68,0.2,5.55
	c0.49,2.08,0.94,3.96,2.63,5.4C36.36,41.14,37.78,42.36,39.71,42.28z"/>
<path class="st1" d="M25.44,49.54c1.95-0.71,2.78-2.59,3.43-4.07c0.52-1.18,2-4.54,0.47-8.12c-0.35-0.81-1.34-2.76-3.53-4.02
	c-0.72-0.41-2.43-1.4-4.66-1.06c-2.85,0.45-4.34,2.74-4.64,3.21c-0.21,0.32-1.21,1.92-1.21,4.19c0.01,2.11,0.89,3.58,1.89,5.23
	c1.1,1.83,2.1,3.48,4.15,4.34C21.9,49.48,23.63,50.21,25.44,49.54z"/>
<path class="st1" d="M47.9,79.49c2.24-0.63,3.72-1.04,5.09-2.29c1.77-1.62,2.28-3.66,2.62-5c0.27-1.06,0.73-2.91,0.16-5.05
	c-0.25-0.95-0.82-1.98-1.96-4.03c-0.84-1.51-1.12-1.82-1.63-2.97c-0.36-0.81-0.6-1.56-1.07-3.03c-0.84-2.64-0.73-2.74-1.13-3.6
	c-0.77-1.66-1.86-2.7-2.4-3.2c-0.79-0.74-2.33-2.15-4.79-2.68c-2.29-0.5-4.15,0.03-5.12,0.33c-1.86,0.55-3.25,1.5-3.82,1.89
	c-1.21,0.83-1.26,1.14-2.35,1.78c-1.27,0.75-2.06,0.85-3.53,1.34c-1.46,0.49-3.12,1.04-4.67,2.16c-2.44,1.76-3.49,4.14-3.88,5.05
	c-0.47,1.11-1.03,2.4-0.92,4.12c0.09,1.37,0.55,2.36,1.13,3.6c0.51,1.09,1.07,2.3,2.25,3.48c1.42,1.42,2.95,2.01,3.74,2.31
	c2.3,0.86,2.79,0.23,5.66,1.02c1.62,0.44,2.81,1.01,4.38,1.76c2.26,1.08,2.29,1.36,4.31,2.25c1.86,0.82,3,1.31,4.6,1.35
	C45.77,80.09,46.6,79.86,47.9,79.49z"/>
<path class="st2" d="M18.55,117.49c-2.23,0.59-4.17-0.59-5.71-1.51c-1.22-0.74-4.71-2.85-5.59-7.08c-0.2-0.96-0.54-3.35,0.65-5.9
	c0.39-0.83,1.32-2.82,3.56-3.92c2.87-1.41,5.69-0.27,6.26-0.04c0.39,0.16,2.32,0.97,3.76,3.04c1.34,1.93,1.47,3.82,1.61,5.95
	c0.16,2.36,0.3,4.5-1.01,6.59C21.73,115.18,20.62,116.94,18.55,117.49z"/>
<path class="st2" d="M32.16,106.62c-2.29-0.23-3.7-2.02-4.81-3.42c-0.88-1.12-3.41-4.32-2.74-8.59c0.15-0.97,0.67-3.33,2.68-5.3
	c0.66-0.64,2.23-2.18,4.72-2.42c3.18-0.31,5.42,1.74,5.88,2.17c0.31,0.28,1.83,1.73,2.45,4.17c0.58,2.27,0.03,4.09-0.58,6.14
	c-0.68,2.27-1.3,4.32-3.26,5.81C35.95,105.58,34.29,106.84,32.16,106.62z"/>
<path class="st2" d="M47.57,108.02c-1.97-1.19-2.47-3.41-2.87-5.16c-0.32-1.39-1.22-5.37,1.22-8.93c0.55-0.81,2.04-2.72,4.7-3.63
	c0.87-0.3,2.95-1.01,5.3-0.16c3,1.09,4.14,3.91,4.37,4.48c0.16,0.39,0.91,2.35,0.42,4.82c-0.46,2.3-1.73,3.7-3.17,5.29
	c-1.59,1.75-3.03,3.34-5.45,3.84C51.44,108.71,49.41,109.13,47.57,108.02z"/>
<path class="st2" d="M57.55,122.72c-1.51-1.74-1.31-4-1.16-5.79c0.12-1.42,0.48-5.48,3.89-8.14c0.78-0.6,2.77-1.96,5.58-2.02
	c0.92-0.02,3.12-0.06,5.09,1.47c2.53,1.96,2.75,4.98,2.8,5.6c0.03,0.42,0.15,2.51-1.07,4.72c-1.14,2.05-2.78,3-4.63,4.07
	c-2.05,1.18-3.91,2.26-6.36,2C61.03,124.55,58.96,124.33,57.55,122.72z"/>
<path class="st2" d="M19.7,139.8c-1.84-1.81-3.06-3-3.72-4.95c-0.85-2.52-0.26-4.78,0.13-6.26c0.31-1.17,0.85-3.21,2.54-4.99
	c0.75-0.79,1.86-1.49,4.06-2.87c1.63-1.02,2.06-1.17,3.17-2.02c0.78-0.6,1.42-1.2,2.66-2.38c2.22-2.11,2.18-2.28,3.02-2.89
	c1.64-1.2,3.25-1.63,4.04-1.83c1.17-0.3,3.42-0.84,6.09-0.04c2.49,0.74,4.01,2.25,4.8,3.06c1.51,1.53,2.36,3.2,2.7,3.88
	c0.73,1.45,0.61,1.78,1.33,2.99c0.83,1.41,1.55,1.93,2.71,3.19c1.15,1.25,2.48,2.68,3.38,4.59c1.42,3.01,1.18,5.89,1.07,6.98
	c-0.13,1.33-0.28,2.88-1.31,4.49c-0.82,1.28-1.8,2-3.02,2.89c-1.08,0.79-2.27,1.66-4.05,2.17c-2.14,0.62-3.94,0.38-4.88,0.24
	c-2.69-0.39-2.83-1.27-6.04-2.04c-1.81-0.44-3.27-0.52-5.2-0.63c-2.77-0.16-2.96,0.1-5.39-0.12c-2.25-0.2-3.62-0.33-5.19-1.15
	C21.45,141.52,20.77,140.85,19.7,139.8z"/>
</svg>
