<?xml version="1.0" encoding="utf-8"?>
<!-- Generator: Adobe Illustrator 25.4.8, SVG Export Plug-In . SVG Version: 6.00 Build 0)  -->
<svg version="1.1" id="Layer_1" xmlns="http://www.w3.org/2000/svg" xmlns:xlink="http://www.w3.org/1999/xlink" x="0px" y="0px"
	 viewBox="0 0 174 243" style="enable-background:new 0 0 174 243;" xml:space="preserve">
<style type="text/css">
	.st0{fill:#AB3F8A;}
	.st1{opacity:0.75;fill:#AB3F8A;}
</style>
<path class="st0" d="M53.41,176.75c-3.76,1.08-7.1-0.84-9.74-2.36c-2.1-1.21-8.09-4.66-9.74-11.8c-0.37-1.63-1.04-5.67,0.89-10.03
	c0.63-1.43,2.13-4.84,5.9-6.79c4.82-2.49,9.63-0.67,10.62-0.3c0.67,0.25,3.98,1.56,6.49,5.02c2.34,3.22,2.63,6.42,2.95,10.03
	c0.36,4,0.68,7.62-1.48,11.21C58.72,172.72,56.91,175.74,53.41,176.75z"/>
<path class="st0" d="M76.12,157.82c-3.9-0.31-6.35-3.28-8.28-5.63c-1.54-1.87-5.94-7.21-4.96-14.47c0.22-1.65,1.02-5.67,4.36-9.08
	c1.09-1.11,3.7-3.78,7.91-4.28c5.39-0.64,9.25,2.76,10.05,3.46c0.53,0.47,3.17,2.86,4.31,6.98c1.06,3.84,0.2,6.93-0.77,10.43
	c-1.07,3.87-2.04,7.38-5.32,9.98C82.51,155.91,79.74,158.1,76.12,157.82z"/>
<path class="st0" d="M102.31,159.63c-3.39-1.95-4.32-5.7-5.06-8.65c-0.59-2.35-2.26-9.06,1.74-15.2c0.91-1.4,3.36-4.68,7.84-6.32
	c1.46-0.54,4.96-1.82,8.98-0.46c5.14,1.74,7.17,6.47,7.58,7.44c0.28,0.65,1.63,3.95,0.89,8.15c-0.69,3.92-2.8,6.35-5.18,9.09
	c-2.63,3.03-5.02,5.78-9.1,6.72C108.9,160.65,105.46,161.44,102.31,159.63z"/>
<path class="st0" d="M119.78,184.2c-2.63-2.89-2.37-6.74-2.17-9.78c0.16-2.42,0.62-9.32,6.3-13.94c1.29-1.05,4.63-3.43,9.4-3.63
	c1.56-0.06,5.28-0.22,8.69,2.31c4.36,3.23,4.85,8.35,4.95,9.4c0.07,0.71,0.35,4.26-1.64,8.04c-1.86,3.52-4.6,5.19-7.7,7.07
	c-3.43,2.08-6.54,3.97-10.71,3.62C125.74,187.19,122.22,186.89,119.78,184.2z"/>
<path class="st0" d="M56.18,214.55c-3.19-3-5.3-4.98-6.49-8.26c-1.54-4.25-0.61-8.1,0-10.62c0.48-2,1.32-5.48,4.13-8.56
	c1.25-1.37,3.1-2.59,6.79-5.02c2.72-1.79,3.45-2.05,5.31-3.54c1.3-1.04,2.36-2.08,4.43-4.13c3.7-3.67,3.61-3.94,5.02-5.02
	c2.74-2.1,5.46-2.88,6.79-3.25c1.97-0.55,5.77-1.55,10.33-0.3c4.25,1.17,6.88,3.68,8.26,5.02c2.62,2.55,4.11,5.34,4.72,6.49
	c1.29,2.44,1.11,2.99,2.36,5.02c1.46,2.36,2.7,3.21,4.72,5.31c2,2.08,4.3,4.46,5.9,7.67c2.53,5.06,2.21,9.95,2.07,11.8
	c-0.17,2.26-0.38,4.89-2.07,7.67c-1.34,2.2-2.97,3.45-5.02,5.02c-1.8,1.38-3.79,2.9-6.79,3.84c-3.62,1.13-6.68,0.79-8.26,0.59
	c-4.58-0.57-4.85-2.05-10.33-3.25c-3.09-0.68-5.57-0.77-8.85-0.89c-4.71-0.17-5.02,0.27-9.15,0c-3.82-0.25-6.15-0.43-8.85-1.77
	C59.22,217.4,58.04,216.29,56.18,214.55z"/>
<path class="st1" d="M65.8,76.99c-2.24,2.06-5.24,1.88-7.61,1.74c-1.89-0.11-7.26-0.44-10.9-4.85c-0.83-1-2.69-3.59-2.87-7.31
	c-0.06-1.21-0.2-4.12,1.76-6.79c2.5-3.41,6.49-3.82,7.31-3.9c0.55-0.06,3.32-0.29,6.27,1.24c2.75,1.43,4.07,3.56,5.55,5.97
	c1.64,2.67,3.13,5.08,2.87,8.33C68.11,72.33,67.89,75.07,65.8,76.99z"/>
<path class="st1" d="M75.06,55.89c-2.82,1.14-5.57-0.08-7.74-1.05c-1.73-0.77-6.65-2.96-8.5-8.37c-0.42-1.23-1.26-4.31-0.12-7.85
	c0.37-1.16,1.26-3.92,4.03-5.73c3.54-2.32,7.42-1.29,8.21-1.08c0.54,0.14,3.21,0.89,5.44,3.37c2.07,2.31,2.55,4.77,3.09,7.54
	c0.6,3.07,1.14,5.86-0.24,8.81C78.85,52.34,77.69,54.83,75.06,55.89z"/>
<path class="st1" d="M93.96,48.04c-3.04-0.18-4.99-2.47-6.53-4.28c-1.23-1.44-4.73-5.53-4.07-11.21c0.15-1.29,0.72-4.43,3.27-7.14
	c0.83-0.88,2.83-3,6.11-3.44c4.19-0.57,7.25,2.02,7.88,2.56c0.42,0.36,2.51,2.19,3.46,5.38c0.88,2.97,0.25,5.4-0.45,8.14
	c-0.78,3.03-1.49,5.78-4.01,7.85C98.91,46.46,96.79,48.21,93.96,48.04z"/>
<path class="st1" d="M114.68,59.1c-2.84-1.1-4-3.88-4.92-6.07c-0.73-1.74-2.81-6.71-0.45-11.92c0.54-1.19,2.04-4,5.29-5.8
	c1.06-0.59,3.61-1.99,6.87-1.41c4.16,0.74,6.29,4.14,6.72,4.84c0.29,0.47,1.73,2.85,1.65,6.18c-0.07,3.1-1.41,5.22-2.92,7.61
	c-1.67,2.65-3.18,5.05-6.22,6.25C119.88,59.12,117.32,60.13,114.68,59.1z"/>
<path class="st1" d="M80.89,102.39c-3.27-0.98-5.43-1.63-7.4-3.51c-2.55-2.42-3.24-5.44-3.69-7.41c-0.36-1.56-0.98-4.28-0.09-7.4
	c0.4-1.39,1.26-2.88,2.99-5.86c1.28-2.2,1.69-2.63,2.47-4.32c0.55-1.18,0.92-2.27,1.65-4.42c1.3-3.84,1.15-4,1.75-5.24
	c1.18-2.42,2.8-3.9,3.6-4.62c1.18-1.06,3.49-3.09,7.1-3.8c3.37-0.66,6.08,0.17,7.51,0.63c2.71,0.87,4.72,2.29,5.55,2.89
	c1.75,1.26,1.81,1.7,3.39,2.68c1.84,1.14,3,1.3,5.14,2.06c2.12,0.75,4.55,1.62,6.78,3.3c3.52,2.65,5,6.17,5.55,7.51
	c0.66,1.64,1.44,3.54,1.23,6.07c-0.17,2-0.87,3.44-1.75,5.24c-0.78,1.59-1.64,3.34-3.4,5.04c-2.13,2.05-4.38,2.87-5.56,3.28
	c-3.39,1.2-4.1,0.26-8.33,1.33c-2.39,0.6-4.15,1.4-6.48,2.46c-3.34,1.52-3.4,1.94-6.38,3.18c-2.75,1.15-4.44,1.84-6.79,1.84
	C84,103.33,82.78,102.96,80.89,102.39z"/>
</svg>
