<?xml version="1.0" encoding="utf-8"?>
<!-- Generator: Adobe Illustrator 25.4.8, SVG Export Plug-In . SVG Version: 6.00 Build 0)  -->
<svg version="1.1" id="Layer_1" xmlns="http://www.w3.org/2000/svg" xmlns:xlink="http://www.w3.org/1999/xlink" x="0px" y="0px"
	 viewBox="0 0 174 243" style="enable-background:new 0 0 174 243;" xml:space="preserve">
<style type="text/css">
	.st0{fill:#AB3F8A;}
	.st1{opacity:0.75;fill:#AB3F8A;}
	.st2{opacity:0.44;fill:#AB3F8A;}
	.st3{opacity:0.53;fill:#AB3F8A;}
</style>
<path class="st0" d="M60.26,181.03c-3.05,0.88-5.77-0.68-7.91-1.92c-1.71-0.98-6.57-3.78-7.91-9.59c-0.3-1.32-0.84-4.6,0.72-8.15
	c0.51-1.16,1.73-3.93,4.79-5.51c3.91-2.02,7.83-0.54,8.63-0.24c0.54,0.2,3.23,1.27,5.27,4.07c1.9,2.61,2.13,5.21,2.4,8.15
	c0.29,3.25,0.55,6.19-1.2,9.11C64.58,177.76,63.1,180.22,60.26,181.03z"/>
<path class="st0" d="M78.7,165.66c-3.17-0.25-5.16-2.67-6.73-4.58c-1.25-1.52-4.82-5.85-4.03-11.75c0.18-1.34,0.83-4.61,3.54-7.37
	c0.89-0.91,3-3.07,6.43-3.47c4.38-0.52,7.52,2.24,8.16,2.81c0.43,0.38,2.58,2.32,3.5,5.67c0.86,3.12,0.16,5.63-0.62,8.47
	c-0.87,3.14-1.66,5.99-4.32,8.1C83.89,164.11,81.65,165.89,78.7,165.66z"/>
<path class="st0" d="M99.98,167.13c-2.75-1.59-3.51-4.63-4.11-7.03c-0.48-1.91-1.83-7.36,1.42-12.35c0.74-1.14,2.73-3.8,6.37-5.14
	c1.19-0.44,4.03-1.48,7.29-0.37c4.17,1.42,5.82,5.26,6.16,6.05c0.23,0.53,1.33,3.21,0.72,6.62c-0.56,3.18-2.27,5.16-4.21,7.38
	c-2.14,2.46-4.08,4.69-7.39,5.46C105.33,167.96,102.54,168.6,99.98,167.13z"/>
<path class="st0" d="M114.16,187.08c-2.13-2.35-1.93-5.48-1.76-7.94c0.13-1.96,0.5-7.57,5.12-11.32c1.05-0.86,3.76-2.79,7.63-2.95
	c1.27-0.05,4.29-0.18,7.06,1.87c3.54,2.62,3.94,6.78,4.02,7.64c0.05,0.58,0.28,3.46-1.33,6.53c-1.51,2.86-3.74,4.21-6.26,5.74
	c-2.79,1.69-5.32,3.23-8.7,2.94C119,189.51,116.15,189.27,114.16,187.08z"/>
<path class="st0" d="M62.51,211.74c-2.59-2.44-4.31-4.05-5.27-6.71c-1.25-3.45-0.49-6.58,0-8.63c0.39-1.62,1.08-4.45,3.36-6.95
	c1.02-1.11,2.51-2.1,5.51-4.07c2.21-1.46,2.8-1.67,4.31-2.88c1.06-0.84,1.92-1.69,3.59-3.36c3-2.98,2.93-3.2,4.07-4.07
	c2.23-1.7,4.43-2.34,5.51-2.64c1.6-0.44,4.69-1.26,8.39-0.24c3.45,0.95,5.59,2.98,6.71,4.07c2.12,2.07,3.34,4.33,3.83,5.27
	c1.05,1.98,0.9,2.43,1.92,4.07c1.19,1.92,2.19,2.61,3.83,4.31c1.63,1.69,3.49,3.63,4.79,6.23c2.05,4.11,1.79,8.08,1.68,9.59
	c-0.14,1.84-0.31,3.97-1.68,6.23c-1.09,1.79-2.41,2.81-4.07,4.07c-1.46,1.12-3.08,2.35-5.51,3.12c-2.94,0.92-5.42,0.64-6.71,0.48
	c-3.72-0.46-3.94-1.66-8.39-2.64c-2.51-0.55-4.53-0.62-7.19-0.72c-3.82-0.14-4.07,0.22-7.43,0c-3.1-0.21-5-0.35-7.19-1.44
	C64.98,214.06,64.02,213.15,62.51,211.74z"/>
<path class="st1" d="M111.09,112.75c-1.82,1.68-4.26,1.53-6.18,1.41c-1.53-0.09-5.9-0.35-8.85-3.94c-0.67-0.82-2.19-2.92-2.33-5.93
	c-0.05-0.99-0.16-3.34,1.43-5.51c2.03-2.77,5.27-3.1,5.93-3.17c0.45-0.05,2.69-0.24,5.09,1.01c2.24,1.16,3.3,2.89,4.51,4.85
	c1.33,2.17,2.54,4.13,2.33,6.77C112.96,108.96,112.78,111.19,111.09,112.75z"/>
<path class="st1" d="M118.61,95.61c-2.29,0.93-4.52-0.07-6.28-0.85c-1.4-0.62-5.4-2.41-6.9-6.8c-0.34-1-1.02-3.5-0.1-6.37
	c0.3-0.94,1.03-3.19,3.27-4.66c2.87-1.88,6.02-1.05,6.67-0.88c0.44,0.12,2.61,0.73,4.41,2.74c1.68,1.87,2.07,3.87,2.51,6.12
	c0.49,2.5,0.93,4.76-0.2,7.16C121.69,92.72,120.74,94.75,118.61,95.61z"/>
<path class="st1" d="M133.95,89.23c-2.47-0.15-4.06-2.01-5.31-3.47c-1-1.17-3.84-4.49-3.31-9.1c0.12-1.05,0.58-3.6,2.65-5.8
	c0.68-0.72,2.3-2.43,4.96-2.8c3.4-0.46,5.89,1.64,6.4,2.08c0.34,0.29,2.04,1.78,2.81,4.37c0.72,2.42,0.21,4.39-0.37,6.61
	c-0.64,2.46-1.21,4.69-3.26,6.37C137.98,87.95,136.25,89.37,133.95,89.23z"/>
<path class="st1" d="M150.79,98.22c-2.31-0.9-3.25-3.15-3.99-4.93c-0.59-1.42-2.28-5.45-0.37-9.68c0.44-0.96,1.66-3.25,4.3-4.71
	c0.86-0.48,2.93-1.62,5.58-1.15c3.38,0.6,5.11,3.36,5.46,3.93c0.24,0.38,1.4,2.31,1.34,5.02c-0.06,2.52-1.14,4.24-2.37,6.18
	c-1.36,2.15-2.59,4.1-5.05,5.08C155.01,98.23,152.93,99.06,150.79,98.22z"/>
<path class="st1" d="M123.34,133.38c-2.66-0.8-4.41-1.33-6.01-2.85c-2.07-1.97-2.63-4.42-3-6.02c-0.29-1.27-0.8-3.48-0.08-6.01
	c0.32-1.13,1.02-2.34,2.43-4.76c1.04-1.78,1.37-2.14,2.01-3.51c0.44-0.96,0.75-1.85,1.34-3.59c1.06-3.12,0.93-3.25,1.42-4.26
	c0.96-1.96,2.28-3.17,2.93-3.76c0.96-0.86,2.83-2.51,5.77-3.08c2.74-0.54,4.94,0.14,6.1,0.51c2.2,0.7,3.84,1.86,4.51,2.34
	c1.42,1.02,1.47,1.38,2.75,2.17c1.5,0.92,2.43,1.06,4.17,1.68c1.72,0.61,3.7,1.31,5.51,2.68c2.86,2.15,4.06,5.01,4.5,6.1
	c0.54,1.33,1.17,2.88,1,4.93c-0.14,1.63-0.71,2.8-1.42,4.26c-0.63,1.29-1.33,2.71-2.76,4.09c-1.73,1.66-3.56,2.33-4.51,2.67
	c-2.76,0.97-3.33,0.21-6.77,1.08c-1.94,0.49-3.37,1.14-5.26,2c-2.71,1.23-2.76,1.57-5.18,2.58c-2.23,0.93-3.61,1.49-5.51,1.5
	C125.86,134.14,124.88,133.84,123.34,133.38z"/>
<path class="st2" d="M67.33,49.85c-1.62,0.87-3.34,0.32-4.71-0.11c-1.09-0.35-4.18-1.33-5.65-4.45c-0.33-0.71-1.04-2.5-0.6-4.7
	c0.15-0.72,0.5-2.44,2.03-3.71c1.96-1.62,4.36-1.27,4.85-1.2c0.33,0.05,1.98,0.32,3.48,1.66c1.4,1.24,1.85,2.69,2.36,4.31
	c0.56,1.8,1.07,3.43,0.44,5.3C69.37,47.46,68.84,49.03,67.33,49.85z"/>
<path class="st2" d="M75.87,38.89c-1.82,0.25-3.24-0.87-4.37-1.76c-0.89-0.71-3.45-2.72-3.73-6.15c-0.06-0.78-0.1-2.71,1.09-4.61
	c0.39-0.62,1.32-2.11,3.21-2.75c2.41-0.83,4.53,0.34,4.96,0.58c0.29,0.16,1.74,1,2.68,2.77c0.87,1.66,0.79,3.16,0.69,4.87
	c-0.11,1.88-0.2,3.59-1.45,5.11C78.61,37.37,77.56,38.65,75.87,38.89z"/>
<path class="st2" d="M88.08,37.1c-1.75-0.56-2.55-2.18-3.19-3.47c-0.5-1.02-1.94-3.94-0.72-7.15c0.28-0.73,1.08-2.49,2.97-3.69
	c0.62-0.39,2.1-1.33,4.08-1.11c2.53,0.29,3.94,2.26,4.23,2.66c0.19,0.27,1.14,1.65,1.22,3.66c0.07,1.87-0.65,3.19-1.47,4.69
	c-0.91,1.66-1.73,3.16-3.51,3.99C91.21,36.91,89.71,37.62,88.08,37.1z"/>
<path class="st2" d="M98.55,46.64c-1.5-1.07-1.76-2.86-1.97-4.27c-0.17-1.13-0.65-4.34,1.5-7.03c0.49-0.61,1.78-2.04,3.95-2.6
	c0.71-0.19,2.4-0.63,4.22,0.19c2.32,1.05,3.06,3.35,3.21,3.82c0.1,0.32,0.59,1.92,0.05,3.86c-0.5,1.8-1.6,2.84-2.83,4.02
	c-1.37,1.3-2.61,2.48-4.56,2.73C101.59,47.42,99.94,47.63,98.55,46.64z"/>
<path class="st2" d="M72.38,66.93c-1.76-1.06-2.93-1.76-3.81-3.15c-1.13-1.8-1.09-3.66-1.06-4.88c0.02-0.97,0.06-2.65,1.04-4.34
	c0.44-0.76,1.16-1.5,2.62-2.98c1.07-1.1,1.38-1.29,2.09-2.16c0.49-0.61,0.88-1.19,1.62-2.34c1.33-2.05,1.26-2.17,1.8-2.8
	c1.05-1.24,2.22-1.87,2.79-2.17c0.85-0.45,2.49-1.29,4.71-1.17c2.07,0.11,3.53,1,4.3,1.48c1.46,0.91,2.42,2.04,2.82,2.51
	c0.83,0.99,0.81,1.26,1.59,2.07c0.91,0.94,1.56,1.2,2.7,1.97c1.13,0.75,2.42,1.62,3.48,2.93c1.67,2.07,2.01,4.35,2.13,5.21
	c0.15,1.06,0.32,2.28-0.18,3.73c-0.39,1.15-1.02,1.88-1.8,2.8c-0.69,0.81-1.45,1.71-2.73,2.44c-1.55,0.88-2.99,1.03-3.74,1.1
	c-2.16,0.2-2.43-0.46-5.07-0.46c-1.49,0-2.64,0.2-4.15,0.48c-2.18,0.39-2.28,0.63-4.2,0.91c-1.78,0.26-2.87,0.42-4.24,0.07
	C74.06,67.94,73.41,67.54,72.38,66.93z"/>
<path class="st3" d="M64.63,113.5c1.82,1.68,4.26,1.53,6.18,1.41c1.53-0.09,5.9-0.35,8.85-3.94c0.67-0.82,2.19-2.92,2.33-5.93
	c0.05-0.99,0.16-3.34-1.43-5.51c-2.03-2.77-5.27-3.1-5.93-3.17c-0.45-0.05-2.69-0.24-5.09,1.01c-2.24,1.16-3.3,2.89-4.51,4.85
	c-1.33,2.17-2.54,4.13-2.33,6.77C62.76,109.72,62.94,111.94,64.63,113.5z"/>
<path class="st3" d="M57.11,96.36c2.29,0.93,4.52-0.07,6.28-0.85c1.4-0.62,5.4-2.41,6.9-6.8c0.34-1,1.02-3.5,0.1-6.37
	c-0.3-0.94-1.03-3.19-3.27-4.66c-2.87-1.88-6.02-1.05-6.67-0.88c-0.44,0.12-2.61,0.73-4.41,2.74c-1.68,1.87-2.07,3.87-2.51,6.12
	c-0.49,2.5-0.93,4.76,0.2,7.16C54.03,93.48,54.98,95.5,57.11,96.36z"/>
<path class="st3" d="M41.77,89.99c2.47-0.15,4.06-2.01,5.31-3.47c1-1.17,3.84-4.49,3.31-9.1c-0.12-1.05-0.58-3.6-2.65-5.8
	c-0.68-0.72-2.3-2.43-4.96-2.8c-3.4-0.46-5.89,1.64-6.4,2.08c-0.34,0.29-2.04,1.78-2.81,4.37c-0.72,2.42-0.21,4.39,0.37,6.61
	c0.64,2.46,1.21,4.69,3.26,6.37C37.74,88.71,39.47,90.13,41.77,89.99z"/>
<path class="st3" d="M24.93,98.98c2.31-0.9,3.25-3.15,3.99-4.93c0.59-1.42,2.28-5.45,0.37-9.68c-0.44-0.96-1.66-3.25-4.3-4.71
	c-0.86-0.48-2.93-1.62-5.58-1.15c-3.38,0.6-5.11,3.36-5.46,3.93c-0.24,0.38-1.4,2.31-1.34,5.02c0.06,2.52,1.14,4.24,2.37,6.18
	c1.36,2.15,2.59,4.1,5.05,5.08C20.71,98.99,22.79,99.81,24.93,98.98z"/>
<path class="st3" d="M52.38,134.13c2.66-0.8,4.41-1.33,6.01-2.85c2.07-1.97,2.63-4.42,3-6.02c0.29-1.27,0.8-3.48,0.08-6.01
	c-0.32-1.13-1.02-2.34-2.43-4.76c-1.04-1.78-1.37-2.14-2.01-3.51c-0.44-0.96-0.75-1.85-1.34-3.59c-1.06-3.12-0.93-3.25-1.42-4.26
	c-0.96-1.96-2.28-3.17-2.93-3.76c-0.96-0.86-2.83-2.51-5.77-3.08c-2.74-0.54-4.94,0.14-6.1,0.51c-2.2,0.7-3.84,1.86-4.51,2.34
	c-1.42,1.02-1.47,1.38-2.75,2.17c-1.5,0.92-2.43,1.06-4.17,1.68c-1.72,0.61-3.7,1.31-5.51,2.68c-2.86,2.15-4.06,5.01-4.5,6.1
	c-0.54,1.33-1.17,2.88-1,4.93c0.14,1.63,0.71,2.8,1.42,4.26c0.63,1.29,1.33,2.71,2.76,4.09c1.73,1.66,3.56,2.33,4.51,2.67
	c2.76,0.97,3.33,0.21,6.77,1.08c1.94,0.49,3.37,1.14,5.26,2c2.71,1.23,2.76,1.57,5.18,2.58c2.23,0.93,3.61,1.49,5.51,1.5
	C49.86,134.89,50.84,134.6,52.38,134.13z"/>
</svg>
