<?xml version="1.0" encoding="utf-8"?>
<!-- Generator: Adobe Illustrator 25.4.8, SVG Export Plug-In . SVG Version: 6.00 Build 0)  -->
<svg version="1.1" id="Layer_1" xmlns="http://www.w3.org/2000/svg" xmlns:xlink="http://www.w3.org/1999/xlink" x="0px" y="0px"
	 viewBox="0 0 174 243" style="enable-background:new 0 0 174 243;" xml:space="preserve">
<style type="text/css">
	.st0{fill:#AB3F8A;}
	.st1{opacity:0.75;fill:#AB3F8A;}
	.st2{opacity:0.44;fill:#AB3F8A;}
</style>
<path class="st0" d="M51.64,180.99c-3.42,0.99-6.47-0.77-8.87-2.15c-1.91-1.1-7.37-4.25-8.87-10.75c-0.34-1.48-0.94-5.16,0.81-9.14
	c0.57-1.3,1.94-4.41,5.38-6.18c4.39-2.27,8.78-0.61,9.68-0.27c0.61,0.23,3.62,1.42,5.91,4.57c2.13,2.93,2.39,5.85,2.69,9.14
	c0.33,3.64,0.62,6.95-1.34,10.22C56.48,177.32,54.83,180.07,51.64,180.99z"/>
<path class="st0" d="M72.33,163.75c-3.55-0.28-5.79-2.99-7.55-5.13c-1.4-1.7-5.41-6.57-4.52-13.19c0.2-1.51,0.93-5.17,3.97-8.27
	c0.99-1.02,3.37-3.44,7.21-3.9c4.91-0.58,8.43,2.52,9.15,3.15c0.49,0.43,2.89,2.61,3.93,6.36c0.97,3.49,0.18,6.32-0.7,9.5
	c-0.98,3.53-1.86,6.72-4.85,9.09C78.15,162.01,75.63,164,72.33,163.75z"/>
<path class="st0" d="M96.2,165.39c-3.09-1.78-3.94-5.19-4.61-7.88c-0.53-2.14-2.06-8.25,1.59-13.85c0.83-1.27,3.06-4.26,7.14-5.76
	c1.33-0.49,4.52-1.66,8.18-0.42c4.68,1.59,6.53,5.9,6.91,6.78c0.26,0.6,1.49,3.6,0.81,7.43c-0.63,3.57-2.55,5.78-4.72,8.28
	c-2.4,2.76-4.57,5.27-8.29,6.12C102.2,166.33,99.07,167.05,96.2,165.39z"/>
<path class="st0" d="M112.11,187.78c-2.4-2.64-2.16-6.14-1.98-8.91c0.15-2.2,0.56-8.49,5.74-12.7c1.18-0.96,4.22-3.12,8.56-3.3
	c1.42-0.06,4.81-0.2,7.92,2.1c3.97,2.94,4.42,7.61,4.51,8.57c0.06,0.65,0.32,3.88-1.5,7.32c-1.69,3.21-4.2,4.73-7.02,6.44
	c-3.13,1.9-5.96,3.62-9.76,3.3C117.54,190.5,114.34,190.23,112.11,187.78z"/>
<path class="st0" d="M54.17,215.43c-2.91-2.73-4.83-4.54-5.91-7.53c-1.4-3.87-0.56-7.38,0-9.68c0.44-1.82,1.21-4.99,3.76-7.8
	c1.14-1.25,2.82-2.36,6.18-4.57c2.48-1.63,3.14-1.87,4.84-3.23c1.19-0.95,2.15-1.9,4.03-3.76c3.37-3.34,3.29-3.59,4.57-4.57
	c2.5-1.91,4.97-2.62,6.18-2.96c1.79-0.5,5.26-1.41,9.41-0.27c3.87,1.06,6.27,3.35,7.53,4.57c2.38,2.32,3.75,4.86,4.3,5.91
	c1.17,2.22,1.01,2.72,2.15,4.57c1.33,2.15,2.46,2.92,4.3,4.84c1.83,1.89,3.92,4.07,5.38,6.99c2.3,4.61,2.01,9.06,1.88,10.75
	c-0.16,2.06-0.34,4.46-1.88,6.99c-1.22,2.01-2.71,3.15-4.57,4.57c-1.64,1.25-3.45,2.64-6.18,3.49c-3.29,1.03-6.08,0.72-7.53,0.54
	c-4.18-0.52-4.42-1.87-9.41-2.96c-2.82-0.62-5.08-0.7-8.07-0.81c-4.29-0.16-4.57,0.25-8.33,0c-3.48-0.23-5.61-0.39-8.07-1.61
	C56.94,218.03,55.86,217.02,54.17,215.43z"/>
<path class="st1" d="M93.44,105.44c-2.04,1.88-4.78,1.71-6.94,1.59c-1.72-0.1-6.62-0.4-9.93-4.42c-0.75-0.91-2.46-3.27-2.62-6.66
	c-0.05-1.11-0.18-3.75,1.6-6.18c2.27-3.11,5.91-3.48,6.66-3.55c0.5-0.05,3.02-0.27,5.71,1.13c2.51,1.3,3.7,3.25,5.05,5.44
	c1.49,2.43,2.85,4.63,2.62,7.59C95.54,101.19,95.34,103.69,93.44,105.44z"/>
<path class="st1" d="M101.87,86.22c-2.57,1.04-5.08-0.08-7.05-0.96c-1.57-0.7-6.06-2.7-7.74-7.62c-0.38-1.12-1.15-3.93-0.11-7.15
	c0.34-1.05,1.15-3.57,3.67-5.23c3.22-2.11,6.76-1.18,7.48-0.99c0.49,0.13,2.92,0.81,4.95,3.07c1.89,2.1,2.33,4.34,2.82,6.87
	c0.54,2.8,1.04,5.34-0.22,8.03C105.33,82.98,104.27,85.25,101.87,86.22z"/>
<path class="st1" d="M119.09,79.06c-2.77-0.17-4.55-2.25-5.95-3.9c-1.12-1.31-4.31-5.04-3.71-10.21c0.14-1.18,0.65-4.04,2.98-6.5
	c0.76-0.81,2.58-2.73,5.56-3.14c3.82-0.52,6.61,1.84,7.18,2.33c0.39,0.33,2.29,1.99,3.15,4.9c0.8,2.71,0.23,4.92-0.41,7.41
	c-0.71,2.76-1.36,5.26-3.65,7.15C123.6,77.63,121.67,79.22,119.09,79.06z"/>
<path class="st1" d="M137.97,89.14c-2.59-1.01-3.65-3.53-4.48-5.53c-0.66-1.59-2.56-6.12-0.41-10.86c0.49-1.08,1.86-3.65,4.82-5.28
	c0.97-0.53,3.29-1.81,6.25-1.29c3.79,0.67,5.73,3.77,6.12,4.41c0.27,0.43,1.57,2.6,1.5,5.63c-0.06,2.83-1.28,4.76-2.66,6.93
	c-1.52,2.41-2.9,4.6-5.66,5.69C142.71,89.16,140.38,90.08,137.97,89.14z"/>
<path class="st1" d="M107.18,128.58c-2.98-0.9-4.95-1.49-6.74-3.19c-2.32-2.21-2.95-4.96-3.37-6.75c-0.33-1.42-0.89-3.9-0.09-6.75
	c0.36-1.27,1.15-2.63,2.72-5.34c1.16-2,1.54-2.4,2.25-3.93c0.5-1.07,0.84-2.07,1.5-4.03c1.19-3.5,1.04-3.65,1.6-4.78
	c1.08-2.2,2.56-3.56,3.28-4.21c1.08-0.97,3.18-2.81,6.47-3.46c3.07-0.6,5.54,0.15,6.84,0.57c2.47,0.79,4.3,2.09,5.06,2.63
	c1.59,1.14,1.65,1.55,3.09,2.44c1.68,1.04,2.73,1.19,4.68,1.88c1.93,0.69,4.15,1.47,6.18,3.01c3.21,2.42,4.56,5.62,5.05,6.85
	c0.61,1.49,1.31,3.23,1.12,5.53c-0.15,1.82-0.79,3.14-1.6,4.78c-0.71,1.45-1.49,3.04-3.1,4.59c-1.94,1.87-3.99,2.61-5.06,2.99
	c-3.09,1.09-3.73,0.24-7.59,1.21c-2.18,0.55-3.78,1.28-5.91,2.24c-3.05,1.38-3.1,1.76-5.81,2.9c-2.51,1.05-4.05,1.67-6.19,1.68
	C110.01,129.44,108.91,129.1,107.18,128.58z"/>
<path class="st2" d="M45.01,42.28c-1.81,0.98-3.75,0.36-5.28-0.12c-1.22-0.39-4.69-1.49-6.34-4.99c-0.38-0.8-1.17-2.8-0.67-5.27
	c0.16-0.81,0.56-2.73,2.28-4.16c2.2-1.82,4.89-1.42,5.44-1.34c0.37,0.06,2.22,0.36,3.91,1.86c1.57,1.4,2.07,3.01,2.64,4.84
	c0.63,2.02,1.2,3.85,0.5,5.94C47.29,39.6,46.7,41.37,45.01,42.28z"/>
<path class="st2" d="M54.59,29.98c-2.04,0.28-3.64-0.98-4.9-1.97c-1-0.79-3.87-3.05-4.18-6.9c-0.07-0.88-0.11-3.04,1.23-5.17
	c0.44-0.7,1.48-2.36,3.6-3.09c2.7-0.93,5.08,0.39,5.56,0.66c0.33,0.18,1.96,1.12,3,3.11c0.98,1.86,0.88,3.55,0.77,5.46
	c-0.12,2.11-0.23,4.03-1.62,5.74C57.66,28.28,56.49,29.72,54.59,29.98z"/>
<path class="st2" d="M68.28,27.98c-1.96-0.63-2.86-2.45-3.57-3.89c-0.57-1.15-2.18-4.41-0.8-8.03c0.31-0.82,1.21-2.79,3.33-4.14
	c0.69-0.44,2.35-1.49,4.58-1.24c2.84,0.32,4.42,2.53,4.74,2.99c0.22,0.31,1.28,1.85,1.37,4.1c0.08,2.1-0.73,3.58-1.65,5.26
	c-1.02,1.86-1.94,3.54-3.93,4.48C71.79,27.77,70.11,28.56,68.28,27.98z"/>
<path class="st2" d="M80.03,38.68c-1.68-1.2-1.98-3.21-2.22-4.8c-0.19-1.26-0.73-4.87,1.68-7.89c0.55-0.69,2-2.29,4.43-2.92
	c0.8-0.21,2.7-0.7,4.74,0.21c2.61,1.17,3.43,3.76,3.6,4.29c0.11,0.36,0.66,2.16,0.05,4.32c-0.56,2.02-1.79,3.19-3.18,4.51
	c-1.54,1.46-2.93,2.78-5.11,3.06C83.44,39.55,81.59,39.79,80.03,38.68z"/>
<path class="st2" d="M50.67,61.44c-1.98-1.19-3.29-1.97-4.27-3.53c-1.27-2.01-1.22-4.11-1.19-5.47c0.02-1.08,0.07-2.97,1.17-4.87
	c0.49-0.85,1.31-1.68,2.93-3.34c1.2-1.23,1.55-1.44,2.34-2.42c0.55-0.68,0.98-1.34,1.82-2.62c1.49-2.3,1.42-2.43,2.02-3.15
	c1.18-1.39,2.49-2.09,3.13-2.43c0.95-0.5,2.8-1.44,5.29-1.31c2.32,0.13,3.96,1.12,4.82,1.66c1.63,1.02,2.72,2.29,3.16,2.82
	c0.94,1.11,0.9,1.42,1.78,2.32c1.02,1.05,1.75,1.35,3.03,2.21c1.27,0.85,2.72,1.82,3.9,3.29c1.87,2.32,2.25,4.88,2.39,5.85
	c0.16,1.18,0.35,2.56-0.2,4.18c-0.44,1.29-1.14,2.11-2.02,3.15c-0.77,0.91-1.63,1.92-3.07,2.74c-1.74,0.99-3.35,1.15-4.19,1.23
	c-2.43,0.22-2.73-0.51-5.68-0.51c-1.67,0-2.96,0.23-4.66,0.54c-2.44,0.44-2.55,0.7-4.71,1.02c-1.99,0.3-3.22,0.47-4.76,0.08
	C52.56,62.57,51.82,62.13,50.67,61.44z"/>
</svg>
