<?xml version="1.0" encoding="utf-8"?>
<!-- Generator: Adobe Illustrator 25.4.8, SVG Export Plug-In . SVG Version: 6.00 Build 0)  -->
<svg version="1.1" xmlns="http://www.w3.org/2000/svg" xmlns:xlink="http://www.w3.org/1999/xlink" x="0px" y="0px"
	 viewBox="0 0 252 389" style="enable-background:new 0 0 252 389;" xml:space="preserve">
<style type="text/css">
	.st0{display:none;}
	.st1{display:inline;fill:#A9458A;stroke:#000000;stroke-miterlimit:10;}
	.st2{fill:#FFFFFF;}
	.st3{opacity:0.4;fill:#F0C1DA;}
	.st4{fill:#A09F9F;}
	.st5{fill:#BFBFBF;}
	.st6{fill:#7B7B7B;}
	.st7{fill:#4C4B66;}
</style>
<g id="Layer_1" class="st0">
</g>
<g id="Layer_4" class="st0">
	<rect y="39.97" class="st1" width="252" height="340.37"/>
</g>
<g id="Layer_2">
	<path class="st2" d="M120.77,92.38c-2.03,0.75-5.43,13.31-3.5,20.51c1.84,6.87,6.12,11.1,4,15.01c-1.46,2.7-4.68,2.84-5,5.5
		c-0.32,2.67,2.76,3.71,2.5,6.5c-0.21,2.25-2.46,2.29-5,6c-0.59,0.86-3.56,5.21-2.12,7.56c0.99,1.61,3.45,1.29,3.62,2.45
		c0.14,0.92-1.41,1.31-3,3.23c-0.45,0.54-2.29,2.81-2.68,5.73c-0.4,2.95,1.15,3.48,0.72,6.09c-0.29,1.7-1.08,2.32-3.44,5.49
		c-1.69,2.26-3.39,4.54-4.61,6.86c-2.44,4.63-2.97,9.42-2.31,9.68c0.5,0.2,1.4-2.31,4.59-4.92c1.23-1.01,3.36-2.49,3.81-2.07
		c0.51,0.48-2.03,2.64-3.22,6.62c-1.29,4.3,0.48,6.03-1.07,9.67c-0.44,1.02-0.9,1.63-3.76,4.65c-7.67,8.11-8.04,7.62-9.13,9.67
		c-2.19,4.13,0.01,4.82-2.51,11.1c-1.83,4.56-3.35,5.11-3.4,8.23c-0.05,3.22,1.54,4.31,0.96,7.68c-0.35,2.02-1.44,4.69-2.88,4.8
		c-1.22,0.09-1.97-1.7-3.1-3.1c-4.23-5.28-14.9-6.64-20.25-2.86c-2.69,1.9-2.03,3.67-5.48,5.72c-2.94,1.74-4.28,0.98-7.15,3.1
		c-1.21,0.89-3.45,2.55-4.05,5.24c-0.41,1.84,0.31,2.55-0.24,4.53c-0.53,1.92-1.62,2.77-2.62,4.05c-2.39,3.07-3.13,7.22-2.86,10.01
		c0.33,3.43,2.05,3.56,4.29,9.53c1.27,3.41,1.14,4.49,1.91,6.91c1.96,6.14,6.3,9.97,9.05,12.39c8.67,7.64,21.31,11.66,23.11,9.05
		c0.34-0.48-2.3-1.37-7.58-10.92c-3.98-7.21-3.64-12.96-4.1-15.59c-0.24-1.34,0.2-2.2,3.58-6.37c1.92-2.37,5.32-4.31,6.91-3.34
		c0.89,0.55,0.11,1.68,0.48,4.45c0.33,2.49,0.59,3.71,0.83,4.58c0,0,0.16,0.56,0.35,1.11c0.61,1.81,2.18,6.44,6.25,9.78
		c1.16,0.96,1.26,0.76,3.16,2.26c2.11,1.66,3.18,2.52,3.94,3.97c0.64,1.23,0.4,1.57,1.23,3.22c0.67,1.32,1.38,2.2,1.87,2.8
		c4.95,6.05,11.48,9.69,11.48,9.69c2.84,1.58,5.37,2.43,10.44,4.13c5.3,1.78,8.01,2.65,10.76,2.19c1.46-0.25,2.38-0.68,3.78-0.28
		c2.41,0.69,2.9,2.88,4.77,4.77c1.89,1.91,4.59,2.38,10,3.31c6.44,1.11,9.65,1.67,12.55,0.23c3.57-1.78,5.35-5.37,7.39-4.63
		c0.64,0.23,0.71,0.67,2.4,1.87c0,0,1.28,0.91,2.68,1.6c3.04,1.51,11.42,0.99,15.31-4.18c0.91-1.21,2.8-2.72,2.94-5.97
		c0.06-1.46,1.28-1.8,1.54-2.09c1.91-2.1,6.03-5.02,8.11-8.37c2.53-4.08,4.25-5.33,5.71-9.6c2.45-7.18,2.4-10.95,2.14-15.31
		c0,0,0.57,0.23,1.98-3.7c3.04-8.42,3.43-15.6,3.26-18.69c-0.14-2.65-0.43-7.2-2.55-12.51c-1.9-4.76-4.45-8.07-3.89-8.51
		c0.43-0.34,2.47,1.25,3.92,3.06c2.27,2.83,2.26,5.13,3.05,5.12c1.19-0.01,2.28-5.25,2.44-9.49c0.06-1.65,0.14-3.63-0.36-6.21
		c-0.7-3.65-2.05-5.97-1.39-6.43c0.72-0.51,2.73,2.07,3.74,1.51c0.82-0.45-0.12-2.39-0.41-7.12c-0.19-3.07,0.05-4.89-0.9-7.92
		c-0.27-0.86-0.39-1.03-0.55-1.55c-1.38-4.26,1.67-8.05,2.96-12.29c2.12-6.97-0.93-13.85-1.3-14.63c-1.29-2.8-3.86-5.61-5.96-11.91
		c0,0-1.16-2.9-0.7-3.13c0.5-0.25,2.29,1.24,3.48,2.97c0.75,1.08,0.9,1.73,1.13,1.68c0.55-0.11,0.5-4.27,0.03-8
		c-0.27-2.14-0.63-3.8,0-4.13c0.68-0.35,1.86,1.23,2.3,0.92c0.41-0.29-0.3-1.91-1.69-5.52c-1.19-3.09-0.93-2.58-1.25-3.3
		c-1.9-4.3-3.53-5.18-3.12-6.95c0.28-1.21,1.08-0.98,1.95-2.82c0.22-0.46,1.37-2.86,0.52-4.9c-0.68-1.62-2.05-1.57-3.74-3.22
		c-2.19-2.15-2.63-4.96-2.84-6.06c-0.18-0.95-0.55-3.04,0.1-5.45c0.61-2.27,1.68-3.19,3.74-5.97c1.99-2.69,3.58-4.83,4.72-7.57
		c1.29-3.09,1.36-5.42,1.51-10.07c0.08-2.63-0.09-4.48-1.34-5.34c-0.44-0.3-0.84-0.37-1.53-0.47c-2.14-0.33-3.7,0.3-6.22,1.01
		c-2.65,0.74-2.12,0.39-4.32,1.04c-4.8,1.41-6.33,2.57-9.54,3.27c-1.86,0.4-1.98,0.16-5.24,1.9c-7.32,3.9-6.44,7.3-11.57,7.26
		c-2.48-0.02-5.8-1.61-9.23-2.28c-9.99-1.96-10.35,0.88-14.98,1.53c-3.37,0.47-2.76-3.11-6.83-7.61
		C138.15,97.07,123.23,91.47,120.77,92.38z"/>
</g>
<g id="Layer_6">
	<path class="st3" d="M164.86,163.48c-1.24-0.1-2.22-0.76-2.82-1.17c-0.99-0.67-2.3-1.9-2.05-2.38c0.22-0.42,1.57-0.16,3.1,0.14
		c1.26,0.25,1.51,0.41,2.19,0.55c2.75,0.53,4.68-1.07,4.92-0.68C170.49,160.41,167.9,163.72,164.86,163.48z"/>
	<path class="st3" d="M127.85,95.66c-1.34,0.39-2.12,2.96-3.49,7.48c-0.74,2.44-1.11,3.66-1,4.99c0.34,3.96,3.59,4.73,4.49,7.98
		c1.52,5.49-5.8,10.19-4.49,12.23c1.46,2.28,13.32,0.65,17.21-6.49C146.28,111.38,131.87,94.48,127.85,95.66z"/>
	<path class="st3" d="M199.7,124.35c0.98-1.98-2.9-4.2-2.12-7.42c0.48-1.99,2.15-1.91,5.62-5.3c2.12-2.08,5.47-5.35,4.74-8.48
		c-0.05-0.23-0.4-1.72-1.64-2.45c-0.67-0.4-3.15-1.49-13.58,6.45c-7.22,5.5-10.83,8.31-10.48,11.23c0.51,4.26,7.2,6.42,8.23,6.74
		C193.75,126.1,198.71,126.36,199.7,124.35z"/>
</g>
<g id="Layer_5">
	<path class="st4" d="M152.72,295.32c0-4.64,3.62-8.66,7.23-9.36c3.78-0.73,5.81,2.49,7.91,1.12c3.08-2.01-0.12-9.66,3.28-12.87
		c2.31-2.18,6.86-1.52,9.2,1.18c3.1,3.58,1.95,10.31,0.1,14.1c-2.72,5.58-7.01,4.85-8.28,10.15c-0.96,4.03,1.02,6.57-0.52,8.43
		c-2.21,2.68-8.17-0.35-9.12-0.83C160.79,306.36,152.71,302.26,152.72,295.32z"/>
	<path class="st5" d="M-65.27,244.55"/>
	<path class="st4" d="M121.5,92c0.46-0.96,13.74,1.32,22.76,11.82c2.42,2.82,3.97,5.57,4.96,7.66c3.74-1.49,7.03-1.99,9.28-2.17
		c4.37-0.34,7.74,0.32,8.61,0.5c4.91,1.02,5.47,2.47,8.19,2.37c3.35-0.13,4.08-2.79,8.75-5.52c6.02-3.52,11.11-5.01,17.6-6.91
		c5.45-1.6,10.4-2.62,10.56-2.13c0.16,0.49-4.68,1.37-9.33,5.69c-2.36,2.19-2.42,3.18-5.02,5.02c-2.65,1.87-3.78,1.68-5.52,3.51
		c-0.71,0.75-3.39,3.55-2.45,6.26c0.69,1.99,3,3.01,4.63,3.22c1.4,0.18,1.68-0.32,3.07-0.36c3.32-0.1,7.07,2.58,7.77,5.62
		c0.43,1.9-0.72,2.23-0.7,4.38c0.04,4.88,6.49,7.3,7.37,12.28c0.18,1.01-0.08,1.89-0.08,1.89c-0.37,2.13-1.71,4.05-1.84,4.23
		c-0.53,0.75-0.95,1.14-0.9,1.78c0.05,0.7,0.62,1.17,0.8,1.33c1.93,1.72,4.87,8.07,4.12,8.72c-0.78,0.68-4.45-5.68-11.62-7.38
		c-5.49-1.3-7.67,1.38-10.7-0.61c-3.17-2.08-1.65-5.58-4.89-13.46c-1.8-4.36-3.45-8.38-7.34-11.32c-4.87-3.68-8.43-2.04-11.93-6.12
		c-2.95-3.43-2.83-7.41-3.98-7.34c-1.34,0.08-0.59,5.46-4.28,10.4c-0.97,1.3-2.9,2.72-6.73,5.5c-7.01,5.11-8.12,5.07-9.48,7.34
		c-2.22,3.72-0.06,5.22-2.14,9.17c-0.88,1.67-4.06,3.89-10.4,8.26c-2.96,2.04-5.88,4.12-8.87,6.12c-1.56,1.04-2.54,1.68-3.88,2.83
		c-2.14,1.84-2.6,3.27-5.17,5.76c-1.79,1.73-2.75,2.66-3.4,2.38c-1.54-0.67,0.16-7.49,0.26-7.86c0.61-2.39,1.46-5.71,4.18-8.65
		c2.13-2.29,4.74-3.64,4.72-3.67c-0.03-0.05-4.95,4.31-7.16,3c-1.17-0.7-1.14-2.71-1.14-3c0.03-2.51,1.89-3.36,4.74-7.98
		c1.81-2.92,1.89-3.92,1.86-4.58c-0.11-2.15-1.61-2.46-1.78-4.29c-0.3-3.21,3.97-6.19,6.27-7.8c0.32-0.22,0,0.01,5.7-3.14
		c3.65-2.02,4.29-2.4,5.58-2.74c3.19-0.86,4.84-0.04,5.26-0.88c0.54-1.06-1.93-2.69-5.26-7.19c-2.25-3.05-3.76-5.14-4.04-8.07
		c-0.25-2.64,0.76-3.08,0.52-5.2C128.42,95.23,121.14,92.74,121.5,92z"/>
	<path class="st4" d="M104.61,196.5c2.1,0.21-3.63,20.17,6.2,31.53c6.32,7.3,14.19,5.42,16.55,12.41c1.66,4.91-1.89,6.8-2.59,17.59
		c-0.6,9.3,1.68,13.65-0.52,15c-3.18,1.95-8.64-6.76-17.59-6.72c-5.58,0.02-6.1,5.18-12.41,5.69c-4.27,0.34-9.56-1.26-12.13-4.99
		c-3.2-4.64-1.11-10.98-1.83-11.07c-0.49-0.06-0.83,2.88-2.76,8.57c-1.7,5.03-2.68,6.4-2.33,9.16c0.16,1.22,0.49,1.98,0.01,2.8
		c-0.95,1.61-3.47,0.7-5.99,1.97c-3.1,1.57-4.08,5.39-4.34,6.43c-0.95,3.74,0.35,6.86,2.03,10.9c1.83,4.39,4.41,8.23,4.94,9.01
		c2.71,3.99,4.94,6.14,4.16,7.72c-0.32,0.66-1.09,1.07-2.42,1.3c-7.16,1.25-15.87-5.38-18.51-7.43c-5.4-4.2-8.78-6.82-10.11-11.36
		c-0.6-2.06-0.58-3.79-2.08-6.45c-1.5-2.67-2.9-3.36-4.12-6.22c-0.87-2.03-1.04-3.76-1.16-5.02c-0.14-1.47-0.6-6.46,2.1-11.06
		c1.71-2.9,3.15-3.05,3.31-5.19c0.16-2.09-1.09-3.51-0.21-5.35c0.08-0.17,0.25-0.48,1.65-1.75c2.7-2.45,4.05-3.67,5.89-4.22
		c1.77-0.53,2.16-0.01,3.29-0.7c1.5-0.93,1.52-2.29,2.52-3.86c1.62-2.53,4.43-3.42,6.75-4.15c0.66-0.21,4.02-1.22,8.32-0.41
		c1.47,0.27,5,0.98,8.04,3.7c2.53,2.27,2.77,4.19,4.03,4.1c1.68-0.12,3.32-3.71,3.2-6.93c-0.1-2.7-1.36-3.06-1.28-5.56
		c0.07-2.19,1.06-2.35,2.63-6.27c1.36-3.38,1.85-6.31,2.13-8.11c0.44-2.72,0.18-2.85,0.46-4.25c1.23-6.16,6.83-6.95,11.09-14.33
		C103.84,199.01,103.86,196.42,104.61,196.5z"/>
</g>
<g id="Layer_3">
	<g>
		<path class="st6" d="M121.5,92c1.14,0.55,2.21,1.25,3.23,2c1.01,0.78,1.94,1.66,2.81,2.6c0.87,0.94,1.62,1.99,2.31,3.07
			c0.69,1.08,1.22,2.26,1.88,3.25c1.32,2.05,3.17,3.73,5.17,5.19c1,0.73,2.08,1.38,3.17,1.98c1.08,0.64,2.22,1.16,3.35,1.73
			c-2.42-0.72-4.78-1.72-6.95-3.07c-2.17-1.34-4.15-3.09-5.59-5.28c-0.72-1.11-1.21-2.25-1.86-3.31c-0.61-1.08-1.33-2.08-2.08-3.07
			C125.41,95.17,123.55,93.47,121.5,92z"/>
	</g>
	<g>
		<path class="st6" d="M117.11,97.44c-0.36,1.72-0.66,3.45-0.79,5.2c-0.17,1.74-0.19,3.48-0.04,5.21c0.27,3.47,1.25,6.81,2.73,9.96
			c0.71,1.59,1.54,3.13,2.27,4.76c0.36,0.82,0.71,1.65,0.9,2.58c0.2,0.9,0.14,2.02-0.51,2.82c-0.64,0.83-1.53,1.12-2.22,1.6
			c-0.72,0.46-1.35,1.03-1.95,1.66c-0.6,0.63-1.19,1.28-1.65,2.01c-0.23,0.37-0.41,0.76-0.51,1.18c-0.11,0.41-0.12,0.88-0.32,1.28
			c0.03-3.7,3.64-6.31,6.08-8.15c0.45-0.63,0.45-1.43,0.25-2.22c-0.19-0.8-0.54-1.59-0.91-2.37c-0.76-1.56-1.59-3.12-2.33-4.73
			c-0.73-1.62-1.38-3.29-1.83-5.03c-0.44-1.74-0.71-3.52-0.76-5.3C115.38,104.33,115.98,100.78,117.11,97.44z"/>
	</g>
	<g>
		<path class="st6" d="M128.51,105.87c0.87,2.05,1.86,4.03,3.05,5.86c1.19,1.84,2.57,3.53,4.05,5.17c0.72,0.84,1.49,1.63,2.17,2.59
			c0.16,0.25,0.33,0.5,0.45,0.84c0.14,0.28,0.18,0.9-0.24,1.26c-0.42,0.31-0.78,0.27-1.08,0.28l-0.85-0.06
			c-2.15-0.24-4.31,0.45-5.98,1.95c0.68-0.88,1.59-1.6,2.64-2.09c1.05-0.48,2.24-0.64,3.37-0.63l0.81-0.01
			c0.25-0.01,0.49-0.06,0.51-0.1c0.08,0.03-0.07-0.5-0.41-0.89c-0.63-0.83-1.41-1.64-2.15-2.47c-1.48-1.66-2.9-3.45-3.96-5.44
			c-0.54-0.99-1.01-2.01-1.43-3.05C129.1,108.02,128.75,106.96,128.51,105.87z"/>
	</g>
	<g>
		<path class="st6" d="M134.13,125.34c-1.58,0.75-3.05,1.47-4.43,2.38c-1.4,0.89-2.65,1.94-3.99,3.06c0.7-1.61,1.97-2.94,3.45-3.9
			C130.64,125.93,132.37,125.32,134.13,125.34z"/>
	</g>
	<g>
		<path class="st6" d="M144.83,105.16c1.06,0.83,1.86,1.83,2.6,2.87c0.72,1.06,1.38,2.16,1.78,3.44c-1.06-0.83-1.86-1.83-2.6-2.87
			C145.9,107.55,145.24,106.44,144.83,105.16z"/>
	</g>
	<g>
		<path class="st6" d="M155.71,110.78c2.37-0.86,4.89-1.36,7.44-1.39c2.56-0.04,5.11,0.57,7.49,1.41c1.2,0.4,2.37,0.8,3.56,0.94
			c1.18,0.13,2.38-0.05,3.49-0.5c1.11-0.44,2.11-1.15,2.97-1.99c0.45-0.42,0.81-0.89,1.29-1.36c0.45-0.48,0.94-0.91,1.45-1.31
			c2.05-1.59,4.38-2.71,6.72-3.69c2.36-0.96,4.77-1.76,7.22-2.41c4.9-1.29,9.87-2.22,14.87-2.86c-2.46,0.54-4.93,1.05-7.37,1.66
			c-2.45,0.57-4.88,1.22-7.29,1.94c-2.39,0.76-4.78,1.52-7.08,2.51c-2.29,0.98-4.53,2.11-6.45,3.63c-1,0.73-1.74,1.63-2.69,2.57
			c-0.95,0.9-2.05,1.67-3.3,2.15c-1.23,0.49-2.6,0.68-3.93,0.51c-1.32-0.17-2.54-0.64-3.71-1.08c-2.33-0.91-4.74-1.57-7.24-1.64
			C160.66,109.74,158.15,110.13,155.71,110.78z"/>
	</g>
	<g>
		<path class="st6" d="M214.85,99.2c0.67,4.03,0.67,8.24-0.36,12.27c-0.48,2.02-1.31,3.96-2.33,5.77c-1.02,1.81-2.25,3.49-3.48,5.12
			c-1.23,1.62-2.48,3.23-3.14,5.06c-0.69,1.83-0.55,3.85-0.01,5.76c1.18,3.82,3.44,7.37,6.51,10.07c-1.67-1.19-3.13-2.68-4.36-4.34
			c-1.19-1.7-2.2-3.51-2.88-5.5c-0.7-1.96-0.84-4.25-0.12-6.28c0.7-2.04,1.99-3.73,3.2-5.37c1.26-1.62,2.48-3.23,3.49-4.96
			c1.03-1.73,1.8-3.59,2.38-5.52c0.58-1.93,0.92-3.93,1.07-5.96C215.01,103.28,214.97,101.24,214.85,99.2z"/>
	</g>
	<g>
		<path class="st6" d="M202.89,103.31c-0.67,1.08-1.46,2.08-2.31,3.03c-0.87,0.93-1.83,1.79-2.86,2.56
			c-1.02,0.79-2.16,1.41-3.23,2.05c-1.08,0.62-2.05,1.31-2.74,2.28c-0.71,0.95-1.22,2.08-1.5,3.23c-0.07,0.29-0.12,0.57-0.13,0.84
			c0,0.13,0,0.26,0.02,0.35c0.01,0.13,0.07,0.08-0.05,0.05c-0.12,0,0,0,0.1-0.07c0.11-0.07,0.23-0.15,0.36-0.24
			c0.25-0.18,0.52-0.37,0.81-0.54c1.13-0.73,2.56-0.98,3.85-0.78c1.29,0.21,2.49,0.72,3.57,1.38c-1.18-0.46-2.39-0.86-3.62-0.89
			c-1.22-0.09-2.42,0.22-3.37,0.94c-0.25,0.17-0.48,0.37-0.73,0.57c-0.13,0.1-0.26,0.2-0.42,0.3c-0.17,0.08-0.35,0.26-0.78,0.18
			c-0.42-0.14-0.54-0.5-0.58-0.68c-0.06-0.22-0.06-0.4-0.07-0.59c0-0.36,0.05-0.7,0.11-1.03c0.29-1.31,0.84-2.53,1.63-3.62
			c0.8-1.1,1.95-1.9,3.07-2.5c1.13-0.6,2.22-1.18,3.26-1.86C199.37,106.93,201.22,105.21,202.89,103.31z"/>
	</g>
	<g>
		<path class="st6" d="M194.53,121.32c0.79-0.46,1.7-0.7,2.62-0.76c0.93-0.07,1.89,0.07,2.78,0.44c0.88,0.39,1.68,0.98,2.23,1.75
			c0.57,0.76,0.91,1.66,0.98,2.57c-0.46-0.78-0.97-1.48-1.57-2.05c-0.6-0.57-1.29-1.02-2.03-1.34c-0.74-0.33-1.56-0.49-2.4-0.58
			C196.3,121.24,195.43,121.26,194.53,121.32z"/>
	</g>
	<g>
		<path class="st6" d="M207.21,148.23c2.12,2.19,3.8,4.78,5.14,7.52c1.31,2.75,2.29,5.68,2.66,8.71c-1.14-2.82-2.26-5.59-3.57-8.27
			C210.17,153.48,208.7,150.89,207.21,148.23z"/>
	</g>
	<g>
		<path class="st6" d="M209.88,160.97c1.19,2.05,2.11,4.26,2.82,6.54c0.16,0.58,0.34,1.14,0.44,1.75c0.1,0.6,0.16,1.19,0.21,1.79
			c0.1,1.19,0.16,2.38,0.17,3.58c-0.01,0.61,0.01,1.18-0.1,1.85c-0.02,0.1-0.02,0.16-0.12,0.34c-0.04,0.04-0.06,0.12-0.22,0.2
			c-0.07,0.03-0.18,0.05-0.28,0.03c-0.08-0.02-0.13-0.05-0.18-0.09c-0.13-0.11-0.14-0.17-0.18-0.22l-0.21-0.39l-0.42-0.76
			c-0.58-1-1.24-1.96-2.04-2.75c-0.4-0.39-0.84-0.73-1.3-0.93c-0.22-0.1-0.47-0.13-0.56-0.1c0-0.01-0.06,0.04,0.01-0.02
			c0.08-0.08,0.05-0.13,0.06-0.09c0,0.05,0.02,0.18,0.05,0.3c0.33,1.02,0.91,2.1,1.43,3.14c1.1,2.09,2.13,4.24,3.16,6.38
			c1.01,2.15,2.02,4.31,2.8,6.58c0.77,2.28,1.18,4.68,1.27,7.06c0.06,2.39-0.17,4.78-0.66,7.1c0.55-4.69,0.32-9.53-1.36-13.89
			c-1.69-4.37-3.96-8.55-6.07-12.79c-0.52-1.08-1.08-2.1-1.46-3.34c-0.04-0.17-0.09-0.33-0.08-0.58c0-0.11,0.02-0.31,0.19-0.5
			c0.18-0.17,0.26-0.18,0.4-0.23c0.49-0.12,0.85,0.02,1.17,0.15c0.63,0.28,1.12,0.69,1.57,1.13c0.88,0.89,1.56,1.91,2.16,2.96
			c0.15,0.26,0.29,0.53,0.42,0.8l0.19,0.4c0,0.01,0.03,0.02-0.05-0.04c-0.03-0.03-0.07-0.05-0.13-0.06c-0.08-0.02-0.17,0-0.22,0.02
			c-0.13,0.07-0.13,0.11-0.14,0.12c-0.02,0.05,0.01-0.03,0.02-0.08c0.1-0.5,0.12-1.12,0.14-1.69c0.03-1.17,0.01-2.35-0.05-3.52
			c-0.03-0.59-0.08-1.17-0.15-1.75c-0.07-0.56-0.23-1.14-0.36-1.71C211.68,165.35,210.87,163.13,209.88,160.97z"/>
	</g>
	<g>
		<path class="st6" d="M118.49,152.55c-0.76,0.95-1.65,1.76-2.46,2.62c-0.82,0.86-1.62,1.72-2.37,2.62
			c-1.51,1.79-2.77,3.76-4.01,5.84c0.5-2.38,1.68-4.6,3.24-6.49c0.79-0.93,1.66-1.79,2.61-2.55
			C116.43,153.82,117.47,153.17,118.49,152.55z"/>
	</g>
	<g>
		<path class="st6" d="M118.69,139.4c-0.18,1.59-0.88,3.12-1.88,4.4c-1.01,1.28-2.29,2.31-3.42,3.38c-0.28,0.27-0.55,0.55-0.76,0.84
			c-0.23,0.27-0.39,0.65-0.57,0.98c-0.36,0.68-0.64,1.38-0.86,2.09c-0.41,1.43-0.54,2.97,0.13,4.45c-0.64-0.52-1.03-1.34-1.18-2.17
			c-0.16-0.84-0.11-1.71,0.11-2.53c0.43-1.64,1.38-3.09,2.63-4.2c1.23-1.06,2.52-1.97,3.58-3.13
			C117.54,142.37,118.31,140.96,118.69,139.4z"/>
	</g>
	<g>
		<path class="st6" d="M119.43,162.52c-1.45,2.23-3.08,4.34-4.82,6.36c-1.74,2.02-3.73,3.82-5.64,5.65
			c-3.8,3.59-6.61,8.24-8.03,13.26c-0.36,1.25-0.66,2.53-0.76,3.79c-0.02,0.31-0.03,0.63,0.01,0.89c0.01,0.06,0.02,0.13,0.03,0.15
			c0,0.05,0.04,0.01-0.11-0.07c-0.05-0.05-0.22-0.02-0.22-0.02c-0.01-0.01-0.05,0.03-0.03,0.01c0.03-0.03,0.06-0.05,0.11-0.11
			c0.37-0.45,0.77-1.04,1.18-1.56c1.65-2.14,3.61-4.04,5.87-5.53c0.29-0.19,0.58-0.37,0.9-0.53c0.17-0.08,0.32-0.16,0.55-0.21
			c0.05-0.01,0.11-0.03,0.2-0.03c0.04,0,0.07,0,0.12,0c0.06,0.01,0.13,0.04,0.18,0.07l0.04,0.02c0.01,0,0.03,0.01,0.08,0.07
			c0.04,0.05,0.07,0.11,0.08,0.17c0.01,0.05,0.01,0.05,0.01,0.08c0,0.11-0.02,0.14-0.03,0.18c-0.03,0.07-0.05,0.12-0.07,0.16
			c-0.37,0.63-0.76,1.12-1.13,1.68c-0.74,1.09-1.43,2.21-2.02,3.38c-1.21,2.33-1.86,4.94-2.04,7.59c-0.05-2.66,0.5-5.34,1.6-7.8
			c0.55-1.22,1.22-2.39,1.93-3.52c0.34-0.56,0.75-1.14,1.04-1.66c0.02-0.03,0.03-0.06,0.03-0.07c0,0,0-0.01-0.01,0.06l0.01,0.05
			c0.01,0.05,0.03,0.1,0.07,0.14l0.07,0.07c0.02,0.02,0.04,0.02,0.07,0.02c0.01,0,0,0.01,0,0.01s-0.01,0-0.05,0.01
			c-0.1,0.02-0.24,0.1-0.37,0.16c-0.27,0.15-0.54,0.33-0.8,0.51c-2.1,1.54-4.02,3.35-5.58,5.45c-0.4,0.53-0.73,1.05-1.2,1.63
			c-0.05,0.07-0.14,0.15-0.24,0.24c-0.04,0.04-0.16,0.1-0.24,0.14c-0.07,0.05-0.34,0.05-0.46-0.01c-0.3-0.16-0.34-0.35-0.39-0.46
			c-0.05-0.13-0.06-0.23-0.08-0.33c-0.06-0.4-0.05-0.74-0.03-1.1c0.09-1.39,0.38-2.71,0.75-4.01c1.55-5.17,4.43-9.95,8.46-13.54
			C112.5,170.53,116.21,166.77,119.43,162.52z"/>
	</g>
	<g>
		<path class="st6" d="M103.89,197.99c-0.37,2.22-1.34,4.34-2.67,6.19c-0.7,0.89-1.21,1.77-1.79,2.77c-0.61,1-1.35,1.87-2.15,2.69
			c-0.8,0.82-1.69,1.56-2.6,2.21c-0.91,0.66-1.77,1.28-2.42,2.12c-1.33,1.69-1.89,3.9-2.02,6.13c-0.25-2.21,0.1-4.61,1.43-6.55
			c0.63-1,1.58-1.75,2.45-2.42c0.87-0.69,1.7-1.37,2.45-2.17c0.74-0.8,1.47-1.61,2.03-2.51c0.54-0.93,1.21-1.94,1.93-2.78
			C101.95,201.98,103.05,200.06,103.89,197.99z"/>
	</g>
	<g>
		<path class="st6" d="M210.17,203.76c1.01,1.98,1.84,4.06,2.55,6.17c0.73,2.11,1.28,4.28,1.74,6.46c0.43,2.19,0.77,4.4,0.93,6.62
			c0.08,1.11,0.13,2.23,0.16,3.34c-0.01,1.11-0.01,2.23-0.1,3.34c-0.14-1.11-0.24-2.21-0.39-3.31c-0.12-1.1-0.26-2.19-0.43-3.29
			c-0.34-2.18-0.69-4.35-1.14-6.51c-0.43-2.16-0.95-4.3-1.49-6.44C211.43,208.02,210.8,205.9,210.17,203.76z"/>
	</g>
	<g>
		<path class="st6" d="M208.46,224.1c1.85,2.9,3.26,6.1,4.12,9.46c0.82,3.35,1.13,6.91,0.59,10.35c-0.23,1.72-0.54,3.43-1.04,5.11
			c-0.13,0.42-0.27,0.84-0.45,1.26c-0.09,0.21-0.19,0.42-0.33,0.64c-0.07,0.11-0.15,0.22-0.26,0.33c-0.11,0.1-0.28,0.26-0.59,0.27
			c-0.32-0.01-0.51-0.2-0.61-0.32c-0.11-0.15-0.16-0.24-0.21-0.33l-0.33-0.55l-0.67-1.09c-0.91-1.44-1.87-2.86-2.96-4.13
			c-0.54-0.62-1.15-1.25-1.77-1.63c-0.07-0.04-0.15-0.08-0.21-0.1c-0.02-0.01-0.05-0.01-0.04-0.01c0,0,0.03,0,0.06-0.01
			c0.02,0,0.04-0.01,0.05-0.01c0.05-0.03-0.04,0.03,0.12-0.07c0.13-0.11,0.16-0.24,0.16-0.25c0.01-0.04,0.01-0.11,0.01-0.11
			c-0.01-0.09,0-0.02,0.01,0.01l0.05,0.12l0.13,0.28l0.57,1.14c1.54,3.08,3,6.23,4.13,9.52c1.13,3.28,1.87,6.74,1.92,10.22
			c0.1,3.48-0.35,6.95-1.19,10.31c-0.87,3.35-2.1,6.59-3.61,9.68c1.31-3.18,2.44-6.44,3.13-9.79c0.73-3.34,1.09-6.77,0.89-10.16
			c-0.18-3.4-0.86-6.75-2.01-9.95c-1.13-3.22-2.6-6.31-4.16-9.37l-0.57-1.17l-0.14-0.31l-0.07-0.18c-0.02-0.07-0.05-0.11-0.07-0.3
			c0-0.01,0-0.1,0.01-0.15c0-0.02,0.04-0.17,0.18-0.29c0.16-0.11,0.1-0.05,0.16-0.09l0.09-0.03c0.09-0.02,0.17-0.02,0.22-0.01
			c0.12,0.01,0.2,0.04,0.27,0.06c0.15,0.05,0.26,0.11,0.37,0.18c0.84,0.53,1.42,1.19,2.01,1.85c1.14,1.35,2.1,2.8,3.01,4.27
			l0.67,1.11l0.33,0.56c0.1,0.24,0.25,0.27,0.06,0.21c-0.16,0.06,0.04-0.04,0.11-0.19c0.1-0.15,0.18-0.33,0.26-0.51
			c0.16-0.37,0.3-0.77,0.42-1.17c0.48-1.61,0.83-3.29,1.11-4.97c0.61-3.36,0.4-6.79-0.31-10.13
			C211.42,230.33,210.12,227.12,208.46,224.1z"/>
	</g>
	<g>
		<path class="st6" d="M203.34,275.82c0.71,1.92,1.2,3.92,1.59,5.94c0.34,2.03,0.54,4.08,0.56,6.15c0.03,2.06-0.13,4.13-0.51,6.17
			c-0.13,1.03-0.38,2.03-0.62,3.04c-0.21,1.02-0.57,1.99-0.86,2.98c-1.35,3.91-3.38,7.57-5.84,10.88c-1.26,1.63-2.61,3.19-4.06,4.64
			c-1.48,1.43-3.03,2.78-4.7,3.96c3.07-2.7,5.8-5.75,8.14-9.06c2.29-3.33,4.27-6.9,5.52-10.75c1.32-3.81,2.06-7.82,2.17-11.87
			C204.85,283.85,204.33,279.79,203.34,275.82z"/>
	</g>
	<g>
		<path class="st6" d="M188.27,268.71c1.37,1.76,1.97,4.11,1.79,6.37c-0.19,2.26-1.18,4.49-2.83,5.98c1.01-1.97,1.68-3.97,1.84-6.06
			c0.1-1.04,0.06-2.09-0.08-3.14C188.84,270.81,188.59,269.77,188.27,268.71z"/>
	</g>
	<g>
		<path class="st6" d="M182.82,277.71c-0.3,2.89-0.81,5.76-1.42,8.6c-0.59,2.84-1.4,5.66-2.23,8.43c-0.82,2.75-1.34,5.57-1.62,8.43
			c-0.28,2.86-0.28,5.76-0.17,8.66c-0.27-1.43-0.43-2.88-0.55-4.33c-0.09-1.46-0.11-2.92-0.05-4.38c0.1-2.93,0.61-5.85,1.43-8.66
			c0.87-2.78,1.67-5.54,2.45-8.33c0.39-1.39,0.75-2.79,1.1-4.2L182.82,277.71z"/>
	</g>
	<g>
		<path class="st6" d="M183.03,245.89c0.08,2.53-0.15,5.02-0.45,7.49c-0.33,2.48-0.73,4.94-1.44,7.37
			c-0.08-2.53,0.15-5.02,0.45-7.49C181.92,250.78,182.33,248.31,183.03,245.89z"/>
	</g>
	<g>
		<path class="st6" d="M176.75,256.35c-0.13,3.06-0.72,6.07-1.62,9c-0.5,1.43-0.92,2.94-1.93,4.25c-0.49,0.64-1.16,1.16-1.89,1.48
			c-0.74,0.3-1.53,0.43-2.3,0.35c1.52-0.24,2.81-1.08,3.56-2.28c0.38-0.6,0.67-1.26,0.9-1.96c0.25-0.7,0.49-1.42,0.71-2.13
			C175.1,262.19,175.84,259.27,176.75,256.35z"/>
	</g>
	<g>
		<path class="st6" d="M168.59,266.4c0.09,2.01-0.12,4.04-0.63,6.01c-0.52,1.97-1.31,3.87-2.33,5.63c-2.07,3.51-5.05,6.48-8.55,8.46
			c1.52-1.31,2.94-2.71,4.24-4.19c1.28-1.5,2.47-3.07,3.44-4.77c1-1.69,1.79-3.49,2.45-5.35
			C167.83,270.32,168.29,268.39,168.59,266.4z"/>
	</g>
	<g>
		<path class="st6" d="M167.33,313.5c1.21-0.54,2.51-0.9,3.83-1.15c1.33-0.22,2.67-0.27,4.02-0.23c2.7,0.08,5.43,0.89,7.71,2.43
			c1.09,0.75,2.22,1.55,3.14,2.6c0.91,1.04,1.62,2.36,1.74,3.78c0.16,1.4-0.19,2.82-0.83,4.01c-0.68,1.18-1.57,2.22-2.65,3
			c1.84-1.86,3.17-4.42,2.72-6.91c-0.21-1.23-0.82-2.34-1.68-3.25c-0.85-0.93-1.9-1.68-3-2.41c-2.11-1.45-4.62-2.24-7.2-2.49
			C172.53,312.63,169.9,312.81,167.33,313.5z"/>
	</g>
	<g>
		<path class="st6" d="M178.85,321.04c0.99,1.03,1.43,2.55,1.31,4c-0.12,1.45-0.8,2.87-1.94,3.74c0.48-1.33,0.85-2.55,0.94-3.82
			C179.28,323.69,179.12,322.43,178.85,321.04z"/>
	</g>
	<g>
		<path class="st6" d="M173.19,323.34c1.03,1.06,1.46,2.67,1.22,4.17c-0.24,1.5-1.16,2.91-2.48,3.57c0.76-1.24,1.3-2.44,1.49-3.73
			C173.64,326.07,173.51,324.76,173.19,323.34z"/>
	</g>
	<g>
		<path class="st6" d="M154.35,272.05c-0.53,3.36-0.99,6.72-1.27,10.09c-0.27,3.37-0.43,6.75-0.4,10.12
			c0.01,3.38,0.2,6.75,0.51,10.12c0.15,1.68,0.36,3.36,0.6,5.04c0.21,1.68,0.51,3.35,0.78,5.03c-0.49-1.63-0.89-3.28-1.26-4.95
			c-0.34-1.67-0.64-3.35-0.88-5.04c-0.49-3.38-0.71-6.79-0.74-10.2c0-3.41,0.18-6.83,0.64-10.21c0.23-1.69,0.5-3.37,0.83-5.04
			C153.5,275.35,153.87,273.69,154.35,272.05z"/>
	</g>
	<g>
		<path class="st6" d="M144.09,314.13c2.17-1.44,4.74-2.43,7.44-2.46c2.7-0.07,5.4,0.93,7.48,2.68c2.1,1.74,3.52,4.19,4.23,6.76
			c0.34,1.3,0.53,2.63,0.52,3.96c-0.05,1.32-0.23,2.7-0.93,3.82c0.47-1.22,0.51-2.54,0.41-3.81c-0.09-1.28-0.37-2.54-0.78-3.73
			c-0.8-2.41-2.17-4.62-4.07-6.26c-1.91-1.6-4.32-2.69-6.86-2.77C148.98,312.23,146.42,312.96,144.09,314.13z"/>
	</g>
	<g>
		<path class="st6" d="M156.24,323.13c0.94,0.44,1.75,1.18,2.3,2.11c0.56,0.92,0.83,2.04,0.77,3.14c-0.08,1.09-0.45,2.16-1.08,3.03
			c-0.61,0.88-1.46,1.58-2.41,1.98c0.71-0.75,1.32-1.52,1.74-2.38c0.43-0.85,0.69-1.77,0.75-2.69
			C158.44,326.46,157.62,324.65,156.24,323.13z"/>
	</g>
	<g>
		<path class="st6" d="M150.37,325.23c0.72,0.27,1.33,0.8,1.77,1.48c0.45,0.67,0.65,1.51,0.61,2.33c-0.06,0.82-0.35,1.63-0.88,2.25
			c-0.51,0.62-1.18,1.08-1.92,1.27c1.06-1.08,1.74-2.28,1.8-3.57C151.84,327.68,151.31,326.41,150.37,325.23z"/>
	</g>
	<g>
		<path class="st6" d="M115.21,283.57c1.93,1.75,3.68,3.7,5.21,5.82c1.51,2.14,2.78,4.46,3.74,6.91c0.98,2.44,1.58,5.06,1.76,7.69
			c0.19,2.62,0.25,5.19,0.75,7.7c0.45,2.52,1.22,4.99,2.03,7.45c0.82,2.44,1.84,4.81,3.27,6.91c0.72,1.05,1.56,2.01,2.52,2.85
			c0.97,0.82,2.03,1.54,3.18,2.1c2.29,1.16,4.88,1.68,7.47,1.77c-2.59,0.14-5.25-0.28-7.68-1.32c-1.21-0.53-2.34-1.24-3.38-2.06
			c-1.03-0.84-1.94-1.82-2.74-2.88c-1.6-2.13-2.63-4.6-3.51-7.06c-0.84-2.47-1.66-4.96-2.15-7.56c-0.49-2.6-0.52-5.25-0.68-7.81
			c-0.09-1.28-0.25-2.55-0.52-3.8c-0.29-1.24-0.63-2.48-1.06-3.69C121.73,291.71,118.77,287.35,115.21,283.57z"/>
	</g>
	<g>
		<path class="st6" d="M109.34,270.8c2.14,0.48,4.1,1.7,5.65,3.27c1.54,1.59,2.71,3.57,3.14,5.73c-1.17-1.85-2.38-3.54-3.86-5.03
			C112.83,273.26,111.16,272.01,109.34,270.8z"/>
	</g>
	<g>
		<path class="st6" d="M107.25,314.55c2.29,3.09,5.11,5.68,8.42,7.46c1.64,0.91,3.4,1.59,5.21,2.09c1.82,0.48,3.7,0.8,5.62,0.92
			c-3.83,0.55-7.87-0.26-11.32-2.13C111.75,321.01,108.87,318.06,107.25,314.55z"/>
	</g>
	<g>
		<path class="st6" d="M87.15,291.52c0.39,2.71,1,5.36,1.89,7.91c0.9,2.54,2.07,4.98,3.48,7.27c1.42,2.28,3.09,4.41,4.97,6.35
			c1.88,1.94,3.97,3.68,6.2,5.27c-1.23-0.61-2.39-1.34-3.53-2.11c-1.12-0.8-2.19-1.67-3.21-2.6c-2.05-1.86-3.8-4.03-5.28-6.37
			c-1.44-2.37-2.61-4.9-3.36-7.56c-0.37-1.33-0.67-2.68-0.88-4.04C87.26,294.26,87.14,292.89,87.15,291.52z"/>
	</g>
	<g>
		<path class="st6" d="M90.18,237.63c-0.53,1.38-0.5,2.87-0.79,4.32c-0.26,1.45-0.81,2.93-1.88,4.04c-0.52,0.56-1.14,1.02-1.79,1.4
			c-0.64,0.39-1.26,0.73-1.83,1.16c-1.15,0.84-2.12,1.92-2.6,3.22c-0.5,1.3-0.5,2.74-0.74,4.25c-0.07,0.38-0.15,0.76-0.27,1.13
			c-0.12,0.38-0.3,0.74-0.44,1.06c-0.3,0.66-0.59,1.33-0.86,2.01c-1.09,2.7-1.92,5.5-2.47,8.35c-0.57,2.85-0.84,5.74-0.82,8.66
			c-0.02,2.92,0.2,5.82,0.84,8.65c0.64,2.82,1.79,5.54,3.54,7.86c1.72,2.34,4.06,4.21,6.68,5.53c-2.72-1.12-5.17-2.94-7.06-5.23
			c-1.88-2.31-3.15-5.09-3.9-7.97c-0.77-2.88-0.98-5.88-1-8.83c-0.06-2.96,0.19-5.94,0.74-8.86c0.59-2.91,1.47-5.76,2.61-8.5
			c0.28-0.69,0.59-1.36,0.9-2.03c0.34-0.67,0.55-1.26,0.67-1.97c0.24-1.38,0.25-2.94,0.86-4.39c0.59-1.46,1.71-2.62,2.95-3.47
			c0.61-0.43,1.3-0.79,1.92-1.14c0.62-0.34,1.21-0.75,1.71-1.25c1.03-0.98,1.65-2.32,1.98-3.74
			C89.47,240.49,89.54,238.97,90.18,237.63z"/>
	</g>
	<g>
		<path class="st6" d="M83.31,249.11c-0.77-1.03-1.6-1.99-2.54-2.85c-0.91-0.88-1.88-1.69-2.94-2.37c-2.1-1.36-4.42-2.39-6.87-2.8
			c-2.44-0.47-4.98-0.4-7.42,0.15c-1.22,0.27-2.43,0.66-3.58,1.17c-1.17,0.48-2.29,1.1-3.36,1.8c1.9-1.73,4.25-2.98,6.75-3.72
			c2.51-0.75,5.21-0.87,7.79-0.39c2.59,0.46,5.06,1.58,7.14,3.16C80.35,244.85,82.12,246.83,83.31,249.11z"/>
	</g>
	<g>
		<path class="st6" d="M62.03,249.03c-2.21-0.21-4.41-0.22-6.55,0.1c-1.07,0.17-2.13,0.41-3.19,0.67c-1.06,0.26-2.1,0.55-3.09,0.96
			c-1.99,0.77-3.81,1.99-4.95,3.77c-1.17,1.77-1.48,4.02-1.26,6.22c-0.32-1.06-0.43-2.19-0.37-3.33c0.1-1.13,0.41-2.26,0.97-3.28
			c1.1-2.08,3.15-3.47,5.24-4.31c1.06-0.42,2.15-0.72,3.25-0.95c1.09-0.22,2.19-0.45,3.32-0.52c1.12-0.08,2.25-0.07,3.36,0.03
			C59.87,248.53,60.97,248.71,62.03,249.03z"/>
	</g>
	<g>
		<path class="st6" d="M46.96,257.61c-1.75,1.54-3.34,3.24-4.63,5.13c-1.28,1.89-2.39,3.93-3.14,6.06c-0.78,2.14-1.18,4.4-1.26,6.68
			c-0.07,2.28,0.26,4.58,0.87,6.84c-0.51-1.05-0.87-2.18-1.17-3.32c-0.26-1.15-0.42-2.33-0.47-3.51c-0.1-2.37,0.29-4.77,1.09-7.02
			c0.82-2.24,1.99-4.33,3.47-6.18c0.74-0.92,1.55-1.79,2.42-2.58C45.03,258.94,45.95,258.21,46.96,257.61z"/>
	</g>
	<g>
		<path class="st6" d="M42.15,277.92c-0.17,4.67,0.49,9.35,2.04,13.7c0.79,2.19,1.59,4.37,2.72,6.37c1.11,2.01,2.54,3.82,4.26,5.32
			c1.74,1.48,3.63,2.86,5.6,4.07c1.97,1.22,4.03,2.31,6.08,3.42c2.07,1.09,4.04,2.35,6.3,2.81c1.11,0.24,2.27,0.36,3.41,0.21
			c1.15-0.1,2.25-0.53,3.38-0.83c-0.56,0.18-1.07,0.45-1.63,0.65c-0.55,0.2-1.12,0.37-1.71,0.47c-1.17,0.22-2.38,0.22-3.56,0.02
			c-2.39-0.38-4.5-1.6-6.57-2.61c-4.16-2.11-8.34-4.37-11.96-7.47c-3.64-3.2-5.71-7.73-7.04-12.19c-0.7-2.26-1.2-4.57-1.42-6.92
			C41.84,282.6,41.85,280.24,42.15,277.92z"/>
	</g>
	<g>
		<path class="st6" d="M75.43,309.11c-2.58-2.11-4.82-4.68-6.58-7.56c-0.89-1.43-1.63-2.96-2.25-4.53
			c-0.61-1.59-1.08-3.18-1.52-4.81c-0.41-1.63-0.73-3.32-0.73-5.05c0-1.72,0.32-3.48,1.14-5.01c0.78-1.55,2-2.84,3.4-3.79
			c1.42-0.93,3.01-1.57,4.65-1.9c-3.13,1.05-6.05,3.07-7.36,6.03c-1.37,2.94-0.96,6.34-0.14,9.48c0.82,3.2,1.86,6.33,3.47,9.21
			c0.79,1.45,1.69,2.83,2.69,4.15C73.18,306.65,74.29,307.89,75.43,309.11z"/>
	</g>
	<g>
		<path class="st6" d="M153.33,175.61c1.56,0.93,3.23,1.7,4.95,2.27c1.72,0.57,3.52,0.89,5.33,1.03c3.62,0.3,7.28-0.34,10.69-1.6
			c-3.34,1.47-7.05,2.07-10.71,1.85c-1.82-0.16-3.63-0.52-5.36-1.12C156.49,177.45,154.84,176.63,153.33,175.61z"/>
	</g>
	<g>
		<path class="st6" d="M159.99,159.93c0.25,0.48,0.61,0.85,1,1.18c0.38,0.34,0.81,0.61,1.25,0.88c0.87,0.52,1.81,0.99,2.74,1.38
			l-0.34-0.01c1.03-0.35,2.08-0.79,3.05-1.3c0.97-0.53,1.92-1.11,2.5-2.13c-0.06,0.59-0.38,1.14-0.75,1.6
			c-0.38,0.47-0.84,0.86-1.33,1.2c-0.48,0.35-1,0.64-1.53,0.9c-0.54,0.25-1.07,0.48-1.65,0.67l-0.18,0.06l-0.16-0.07
			c-1.01-0.45-1.95-0.98-2.81-1.68c-0.43-0.34-0.82-0.73-1.15-1.18C160.32,160.98,160.04,160.47,159.99,159.93z"/>
	</g>
	<g>
		<path class="st7" d="M192.83,143.63c-1.64-0.01-3.25,0.1-4.81,0.45c-1.55,0.31-3.05,0.8-4.46,1.43c-1.42,0.64-2.58,1.66-3.95,2.31
			c-1.38,0.68-2.74,1.4-4.44,2.04l-0.22-0.2c0.24-0.9,0.67-1.69,1.18-2.41c0.51-0.73,1.13-1.37,1.81-1.93
			c0.69-0.56,1.46-1.01,2.29-1.31c0.84-0.3,1.68-0.53,2.52-0.76c0.84-0.22,1.69-0.4,2.55-0.52c0.86-0.1,1.72-0.15,2.57-0.14
			c1.71,0.05,3.39,0.26,4.99,0.75L192.83,143.63z"/>
	</g>
	<g>
		<path class="st7" d="M136.23,142.33c1.6-0.49,3.28-0.71,4.99-0.75c0.85,0,1.71,0.04,2.57,0.14c0.85,0.12,1.7,0.3,2.55,0.52
			c0.84,0.23,1.69,0.46,2.52,0.76c0.83,0.31,1.6,0.75,2.29,1.31c0.68,0.56,1.3,1.2,1.81,1.93c0.52,0.72,0.95,1.51,1.18,2.41
			l-0.22,0.2c-1.7-0.64-3.06-1.36-4.44-2.04c-1.37-0.65-2.53-1.67-3.95-2.31c-1.41-0.63-2.9-1.11-4.46-1.43
			c-1.55-0.34-3.17-0.46-4.81-0.45L136.23,142.33z"/>
	</g>
	<g>
		<path class="st6" d="M96.2,219.41c-1.17,0.48-2.33,0.99-3.37,1.68c-1.04,0.66-1.98,1.5-2.58,2.53c-0.3,0.52-0.53,1.06-0.61,1.61
			c-0.07,0.58-0.16,1.3-0.34,1.92c-0.35,1.25-0.88,2.48-1.55,3.58c-0.68,1.07-1.18,2.13-1.54,3.33c-0.37,1.17-0.61,2.38-0.46,3.54
			c0.06,0.6,0.3,1.08,0.59,1.69c0.28,0.61,0.42,1.28,0.45,1.94c0.02,1.33-0.35,2.59-0.93,3.72c0.37-1.21,0.62-2.47,0.44-3.68
			c-0.08-0.6-0.25-1.18-0.53-1.7c-0.3-0.51-0.67-1.16-0.78-1.83c-0.3-1.35-0.02-2.7,0.31-3.94c0.34-1.25,0.92-2.49,1.59-3.56
			c0.66-1.06,1.14-2.17,1.5-3.34c0.19-0.59,0.28-1.13,0.39-1.8c0.12-0.71,0.45-1.32,0.83-1.87c0.76-1.12,1.84-1.94,2.98-2.54
			C93.75,220.09,94.96,219.68,96.2,219.41z"/>
	</g>
	<g>
		<path class="st6" d="M156.4,170.31c1.12,0.37,2.25,0.52,3.35,0.41c1.09-0.13,2.15-0.47,2.94-1.14c0.39-0.33,0.73-0.72,0.97-1.17
			c0.24-0.49,0.45-0.98,0.57-1.51c0.25-1.07,0.33-2.27,0.63-3.41c0.15,1.18,0.3,2.32,0.18,3.56c-0.08,0.61-0.25,1.24-0.52,1.8
			c-0.29,0.59-0.7,1.12-1.22,1.52c-1.02,0.82-2.31,1.15-3.54,1.12C158.54,171.44,157.34,171.03,156.4,170.31z"/>
	</g>
	<g>
		<path class="st6" d="M171.75,170.98c-0.81,0.75-1.98,1.21-3.17,1.1c-1.19-0.08-2.34-0.71-3.1-1.65c-0.38-0.47-0.66-1.02-0.85-1.58
			c-0.17-0.57-0.25-1.15-0.26-1.72c-0.02-1.14,0.2-2.21,0.42-3.3c0.21,1.09,0.22,2.2,0.38,3.23c0.15,1.03,0.48,1.98,1.08,2.75
			c0.6,0.76,1.47,1.3,2.43,1.52C169.66,171.55,170.72,171.39,171.75,170.98z"/>
	</g>
</g>
</svg>
