<?xml version="1.0" encoding="utf-8"?>
<!-- Generator: Adobe Illustrator 25.4.8, SVG Export Plug-In . SVG Version: 6.00 Build 0)  -->
<svg version="1.1" xmlns="http://www.w3.org/2000/svg" xmlns:xlink="http://www.w3.org/1999/xlink" x="0px" y="0px"
	 viewBox="0 0 326 198" style="enable-background:new 0 0 326 198;" xml:space="preserve">
<style type="text/css">
	.st0{display:none;}
	.st1{display:inline;}
	.st2{fill:#FFFFFF;}
	.st3{fill:none;stroke:#000000;stroke-miterlimit:10;}
	.st4{fill:#EACE5C;}
	.st5{fill:#9E7E2E;}
	.st6{fill:#FFFFFF;stroke:#9E7E2E;stroke-width:0.75;stroke-miterlimit:10;}
</style>
<g id="Layer_1" class="st0">
	<g id="Layer_1_00000060748300190257632330000010038290681692337031_">
		<g class="st1">
			<rect x="125.5" y="14.5" class="st2" width="71" height="103"/>
			<path d="M196,15v102h-70V15H196 M197,14h-72v104h72V14L197,14z"/>
		</g>
		<g class="st1">
			<rect x="204.5" y="14.5" class="st2" width="51" height="61"/>
			<path d="M255,15v60h-50V15H255 M256,14h-52v62h52V14L256,14z"/>
		</g>
		<g class="st1">
			<rect x="204.5" y="81.5" class="st2" width="29" height="48"/>
			<path d="M233,82v47h-28V82H233 M234,81h-30v49h30V81L234,81z"/>
		</g>
		<g class="st1">
			<rect x="238.5" y="81.5" class="st2" width="29" height="23"/>
			<path d="M267,82v22h-28V82H267 M268,81h-30v24h30V81L268,81z"/>
		</g>
		<g class="st1">
			<rect x="125.5" y="124.5" class="st2" width="34" height="48"/>
			<path d="M159,125v47h-33v-47H159 M160,124h-35v49h35V124L160,124z"/>
		</g>
		<g class="st1">
			<rect x="164.5" y="124.5" class="st2" width="32" height="32"/>
			<path d="M196,125v31h-31v-31H196 M197,124h-33v33h33V124L197,124z"/>
		</g>
		<g class="st1">
			<rect x="82.5" y="14.5" class="st2" width="37" height="41"/>
			<path d="M119,15v40H83V15H119 M120,14H82v42h38V14L120,14z"/>
		</g>
		<g class="st1">
			<rect x="59.5" y="61.5" class="st2" width="60" height="70"/>
			<path d="M119,62v69H60V62H119 M120,61H59v71h61V61L120,61z"/>
		</g>
		<g class="st1">
			<rect x="47.5" y="38.5" class="st2" width="29" height="18"/>
			<path d="M76,39v17H48V39H76 M77,38H47v19h30V38L77,38z"/>
		</g>
	</g>
	<g id="Layer_3" class="st1">
		<path class="st3" d="M25.42,62.79"/>
		<g>
			<path class="st4" d="M23.67,45.84c0,0-2.67-6.21-0.74-9.89c0.2-0.39,0.77-1.32,1.86-1.86c1.11-0.55,2.58-0.38,3.45,0.51
				c0.87,0.88,1,2.43,0.2,3.38s-2.46,1.04-3.29,0.12c-0.44-0.48-0.62-1.14-0.78-1.77c-0.42-1.62-0.79-3.52,0.27-4.82
				c0.82-1.02,2.24-1.3,3.54-1.43c1.68-0.17,3.01,0.05,3.54,0.18c3.29,0.82,8.42,4.56,9.78,5.24c4,2,12,3,17-1
				c4.18-3.34,5.06-8.92,2-12c-2.23-2.24-5.21-2.23-7,0c-2.63,3.28-1.17,8.31,5,12c6.49,3.88,12.1,2.36,18,0
				c5-2,7.43-2.94,10.65-3.75c1.98-0.5,3.71-0.28,4.42-0.18c1.84,0.25,3.08,0.42,3.88,1.43c1.14,1.43,0.61,3.52,0.29,4.82
				c-0.19,0.77-0.34,1.33-0.86,1.77c-0.88,0.75-2.66,0.98-3.6-0.12c-0.87-1.02-0.51-2.55,0.22-3.38c1.05-1.19,2.86-0.88,3.78-0.51
				c1.24,0.51,1.86,1.56,2.04,1.86c1.98,3.36-0.49,9.13-0.81,9.89c-2.8,6.57-9.82,23.05-5.01,32.17c1.99,3.77,6.39,6.03,9,5
				c2.51-0.99,3.73-4.07,2-6c-2.15-2.4-8.07-3.3-11,1c-4.82,7.08,0.71,25.47,5.38,36.23c0.27,0.62,2.83,6.5,0.81,9.92
				c-0.18,0.31-0.8,1.35-2.04,1.86c-0.92,0.38-2.73,0.68-3.78-0.51c-0.73-0.83-1.09-2.37-0.22-3.39c0.95-1.1,2.72-0.87,3.6-0.12
				c0.12,0.1,0.53,0.48,0.86,1.77c0.33,1.31,0.85,3.41-0.29,4.83c-0.81,1.01-2.05,1.18-3.88,1.43c-0.71,0.1-2.44,0.32-4.42-0.18
				c-3.08-0.78-7.18-1.33-9.02-1.86c-7-2-12.5-3.68-17,2c-1.83,2.31-3.86,6.71-2,9c1.84,2.27,5.04,1.93,6,0c1.22-2.44,0.97-6.06-4-9
				c-5.37-3.18-16-5-21-3c-1.76,0.7-5.16,2.54-8.41,3.35c-0.53,0.13-1.87,0.42-3.54,0.18c-1.37-0.19-2.71-0.38-3.54-1.43
				c-1.01-1.27-0.65-3.01-0.27-4.83c0.26-1.25,0.57-1.59,0.78-1.77c0.8-0.68,2.37-0.86,3.29,0.12c0.94,1.01,0.55,2.57-0.2,3.39
				c-0.98,1.07-2.56,0.88-3.45,0.51c-1.12-0.48-1.66-1.47-1.86-1.86c-1.92-3.7,0.74-9.92,0.74-9.92
				c2.71-6.33,13.27-25.64,7.46-32.73c-2.81-3.43-7.82-5.03-11-2c-2.5,2.38-0.46,5.18,2,6c3,1,8-1,9-4
				C33.4,76.79,31.7,64.55,23.67,45.84z"/>
			<path class="st5" d="M23.36,45.97c-0.56-1.35-0.96-2.73-1.23-4.15c-0.27-1.42-0.37-2.9-0.11-4.37c0.16-0.73,0.39-1.46,0.82-2.11
				c0.42-0.64,1-1.19,1.7-1.56c1.41-0.75,3.37-0.45,4.34,0.97c0.45,0.69,0.62,1.55,0.44,2.36c-0.16,0.81-0.78,1.58-1.58,1.86
				c-0.78,0.3-1.68,0.27-2.43-0.19c-0.78-0.48-1.07-1.33-1.26-2.02c-0.35-1.38-0.78-2.87-0.31-4.43c0.24-0.77,0.79-1.45,1.48-1.84
				c0.68-0.4,1.43-0.59,2.16-0.7c1.45-0.22,2.93-0.23,4.39,0.09c1.45,0.38,2.73,1.06,3.96,1.79c1.23,0.74,2.4,1.55,3.57,2.36
				c0.58,0.41,1.17,0.82,1.77,1.19c0.59,0.38,1.26,0.64,1.92,0.9c2.68,0.93,5.57,1.26,8.38,0.98c2.8-0.27,5.62-1.26,7.65-3.23
				c2.03-1.91,3.33-4.72,3.01-7.47c-0.13-1.37-0.75-2.66-1.7-3.63c-0.95-0.96-2.24-1.63-3.55-1.59c-1.31,0.03-2.51,0.8-3.22,1.92
				c-0.77,1.08-1.03,2.46-0.82,3.77c0.46,2.66,2.49,4.84,4.73,6.4c1.13,0.81,2.34,1.49,3.6,2.08c1.27,0.56,2.61,0.96,3.99,1.16
				c1.38,0.19,2.79,0.16,4.19-0.03c1.39-0.21,2.76-0.57,4.1-1.01c2.68-0.89,5.28-2.06,7.95-3.06c1.33-0.5,2.68-0.98,4.05-1.39
				c1.36-0.38,2.78-0.78,4.23-0.77c0.72-0.01,1.45,0.04,2.16,0.13c0.71,0.09,1.42,0.17,2.14,0.35c0.71,0.17,1.46,0.57,1.93,1.22
				c0.49,0.63,0.68,1.43,0.72,2.18c0.03,0.76-0.1,1.5-0.25,2.21c-0.19,0.69-0.24,1.41-0.74,2.15c-0.53,0.7-1.33,1.02-2.11,1.11
				s-1.67-0.13-2.27-0.74c-0.61-0.59-0.83-1.5-0.69-2.28c0.12-0.78,0.49-1.53,1.15-2.04c0.65-0.51,1.49-0.65,2.24-0.6
				c0.76,0.06,1.5,0.27,2.15,0.68c1.31,0.83,2.03,2.29,2.23,3.74c0.2,1.46,0.02,2.92-0.32,4.31c-0.33,1.4-0.81,2.75-1.39,4.06
				c-0.57,1.3-1.12,2.61-1.65,3.93c-1.06,2.63-1.98,5.32-2.77,8.04c-0.79,2.72-1.39,5.5-1.71,8.3c-0.3,2.8-0.32,5.65,0.36,8.35
				c0.18,0.67,0.34,1.35,0.66,1.96l0.42,0.94c0.16,0.3,0.33,0.6,0.53,0.87c0.77,1.13,1.76,2.1,2.91,2.84
				c1.13,0.73,2.44,1.25,3.73,1.28c1.27,0.06,2.44-0.68,3.15-1.71c0.72-1.02,0.83-2.41,0.15-3.36c-0.34-0.47-0.85-0.88-1.42-1.18
				c-0.56-0.31-1.18-0.55-1.83-0.68c-1.28-0.3-2.64-0.23-3.87,0.15c-1.23,0.42-2.29,1.22-3.04,2.27c-0.77,1.05-1.19,2.35-1.49,3.68
				c-0.29,1.33-0.4,2.72-0.41,4.11c-0.04,2.79,0.25,5.61,0.71,8.39c0.92,5.59,2.65,11.03,4.7,16.32c0.51,1.33,1.06,2.63,1.61,3.94
				c0.53,1.33,0.95,2.7,1.2,4.12c0.22,1.41,0.33,2.89-0.1,4.31c-0.41,1.4-1.4,2.7-2.85,3.19c-0.7,0.23-1.45,0.34-2.2,0.21
				c-0.75-0.12-1.46-0.58-1.86-1.24c-0.39-0.65-0.6-1.43-0.45-2.2c0.13-0.77,0.69-1.46,1.43-1.74c0.73-0.28,1.54-0.23,2.25,0.05
				c0.35,0.15,0.69,0.33,0.97,0.66c0.25,0.32,0.4,0.66,0.53,1.01c0.4,1.39,0.81,2.81,0.51,4.32c-0.15,0.74-0.56,1.46-1.19,1.92
				c-0.63,0.47-1.38,0.65-2.09,0.79c-1.41,0.24-2.86,0.44-4.31,0.27c-0.72-0.07-1.44-0.25-2.11-0.44c-0.68-0.18-1.38-0.34-2.07-0.49
				c-1.38-0.31-2.79-0.55-4.18-0.83c-1.41-0.23-2.78-0.64-4.14-1.02c-1.37-0.37-2.74-0.74-4.13-0.99s-2.81-0.4-4.2-0.27
				c-1.4,0.12-2.76,0.55-3.94,1.31c-2.34,1.55-4.01,4-4.92,6.64c-0.43,1.31-0.67,2.79-0.1,4.02c0.6,1.19,1.91,2.05,3.26,2.08
				c1.36,0.08,2.7-0.73,3.04-2.1c0.47-1.29,0.41-2.74-0.16-3.99c-0.57-1.25-1.53-2.3-2.65-3.13c-1.11-0.84-2.36-1.5-3.65-2.06
				c-2.59-1.1-5.33-1.89-8.12-2.38c-2.79-0.46-5.66-0.62-8.44-0.12c-1.4,0.23-2.65,0.87-3.93,1.49c-1.28,0.62-2.57,1.23-3.91,1.75
				c-1.33,0.5-2.7,1.02-4.19,1.14c-0.73,0.05-1.48,0.02-2.2-0.09c-0.7-0.1-1.44-0.22-2.15-0.51s-1.38-0.82-1.74-1.53
				c-0.38-0.71-0.44-1.51-0.39-2.25c0.05-0.74,0.2-1.45,0.35-2.15c0.17-0.69,0.26-1.45,0.87-2.1c0.63-0.55,1.43-0.75,2.21-0.66
				c0.79,0.08,1.55,0.57,1.9,1.3c0.36,0.73,0.29,1.58-0.01,2.28c-0.28,0.7-0.86,1.34-1.61,1.59c-1.46,0.5-3.16-0.02-4.08-1.22
				c-0.93-1.18-1.24-2.7-1.26-4.13c0.05-2.89,0.87-5.7,2.12-8.26c2.41-5.14,4.9-10.27,6.57-15.7c0.82-2.71,1.5-5.47,1.69-8.26
				c0.2-2.75-0.19-5.7-2.16-7.62c-0.96-0.96-2.1-1.78-3.36-2.27c-0.63-0.26-1.29-0.41-1.95-0.51c-0.66-0.06-1.33-0.05-1.98,0.09
				c-1.26,0.28-2.49,1.06-3.16,2.12c-0.71,1.06-0.33,2.43,0.59,3.33c0.92,0.93,2.2,1.43,3.53,1.41c1.34-0.02,2.69-0.39,3.9-1
				c1.18-0.63,2.3-1.52,2.81-2.7c0.47-1.24,0.67-2.65,0.77-4.03c0.13-2.79-0.15-5.61-0.61-8.4c-0.46-2.79-1.08-5.56-1.84-8.29
				c-0.76-2.73-1.63-5.44-2.62-8.1C25.75,51.12,24.47,48.57,23.36,45.97z M23.97,45.7c1.1,2.63,1.98,5.34,2.97,8
				c1.03,2.65,1.91,5.36,2.78,8.07c1.64,5.43,3.05,11.05,2.85,16.85c-0.11,1.45-0.28,2.88-0.81,4.31c-0.62,1.46-1.88,2.43-3.17,3.14
				c-1.32,0.68-2.77,1.09-4.28,1.12c-1.52,0.04-3.09-0.55-4.18-1.65c-0.54-0.55-0.98-1.25-1.15-2.06c-0.18-0.81,0.01-1.69,0.44-2.36
				c0.87-1.34,2.25-2.16,3.74-2.51c0.75-0.16,1.51-0.17,2.26-0.09c0.74,0.11,1.48,0.28,2.16,0.57c1.39,0.55,2.61,1.43,3.65,2.48
				c1.04,1.04,1.79,2.46,2.09,3.9c0.32,1.45,0.32,2.92,0.2,4.36c-0.27,2.88-1.09,5.65-2,8.34c-1.88,5.39-4.31,10.54-6.7,15.69
				c-0.61,1.29-1.13,2.59-1.47,3.96c-0.37,1.36-0.58,2.77-0.57,4.16c0.04,1.39,0.36,2.8,1.22,3.87c0.82,1.06,2.37,1.48,3.59,1.04
				c1.2-0.43,1.86-2.08,1.31-3.19c-0.55-1.18-2.34-1.28-3.24-0.45c-0.39,0.4-0.54,1.13-0.67,1.8c-0.14,0.69-0.27,1.38-0.31,2.06
				c-0.04,0.68,0.04,1.34,0.34,1.9s0.81,0.97,1.42,1.2c0.61,0.24,1.3,0.33,1.99,0.43c0.69,0.11,1.36,0.14,2.05,0.09
				c1.36-0.06,2.71-0.51,4.04-0.96c1.33-0.47,2.63-1.03,3.93-1.6c0.65-0.28,1.3-0.57,1.97-0.83l1.04-0.32l1.06-0.21
				c2.84-0.44,5.71-0.22,8.53,0.16c2.82,0.4,5.62,1.06,8.27,2.16c1.32,0.57,2.59,1.26,3.74,2.14c1.15,0.87,2.17,1.98,2.77,3.33
				c0.61,1.35,0.66,2.93,0.15,4.32c-0.12,0.35-0.27,0.68-0.48,1.01c-0.23,0.31-0.49,0.59-0.82,0.79c-0.63,0.43-1.4,0.59-2.15,0.56
				c-1.5-0.06-2.9-0.98-3.58-2.32c-0.63-1.4-0.34-2.95,0.1-4.29c0.95-2.71,2.66-5.19,5.09-6.78c1.22-0.78,2.64-1.22,4.08-1.33
				c1.44-0.12,2.87,0.04,4.27,0.3c1.4,0.26,2.78,0.64,4.15,1.02c1.37,0.39,2.72,0.8,4.12,1.04l4.2,0.74c0.7,0.13,1.4,0.26,2.1,0.41
				c0.7,0.16,1.37,0.3,2.07,0.35c1.39,0.13,2.78-0.1,4.17-0.33c0.68-0.12,1.35-0.3,1.87-0.68c0.52-0.39,0.87-0.98,1.01-1.62
				c0.28-1.31-0.1-2.74-0.48-4.06c-0.11-0.32-0.25-0.63-0.44-0.88c-0.18-0.22-0.48-0.4-0.78-0.53c-0.6-0.25-1.31-0.29-1.91-0.06
				c-0.6,0.23-1.05,0.77-1.16,1.41c-0.13,0.63,0.04,1.33,0.38,1.89s0.92,0.95,1.57,1.06c0.65,0.12,1.35,0.03,2-0.18
				c1.3-0.42,2.23-1.62,2.62-2.92c0.42-1.32,0.33-2.76,0.12-4.14c-0.24-1.39-0.64-2.75-1.16-4.06c-0.55-1.3-1.12-2.62-1.63-3.94
				c-1.04-2.65-1.98-5.34-2.82-8.06c-0.87-2.71-1.6-5.47-2.25-8.25c-0.62-2.79-1.11-5.63-1.18-8.53c-0.02-1.45,0.06-2.91,0.34-4.36
				s0.78-2.91,1.69-4.16c0.9-1.25,2.21-2.24,3.68-2.73c1.48-0.46,3.06-0.54,4.54-0.17c0.75,0.17,1.47,0.45,2.14,0.83
				c0.68,0.38,1.3,0.87,1.79,1.57c0.48,0.69,0.68,1.57,0.62,2.39c-0.06,0.83-0.37,1.6-0.83,2.25s-1.06,1.19-1.76,1.57
				c-0.68,0.39-1.54,0.57-2.31,0.53c-1.57-0.08-2.98-0.7-4.21-1.53c-1.23-0.83-2.28-1.9-3.09-3.14c-0.2-0.31-0.38-0.64-0.55-0.96
				l-0.42-1.02c-0.32-0.66-0.48-1.38-0.65-2.08c-0.65-2.84-0.56-5.76-0.18-8.59c0.39-2.84,1.08-5.61,1.89-8.34
				c0.82-2.73,1.82-5.4,2.86-8.04c0.52-1.32,1.06-2.64,1.61-3.95c0.56-1.3,1.03-2.64,1.31-4.01c0.29-1.37,0.43-2.79,0.21-4.15
				c-0.22-1.34-0.92-2.63-2.06-3.32c-1.1-0.64-2.71-0.81-3.66-0.04c-0.94,0.76-1.24,2.44-0.36,3.26c0.82,0.84,2.55,0.59,3.22-0.31
				c0.32-0.45,0.44-1.19,0.62-1.86c0.17-0.68,0.27-1.35,0.28-2.01c0.05-1.33-0.71-2.58-2.06-2.92c-0.65-0.21-1.35-0.3-2.05-0.42
				c-0.7-0.12-1.39-0.19-2.09-0.17c-1.4-0.01-2.75,0.4-4.11,0.81c-1.36,0.39-2.7,0.85-4.03,1.35c-1.33,0.49-2.65,1.01-3.97,1.53
				c-1.32,0.53-2.64,1.06-4,1.51c-2.7,0.89-5.58,1.47-8.47,1.23c-1.44-0.11-2.88-0.44-4.24-0.95c-1.36-0.52-2.63-1.25-3.83-2.07
				c-1.19-0.83-2.29-1.83-3.19-3c-0.9-1.17-1.59-2.55-1.82-4.05c-0.22-1.49,0.1-3.11,1-4.34c0.81-1.27,2.31-2.18,3.86-2.17
				c3.16,0.08,5.55,2.95,5.74,5.86c0.14,1.47-0.17,2.94-0.76,4.25c-0.59,1.32-1.47,2.51-2.54,3.47c-2.14,1.96-5,2.92-7.82,3.16
				c-2.84,0.24-5.73-0.12-8.41-1.08c-0.67-0.24-1.33-0.51-1.95-0.86l-1.85-1.07c-1.23-0.71-2.47-1.4-3.74-2.02
				c-1.26-0.62-2.54-1.22-3.85-1.57c-1.31-0.29-2.73-0.28-4.08-0.06c-1.34,0.19-2.65,0.77-2.99,2.01c-0.38,1.21-0.02,2.62,0.33,3.95
				c0.18,0.66,0.44,1.25,0.91,1.53c0.47,0.29,1.13,0.33,1.67,0.11c1.13-0.38,1.43-1.98,0.76-2.98c-0.64-1.01-2.2-1.3-3.29-0.72
				c-0.57,0.29-1.06,0.74-1.42,1.28c-0.36,0.54-0.57,1.18-0.73,1.83c-0.25,1.33-0.19,2.73,0.07,4.1
				C23.06,43.05,23.46,44.42,23.97,45.7z"/>
		</g>
	</g>
	<g id="Layer_5" class="st1">
		<g>
			<path class="st5" d="M38.88,38.91l33.7,0.03l8.43,0.01c1.38,0.05,2.86-0.2,4.17,0.46c1.29,0.59,2.3,1.76,2.68,3.13
				c0.2,0.68,0.19,1.4,0.19,2.1v2.11v4.21l-0.01,8.43l0.01,33.7l0.05,16.85l0.02,8.43c0.01,0.69,0.02,1.43-0.19,2.12
				c-0.19,0.69-0.53,1.34-1,1.89c-0.93,1.1-2.35,1.76-3.79,1.76l-33.7-0.01h-8.43H38.9c-0.72,0-1.44-0.16-2.09-0.46
				c-1.3-0.6-2.34-1.78-2.72-3.17c-0.21-0.69-0.2-1.43-0.19-2.12v-2.11v-4.21v-8.43l0.01-33.7V53.08v-8.43
				c0-0.69-0.01-1.42,0.19-2.11c0.19-0.69,0.54-1.34,1.01-1.88C36.03,39.56,37.45,38.9,38.88,38.91z M38.88,39.09
				c-1.38-0.01-2.74,0.63-3.64,1.68c-0.45,0.52-0.78,1.14-0.97,1.81c-0.2,0.66-0.19,1.36-0.18,2.06v8.43v16.85l0.01,33.7v8.43v4.21
				v2.11c0,0.71-0.01,1.4,0.19,2.06c0.36,1.33,1.35,2.46,2.6,3.03c1.25,0.63,2.7,0.39,4.1,0.44h8.43l33.7-0.01
				c1.37,0.01,2.73-0.62,3.62-1.66c0.45-0.52,0.78-1.14,0.97-1.8c0.2-0.66,0.19-1.35,0.19-2.06l0.02-8.43l0.05-16.85l0.01-33.7
				l-0.01-8.43v-4.21v-2.11c0-0.7,0.01-1.41-0.19-2.08c-0.37-1.35-1.37-2.49-2.64-3.07c-1.28-0.64-2.74-0.4-4.13-0.44l-8.43,0.01
				L38.88,39.09z"/>
		</g>
	</g>
	<g id="Layer_2_00000176013110838240402350000003193203677448808338_" class="st1">
		<g>
			<path class="st2" d="M41.05,122.75c-2.65,0-4.8-2.15-4.8-4.8v-72.9c0-2.65,2.15-4.8,4.8-4.8h39.9c2.65,0,4.8,2.15,4.8,4.8v72.9
				c0,2.65-2.15,4.8-4.8,4.8H41.05z"/>
			<path class="st5" d="M80.95,40.5c2.51,0,4.55,2.04,4.55,4.55v72.9c0,2.51-2.04,4.55-4.55,4.55h-39.9c-2.51,0-4.55-2.04-4.55-4.55
				v-72.9c0-2.51,2.04-4.55,4.55-4.55L80.95,40.5 M80.95,40h-39.9C38.26,40,36,42.26,36,45.05v72.9c0,2.79,2.26,5.05,5.05,5.05h39.9
				c2.79,0,5.05-2.26,5.05-5.05v-72.9C86,42.26,83.74,40,80.95,40L80.95,40z"/>
		</g>
		<path class="st3" d="M109.01,85.32"/>
		<g>
			<path class="st4" d="M118.33,65.86c0,0-3.44-7.13-0.96-11.35c0.26-0.45,0.99-1.51,2.4-2.13c1.43-0.63,3.32-0.43,4.45,0.58
				c1.12,1.01,1.29,2.79,0.26,3.88s-3.17,1.19-4.24,0.14c-0.56-0.55-0.79-1.31-1.01-2.03c-0.55-1.86-1.02-4.04,0.34-5.53
				c1.06-1.17,2.89-1.49,4.57-1.64c2.16-0.2,3.88,0.05,4.57,0.21c4.24,0.94,10.86,5.24,12.61,6.02c5.16,2.3,15.47,3.44,21.91-1.15
				c5.39-3.84,6.53-10.24,2.58-13.77c-2.87-2.57-6.71-2.56-9.02,0c-3.39,3.76-1.51,9.53,6.45,13.77c8.36,4.46,15.6,2.71,23.2,0
				c6.45-2.3,9.58-3.37,13.73-4.3c2.55-0.57,4.78-0.32,5.7-0.21c2.37,0.29,3.97,0.48,5,1.64c1.47,1.64,0.79,4.04,0.38,5.53
				c-0.25,0.88-0.44,1.53-1.1,2.03c-1.14,0.86-3.42,1.13-4.64-0.14c-1.12-1.17-0.66-2.93,0.28-3.88c1.36-1.36,3.69-1.01,4.87-0.58
				c1.6,0.59,2.4,1.79,2.63,2.13c2.56,3.86-0.63,10.48-1.05,11.35c-3.61,7.53-12.66,26.45-6.46,36.92c2.56,4.33,8.23,6.92,11.6,5.74
				c3.23-1.13,4.81-4.67,2.58-6.89c-2.77-2.75-10.4-3.79-14.18,1.15c-6.22,8.12,0.92,29.23,6.94,41.58
				c0.34,0.71,3.64,7.46,1.05,11.38c-0.23,0.35-1.03,1.55-2.63,2.14c-1.19,0.43-3.51,0.78-4.87-0.58c-0.95-0.95-1.41-2.72-0.28-3.89
				c1.22-1.27,3.51-1,4.64-0.14c0.15,0.11,0.69,0.55,1.1,2.03c0.42,1.51,1.09,3.91-0.38,5.55c-1.04,1.16-2.64,1.36-5,1.65
				c-0.92,0.11-3.14,0.36-5.69-0.21c-3.97-0.89-9.26-1.52-11.63-2.13c-9.02-2.3-16.11-4.22-21.91,2.3
				c-2.36,2.65-4.98,7.7-2.58,10.33c2.37,2.6,6.49,2.21,7.73,0c1.57-2.8,1.24-6.95-5.16-10.33c-6.92-3.65-20.63-5.74-27.07-3.44
				c-2.27,0.81-6.65,2.91-10.84,3.84c-0.69,0.15-2.41,0.48-4.56,0.21c-1.76-0.22-3.49-0.44-4.57-1.65c-1.3-1.46-0.83-3.45-0.34-5.55
				c0.34-1.43,0.73-1.83,1.01-2.03c1.03-0.78,3.06-0.99,4.24,0.14c1.21,1.16,0.71,2.95-0.26,3.89c-1.26,1.23-3.3,1.01-4.45,0.58
				c-1.45-0.55-2.14-1.69-2.4-2.14c-2.48-4.24,0.96-11.38,0.96-11.38c3.5-7.26,17.1-29.42,9.62-37.56
				c-3.62-3.94-10.08-5.77-14.18-2.3c-3.22,2.73-0.59,5.94,2.58,6.89c3.87,1.15,10.31-1.15,11.6-4.59
				C130.88,101.39,128.69,87.34,118.33,65.86z"/>
			<path class="st5" d="M118.04,66c-0.74-1.61-1.28-3.26-1.63-4.99c-0.31-1.72-0.47-3.54,0.06-5.29c0.47-1.76,1.84-3.31,3.64-3.88
				c0.9-0.28,1.87-0.29,2.78-0.04c0.9,0.25,1.79,0.8,2.28,1.68c0.49,0.85,0.58,1.94,0.16,2.87c-0.42,0.94-1.37,1.55-2.31,1.71
				c-0.94,0.18-1.97,0.05-2.8-0.56c-0.84-0.64-1.14-1.63-1.37-2.44c-0.24-0.84-0.46-1.7-0.54-2.61c-0.07-0.9,0.04-1.9,0.56-2.74
				c0.5-0.85,1.36-1.4,2.21-1.72c0.86-0.33,1.75-0.47,2.62-0.57c1.75-0.18,3.52-0.17,5.28,0.22c1.73,0.43,3.31,1.19,4.86,1.97
				c1.53,0.82,3.01,1.71,4.49,2.6c1.47,0.9,2.93,1.84,4.58,2.36c3.28,1.06,6.75,1.49,10.18,1.33c3.41-0.2,6.9-0.97,9.73-2.94
				c1.41-0.96,2.66-2.17,3.57-3.59c0.89-1.43,1.52-3.07,1.54-4.75c0.05-0.84-0.12-1.67-0.36-2.45c-0.27-0.78-0.7-1.5-1.22-2.14
				c-1.08-1.24-2.58-2.17-4.19-2.43c-1.61-0.28-3.3,0.17-4.51,1.24c-0.61,0.53-1.09,1.2-1.47,1.91c-0.33,0.73-0.52,1.52-0.54,2.32
				c0.03,1.61,0.69,3.18,1.72,4.48c1.01,1.32,2.3,2.42,3.68,3.39c2.79,1.89,5.9,3.41,9.25,4.06c1.67,0.32,3.39,0.42,5.09,0.32
				c1.71-0.11,3.4-0.4,5.07-0.81c3.34-0.8,6.55-2.07,9.81-3.21c1.63-0.57,3.26-1.13,4.91-1.64c1.66-0.5,3.33-0.92,5.02-1.3
				c1.71-0.37,3.47-0.49,5.21-0.34c0.87,0.08,1.72,0.16,2.59,0.3c0.86,0.14,1.77,0.34,2.57,0.88c0.79,0.54,1.35,1.42,1.53,2.35
				c0.19,0.93,0.1,1.86-0.09,2.72c-0.22,0.88-0.39,1.67-0.77,2.56c-0.2,0.44-0.56,0.85-0.96,1.11c-0.4,0.27-0.84,0.44-1.3,0.56
				c-0.9,0.22-1.88,0.2-2.76-0.2c-0.88-0.38-1.57-1.28-1.63-2.26c-0.07-0.97,0.3-1.91,0.94-2.6c0.65-0.71,1.6-1.05,2.5-1.12
				c1.79-0.12,3.68,0.47,4.9,1.84c0.3,0.34,0.58,0.69,0.78,1.1c0.24,0.39,0.39,0.81,0.53,1.23c0.23,0.86,0.34,1.75,0.3,2.63
				c-0.07,1.76-0.52,3.46-1.11,5.09c-0.59,1.64-1.43,3.16-2.15,4.72c-1.48,3.11-2.81,6.29-3.97,9.53s-2.11,6.55-2.7,9.93
				c-0.57,3.37-0.8,6.84-0.14,10.16c0.34,1.65,0.9,3.26,1.78,4.68c0.88,1.4,2.07,2.62,3.45,3.56c1.36,0.95,2.92,1.65,4.53,1.95
				c0.8,0.14,1.62,0.19,2.38,0.04c0.75-0.15,1.49-0.49,2.11-0.96c1.23-0.92,2.08-2.5,1.66-3.89c-0.36-1.39-1.94-2.26-3.42-2.8
				c-3.06-1.02-6.72-0.74-9.24,1.25c-1.25,1-2.15,2.37-2.72,3.9c-0.56,1.54-0.83,3.21-0.94,4.88c-0.21,3.37,0.16,6.8,0.76,10.17
				c0.59,3.38,1.54,6.7,2.58,9.98c1.1,3.26,2.35,6.47,3.74,9.62c0.69,1.58,1.44,3.12,2.17,4.69c0.69,1.59,1.25,3.25,1.53,4.98
				c0.28,1.71,0.28,3.55-0.49,5.18c-0.74,1.62-2.32,2.85-4.08,3.14c-0.87,0.17-1.78,0.19-2.66-0.06c-0.88-0.24-1.66-0.88-2.06-1.71
				c-0.41-0.8-0.54-1.83-0.1-2.68c0.42-0.86,1.32-1.39,2.22-1.52c0.9-0.14,1.83,0,2.66,0.4c0.4,0.19,0.82,0.52,1.05,0.92
				c0.25,0.39,0.42,0.81,0.56,1.23c0.25,0.84,0.49,1.68,0.59,2.56c0.1,0.88,0.06,1.82-0.34,2.66c-0.38,0.85-1.13,1.51-1.97,1.85
				c-0.84,0.35-1.72,0.48-2.57,0.61c-1.7,0.25-3.48,0.38-5.21,0.17c-0.87-0.09-1.73-0.3-2.56-0.49c-0.84-0.18-1.68-0.36-2.53-0.52
				c-1.69-0.34-3.39-0.59-5.09-0.9c-0.85-0.14-1.7-0.29-2.55-0.47c-0.85-0.19-1.68-0.41-2.51-0.62c-1.67-0.42-3.35-0.81-5.04-1.13
				c-3.35-0.63-6.93-0.9-10.11,0.43c-1.58,0.65-2.98,1.67-4.17,2.89c-1.22,1.2-2.19,2.63-2.95,4.15c-0.72,1.52-1.31,3.22-0.99,4.87
				c0.15,0.82,0.61,1.53,1.25,2.07c0.62,0.55,1.38,0.94,2.19,1.14c1.59,0.41,3.48,0.09,4.54-1.17c0.93-1.34,1.26-3.15,0.76-4.73
				c-0.48-1.6-1.64-2.93-2.97-3.96c-1.33-1.05-2.86-1.84-4.42-2.52c-6.31-2.58-13.27-4-20.12-3.56c-1.7,0.13-3.42,0.37-5.01,0.95
				c-1.59,0.62-3.17,1.34-4.77,1.98c-1.6,0.65-3.23,1.26-4.91,1.72c-1.67,0.48-3.48,0.71-5.24,0.53c-0.88-0.1-1.72-0.2-2.6-0.4
				c-0.86-0.2-1.76-0.53-2.46-1.17c-0.7-0.63-1.11-1.58-1.16-2.49c-0.06-0.92,0.1-1.8,0.29-2.65c0.21-0.84,0.33-1.71,0.81-2.54
				c0.24-0.43,0.68-0.74,1.09-0.92c0.43-0.19,0.88-0.3,1.33-0.34c0.91-0.08,1.89,0.15,2.6,0.79c0.74,0.62,1.01,1.69,0.77,2.59
				c-0.22,0.9-0.79,1.71-1.6,2.17c-0.81,0.46-1.75,0.56-2.64,0.47c-0.88-0.09-1.77-0.38-2.49-0.93c-0.72-0.54-1.28-1.28-1.63-2.09
				c-0.78-1.62-0.76-3.45-0.57-5.17c0.24-1.73,0.73-3.4,1.37-5.02c0.67-1.61,1.53-3.11,2.31-4.64l2.39-4.58
				c1.55-3.07,3.02-6.19,4.25-9.41c1.23-3.21,2.27-6.5,2.77-9.87c0.24-1.68,0.33-3.39,0.11-5.04s-0.83-3.24-1.9-4.47
				c-2.22-2.46-5.48-4.1-8.8-4.11c-1.65,0.01-3.29,0.49-4.58,1.5c-0.65,0.48-1.22,1.08-1.48,1.79c-0.26,0.7-0.19,1.49,0.2,2.16
				c0.79,1.35,2.33,2.28,3.9,2.61c1.6,0.32,3.32,0.13,4.92-0.33s3.16-1.2,4.37-2.31c0.6-0.56,1.09-1.2,1.36-1.95l0.36-1.2l0.24-1.24
				c0.46-3.35,0.2-6.8-0.34-10.17c-0.56-3.38-1.42-6.72-2.44-10c-1.02-3.28-2.18-6.53-3.48-9.72
				C121.16,72.15,119.51,69.11,118.04,66z M118.63,65.72c1.47,3.13,2.73,6.35,4.04,9.54c1.36,3.17,2.58,6.4,3.67,9.68
				c1.08,3.28,2.03,6.61,2.66,10.03c0.62,3.4,0.98,6.91,0.48,10.41l-0.25,1.3l-0.39,1.28c-0.31,0.88-0.9,1.64-1.56,2.26
				c-1.34,1.23-2.99,1.99-4.69,2.49c-1.7,0.48-3.51,0.7-5.3,0.35c-1.77-0.38-3.46-1.35-4.44-3c-0.49-0.81-0.61-1.9-0.26-2.82
				c0.34-0.92,1.03-1.62,1.75-2.15c0.71-0.58,1.55-0.95,2.4-1.26c0.87-0.26,1.77-0.41,2.67-0.41c3.61,0.01,7.03,1.75,9.42,4.37
				c1.2,1.38,1.88,3.14,2.1,4.9c0.21,1.77,0.08,3.54-0.19,5.26c-0.58,3.45-1.76,6.73-3.09,9.92s-2.84,6.3-4.41,9.37l-2.38,4.59
				c-0.78,1.53-1.64,3.04-2.29,4.62c-0.63,1.59-1.1,3.25-1.33,4.94c-0.19,1.68-0.18,3.46,0.57,4.97c0.34,0.77,0.86,1.45,1.53,1.93
				c0.66,0.49,1.48,0.75,2.3,0.83s1.68-0.03,2.37-0.44c0.69-0.4,1.18-1.12,1.36-1.89c0.18-0.78-0.04-1.61-0.64-2.11
				c-0.59-0.52-1.42-0.71-2.22-0.63c-0.78,0.09-1.64,0.39-2,1.03c-0.39,0.68-0.53,1.55-0.72,2.38c-0.17,0.83-0.31,1.67-0.25,2.48
				c0.06,0.8,0.39,1.55,0.98,2.07c1.2,1.06,3.03,1.16,4.69,1.35c1.68,0.13,3.35-0.07,4.99-0.54c1.65-0.41,3.28-0.96,4.89-1.56
				c1.61-0.59,3.2-1.27,4.84-1.85c1.67-0.56,3.41-0.77,5.14-0.86c1.73-0.1,3.46-0.03,5.18,0.11c1.72,0.11,3.44,0.36,5.14,0.61
				c3.4,0.57,6.8,1.34,10.01,2.69c1.6,0.68,3.15,1.52,4.52,2.6c1.37,1.07,2.59,2.47,3.1,4.2c0.52,1.72,0.19,3.64-0.86,5.12
				c-1.23,1.44-3.27,1.72-4.97,1.29c-0.86-0.22-1.68-0.65-2.35-1.24c-0.68-0.57-1.21-1.39-1.36-2.28c-0.33-1.8,0.31-3.54,1.05-5.09
				c0.79-1.55,1.78-3.01,3.03-4.23c1.22-1.24,2.66-2.28,4.28-2.94c3.27-1.35,6.91-1.04,10.27-0.4c1.7,0.32,3.38,0.73,5.05,1.15
				c0.84,0.21,1.67,0.44,2.5,0.63c0.84,0.18,1.69,0.33,2.54,0.48l5.11,0.81c0.85,0.14,1.7,0.28,2.55,0.44
				c0.85,0.18,1.68,0.36,2.53,0.42c1.7,0.18,3.39-0.02,5.09-0.26c0.84-0.12,1.69-0.25,2.45-0.56c0.76-0.3,1.38-0.86,1.72-1.59
				c0.35-0.72,0.4-1.57,0.31-2.4c-0.09-0.83-0.32-1.66-0.56-2.47c-0.27-0.79-0.61-1.57-1.36-1.88c-0.72-0.36-1.58-0.49-2.38-0.37
				c-0.8,0.12-1.55,0.57-1.9,1.27c-0.37,0.7-0.27,1.58,0.09,2.29c0.36,0.73,1.02,1.28,1.8,1.5c0.78,0.24,1.64,0.22,2.46,0.07
				c1.66-0.26,3.1-1.4,3.81-2.92c0.72-1.51,0.73-3.29,0.46-4.95c-0.27-1.68-0.82-3.32-1.5-4.88c-0.72-1.55-1.48-3.11-2.17-4.7
				c-1.39-3.16-2.63-6.39-3.74-9.66c-1.14-3.26-2.11-6.58-2.91-9.95c-0.76-3.38-1.34-6.84-1.23-10.37c0.07-1.76,0.32-3.54,0.91-5.25
				c0.58-1.71,1.66-3.32,3.11-4.47c1.46-1.16,3.26-1.79,5.06-2.01c1.81-0.22,3.65,0.01,5.38,0.59c0.86,0.32,1.69,0.73,2.45,1.29
				c0.74,0.56,1.45,1.37,1.69,2.38c0.27,0.99,0.11,2.04-0.31,2.91c-0.42,0.88-1.06,1.62-1.82,2.17c-0.77,0.55-1.63,0.94-2.58,1.11
				c-0.94,0.17-1.87,0.09-2.76-0.08c-1.78-0.36-3.43-1.15-4.87-2.19c-1.45-1.03-2.7-2.35-3.63-3.88c-0.91-1.53-1.48-3.24-1.8-4.97
				c-0.63-3.47-0.32-7,0.33-10.4c0.66-3.41,1.7-6.72,2.89-9.96s2.6-6.4,4.05-9.53c0.71-1.58,1.52-3.1,2.07-4.72
				c0.56-1.61,0.97-3.29,1.02-4.98c0.03-0.85-0.08-1.69-0.31-2.48c-0.14-0.39-0.28-0.78-0.5-1.13c-0.18-0.37-0.45-0.7-0.73-1
				c-1.11-1.23-2.86-1.74-4.48-1.62c-0.81,0.07-1.58,0.38-2.1,0.96c-0.52,0.57-0.82,1.39-0.75,2.14c0.06,0.75,0.58,1.41,1.28,1.71
				c0.7,0.31,1.54,0.32,2.31,0.13c0.77-0.21,1.47-0.61,1.76-1.3c0.29-0.7,0.5-1.6,0.68-2.4c0.16-0.81,0.24-1.64,0.09-2.41
				c-0.14-0.77-0.58-1.44-1.19-1.9c-0.62-0.46-1.43-0.69-2.26-0.85s-1.69-0.27-2.53-0.38c-1.68-0.19-3.41-0.19-5.07,0.19
				c-3.36,0.75-6.62,1.84-9.88,2.95c-3.26,1.11-6.48,2.37-9.85,3.2c-3.36,0.84-6.88,1.17-10.34,0.66c-3.47-0.47-6.79-1.86-9.7-3.83
				c-1.44-1-2.78-2.19-3.86-3.63c-1.08-1.41-1.83-3.18-1.84-5.03c0.03-0.93,0.26-1.84,0.65-2.67c0.44-0.81,0.99-1.55,1.69-2.15
				c1.4-1.21,3.37-1.68,5.15-1.32c1.8,0.34,3.38,1.37,4.53,2.74c0.56,0.7,1,1.5,1.28,2.35c0.24,0.86,0.4,1.75,0.34,2.64
				c-0.06,1.78-0.75,3.48-1.7,4.94c-0.98,1.46-2.28,2.67-3.74,3.61c-2.93,1.93-6.44,2.66-9.87,2.84c-3.45,0.13-6.93-0.33-10.2-1.43
				c-1.66-0.5-3.14-1.42-4.68-2.19c-1.53-0.79-3.07-1.57-4.64-2.25c-1.56-0.71-3.15-1.37-4.77-1.76c-1.61-0.36-3.34-0.37-5.01-0.19
				c-1.64,0.18-3.42,0.59-4.22,1.92c-0.79,1.33-0.39,3.1,0.08,4.69c0.23,0.82,0.51,1.58,1.08,2.01c0.57,0.42,1.39,0.55,2.13,0.4
				c0.75-0.14,1.4-0.58,1.7-1.24c0.3-0.65,0.26-1.46-0.11-2.11c-0.73-1.31-2.63-1.75-4.1-1.3c-1.52,0.47-2.73,1.78-3.16,3.35
				c-0.5,1.56-0.37,3.29-0.09,4.95C117.42,62.54,117.94,64.19,118.63,65.72z"/>
		</g>
		<g>
			<path class="st5" d="M137.95,57.93l40.51,0.03l10.13,0.01h5.06c0.84,0.01,1.69-0.05,2.53,0.11c0.84,0.15,1.65,0.44,2.37,0.89
				c1.44,0.88,2.54,2.4,2.71,4.11c0.06,1.69,0.01,3.38,0.03,5.07l-0.01,10.13l0.01,40.51l0.05,20.26l0.02,10.13
				c0.02,0.83,0.01,1.73-0.3,2.53c-0.29,0.81-0.79,1.54-1.41,2.14c-1.24,1.2-2.97,1.84-4.68,1.84l-40.51-0.01h-10.13h-5.06
				c-0.84-0.01-1.69,0.05-2.55-0.11c-0.84-0.15-1.67-0.44-2.4-0.9c-1.46-0.89-2.57-2.43-2.75-4.16c-0.06-1.71-0.02-3.38-0.03-5.08
				V135.3l0.01-40.51V74.53V64.4c-0.01-0.83-0.01-1.72,0.31-2.53c0.3-0.81,0.79-1.54,1.41-2.13
				C134.52,58.55,136.24,57.92,137.95,57.93z M137.95,58.11c-1.67-0.01-3.34,0.61-4.54,1.77c-0.6,0.57-1.08,1.28-1.36,2.06
				c-0.31,0.78-0.31,1.62-0.3,2.47v10.13V94.8l0.01,40.51v10.13c0.01,1.68-0.03,3.39,0.03,5.05c0.17,1.66,1.23,3.14,2.64,3.99
				c0.71,0.44,1.5,0.73,2.32,0.87c0.82,0.15,1.66,0.09,2.51,0.1h5.06h10.13l40.51-0.01c1.66,0.01,3.33-0.6,4.53-1.75
				c0.6-0.57,1.07-1.27,1.36-2.05c0.31-0.78,0.31-1.61,0.3-2.46l0.02-10.13l0.05-20.26l0.01-40.51l-0.01-10.13
				c-0.01-1.69,0.03-3.38-0.03-5.06c-0.17-1.68-1.25-3.18-2.68-4.05c-0.71-0.44-1.52-0.73-2.34-0.88c-0.83-0.15-1.68-0.09-2.52-0.1
				h-5.06l-10.13,0.01L137.95,58.11z"/>
		</g>
		<g>
			<path class="st2" d="M139.28,154.16c-2.65,0-4.8-2.15-4.8-4.8V64.21c0-2.65,2.15-4.8,4.8-4.8h54.36c2.65,0,4.8,2.15,4.8,4.8
				v85.15c0,2.65-2.15,4.8-4.8,4.8H139.28z"/>
			<path class="st5" d="M193.64,59.66c2.51,0,4.55,2.04,4.55,4.55v85.15c0,2.51-2.04,4.55-4.55,4.55h-54.36
				c-2.51,0-4.55-2.04-4.55-4.55V64.21c0-2.51,2.04-4.55,4.55-4.55H193.64 M193.64,59.16h-54.36c-2.79,0-5.05,2.26-5.05,5.05v85.15
				c0,2.79,2.26,5.05,5.05,5.05h54.36c2.79,0,5.05-2.26,5.05-5.05V64.21C198.69,61.42,196.43,59.16,193.64,59.16L193.64,59.16z"/>
		</g>
		<path class="st3" d="M231.01,68.54"/>
		<g>
			<path class="st4" d="M233.24,53.26c0,0-2.4-5.6-0.67-8.91c0.18-0.35,0.7-1.19,1.68-1.67c1-0.5,2.32-0.34,3.11,0.46
				s0.9,2.19,0.18,3.05c-0.72,0.85-2.21,0.94-2.96,0.11c-0.39-0.44-0.56-1.03-0.7-1.59c-0.38-1.46-0.71-3.17,0.24-4.34
				c0.74-0.91,2.02-1.17,3.19-1.29c1.51-0.16,2.71,0.04,3.19,0.16c2.96,0.74,7.59,4.11,8.81,4.72c3.6,1.8,10.81,2.7,15.32-0.9
				c3.77-3.01,4.56-8.04,1.8-10.81c-2.01-2.02-4.69-2.01-6.31,0c-2.37,2.95-1.06,7.48,4.51,10.81c5.85,3.5,10.9,2.13,16.22,0
				c4.51-1.8,6.69-2.65,9.6-3.38c1.78-0.45,3.34-0.25,3.98-0.16c1.66,0.23,2.77,0.38,3.5,1.29c1.03,1.29,0.55,3.18,0.26,4.34
				c-0.17,0.69-0.31,1.2-0.77,1.59c-0.8,0.68-2.39,0.89-3.25-0.11c-0.78-0.92-0.46-2.3,0.2-3.05c0.95-1.07,2.58-0.8,3.41-0.46
				c1.12,0.46,1.68,1.4,1.84,1.67c1.79,3.03-0.44,8.23-0.73,8.91c-2.52,5.92-8.85,20.76-4.51,28.99c1.79,3.4,5.76,5.43,8.11,4.51
				c2.26-0.89,3.36-3.66,1.8-5.41c-1.94-2.16-7.27-2.98-9.91,0.9c-4.35,6.38,0.64,22.95,4.85,32.65c0.24,0.56,2.55,5.86,0.73,8.94
				c-0.16,0.28-0.72,1.22-1.84,1.68c-0.83,0.34-2.46,0.61-3.41-0.46c-0.66-0.75-0.99-2.13-0.2-3.05c0.85-1,2.45-0.78,3.25-0.11
				c0.1,0.09,0.48,0.43,0.77,1.6c0.29,1.18,0.76,3.07-0.26,4.35c-0.73,0.91-1.85,1.07-3.5,1.29c-0.64,0.09-2.19,0.29-3.98-0.16
				c-2.78-0.7-6.47-1.2-8.13-1.67c-6.31-1.8-11.26-3.31-15.32,1.8c-1.65,2.08-3.48,6.04-1.8,8.11c1.66,2.04,4.54,1.74,5.41,0
				c1.1-2.2,0.87-5.46-3.6-8.11c-4.84-2.87-14.42-4.51-18.92-2.7c-1.58,0.63-4.65,2.29-7.58,3.02c-0.48,0.12-1.69,0.37-3.19,0.16
				c-1.23-0.17-2.44-0.35-3.19-1.29c-0.91-1.15-0.58-2.71-0.24-4.35c0.23-1.12,0.51-1.43,0.7-1.6c0.72-0.61,2.14-0.78,2.96,0.11
				c0.85,0.91,0.5,2.31-0.18,3.05c-0.88,0.97-2.31,0.79-3.11,0.46c-1.01-0.43-1.5-1.33-1.68-1.68c-1.73-3.33,0.67-8.93,0.67-8.94
				c2.44-5.7,11.96-23.1,6.72-29.49c-2.53-3.09-7.04-4.53-9.91-1.8c-2.25,2.14-0.41,4.67,1.8,5.41c2.7,0.9,7.21-0.9,8.11-3.6
				C242.01,81.16,240.48,70.12,233.24,53.26z"/>
			<path class="st5" d="M232.94,53.39c-0.5-1.22-0.87-2.46-1.12-3.75c-0.25-1.28-0.33-2.62-0.1-3.95c0.15-0.66,0.35-1.32,0.74-1.92
				c0.38-0.58,0.91-1.08,1.54-1.42c1.28-0.68,3.08-0.42,3.96,0.88c0.41,0.64,0.57,1.42,0.4,2.16c-0.14,0.74-0.72,1.45-1.45,1.71
				c-0.71,0.28-1.54,0.24-2.22-0.18c-0.71-0.45-0.98-1.22-1.15-1.84c-0.31-1.24-0.7-2.59-0.28-4.01c0.21-0.7,0.73-1.33,1.35-1.68
				c0.62-0.37,1.3-0.53,1.96-0.64c1.31-0.2,2.64-0.21,3.97,0.08c1.31,0.35,2.47,0.96,3.57,1.62c1.1,0.68,2.16,1.41,3.21,2.15
				c0.52,0.37,1.05,0.74,1.59,1.08c0.53,0.35,1.14,0.58,1.73,0.81c2.42,0.84,5.02,1.13,7.55,0.88c2.52-0.24,5.06-1.14,6.88-2.92
				c1.82-1.72,2.98-4.25,2.7-6.72c-0.12-1.23-0.68-2.38-1.53-3.25c-0.85-0.86-2-1.45-3.18-1.42c-1.17,0.03-2.24,0.72-2.87,1.72
				c-0.69,0.97-0.92,2.2-0.73,3.36c0.41,2.38,2.23,4.33,4.24,5.73c2.03,1.43,4.31,2.58,6.81,2.93c1.24,0.17,2.51,0.15,3.77-0.02
				c1.25-0.19,2.48-0.51,3.69-0.91c2.42-0.8,4.76-1.86,7.16-2.76c1.2-0.46,2.41-0.89,3.65-1.25c1.23-0.34,2.51-0.7,3.82-0.69
				c0.65-0.01,1.31,0.04,1.95,0.12c0.64,0.08,1.28,0.15,1.93,0.31c0.65,0.15,1.33,0.51,1.75,1.1c0.45,0.57,0.62,1.3,0.66,1.99
				c0.03,0.69-0.08,1.36-0.23,2c-0.17,0.62-0.22,1.27-0.67,1.95c-0.49,0.64-1.22,0.93-1.93,1.02c-0.71,0.08-1.52-0.12-2.07-0.67
				c-0.56-0.54-0.76-1.37-0.63-2.08c0.11-0.71,0.45-1.4,1.05-1.86c0.6-0.47,1.36-0.59,2.04-0.54c0.69,0.05,1.36,0.24,1.95,0.62
				c1.19,0.75,1.84,2.08,2.02,3.39c0.18,1.32,0.01,2.63-0.29,3.89c-0.59,2.54-1.83,4.81-2.74,7.19c-0.96,2.37-1.78,4.79-2.49,7.25
				c-0.71,2.45-1.25,4.95-1.53,7.48c-0.27,2.52-0.28,5.09,0.33,7.51c0.17,0.6,0.31,1.21,0.6,1.76l0.37,0.85
				c0.15,0.27,0.3,0.53,0.47,0.78c0.69,1.01,1.58,1.88,2.61,2.54c1.02,0.66,2.19,1.12,3.33,1.15c1.12,0.05,2.16-0.61,2.79-1.52
				c0.64-0.91,0.73-2.13,0.14-2.96c-0.62-0.84-1.76-1.4-2.89-1.65c-1.14-0.27-2.35-0.21-3.45,0.14c-1.09,0.37-2.04,1.08-2.71,2.02
				c-0.18,0.23-0.29,0.51-0.43,0.76c-0.13,0.26-0.31,0.5-0.38,0.8c-0.17,0.58-0.42,1.12-0.5,1.74c-0.12,0.6-0.25,1.2-0.28,1.82
				c-0.06,0.62-0.12,1.24-0.1,1.87c-0.04,2.5,0.19,5.04,0.6,7.56c0.4,2.52,1.03,5,1.72,7.46c0.73,2.45,1.58,4.86,2.5,7.25
				c0.89,2.38,2.13,4.69,2.54,7.27c0.2,1.27,0.3,2.61-0.09,3.89c-0.37,1.26-1.27,2.45-2.58,2.89c-0.63,0.21-1.32,0.31-1.99,0.19
				c-0.68-0.11-1.33-0.53-1.69-1.13c-0.36-0.59-0.54-1.29-0.41-1.99c0.12-0.7,0.63-1.33,1.3-1.58c0.67-0.26,1.4-0.21,2.04,0.05
				c0.32,0.14,0.63,0.3,0.88,0.6c0.23,0.29,0.36,0.6,0.48,0.92c0.36,1.25,0.73,2.54,0.46,3.91c-0.14,0.67-0.51,1.32-1.08,1.75
				c-0.58,0.43-1.25,0.59-1.89,0.71c-1.27,0.22-2.58,0.39-3.89,0.24c-0.65-0.07-1.3-0.23-1.91-0.4c-0.62-0.16-1.24-0.3-1.86-0.44
				c-1.25-0.28-2.51-0.5-3.77-0.75c-1.27-0.21-2.51-0.58-3.73-0.92c-1.23-0.34-2.47-0.67-3.72-0.89s-2.53-0.36-3.78-0.24
				c-1.26,0.11-2.49,0.5-3.54,1.18c-2.1,1.39-3.61,3.6-4.42,5.98c-0.39,1.18-0.6,2.51-0.08,3.61c0.54,1.06,1.71,1.83,2.92,1.86
				c1.22,0.07,2.41-0.66,2.71-1.88c0.42-1.16,0.37-2.46-0.15-3.58c-0.51-1.12-1.38-2.07-2.38-2.81c-1-0.76-2.13-1.34-3.28-1.85
				c-2.33-0.99-4.79-1.71-7.3-2.16c-2.51-0.42-5.1-0.56-7.6-0.11c-1.26,0.21-2.38,0.79-3.54,1.35c-1.15,0.56-2.32,1.11-3.52,1.58
				c-1.2,0.45-2.44,0.93-3.78,1.04c-0.66,0.05-1.34,0.01-1.99-0.09c-0.64-0.09-1.3-0.2-1.95-0.46c-0.65-0.26-1.25-0.75-1.58-1.4
				c-0.34-0.65-0.4-1.38-0.35-2.04c0.05-0.67,0.18-1.31,0.32-1.94c0.16-0.62,0.23-1.31,0.8-1.91c0.57-0.5,1.31-0.68,2.02-0.6
				c0.72,0.07,1.41,0.52,1.73,1.19c0.33,0.67,0.26,1.44-0.01,2.07c-0.26,0.64-0.79,1.21-1.46,1.45c-1.33,0.45-2.87-0.02-3.7-1.11
				c-0.84-1.07-1.12-2.44-1.13-3.73c0.04-2.61,0.79-5.14,1.91-7.45c2.18-4.63,4.42-9.25,5.91-14.14c0.73-2.44,1.34-4.93,1.5-7.44
				c0.18-2.48-0.18-5.12-1.94-6.83c-0.86-0.86-1.88-1.59-3.01-2.03c-1.12-0.45-2.36-0.62-3.51-0.38c-1.12,0.25-2.22,0.95-2.82,1.89
				c-0.63,0.94-0.3,2.14,0.52,2.94c1.66,1.76,4.51,1.46,6.64,0.36c1.06-0.56,2.06-1.36,2.51-2.41c0.42-1.11,0.6-2.38,0.69-3.62
				c0.11-2.51-0.13-5.05-0.54-7.56c-0.41-2.51-0.96-5.01-1.64-7.47s-1.47-4.9-2.35-7.3C235.11,58.03,233.94,55.74,232.94,53.39z
				 M233.54,53.13c0.99,2.37,1.77,4.82,2.66,7.22c0.93,2.39,1.72,4.83,2.51,7.27c1.48,4.9,2.77,9.96,2.58,15.19
				c-0.1,1.31-0.25,2.6-0.73,3.9c-0.57,1.33-1.71,2.21-2.88,2.85c-1.2,0.61-2.51,0.99-3.88,1.02c-1.37,0.04-2.81-0.49-3.8-1.5
				c-0.5-0.5-0.89-1.14-1.04-1.88c-0.16-0.74,0.01-1.54,0.4-2.16c0.79-1.22,2.04-1.97,3.4-2.29c1.37-0.29,2.77-0.07,4.01,0.43
				c1.26,0.5,2.36,1.3,3.3,2.24c0.94,0.94,1.62,2.23,1.9,3.53c0.29,1.31,0.29,2.64,0.18,3.94c-0.25,2.6-0.99,5.09-1.82,7.52
				c-1.7,4.85-3.89,9.5-6.05,14.14c-0.55,1.16-1.01,2.33-1.32,3.57c-0.33,1.22-0.52,2.49-0.51,3.75c0.03,1.25,0.32,2.52,1.09,3.47
				c0.73,0.95,2.12,1.32,3.21,0.93c1.07-0.38,1.66-1.86,1.16-2.84c-0.48-1.05-2.08-1.14-2.88-0.4c-0.34,0.35-0.48,1.01-0.6,1.61
				c-0.12,0.63-0.24,1.24-0.28,1.85c-0.03,0.61,0.04,1.2,0.3,1.69c0.26,0.5,0.72,0.86,1.26,1.06c0.54,0.22,1.16,0.29,1.79,0.39
				c0.62,0.1,1.22,0.12,1.84,0.08c1.22-0.05,2.43-0.45,3.63-0.86c1.2-0.42,2.37-0.92,3.54-1.43c1.16-0.51,2.37-1.07,3.67-1.23
				c2.56-0.39,5.15-0.2,7.69,0.14c2.54,0.36,5.07,0.94,7.46,1.94c1.19,0.51,2.34,1.14,3.38,1.93s1.96,1.79,2.5,3.01
				c0.55,1.22,0.6,2.65,0.13,3.9c-0.2,0.61-0.58,1.27-1.18,1.63c-0.58,0.39-1.27,0.53-1.95,0.51c-1.36-0.05-2.63-0.89-3.24-2.1
				c-0.57-1.27-0.31-2.67,0.09-3.88c0.86-2.44,2.4-4.68,4.59-6.12c1.1-0.7,2.39-1.1,3.68-1.2c1.3-0.11,2.59,0.03,3.85,0.27
				c1.27,0.24,2.5,0.58,3.74,0.92c1.24,0.36,2.45,0.72,3.71,0.94l3.78,0.66c0.63,0.11,1.26,0.23,1.89,0.36
				c0.64,0.15,1.23,0.27,1.86,0.31c1.25,0.12,2.5-0.09,3.75-0.3c0.61-0.11,1.21-0.27,1.68-0.61c0.46-0.34,0.77-0.87,0.9-1.45
				c0.25-1.17-0.08-2.46-0.42-3.64c-0.1-0.29-0.23-0.57-0.4-0.78c-0.15-0.2-0.43-0.36-0.69-0.47c-0.54-0.22-1.17-0.26-1.71-0.06
				c-0.53,0.2-0.93,0.68-1.04,1.25c-0.11,0.56,0.04,1.18,0.34,1.68c0.61,1.07,2.06,1.18,3.19,0.78c1.16-0.37,2-1.45,2.35-2.61
				c0.38-1.18,0.3-2.48,0.11-3.72c-0.21-1.25-0.57-2.47-1.04-3.65c-0.49-1.17-1.01-2.36-1.47-3.55c-1.87-4.78-3.4-9.68-4.59-14.69
				c-0.57-2.51-1.01-5.07-1.07-7.69c-0.04-0.65,0-1.31,0.05-1.97c0.01-0.66,0.13-1.32,0.25-1.98c0.07-0.66,0.35-1.3,0.55-1.95
				c0.08-0.33,0.29-0.62,0.44-0.93c0.18-0.3,0.31-0.62,0.52-0.9c0.82-1.14,2.01-2.04,3.35-2.48c1.34-0.42,2.78-0.49,4.13-0.15
				c0.68,0.15,1.33,0.41,1.94,0.76c0.62,0.35,1.18,0.8,1.63,1.43c0.44,0.64,0.62,1.44,0.56,2.19c-0.05,0.76-0.34,1.46-0.76,2.05
				c-0.42,0.6-0.97,1.09-1.61,1.43c-0.62,0.35-1.41,0.52-2.11,0.48c-1.43-0.07-2.71-0.64-3.81-1.39c-1.11-0.76-2.06-1.73-2.79-2.85
				c-0.18-0.28-0.35-0.58-0.5-0.87l-0.38-0.92c-0.29-0.6-0.43-1.25-0.59-1.88c-0.59-2.57-0.49-5.2-0.15-7.75
				c0.35-2.56,0.98-5.06,1.71-7.52c0.74-2.46,1.64-4.86,2.58-7.25c0.88-2.41,2.12-4.69,2.63-7.18c0.26-1.23,0.39-2.51,0.19-3.73
				c-0.2-1.2-0.83-2.36-1.85-2.97c-0.98-0.57-2.42-0.72-3.26-0.04c-0.83,0.67-1.09,2.17-0.32,2.88c0.71,0.74,2.26,0.52,2.85-0.28
				c0.28-0.39,0.39-1.06,0.55-1.67c0.15-0.61,0.24-1.21,0.25-1.8c0.04-1.19-0.62-2.29-1.82-2.6c-0.58-0.19-1.21-0.28-1.84-0.38
				c-0.63-0.11-1.25-0.17-1.88-0.15c-1.26-0.01-2.47,0.36-3.7,0.73c-1.22,0.36-2.43,0.77-3.63,1.21l-3.58,1.38
				c-1.19,0.47-2.38,0.96-3.6,1.36c-2.44,0.8-5.03,1.33-7.64,1.11c-1.3-0.1-2.6-0.39-3.83-0.85c-1.23-0.46-2.38-1.13-3.46-1.86
				c-1.08-0.75-2.07-1.66-2.89-2.71c-0.81-1.06-1.44-2.31-1.65-3.67c-0.2-1.35,0.1-2.83,0.91-3.94c0.74-1.15,2.1-1.98,3.51-1.97
				c2.87,0.08,5.02,2.68,5.19,5.31c0.23,2.67-1.08,5.25-2.99,6.97c-1.93,1.76-4.51,2.63-7.05,2.85c-2.56,0.22-5.16-0.11-7.58-0.98
				c-0.6-0.22-1.2-0.46-1.76-0.77l-1.67-0.96c-1.11-0.63-2.23-1.25-3.38-1.8c-1.14-0.56-2.29-1.09-3.46-1.4
				c-1.18-0.26-2.45-0.25-3.66-0.06c-1.21,0.17-2.36,0.69-2.66,1.79c-0.34,1.07-0.02,2.34,0.3,3.54c0.16,0.59,0.39,1.11,0.8,1.35
				c0.41,0.26,1,0.29,1.47,0.1c0.99-0.33,1.25-1.74,0.66-2.62c-0.56-0.89-1.94-1.15-2.91-0.64c-0.51,0.26-0.94,0.66-1.27,1.14
				c-0.32,0.48-0.51,1.06-0.65,1.64C232.02,48.24,232.66,50.82,233.54,53.13z"/>
		</g>
		<g>
			<path class="st5" d="M246.95,47.01l30.37,0.03l7.59,0.01c1.24,0.04,2.58-0.18,3.75,0.41c1.16,0.53,2.08,1.58,2.41,2.82
				c0.18,0.62,0.17,1.26,0.17,1.89v1.9v3.8l-0.01,7.59v30.37l0.04,15.18l0.03,7.59c0.01,0.62,0.02,1.29-0.17,1.91
				c-0.17,0.62-0.48,1.21-0.9,1.7c-0.84,0.99-2.12,1.6-3.42,1.6l-30.37-0.01h-7.59h-1.9c-0.65,0-1.3-0.14-1.89-0.42
				c-1.18-0.54-2.11-1.61-2.45-2.86c-0.19-0.62-0.18-1.29-0.17-1.91v-1.9v-3.8v-7.59l0.01-30.37V59.77v-7.59
				c0-0.62-0.01-1.28,0.17-1.91c0.17-0.62,0.48-1.21,0.91-1.69C244.38,47.6,245.65,47.01,246.95,47.01z M246.95,47.19
				c-1.24,0-2.47,0.57-3.27,1.51c-0.41,0.47-0.7,1.03-0.87,1.63c-0.18,0.6-0.17,1.22-0.17,1.86v7.59v15.18l0.01,30.37v7.59v3.8v1.9
				c0,0.64-0.01,1.26,0.17,1.85c0.32,1.19,1.21,2.21,2.33,2.72c1.12,0.57,2.43,0.35,3.69,0.39h7.59l30.37-0.01
				c1.23,0.01,2.45-0.55,3.26-1.49c0.41-0.46,0.71-1.02,0.87-1.62c0.18-0.6,0.17-1.22,0.17-1.85l0.03-7.59l0.04-15.18V65.47
				l-0.01-7.59v-3.8v-1.9c0-0.63,0.01-1.27-0.17-1.87c-0.33-1.21-1.24-2.24-2.37-2.76c-1.15-0.57-2.47-0.36-3.72-0.4l-7.59,0.01
				L246.95,47.19z"/>
		</g>
		<g>
			<path class="st2" d="M249.4,122.54c-2.65,0-4.8-2.15-4.8-4.8V53.05c0-2.65,2.15-4.8,4.8-4.8h34.95c2.65,0,4.8,2.15,4.8,4.8v64.69
				c0,2.65-2.15,4.8-4.8,4.8C284.35,122.54,249.4,122.54,249.4,122.54z"/>
			<path class="st5" d="M284.36,48.5c2.51,0,4.55,2.04,4.55,4.55v64.69c0,2.51-2.04,4.55-4.55,4.55H249.4
				c-2.51,0-4.55-2.04-4.55-4.55V53.05c0-2.51,2.04-4.55,4.55-4.55H284.36 M284.36,48H249.4c-2.79,0-5.05,2.26-5.05,5.05v64.69
				c0,2.79,2.26,5.05,5.05,5.05h34.95c2.79,0,5.05-2.26,5.05-5.05V53.05C289.4,50.27,287.14,48,284.36,48L284.36,48z"/>
		</g>
	</g>
	<g id="Layer_4" class="st1">
	</g>
</g>
<g id="Layer_2">
	<g id="Layer_3_00000064347572535551692350000010681050397626540429_">
		<path class="st3" d="M107.26,73.62"/>
		<g>
			<path class="st4" d="M104.81,49.85c0,0-3.74-8.71-1.04-13.86c0.28-0.55,1.08-1.85,2.61-2.61c1.56-0.77,3.62-0.53,4.84,0.71
				c1.22,1.23,1.4,3.41,0.28,4.74c-1.12,1.33-3.45,1.46-4.61,0.17c-0.62-0.67-0.87-1.6-1.09-2.48c-0.59-2.27-1.11-4.93,0.38-6.76
				c1.15-1.43,3.14-1.82,4.96-2c2.36-0.24,4.22,0.07,4.96,0.25c4.61,1.15,11.8,6.39,13.71,7.35c5.61,2.8,16.82,4.21,23.83-1.4
				c5.86-4.68,7.09-12.51,2.8-16.82c-3.13-3.14-7.3-3.13-9.81,0c-3.69,4.6-1.64,11.65,7.01,16.82c9.1,5.44,16.96,3.31,25.23,0
				c7.01-2.8,10.42-4.12,14.93-5.26c2.78-0.7,5.2-0.39,6.2-0.25c2.58,0.35,4.32,0.59,5.44,2c1.6,2,0.86,4.93,0.41,6.76
				c-0.27,1.08-0.48,1.86-1.21,2.48c-1.23,1.05-3.73,1.37-5.05-0.17c-1.22-1.43-0.71-3.57,0.31-4.74c1.47-1.67,4.01-1.23,5.3-0.71
				c1.74,0.71,2.61,2.19,2.86,2.61c2.78,4.71-0.69,12.8-1.14,13.86c-3.93,9.21-13.77,32.31-7.02,45.1
				c2.79,5.29,8.96,8.45,12.62,7.01c3.52-1.39,5.23-5.71,2.8-8.41c-3.01-3.36-11.31-4.63-15.42,1.4c-6.76,9.93,1,35.71,7.54,50.79
				c0.38,0.87,3.97,9.11,1.14,13.91c-0.25,0.43-1.12,1.89-2.86,2.61c-1.29,0.53-3.83,0.95-5.3-0.71c-1.02-1.16-1.53-3.32-0.31-4.75
				c1.33-1.54,3.81-1.22,5.05-0.17c0.17,0.14,0.74,0.67,1.21,2.48c0.46,1.84,1.19,4.78-0.41,6.77c-1.14,1.42-2.87,1.65-5.44,2
				c-1,0.14-3.42,0.45-6.2-0.25c-4.32-1.09-10.07-1.86-12.65-2.61c-9.81-2.8-17.52-5.16-23.83,2.8c-2.57,3.24-5.41,9.41-2.8,12.62
				c2.58,3.18,7.07,2.71,8.41,0c1.71-3.42,1.36-8.5-5.61-12.62c-7.53-4.46-22.43-7.01-29.44-4.21c-2.47,0.98-7.23,3.56-11.79,4.7
				c-0.74,0.18-2.62,0.59-4.96,0.25c-1.92-0.27-3.8-0.53-4.96-2c-1.42-1.78-0.91-4.22-0.38-6.77c0.36-1.75,0.8-2.23,1.09-2.48
				c1.12-0.95,3.32-1.21,4.61,0.17c1.32,1.42,0.77,3.6-0.28,4.75c-1.37,1.5-3.59,1.23-4.84,0.71c-1.57-0.67-2.33-2.06-2.61-2.61
				c-2.69-5.19,1.04-13.91,1.04-13.91c3.8-8.87,18.6-35.95,10.46-45.88c-3.94-4.81-10.96-7.05-15.42-2.8
				c-3.5,3.34-0.64,7.26,2.8,8.41c4.21,1.4,11.22-1.4,12.62-5.61C118.45,93.24,116.07,76.08,104.81,49.85z"/>
			<path class="st5" d="M104.37,50.04c-0.79-1.89-1.35-3.83-1.72-5.82c-0.38-1.99-0.52-4.07-0.15-6.13
				c0.22-1.02,0.55-2.05,1.15-2.96c0.59-0.9,1.4-1.67,2.38-2.19c1.98-1.05,4.72-0.63,6.08,1.36c0.63,0.97,0.87,2.17,0.62,3.31
				c-0.22,1.14-1.09,2.22-2.22,2.61c-1.09,0.42-2.36,0.38-3.41-0.27c-1.09-0.67-1.5-1.86-1.77-2.83c-0.49-1.93-1.09-4.02-0.43-6.21
				c0.34-1.08,1.11-2.03,2.07-2.58c0.95-0.56,2-0.83,3.03-0.98c2.03-0.31,4.11-0.32,6.15,0.13c2.03,0.53,3.83,1.49,5.55,2.51
				c1.72,1.04,3.36,2.17,5,3.31c0.81,0.57,1.64,1.15,2.48,1.67c0.83,0.53,1.77,0.9,2.69,1.26c3.76,1.3,7.81,1.77,11.75,1.37
				c3.93-0.38,7.88-1.77,10.72-4.53c2.85-2.68,4.67-6.62,4.22-10.47c-0.18-1.92-1.05-3.73-2.38-5.09c-1.33-1.35-3.14-2.29-4.98-2.23
				c-1.84,0.04-3.52,1.12-4.51,2.69c-1.08,1.51-1.44,3.45-1.15,5.29c0.64,3.73,3.49,6.79,6.63,8.97c1.58,1.14,3.28,2.09,5.05,2.92
				c1.78,0.79,3.66,1.35,5.59,1.63c1.93,0.27,3.91,0.22,5.87-0.04c1.95-0.29,3.87-0.8,5.75-1.42c3.76-1.25,7.4-2.89,11.15-4.29
				c1.86-0.7,3.76-1.37,5.68-1.95c1.91-0.53,3.9-1.09,5.93-1.08c1.01-0.01,2.03,0.06,3.03,0.18c1,0.13,1.99,0.24,3,0.49
				c1,0.24,2.05,0.8,2.71,1.71c0.69,0.88,0.95,2,1.01,3.06c0.04,1.07-0.14,2.1-0.35,3.1c-0.27,0.97-0.34,1.98-1.04,3.01
				c-0.74,0.98-1.86,1.43-2.96,1.56c-1.09,0.13-2.34-0.18-3.18-1.04c-0.86-0.83-1.16-2.1-0.97-3.2c0.17-1.09,0.69-2.14,1.61-2.86
				c0.91-0.71,2.09-0.91,3.14-0.84c1.07,0.08,2.1,0.38,3.01,0.95c1.84,1.16,2.85,3.21,3.13,5.24c0.28,2.05,0.03,4.09-0.45,6.04
				c-0.46,1.96-1.14,3.86-1.95,5.69c-0.8,1.82-1.57,3.66-2.31,5.51c-1.49,3.69-2.78,7.46-3.88,11.27c-1.11,3.81-1.95,7.71-2.4,11.64
				c-0.42,3.93-0.45,7.92,0.5,11.71c0.25,0.94,0.48,1.89,0.93,2.75l0.59,1.32c0.22,0.42,0.46,0.84,0.74,1.22
				c1.08,1.58,2.47,2.94,4.08,3.98c1.58,1.02,3.42,1.75,5.23,1.79c1.78,0.08,3.42-0.95,4.42-2.4c1.01-1.43,1.16-3.38,0.21-4.71
				c-0.48-0.66-1.19-1.23-1.99-1.65c-0.79-0.43-1.65-0.77-2.57-0.95c-1.79-0.42-3.7-0.32-5.43,0.21c-1.72,0.59-3.21,1.71-4.26,3.18
				c-1.08,1.47-1.67,3.29-2.09,5.16c-0.41,1.86-0.56,3.81-0.57,5.76c-0.06,3.91,0.35,7.86,1,11.76c1.29,7.84,3.72,15.46,6.59,22.88
				c0.71,1.86,1.49,3.69,2.26,5.52c0.74,1.86,1.33,3.79,1.68,5.78c0.31,1.98,0.46,4.05-0.14,6.04c-0.57,1.96-1.96,3.79-4,4.47
				c-0.98,0.32-2.03,0.48-3.08,0.29c-1.05-0.17-2.05-0.81-2.61-1.74c-0.55-0.91-0.84-2-0.63-3.08c0.18-1.08,0.97-2.05,2-2.44
				c1.02-0.39,2.16-0.32,3.15,0.07c0.49,0.21,0.97,0.46,1.36,0.93c0.35,0.45,0.56,0.93,0.74,1.42c0.56,1.95,1.14,3.94,0.71,6.06
				c-0.21,1.04-0.79,2.05-1.67,2.69c-0.88,0.66-1.93,0.91-2.93,1.11c-1.98,0.34-4.01,0.62-6.04,0.38c-1.01-0.1-2.02-0.35-2.96-0.62
				c-0.95-0.25-1.93-0.48-2.9-0.69c-1.93-0.43-3.91-0.77-5.86-1.16c-1.98-0.32-3.9-0.9-5.8-1.43c-1.92-0.52-3.84-1.04-5.79-1.39
				s-3.94-0.56-5.89-0.38c-1.96,0.17-3.87,0.77-5.52,1.84c-3.28,2.17-5.62,5.61-6.9,9.31c-0.6,1.84-0.94,3.91-0.14,5.64
				c0.84,1.67,2.68,2.87,4.57,2.92c1.91,0.11,3.79-1.02,4.26-2.94c0.66-1.81,0.57-3.84-0.22-5.59c-0.8-1.75-2.14-3.22-3.72-4.39
				c-1.56-1.18-3.31-2.1-5.12-2.89c-3.63-1.54-7.47-2.65-11.38-3.34c-3.91-0.64-7.93-0.87-11.83-0.17
				c-1.96,0.32-3.72,1.22-5.51,2.09s-3.6,1.72-5.48,2.45c-1.86,0.7-3.79,1.43-5.87,1.6c-1.02,0.07-2.07,0.03-3.08-0.13
				c-0.98-0.14-2.02-0.31-3.01-0.71c-1-0.41-1.93-1.15-2.44-2.14c-0.53-1-0.62-2.12-0.55-3.15c0.07-1.04,0.28-2.03,0.49-3.01
				c0.24-0.97,0.36-2.03,1.22-2.94c0.88-0.77,2-1.05,3.1-0.93c1.11,0.11,2.17,0.8,2.66,1.82c0.5,1.02,0.41,2.22-0.01,3.2
				c-0.39,0.98-1.21,1.88-2.26,2.23c-2.05,0.7-4.43-0.03-5.72-1.71c-1.3-1.65-1.74-3.79-1.77-5.79c0.07-4.05,1.22-7.99,2.97-11.58
				c3.38-7.21,6.87-14.4,9.21-22.01c1.15-3.8,2.1-7.67,2.37-11.58c0.28-3.86-0.27-7.99-3.03-10.68c-1.35-1.35-2.94-2.5-4.71-3.18
				c-0.88-0.36-1.81-0.57-2.73-0.71c-0.93-0.08-1.86-0.07-2.78,0.13c-1.77,0.39-3.49,1.49-4.43,2.97c-1,1.49-0.46,3.41,0.83,4.67
				c1.29,1.3,3.08,2,4.95,1.98c1.88-0.03,3.77-0.55,5.47-1.4c1.65-0.88,3.22-2.13,3.94-3.79c0.66-1.74,0.94-3.72,1.08-5.65
				c0.18-3.91-0.21-7.86-0.86-11.78c-0.64-3.91-1.51-7.79-2.58-11.62c-1.07-3.83-2.29-7.63-3.67-11.36
				C107.72,57.26,105.93,53.68,104.37,50.04z M105.23,49.66c1.54,3.69,2.78,7.49,4.16,11.22c1.44,3.72,2.68,7.51,3.9,11.31
				c2.3,7.61,4.28,15.49,4,23.62c-0.15,2.03-0.39,4.04-1.14,6.04c-0.87,2.05-2.64,3.41-4.44,4.4c-1.85,0.95-3.88,1.53-6,1.57
				c-2.13,0.06-4.33-0.77-5.86-2.31c-0.76-0.77-1.37-1.75-1.61-2.89c-0.25-1.14,0.01-2.37,0.62-3.31c1.22-1.88,3.15-3.03,5.24-3.52
				c1.05-0.22,2.12-0.24,3.17-0.13c1.04,0.15,2.07,0.39,3.03,0.8c1.95,0.77,3.66,2,5.12,3.48c1.46,1.46,2.51,3.45,2.93,5.47
				c0.45,2.03,0.45,4.09,0.28,6.11c-0.38,4.04-1.53,7.92-2.8,11.69c-2.64,7.56-6.04,14.78-9.39,22c-0.86,1.81-1.58,3.63-2.06,5.55
				c-0.52,1.91-0.81,3.88-0.8,5.83c0.06,1.95,0.5,3.93,1.71,5.43c1.15,1.49,3.32,2.07,5.03,1.46c1.68-0.6,2.61-2.92,1.84-4.47
				c-0.77-1.65-3.28-1.79-4.54-0.63c-0.55,0.56-0.76,1.58-0.94,2.52c-0.2,0.97-0.38,1.93-0.43,2.89c-0.06,0.95,0.06,1.88,0.48,2.66
				s1.14,1.36,1.99,1.68c0.86,0.34,1.82,0.46,2.79,0.6c0.97,0.15,1.91,0.2,2.87,0.13c1.91-0.08,3.8-0.71,5.66-1.35
				c1.86-0.66,3.69-1.44,5.51-2.24c0.91-0.39,1.82-0.8,2.76-1.16l1.46-0.45l1.49-0.29c3.98-0.62,8-0.31,11.96,0.22
				c3.95,0.56,7.88,1.49,11.59,3.03c1.85,0.8,3.63,1.77,5.24,3c1.61,1.22,3.04,2.78,3.88,4.67c0.86,1.89,0.93,4.11,0.21,6.06
				c-0.17,0.49-0.38,0.95-0.67,1.42c-0.32,0.43-0.69,0.83-1.15,1.11c-0.88,0.6-1.96,0.83-3.01,0.79c-2.1-0.08-4.07-1.37-5.02-3.25
				c-0.88-1.96-0.48-4.14,0.14-6.01c1.33-3.8,3.73-7.28,7.14-9.5c1.71-1.09,3.7-1.71,5.72-1.86c2.02-0.17,4.02,0.06,5.99,0.42
				c1.96,0.36,3.9,0.9,5.82,1.43c1.92,0.55,3.81,1.12,5.78,1.46l5.89,1.04c0.98,0.18,1.96,0.36,2.94,0.57
				c0.98,0.22,1.92,0.42,2.9,0.49c1.95,0.18,3.9-0.14,5.85-0.46c0.95-0.17,1.89-0.42,2.62-0.95c0.73-0.55,1.22-1.37,1.42-2.27
				c0.39-1.84-0.14-3.84-0.67-5.69c-0.15-0.45-0.35-0.88-0.62-1.23c-0.25-0.31-0.67-0.56-1.09-0.74c-0.84-0.35-1.84-0.41-2.68-0.08
				s-1.47,1.08-1.63,1.98c-0.18,0.88,0.06,1.86,0.53,2.65c0.48,0.79,1.29,1.33,2.2,1.49c0.91,0.17,1.89,0.04,2.8-0.25
				c1.82-0.59,3.13-2.27,3.67-4.09c0.59-1.85,0.46-3.87,0.17-5.8c-0.34-1.95-0.9-3.86-1.63-5.69c-0.77-1.82-1.57-3.67-2.29-5.52
				c-1.46-3.72-2.78-7.49-3.95-11.3c-1.22-3.8-2.24-7.67-3.15-11.57c-0.87-3.91-1.56-7.89-1.65-11.96
				c-0.03-2.03,0.08-4.08,0.48-6.11c0.39-2.03,1.09-4.08,2.37-5.83c1.26-1.75,3.1-3.14,5.16-3.83c2.07-0.64,4.29-0.76,6.36-0.24
				c1.05,0.24,2.06,0.63,3,1.16c0.95,0.53,1.82,1.22,2.51,2.2c0.67,0.97,0.95,2.2,0.87,3.35c-0.08,1.16-0.52,2.24-1.16,3.15
				c-0.64,0.91-1.49,1.67-2.47,2.2c-0.95,0.55-2.16,0.8-3.24,0.74c-2.2-0.11-4.18-0.98-5.9-2.14c-1.72-1.16-3.2-2.66-4.33-4.4
				c-0.28-0.43-0.53-0.9-0.77-1.35l-0.59-1.43c-0.45-0.93-0.67-1.93-0.91-2.92c-0.91-3.98-0.79-8.08-0.25-12.04
				c0.55-3.98,1.51-7.86,2.65-11.69c1.15-3.83,2.55-7.57,4.01-11.27c0.73-1.85,1.49-3.7,2.26-5.54c0.79-1.82,1.44-3.7,1.84-5.62
				c0.41-1.92,0.6-3.91,0.29-5.82c-0.31-1.88-1.29-3.69-2.89-4.65c-1.54-0.9-3.8-1.14-5.13-0.06c-1.32,1.07-1.74,3.42-0.5,4.57
				c1.15,1.18,3.57,0.83,4.51-0.43c0.45-0.63,0.62-1.67,0.87-2.61c0.24-0.95,0.38-1.89,0.39-2.82c0.07-1.86-1-3.62-2.89-4.09
				c-0.91-0.29-1.89-0.42-2.87-0.59c-0.98-0.17-1.95-0.27-2.93-0.24c-1.96-0.01-3.86,0.56-5.76,1.14c-1.91,0.55-3.79,1.19-5.65,1.89
				c-1.86,0.69-3.72,1.42-5.57,2.14c-1.85,0.74-3.7,1.49-5.61,2.12c-3.79,1.25-7.82,2.06-11.87,1.72c-2.02-0.15-4.04-0.62-5.94-1.33
				c-1.91-0.73-3.69-1.75-5.37-2.9c-1.67-1.16-3.21-2.57-4.47-4.21c-1.26-1.64-2.23-3.57-2.55-5.68c-0.31-2.09,0.14-4.36,1.4-6.08
				c1.14-1.78,3.24-3.06,5.41-3.04c4.43,0.11,7.78,4.14,8.05,8.22c0.2,2.06-0.24,4.12-1.07,5.96c-0.83,1.85-2.06,3.52-3.56,4.86
				c-3,2.75-7.01,4.09-10.96,4.43c-3.98,0.34-8.03-0.17-11.79-1.51c-0.94-0.34-1.86-0.71-2.73-1.21l-2.59-1.5
				c-1.72-1-3.46-1.96-5.24-2.83c-1.77-0.87-3.56-1.71-5.4-2.2c-1.84-0.41-3.83-0.39-5.72-0.08c-1.88,0.27-3.72,1.08-4.19,2.82
				c-0.53,1.7-0.03,3.67,0.46,5.54c0.25,0.93,0.62,1.75,1.28,2.14c0.66,0.41,1.58,0.46,2.34,0.15c1.58-0.53,2-2.78,1.07-4.18
				c-0.9-1.42-3.08-1.82-4.61-1.01c-0.8,0.41-1.49,1.04-1.99,1.79c-0.5,0.76-0.8,1.65-1.02,2.57c-0.35,1.86-0.27,3.83,0.1,5.75
				C103.95,45.94,104.51,47.86,105.23,49.66z"/>
		</g>
	</g>
	<g id="Layer_5_00000098908979635290243140000005816927013233584813_">
		<g>
			<path class="st5" d="M126.13,40.14l47.24,0.04l11.82,0.01c1.93,0.07,4.01-0.28,5.85,0.64c1.81,0.83,3.22,2.47,3.76,4.39
				c0.28,0.95,0.27,1.96,0.27,2.94v2.96v5.9l-0.01,11.82l0.01,47.24l0.07,23.62l0.03,11.82c0.01,0.97,0.03,2-0.27,2.97
				c-0.27,0.97-0.74,1.88-1.4,2.65c-1.3,1.54-3.29,2.47-5.31,2.47l-47.24-0.01h-11.82h-2.96c-1.01,0-2.02-0.22-2.93-0.64
				c-1.82-0.84-3.28-2.5-3.81-4.44c-0.29-0.97-0.28-2-0.27-2.97v-2.96v-5.9v-11.82l0.01-47.24V60V48.19c0-0.97-0.01-1.99,0.27-2.96
				c0.27-0.97,0.76-1.88,1.42-2.64C122.14,41.05,124.13,40.12,126.13,40.14z M126.13,40.39c-1.93-0.01-3.84,0.88-5.1,2.36
				c-0.63,0.73-1.09,1.6-1.36,2.54c-0.28,0.93-0.27,1.91-0.25,2.89v11.82v23.62l0.01,47.24v11.82v5.9v2.96c0,1-0.01,1.96,0.27,2.89
				c0.5,1.86,1.89,3.45,3.64,4.25c1.75,0.88,3.79,0.55,5.75,0.62h11.82l47.24-0.01c1.92,0.01,3.83-0.87,5.07-2.33
				c0.63-0.73,1.09-1.6,1.36-2.52c0.28-0.93,0.27-1.89,0.27-2.89l0.03-11.82l0.07-23.62l0.01-47.24l-0.01-11.82v-5.9v-2.96
				c0-0.98,0.01-1.98-0.27-2.92c-0.52-1.89-1.92-3.49-3.7-4.3c-1.79-0.9-3.84-0.56-5.79-0.62l-11.82,0.01L126.13,40.39z"/>
		</g>
	</g>
	<path class="st6" d="M183.92,157.3h-53.19c-4.37,0-7.91-3.54-7.91-7.91V50.14c0-4.37,3.54-7.91,7.91-7.91h53.19
		c4.37,0,7.91,3.54,7.91,7.91v99.24C191.83,153.75,188.29,157.3,183.92,157.3z"/>
</g>
</svg>
