<?xml version="1.0" encoding="utf-8"?>
<!-- Generator: Adobe Illustrator 25.4.8, SVG Export Plug-In . SVG Version: 6.00 Build 0)  -->
<svg version="1.1" id="Layer_1" xmlns="http://www.w3.org/2000/svg" xmlns:xlink="http://www.w3.org/1999/xlink" x="0px" y="0px"
	 viewBox="0 0 174 243" style="enable-background:new 0 0 174 243;" xml:space="preserve">
<style type="text/css">
	.st0{fill:#AB3F8A;}
	.st1{opacity:0.5;fill:#AB3F8A;enable-background:new    ;}
	.st2{opacity:0.75;fill:#AB3F8A;enable-background:new    ;}
</style>
<path class="st0" d="M105.2,74.6c-1.8,1.6-4.2,1.5-6.1,1.4c-1.5-0.1-5.8-0.4-8.8-3.9c-0.6-0.8-2.1-2.9-2.3-5.9
	c-0.1-1-0.2-3.3,1.4-5.5c2-2.8,5.2-3,5.9-3.1c0.4,0,2.7-0.3,5,1c2.2,1.2,3.3,2.9,4.5,4.8c1.3,2.1,2.5,4.1,2.3,6.7
	C107,71,106.8,73.1,105.2,74.6z"/>
<path class="st0" d="M112.7,57.7c-2.2,0.9-4.5-0.1-6.3-0.8c-1.4-0.6-5.4-2.4-6.8-6.7c-0.4-1-1-3.5-0.1-6.4c0.3-0.9,1-3.1,3.2-4.7
	c2.9-1.9,6-1.1,6.6-0.9c0.4,0.1,2.6,0.7,4.4,2.7c1.7,1.9,2.1,3.8,2.5,6.1c0.4,2.5,0.9,4.7-0.2,7.1C115.7,54.8,114.7,56.8,112.7,57.7
	z"/>
<path class="st0" d="M127.9,51.4c-2.4-0.2-4-2-5.3-3.4c-1-1.2-3.8-4.5-3.3-9c0.1-1.1,0.6-3.6,2.6-5.7c0.7-0.7,2.2-2.4,4.9-2.8
	c3.4-0.4,5.8,1.6,6.4,2.1c0.4,0.3,2.1,1.8,2.8,4.3c0.7,2.4,0.2,4.4-0.4,6.5c-0.6,2.4-1.2,4.7-3.2,6.4
	C131.8,50.1,130.1,51.5,127.9,51.4z"/>
<path class="st0" d="M144.5,60.3c-2.3-0.9-3.2-3.1-3.9-4.9c-0.6-1.4-2.2-5.4-0.4-9.6c0.4-1,1.6-3.2,4.3-4.7c0.9-0.4,2.9-1.6,5.5-1.2
	c3.3,0.6,5,3.3,5.4,3.8c0.3,0.4,1.4,2.3,1.3,4.9c-0.1,2.5-1.2,4.2-2.3,6.1c-1.3,2.1-2.6,4-5,5C148.7,60.3,146.7,61.1,144.5,60.3z"/>
<path class="st0" d="M117.3,95.1c-2.6-0.8-4.4-1.3-6-2.9c-2.1-2-2.6-4.4-3-6c-0.3-1.3-0.8-3.4-0.1-6c0.4-1.1,1-2.3,2.4-4.7
	c1.1-1.8,1.3-2.1,2-3.5c0.4-1,0.7-1.8,1.3-3.6c1.1-3.1,0.9-3.2,1.4-4.2c1-2,2.2-3.1,2.9-3.8c1-0.9,2.8-2.5,5.7-3
	c2.7-0.5,4.9,0.2,6.1,0.5c2.1,0.7,3.8,1.9,4.5,2.3c1.4,1,1.4,1.3,2.8,2.1c1.5,0.9,2.4,1.1,4.1,1.6c1.7,0.6,3.7,1.3,5.5,2.7
	c2.9,2.1,4,4.9,4.5,6.1c0.5,1.3,1.2,2.9,1,4.9c-0.1,1.6-0.7,2.8-1.4,4.2c-0.6,1.3-1.3,2.7-2.8,4c-1.7,1.6-3.5,2.3-4.5,2.6
	c-2.8,1-3.3,0.2-6.7,1.1c-1.9,0.4-3.3,1.2-5.2,2c-2.7,1.3-2.8,1.5-5.1,2.6c-2.2,0.9-3.6,1.5-5.5,1.5
	C119.8,95.8,118.8,95.6,117.3,95.1z"/>
<path class="st1" d="M135.6,196.1c1.4,1.2,3.2,1,4.7,0.8c1.2-0.1,4.4-0.4,6.5-3.2c0.4-0.6,1.5-2.2,1.5-4.6c0-0.7,0-2.5-1.3-4.1
	c-1.6-2-4-2.1-4.6-2.1c-0.4,0-2.1-0.1-3.8,0.9c-1.6,1-2.4,2.3-3.2,3.8c-0.9,1.7-1.8,3.2-1.5,5.2C134,193.3,134.2,195,135.6,196.1z"
	/>
<path class="st1" d="M129.3,183.5c1.8,0.6,3.4-0.2,4.7-0.8c1-0.5,3.9-2,4.9-5.4c0.2-0.8,0.6-2.7-0.2-4.8c-0.3-0.7-0.9-2.3-2.6-3.4
	c-2.2-1.3-4.6-0.5-5-0.4c-0.4,0.1-2,0.6-3.2,2.2c-1.2,1.4-1.4,3-1.7,4.7c-0.3,1.9-0.5,3.6,0.4,5.4
	C126.9,181.4,127.7,182.9,129.3,183.5z"/>
<path class="st1" d="M117.6,179.3c1.9-0.2,3-1.6,3.8-2.8c0.7-0.9,2.8-3.5,2.1-7c-0.1-0.8-0.5-2.7-2.1-4.3c-0.5-0.5-1.8-1.7-3.8-2
	c-2.6-0.3-4.4,1.4-4.7,1.8c-0.3,0.3-1.4,1.4-2,3.4c-0.4,1.9,0,3.3,0.5,4.9c0.5,1.8,1.1,3.5,2.7,4.7
	C114.5,178.5,115.9,179.4,117.6,179.3z"/>
<path class="st1" d="M105.2,186.6c1.7-0.7,2.3-2.5,2.9-3.8c0.4-1.1,1.5-4.2-0.1-7.3c-0.4-0.7-1.3-2.4-3.4-3.4
	c-0.6-0.4-2.2-1.1-4.2-0.7c-2.5,0.5-3.8,2.7-3.9,3.1c-0.2,0.3-1,1.8-0.8,3.8c0.1,1.9,1,3.1,2,4.6c1.1,1.6,2.1,3,3.9,3.7
	C102.1,186.7,103.7,187.2,105.2,186.6z"/>
<path class="st1" d="M127.1,212c2-0.7,3.2-1.2,4.4-2.3c1.5-1.5,1.8-3.4,2.1-4.7c0.2-1,0.4-2.6-0.2-4.6c-0.3-0.8-0.8-1.7-2-3.5
	c-0.8-1.3-1.1-1.5-1.6-2.6c-0.4-0.7-0.6-1.3-1.2-2.7c-0.9-2.3-0.8-2.4-1.3-3.1c-0.8-1.4-1.8-2.3-2.3-2.7c-0.7-0.6-2.2-1.8-4.4-2.1
	c-2.1-0.4-3.7,0.3-4.6,0.6c-1.6,0.6-2.9,1.5-3.3,1.9c-1.1,0.8-1.1,1.1-2,1.7c-1.1,0.7-1.8,0.9-3,1.4c-1.3,0.5-2.8,1.1-4,2.2
	c-2.1,1.7-2.9,3.9-3.1,4.7c-0.4,1-0.8,2.2-0.6,3.8c0.2,1.3,0.6,2.1,1.3,3.1c0.5,1,1.1,2,2.2,3c1.3,1.2,2.8,1.6,3.5,1.9
	c2.1,0.6,2.5,0.1,5.1,0.5c1.5,0.3,2.6,0.7,4,1.3c2.1,0.8,2.1,1.1,3.9,1.8c1.7,0.6,2.8,1,4.2,0.9C125.2,212.6,125.9,212.4,127.1,212z
	"/>
<path class="st0" d="M36.1,190.8c-1.6,1.5-3.8,1.3-5.5,1.3c-1.3-0.1-5.3-0.4-8-3.5c-0.6-0.7-2-2.6-2.1-5.3c-0.1-0.9-0.2-3,1.3-4.9
	c1.8-2.5,4.7-2.8,5.3-2.9c0.4-0.1,2.4-0.2,4.6,0.9c2,1.1,3,2.6,4,4.4c1.2,2,2.2,3.7,2.1,6.1C37.8,187.4,37.7,189.5,36.1,190.8z"/>
<path class="st0" d="M42.9,175.5c-2.1,0.8-4-0.1-5.6-0.8c-1.3-0.5-4.8-2.1-6.2-6.1c-0.3-0.9-0.9-3.1-0.1-5.7c0.3-0.8,0.9-2.9,3-4.2
	c2.6-1.7,5.4-1,6-0.8c0.4,0.1,2.3,0.6,3.9,2.4c1.5,1.7,1.9,3.5,2.2,5.5c0.4,2.2,0.8,4.3-0.2,6.4C45.6,172.9,44.8,174.7,42.9,175.5z"
	/>
<path class="st0" d="M56.6,169.8c-2.2-0.1-3.7-1.8-4.7-3.1c-0.9-1.1-3.4-4-3-8.1c0.1-1,0.5-3.2,2.4-5.2c0.6-0.6,2.1-2.1,4.5-2.5
	c3-0.4,5.3,1.4,5.7,1.9c0.3,0.3,1.8,1.6,2.5,3.9c0.6,2.1,0.2,3.9-0.4,5.9c-0.5,2.2-1.1,4.2-3,5.7C60.2,168.6,58.7,169.9,56.6,169.8z
	"/>
<path class="st0" d="M71.7,177.8c-2.1-0.8-2.9-2.8-3.6-4.4c-0.5-1.3-2.1-4.8-0.4-8.7c0.4-0.9,1.5-2.9,3.8-4.2c0.8-0.4,2.6-1.4,5-1
	c3,0.5,4.6,3,4.9,3.5c0.2,0.4,1.3,2.1,1.2,4.5c-0.1,2.2-1,3.8-2.1,5.5c-1.3,1.9-2.3,3.7-4.6,4.6C75.4,177.8,73.6,178.5,71.7,177.8z"
	/>
<path class="st0" d="M47.1,209.3c-2.4-0.7-3.9-1.2-5.4-2.6c-1.9-1.8-2.3-3.9-2.7-5.4c-0.3-1.2-0.7-3.1-0.1-5.4
	c0.3-1,0.9-2.1,2.1-4.3c0.9-1.6,1.3-1.9,1.8-3.1c0.4-0.9,0.7-1.7,1.2-3.2c1-2.8,0.8-2.9,1.3-3.8c0.9-1.8,2.1-2.9,2.6-3.4
	c0.9-0.8,2.5-2.2,5.2-2.8c2.4-0.4,4.4,0.1,5.5,0.4c2,0.6,3.4,1.7,4,2.1c1.3,0.9,1.3,1.3,2.5,2c1.3,0.8,2.1,1,3.8,1.5
	c1.5,0.5,3.3,1.2,4.9,2.4c2.6,1.9,3.7,4.5,4,5.5c0.4,1.2,1.1,2.6,0.9,4.4c-0.1,1.4-0.6,2.5-1.3,3.8c-0.5,1.2-1.2,2.4-2.5,3.7
	c-1.5,1.5-3.2,2.1-4,2.4c-2.5,0.9-3,0.2-6.1,1c-1.7,0.4-3,1-4.7,1.8c-2.4,1.1-2.5,1.4-4.7,2.3c-2,0.8-3.2,1.3-4.9,1.3
	C49.4,210,48.5,209.7,47.1,209.3z"/>
<path class="st2" d="M111,132.4c-1.8,1-3.8,0.3-5.3-0.2c-1.2-0.4-4.7-1.6-6.3-5.1c-0.4-0.8-1.2-2.9-0.6-5.3c0.2-0.8,0.6-2.7,2.3-4.1
	c2.2-1.8,4.9-1.3,5.5-1.3c0.4,0.1,2.2,0.4,3.8,1.9c1.5,1.4,2.1,3,2.6,4.8c0.6,2.1,1.2,3.8,0.4,5.9
	C113.3,129.8,112.7,131.5,111,132.4z"/>
<path class="st2" d="M120.7,120.3c-2.1,0.3-3.7-1.1-4.8-2.1c-1-0.8-3.8-3.1-4.1-7c-0.1-0.9-0.1-3,1.3-5.2c0.4-0.7,1.5-2.3,3.7-3
	c2.7-0.9,5.1,0.4,5.5,0.7c0.4,0.2,2,1.2,3,3.1c1,1.9,0.8,3.6,0.7,5.5c-0.2,2.1-0.3,4-1.7,5.7C123.9,118.7,122.6,120.1,120.7,120.3z"
	/>
<path class="st2" d="M134.4,118.5c-2-0.6-2.9-2.5-3.5-3.9c-0.5-1.2-2.1-4.5-0.7-8.1c0.4-0.8,1.3-2.8,3.4-4.1
	c0.7-0.4,2.4-1.4,4.6-1.2c2.9,0.4,4.4,2.6,4.7,3c0.2,0.3,1.3,1.9,1.3,4.1c0.1,2.1-0.8,3.6-1.7,5.2c-1.1,1.9-2,3.5-4,4.4
	C138,118.3,136.3,119.1,134.4,118.5z"/>
<path class="st2" d="M146.1,129.4c-1.7-1.3-2-3.2-2.1-4.8c-0.2-1.3-0.6-4.8,1.8-7.9c0.5-0.7,2.1-2.2,4.5-2.9
	c0.8-0.2,2.7-0.6,4.7,0.3c2.6,1.3,3.4,3.8,3.5,4.4c0.1,0.4,0.6,2.1,0,4.3c-0.6,2-1.9,3.1-3.2,4.5c-1.5,1.4-3,2.8-5.2,3
	C149.5,130.3,147.6,130.5,146.1,129.4z"/>
<path class="st2" d="M116.3,151.7c-2-1.3-3.2-2.1-4.2-3.6c-1.3-2.1-1.2-4.1-1.1-5.5c0.1-1.1,0.1-3,1.3-4.8c0.5-0.8,1.3-1.7,3-3.3
	c1.3-1.3,1.6-1.4,2.4-2.4c0.5-0.7,1-1.3,1.9-2.6c1.5-2.3,1.4-2.4,2.1-3.1c1.2-1.3,2.5-2.1,3.1-2.4c1-0.4,2.8-1.4,5.3-1.3
	c2.3,0.2,3.9,1.2,4.8,1.7c1.6,1.1,2.7,2.3,3.1,2.9c0.9,1.2,0.9,1.4,1.7,2.3c1,1.1,1.7,1.3,3,2.2c1.3,0.9,2.7,1.9,3.8,3.4
	c1.9,2.3,2.1,4.9,2.3,5.9c0.2,1.2,0.4,2.6-0.3,4.2c-0.4,1.3-1.2,2.1-2.1,3.1c-0.8,0.9-1.7,1.9-3.1,2.7c-1.8,1-3.4,1.1-4.2,1.2
	c-2.4,0.2-2.7-0.5-5.6-0.6c-1.7,0-3,0.2-4.7,0.4c-2.4,0.4-2.6,0.6-4.7,1c-2,0.3-3.2,0.4-4.7,0C118.2,152.9,117.4,152.4,116.3,151.7z
	"/>
<path class="st1" d="M61.4,69.4c1.3,1.3,3.1,1.2,4.7,1.2c1.2,0,4.5-0.2,6.7-2.9c0.5-0.6,1.7-2.1,1.9-4.4c0.1-0.7,0.2-2.5-1-4.2
	c-1.5-2.1-3.9-2.4-4.4-2.5c-0.4,0-2.1-0.2-3.8,0.7c-1.7,0.8-2.5,2.1-3.5,3.6c-1.1,1.6-2,3-1.9,5C60,66.6,60.1,68.2,61.4,69.4z"/>
<path class="st1" d="M56,56.5c1.7,0.7,3.4,0,4.7-0.5c1.1-0.4,4.1-1.7,5.3-5c0.3-0.7,0.8-2.6,0.2-4.7c-0.2-0.7-0.7-2.4-2.4-3.6
	c-2.1-1.4-4.5-0.9-5-0.8c-0.4,0.1-2,0.5-3.4,2c-1.3,1.3-1.6,2.9-2,4.6c-0.4,1.9-0.7,3.6,0,5.4C53.8,54.2,54.4,55.7,56,56.5z"/>
<path class="st1" d="M44.6,51.4c1.9-0.1,3-1.4,4-2.5c0.8-0.9,3-3.3,2.6-6.8c-0.1-0.8-0.4-2.7-1.9-4.4c-0.5-0.5-1.7-1.9-3.7-2.1
	c-2.5-0.4-4.5,1.2-4.8,1.4c-0.3,0.2-1.5,1.3-2.1,3.2c-0.5,1.8-0.2,3.3,0.2,4.9c0.4,1.9,0.8,3.6,2.3,4.8
	C41.6,50.4,42.9,51.5,44.6,51.4z"/>
<path class="st1" d="M31.8,57.9c1.8-0.6,2.5-2.3,3-3.7c0.4-1.1,1.8-4,0.4-7.3c-0.4-0.7-1.2-2.5-3.1-3.6c-0.6-0.4-2.1-1.3-4.2-1
	c-2.6,0.4-3.8,2.4-4.1,2.9c-0.2,0.3-1.1,1.7-1.1,3.8c0,1.9,0.8,3.2,1.7,4.7c1,1.6,1.9,3.1,3.7,3.8C28.6,57.9,30.1,58.5,31.8,57.9z"
	/>
<path class="st1" d="M51.9,84.7c2-0.5,3.3-0.9,4.6-2.1c1.6-1.4,2.1-3.3,2.3-4.5c0.3-1,0.6-2.6,0.2-4.6c-0.2-0.8-0.7-1.8-1.8-3.6
	c-0.7-1.3-1-1.6-1.4-2.7c-0.4-0.7-0.5-1.4-1-2.7c-0.7-2.3-0.6-2.4-1-3.2c-0.7-1.5-1.7-2.4-2.1-2.9c-0.7-0.6-2.1-2-4.3-2.4
	c-2.1-0.4-3.8,0-4.6,0.3c-1.7,0.4-2.9,1.3-3.4,1.7c-1.1,0.7-1.2,1-2.1,1.6c-1.2,0.7-1.9,0.7-3.1,1.2c-1.3,0.4-2.8,0.9-4.2,2
	c-2.1,1.6-3.1,3.7-3.5,4.5c-0.4,1-0.9,2.1-0.8,3.7c0.1,1.3,0.4,2.1,1,3.2c0.4,1,1,2.1,2,3.1c1.3,1.3,2.7,1.8,3.3,2.1
	c2.1,0.8,2.5,0.2,5.1,0.9c1.4,0.4,2.5,0.9,3.9,1.6c2.1,1,2.1,1.3,3.8,2c1.7,0.7,2.7,1.2,4.1,1.2C50,85.3,50.7,85.1,51.9,84.7z"/>
<path class="st2" d="M25.6,118.8c-2,0.5-3.8-0.5-5.1-1.3c-1.1-0.6-4.2-2.5-5-6.4c-0.2-0.9-0.4-3,0.6-5.3c0.4-0.7,1.2-2.5,3.2-3.5
	c2.6-1.3,5.1-0.3,5.6,0c0.4,0.2,2.1,0.9,3.4,2.7c1.2,1.7,1.3,3.4,1.4,5.3c0.2,2.1,0.3,4-0.9,5.9C28.4,116.7,27.5,118.2,25.6,118.8z"
	/>
<path class="st2" d="M37.8,109c-2.1-0.2-3.3-1.8-4.3-3c-0.8-1-3-3.8-2.4-7.7c0.1-0.9,0.6-3,2.4-4.7c0.6-0.5,2-2,4.2-2.1
	c2.9-0.3,4.8,1.5,5.3,2c0.3,0.3,1.6,1.5,2.2,3.8c0.5,2.1,0,3.7-0.5,5.5c-0.6,2.1-1.2,3.8-3,5.2C41.2,108.1,39.7,109.2,37.8,109z"/>
<path class="st2" d="M51.6,110.2c-1.8-1.1-2.2-3-2.6-4.7c-0.3-1.3-1.1-4.8,1.1-8c0.4-0.7,1.8-2.4,4.2-3.2c0.8-0.3,2.7-0.9,4.7-0.2
	c2.7,1,3.7,3.5,3.9,4c0.2,0.4,0.8,2.1,0.4,4.3c-0.4,2.1-1.5,3.3-2.9,4.7c-1.4,1.6-2.7,3-4.9,3.4C55,110.9,53.2,111.2,51.6,110.2z"/>
<path class="st2" d="M60.5,123.4c-1.3-1.5-1.2-3.6-1.1-5.2c0.1-1.3,0.4-4.9,3.5-7.3c0.7-0.5,2.5-1.8,5-1.8c0.8,0,2.8-0.1,4.6,1.3
	c2.2,1.8,2.5,4.5,2.5,5c0,0.4,0.2,2.2-1,4.2c-1,1.9-2.5,2.7-4.1,3.7c-1.9,1.1-3.5,2.1-5.7,1.8C63.6,125.1,61.8,124.8,60.5,123.4z"/>
<path class="st2" d="M26.7,138.7c-1.6-1.6-2.8-2.7-3.3-4.4c-0.8-2.2-0.3-4.3,0.1-5.6c0.3-1.1,0.8-2.9,2.2-4.5
	c0.7-0.7,1.7-1.3,3.7-2.6c1.4-0.9,1.9-1.1,2.9-1.8c0.7-0.5,1.3-1.1,2.4-2.1c2-1.9,2-2.1,2.7-2.6c1.4-1.1,2.9-1.4,3.6-1.6
	c1.1-0.3,3-0.7,5.5,0c2.2,0.6,3.6,2,4.3,2.8c1.3,1.3,2.1,2.9,2.4,3.5c0.6,1.3,0.5,1.6,1.2,2.7c0.7,1.3,1.3,1.7,2.4,2.9
	c1.1,1.1,2.2,2.4,3,4.1c1.3,2.7,1.1,5.3,1,6.3c-0.1,1.2-0.3,2.6-1.2,4c-0.7,1.2-1.6,1.8-2.7,2.6c-1,0.7-2.1,1.5-3.6,2
	c-1.9,0.5-3.5,0.4-4.4,0.2c-2.4-0.4-2.5-1.2-5.4-1.8c-1.6-0.4-3-0.4-4.7-0.5c-2.5-0.2-2.7,0.1-4.8-0.1c-2-0.2-3.2-0.3-4.7-1
	C28.3,140.2,27.6,139.7,26.7,138.7z"/>
<g>
	<g>
		<path class="st0" d="M148,207.9c1.3,0,2.5,0.3,3.5,0.8s1.7,1.4,2.3,2.4c0.5,1.1,0.8,2.4,0.8,4c0,1.7-0.3,3.2-0.9,4.3
			c-0.6,1.2-1.5,2.1-2.6,2.7c-1.1,0.6-2.4,0.9-3.9,0.9c-0.8,0-1.5-0.1-2.2-0.2c-0.7-0.2-1.3-0.4-1.9-0.7l1.2-2.5
			c0.4,0.3,0.8,0.5,1.3,0.6s0.9,0.2,1.4,0.1c1.3,0,2.3-0.4,3-1.2c0.8-0.8,1.1-1.9,1.1-3.4c0-0.3,0-0.5,0-0.8s-0.1-0.6-0.1-0.9l1,0.9
			c-0.3,0.5-0.6,1-1,1.4s-0.9,0.7-1.5,0.8c-0.6,0.2-1.2,0.3-1.9,0.3c-1,0-1.8-0.2-2.6-0.6c-0.8-0.4-1.4-0.9-1.8-1.6
			c-0.5-0.7-0.7-1.5-0.7-2.4c0-1,0.2-1.9,0.7-2.6c0.5-0.7,1.1-1.3,2-1.7S147,207.9,148,207.9z M148.2,210.4c-0.5,0-0.9,0.1-1.3,0.3
			c-0.4,0.2-0.7,0.4-0.9,0.8c-0.2,0.3-0.3,0.7-0.3,1.2c0,0.7,0.2,1.2,0.7,1.6s1.1,0.6,1.8,0.6c0.5,0,0.9-0.1,1.3-0.3
			c0.4-0.2,0.7-0.5,0.9-0.8s0.3-0.7,0.3-1.1c0-0.4-0.1-0.8-0.3-1.1s-0.5-0.6-0.9-0.8C149.2,210.5,148.8,210.4,148.2,210.4z"/>
	</g>
</g>
<g>
	<g>
		<path class="st0" d="M22.9,28.9c-1.3,0-2.5-0.3-3.5-0.8c-1-0.6-1.7-1.4-2.3-2.5c-0.5-1.1-0.8-2.4-0.8-4c0-1.7,0.3-3.1,1-4.3
			c0.6-1.2,1.5-2.1,2.6-2.7s2.4-0.9,3.9-0.9c0.8,0,1.5,0.1,2.2,0.3s1.3,0.4,1.8,0.7l-1.3,2.5c-0.4-0.3-0.8-0.5-1.3-0.6
			s-0.8-0.1-1.3-0.1c-1.3,0-2.3,0.4-3,1.2c-0.8,0.8-1.1,1.9-1.1,3.4c0,0.3,0,0.5,0,0.8s0.1,0.6,0.1,0.9L19,21.9c0.3-0.5,0.6-1,1-1.4
			s0.9-0.7,1.5-0.8c0.6-0.2,1.2-0.3,1.9-0.3c1,0,1.8,0.2,2.6,0.6s1.4,0.9,1.8,1.6c0.5,0.7,0.7,1.5,0.7,2.4c0,1-0.2,1.9-0.7,2.6
			s-1.2,1.3-2,1.7C24.9,28.7,24,28.9,22.9,28.9z M22.7,26.4c0.5,0,0.9-0.1,1.3-0.3c0.4-0.2,0.7-0.4,0.9-0.8c0.2-0.3,0.3-0.7,0.3-1.2
			c0-0.7-0.2-1.2-0.7-1.6s-1.1-0.6-1.8-0.6c-0.5,0-0.9,0.1-1.3,0.3c-0.4,0.2-0.7,0.5-0.9,0.8s-0.3,0.7-0.3,1.1s0.1,0.8,0.3,1.1
			c0.2,0.3,0.5,0.6,0.9,0.8C21.7,26.3,22.2,26.4,22.7,26.4z"/>
	</g>
</g>
</svg>
