<?xml version="1.0" encoding="utf-8"?>
<!-- Generator: Adobe Illustrator 25.4.8, SVG Export Plug-In . SVG Version: 6.00 Build 0)  -->
<svg version="1.1" id="Layer_1" xmlns="http://www.w3.org/2000/svg" xmlns:xlink="http://www.w3.org/1999/xlink" x="0px" y="0px"
	 viewBox="0 0 174 243" style="enable-background:new 0 0 174 243;" xml:space="preserve">
<style type="text/css">
	.st0{fill:#AB3F8A;}
	.st1{opacity:0.75;fill:#AB3F8A;enable-background:new    ;}
	.st2{opacity:0.5;fill:#AB3F8A;enable-background:new    ;}
</style>
<g>
	<g>
		<path class="st0" d="M147.9,212.3c1,0,2,0.1,3,0.4c1,0.3,1.9,0.7,2.6,1.2l-1.3,2.6c-0.5-0.4-1.2-0.7-1.9-1s-1.5-0.4-2.3-0.4
			c-0.9,0-1.5,0.2-2,0.5s-0.7,0.8-0.7,1.4c0,0.4,0.1,0.7,0.3,1s0.6,0.5,1.1,0.7s1.2,0.2,2.1,0.2h3.7l-0.7,8.3l-9,0.1v-2.7h7.8
			l-1.8,1.6l0.5-5.9l1.8,1.5H148c-1.5,0-2.6-0.2-3.5-0.6s-1.5-0.9-2-1.6c-0.4-0.7-0.6-1.5-0.6-2.3c0-0.9,0.2-1.7,0.6-2.4
			c0.4-0.7,1.1-1.3,2-1.8S146.5,212.3,147.9,212.3z"/>
	</g>
</g>
<g>
	<g>
		<path class="st0" d="M24.4,33.1c-1,0-2-0.1-3-0.4s-1.9-0.7-2.6-1.2l1.3-2.6c0.5,0.4,1.2,0.7,1.9,1c0.7,0.2,1.5,0.4,2.3,0.4
			c0.9,0,1.5-0.2,2-0.5S27,29,27,28.4c0-0.4-0.1-0.7-0.3-1c-0.2-0.3-0.6-0.5-1.1-0.7s-1.2-0.2-2.1-0.2h-3.7l0.7-8.3h9v2.7h-7.8
			l1.8-1.6L23,25.2l-1.7-1.5h3.1c1.5,0,2.6,0.2,3.5,0.6s1.5,0.9,1.9,1.6s0.6,1.5,0.6,2.3c0,0.9-0.2,1.7-0.7,2.4
			c-0.4,0.7-1.1,1.3-2,1.8S25.8,33.1,24.4,33.1z"/>
	</g>
</g>
<path class="st0" d="M111.9,73.4c-1.8,1.6-4.2,1.5-6.1,1.4c-1.5-0.1-5.8-0.4-8.8-3.9c-0.6-0.8-2.1-2.9-2.3-5.9
	c-0.1-1-0.2-3.3,1.4-5.5c2-2.8,5.2-3,5.9-3.1c0.4,0,2.7-0.3,5,1c2.2,1.2,3.3,2.9,4.5,4.8c1.3,2.1,2.5,4.1,2.3,6.7
	C113.7,69.8,113.5,71.9,111.9,73.4z"/>
<path class="st0" d="M119.4,56.5c-2.2,0.9-4.5-0.1-6.3-0.8c-1.4-0.6-5.4-2.4-6.8-6.7c-0.4-1-1-3.5-0.1-6.4c0.3-0.9,1-3.1,3.2-4.7
	c2.9-1.9,6-1.1,6.6-0.9c0.4,0.1,2.6,0.7,4.4,2.7c1.7,1.9,2.1,3.8,2.5,6.1c0.4,2.5,0.9,4.7-0.2,7.1C122.4,53.6,121.4,55.6,119.4,56.5
	z"/>
<path class="st0" d="M134.6,50.2c-2.4-0.2-4-2-5.3-3.4c-1-1.2-3.8-4.5-3.3-9c0.1-1.1,0.6-3.6,2.6-5.7c0.7-0.7,2.2-2.4,4.9-2.8
	c3.4-0.4,5.8,1.6,6.4,2.1c0.4,0.3,2.1,1.8,2.8,4.3c0.7,2.4,0.2,4.4-0.4,6.5c-0.6,2.4-1.2,4.7-3.2,6.4
	C138.5,48.9,136.8,50.3,134.6,50.2z"/>
<path class="st0" d="M151.2,59.1c-2.3-0.9-3.2-3.1-3.9-4.9c-0.6-1.4-2.2-5.4-0.4-9.6c0.4-1,1.6-3.2,4.3-4.7c0.9-0.4,2.9-1.6,5.5-1.2
	c3.3,0.6,5,3.3,5.4,3.8c0.3,0.4,1.4,2.3,1.3,4.9c-0.1,2.5-1.2,4.2-2.3,6.1c-1.3,2.1-2.6,4-5,5C155.4,59.1,153.4,59.9,151.2,59.1z"/>
<path class="st0" d="M124,93.9c-2.6-0.8-4.4-1.3-6-2.9c-2.1-2-2.6-4.4-3-6c-0.3-1.3-0.8-3.4-0.1-6c0.4-1.1,1-2.3,2.4-4.7
	c1.1-1.8,1.3-2.1,2-3.5c0.4-1,0.7-1.8,1.3-3.6c1.1-3.1,0.9-3.2,1.4-4.2c1-2,2.2-3.1,2.9-3.8c1-0.9,2.8-2.5,5.7-3
	c2.7-0.5,4.9,0.2,6.1,0.5c2.1,0.7,3.8,1.9,4.5,2.3c1.4,1,1.4,1.3,2.8,2.1c1.5,0.9,2.4,1.1,4.1,1.6c1.7,0.6,3.7,1.3,5.5,2.7
	c2.9,2.1,4,4.9,4.5,6.1c0.5,1.3,1.2,2.9,1,4.9c-0.1,1.6-0.7,2.8-1.4,4.2c-0.6,1.3-1.3,2.7-2.8,4c-1.7,1.6-3.5,2.3-4.5,2.6
	c-2.8,1-3.3,0.2-6.7,1.1c-1.9,0.4-3.3,1.2-5.2,2c-2.7,1.3-2.8,1.5-5.1,2.6c-2.2,0.9-3.6,1.5-5.5,1.5C126.5,94.6,125.5,94.4,124,93.9
	z"/>
<path class="st1" d="M74,120.6c-1.4,0.8-2.9,0.2-4.1-0.2c-0.9-0.3-3.6-1.2-4.8-3.9c-0.3-0.6-0.9-2.2-0.5-4.1
	c0.2-0.6,0.5-2.1,1.8-3.1c1.7-1.4,3.7-1,4.2-1c0.3,0.1,1.7,0.3,2.9,1.5c1.1,1.1,1.6,2.3,2,3.7c0.5,1.6,0.9,2.9,0.3,4.5
	C75.7,118.6,75.3,119.9,74,120.6z"/>
<path class="st1" d="M81.4,111.4c-1.6,0.2-2.8-0.8-3.7-1.6c-0.8-0.6-2.9-2.4-3.1-5.4c-0.1-0.7-0.1-2.3,1-4c0.3-0.5,1.1-1.8,2.8-2.3
	c2.1-0.7,3.9,0.3,4.2,0.5c0.3,0.2,1.5,0.9,2.3,2.4s0.6,2.8,0.5,4.2c-0.2,1.6-0.2,3.1-1.3,4.4C83.9,110.1,82.9,111.2,81.4,111.4z"/>
<path class="st1" d="M91.9,110c-1.5-0.5-2.2-1.9-2.7-3c-0.4-0.9-1.6-3.4-0.5-6.2c0.3-0.6,1-2.1,2.6-3.1c0.5-0.3,1.8-1.1,3.5-0.9
	c2.2,0.3,3.4,2,3.6,2.3c0.2,0.2,1,1.5,1,3.1c0.1,1.6-0.6,2.8-1.3,4c-0.8,1.5-1.5,2.7-3.1,3.4C94.6,109.8,93.3,110.4,91.9,110z"/>
<path class="st1" d="M100.8,118.3c-1.3-1-1.5-2.4-1.6-3.7c-0.2-1-0.5-3.7,1.4-6c0.4-0.5,1.6-1.7,3.4-2.2c0.6-0.2,2.1-0.5,3.6,0.2
	c2,1,2.6,2.9,2.7,3.4c0.1,0.3,0.5,1.6,0,3.3c-0.5,1.5-1.5,2.4-2.4,3.4c-1.1,1.1-2.3,2.1-4,2.3C103.4,119,102,119.2,100.8,118.3z"/>
<path class="st1" d="M78,135.4c-1.5-1-2.4-1.6-3.2-2.8c-1-1.6-0.9-3.1-0.8-4.2c0.1-0.8,0.1-2.3,1-3.7c0.4-0.6,1-1.3,2.3-2.5
	c1-1,1.2-1.1,1.8-1.8c0.4-0.5,0.8-1,1.5-2c1.1-1.8,1.1-1.8,1.6-2.4c0.9-1,1.9-1.6,2.4-1.8c0.8-0.3,2.1-1.1,4.1-1
	c1.8,0.2,3,0.9,3.7,1.3c1.2,0.8,2.1,1.8,2.4,2.2c0.7,0.9,0.7,1.1,1.3,1.8c0.8,0.8,1.3,1,2.3,1.7s2.1,1.5,2.9,2.6
	c1.5,1.8,1.6,3.7,1.8,4.5c0.2,0.9,0.3,2-0.2,3.2c-0.3,1-0.9,1.6-1.6,2.4c-0.6,0.7-1.3,1.5-2.4,2.1c-1.4,0.8-2.6,0.8-3.2,0.9
	c-1.8,0.2-2.1-0.4-4.3-0.5c-1.3,0-2.3,0.2-3.6,0.3c-1.8,0.3-2,0.5-3.6,0.8c-1.5,0.2-2.4,0.3-3.6,0C79.5,136.3,78.9,135.9,78,135.4z"
	/>
<path class="st0" d="M28.3,195.3c-1.8,1.6-4.2,1.5-6.1,1.4c-1.5-0.1-5.8-0.4-8.8-3.9c-0.6-0.8-2.1-2.9-2.3-5.9
	c-0.1-1-0.2-3.3,1.4-5.5c2-2.8,5.2-3,5.9-3.1c0.4,0,2.7-0.3,5,1c2.2,1.2,3.3,2.9,4.5,4.8c1.3,2.1,2.5,4.1,2.3,6.7
	C30.1,191.7,29.9,193.8,28.3,195.3z"/>
<path class="st0" d="M35.8,178.4c-2.2,0.9-4.5-0.1-6.3-0.8c-1.4-0.6-5.4-2.4-6.8-6.7c-0.4-1-1-3.5-0.1-6.4c0.3-0.9,1-3.1,3.2-4.7
	c2.9-1.9,6-1.1,6.6-0.9c0.4,0.1,2.6,0.7,4.4,2.7c1.7,1.9,2.1,3.8,2.5,6.1c0.4,2.5,0.9,4.7-0.2,7.1C38.8,175.5,37.8,177.5,35.8,178.4
	z"/>
<path class="st0" d="M51,172.1c-2.4-0.2-4-2-5.3-3.4c-1-1.2-3.8-4.5-3.3-9c0.1-1.1,0.6-3.6,2.6-5.7c0.7-0.7,2.2-2.4,4.9-2.8
	c3.4-0.4,5.8,1.6,6.4,2.1c0.4,0.3,2.1,1.8,2.8,4.3c0.7,2.4,0.2,4.4-0.4,6.5c-0.6,2.4-1.2,4.7-3.2,6.4
	C54.9,170.8,53.2,172.2,51,172.1z"/>
<path class="st0" d="M67.6,181c-2.3-0.9-3.2-3.1-3.9-4.9c-0.6-1.4-2.2-5.4-0.4-9.6c0.4-1,1.6-3.2,4.3-4.7c0.9-0.4,2.9-1.6,5.5-1.2
	c3.3,0.6,5,3.3,5.4,3.8c0.3,0.4,1.4,2.3,1.3,4.9c-0.1,2.5-1.2,4.2-2.3,6.1c-1.3,2.1-2.6,4-5,5C71.8,181,69.8,181.8,67.6,181z"/>
<path class="st0" d="M40.4,215.8c-2.6-0.8-4.4-1.3-6-2.9c-2.1-2-2.6-4.4-3-6c-0.3-1.3-0.8-3.4-0.1-6c0.4-1.1,1-2.3,2.4-4.7
	c1.1-1.8,1.3-2.1,2-3.5c0.4-1,0.7-1.8,1.3-3.6c1.1-3.1,0.9-3.2,1.4-4.2c1-2,2.2-3.1,2.9-3.8c1-0.9,2.8-2.5,5.7-3
	c2.7-0.5,4.9,0.2,6.1,0.5c2.1,0.7,3.8,1.9,4.5,2.3c1.4,1,1.4,1.3,2.8,2.1c1.5,0.9,2.4,1.1,4.1,1.6c1.7,0.6,3.7,1.3,5.5,2.7
	c2.9,2.1,4,4.9,4.5,6.1c0.5,1.3,1.2,2.9,1,4.9c-0.1,1.6-0.7,2.8-1.4,4.2c-0.6,1.3-1.3,2.7-2.8,4c-1.7,1.6-3.5,2.3-4.5,2.6
	c-2.8,1-3.3,0.2-6.7,1.1c-1.9,0.4-3.3,1.2-5.2,2c-2.7,1.3-2.8,1.5-5.1,2.6c-2.2,0.9-3.6,1.5-5.5,1.5
	C42.9,216.5,41.9,216.3,40.4,215.8z"/>
<path class="st2" d="M26.4,61.3c-2.4,0.3-4.3-1.2-5.8-2.4c-1.2-0.9-4.5-3.7-5-8.2c0-1-0.1-3.6,1.5-6.2c0.5-0.9,1.7-2.8,4.3-3.7
	c3.2-1.1,6,0.5,6.6,0.8c0.3,0.2,2.4,1.3,3.5,3.7c1.1,2.2,1,4.3,0.9,6.5c-0.1,2.5-0.3,4.8-2,6.8C29.9,59.4,28.5,61,26.4,61.3z"/>
<path class="st2" d="M42.2,51.8c-2.3-0.5-3.6-2.7-4.7-4.3c-0.8-1.3-3-5.1-1.7-9.4c0.2-1,1.2-3.4,3.6-5.3c0.8-0.6,2.6-2,5.3-2
	c3.5,0.1,5.5,2.5,5.9,3c0.3,0.3,1.7,2.1,2.1,4.7c0.3,2.5-0.5,4.3-1.5,6.4c-1.1,2.3-2,4.4-4.2,5.7C46.3,51.1,44.4,52.2,42.2,51.8z"/>
<path class="st2" d="M58.3,55.4c-1.9-1.5-2.1-3.9-2.4-5.8c-0.1-1.6-0.5-5.9,2.5-9.3c0.7-0.8,2.6-2.6,5.4-3.2c1-0.2,3.2-0.7,5.6,0.5
	c3,1.6,3.8,4.6,4,5.4c0.2,0.5,0.7,2.7-0.2,5.1c-0.8,2.4-2.4,3.7-4.1,5.1c-1.9,1.6-3.7,3.2-6.3,3.4C62.2,56.5,60,56.7,58.3,55.4z"/>
<path class="st2" d="M66.8,72.2c-1.4-2.1-0.8-4.4-0.4-6.3c0.3-1.5,1.3-5.7,5.2-8.1c0.9-0.6,3.1-1.7,6.2-1.4c1,0.2,3.3,0.4,5.2,2.2
	c2.4,2.4,2.2,5.6,2.2,6.2c0,0.5-0.2,2.7-1.7,4.8c-1.5,2-3.4,2.8-5.4,3.7c-2.3,1-4.4,1.8-7,1.2C70.2,74.6,68.1,74.1,66.8,72.2z"/>
<path class="st2" d="M24.5,85.1c-1.7-2.1-2.9-3.6-3.3-5.8c-0.6-2.8,0.4-5.1,1-6.6c0.5-1.2,1.3-3.2,3.4-5c1-0.7,2.1-1.3,4.7-2.5
	c1.9-0.8,2.3-1,3.6-1.7c0.9-0.6,1.6-1.1,3.1-2.2c2.7-1.9,2.6-2.1,3.6-2.6c2-1.1,3.6-1.3,4.6-1.4c1.3-0.2,3.7-0.4,6.4,0.8
	c2.5,1.1,3.9,3,4.7,3.9c1.3,1.8,2,3.7,2.4,4.5c0.6,1.6,0.4,1.9,1.1,3.3c0.7,1.6,1.3,2.3,2.4,3.7c1,1.5,2.3,3.2,3,5.4
	c1.2,3.4,0.5,6.3,0.2,7.6c-0.3,1.4-0.7,3.1-2,4.6c-1,1.3-2.2,1.9-3.6,2.6c-1.2,0.7-2.6,1.5-4.6,1.7c-2.3,0.3-4.2-0.1-5.2-0.5
	c-2.9-0.8-2.8-1.7-6.1-2.9c-1.8-0.8-3.4-0.9-5.4-1.3c-3-0.5-3.2-0.4-5.7-0.8c-2.3-0.5-3.8-0.8-5.4-1.9
	C26.2,87.1,25.5,86.3,24.5,85.1z"/>
<path class="st2" d="M100.8,181.3c-2.4,0.3-4.3-1.2-5.8-2.4c-1.2-0.9-4.5-3.7-5-8.2c0-1-0.1-3.6,1.5-6.2c0.5-0.9,1.7-2.8,4.3-3.7
	c3.2-1.1,6,0.5,6.6,0.8c0.3,0.2,2.4,1.3,3.5,3.7c1.1,2.2,1,4.3,0.9,6.5c-0.1,2.5-0.3,4.8-2,6.8C104.3,179.4,102.9,181,100.8,181.3z"
	/>
<path class="st2" d="M116.6,171.8c-2.3-0.5-3.6-2.7-4.7-4.3c-0.8-1.3-3-5.1-1.7-9.4c0.2-1,1.2-3.4,3.6-5.3c0.8-0.6,2.6-2,5.3-2
	c3.5,0.1,5.5,2.5,5.9,3c0.3,0.3,1.7,2.1,2.1,4.7c0.3,2.5-0.5,4.3-1.5,6.4c-1.1,2.3-2,4.4-4.2,5.7
	C120.7,171.1,118.8,172.2,116.6,171.8z"/>
<path class="st2" d="M132.7,175.3c-1.9-1.5-2.1-3.9-2.4-5.8c-0.1-1.6-0.5-5.9,2.5-9.3c0.7-0.8,2.6-2.6,5.4-3.2
	c1-0.2,3.2-0.7,5.6,0.5c3,1.6,3.8,4.6,4,5.4c0.2,0.5,0.7,2.7-0.2,5.1c-0.8,2.4-2.4,3.7-4.1,5.1c-1.9,1.6-3.7,3.2-6.3,3.4
	C136.6,176.5,134.4,176.7,132.7,175.3z"/>
<path class="st2" d="M141.2,192.2c-1.4-2.1-0.8-4.4-0.4-6.3c0.3-1.5,1.3-5.7,5.2-8.1c0.9-0.6,3.1-1.7,6.2-1.4c1,0.2,3.3,0.4,5.2,2.2
	c2.4,2.4,2.2,5.6,2.2,6.2c0,0.5-0.2,2.7-1.7,4.8c-1.5,2-3.4,2.8-5.4,3.7c-2.3,1-4.4,1.8-7,1.2C144.6,194.6,142.5,194.1,141.2,192.2z
	"/>
<path class="st2" d="M98.9,205.1c-1.7-2.1-2.9-3.6-3.3-5.8c-0.6-2.8,0.4-5.1,1-6.6c0.5-1.2,1.3-3.2,3.4-5c1-0.7,2.1-1.3,4.7-2.5
	c1.9-0.8,2.3-1,3.6-1.7c0.9-0.6,1.6-1.1,3.1-2.2c2.7-1.9,2.6-2.1,3.6-2.6c2-1.1,3.6-1.3,4.6-1.4c1.3-0.2,3.7-0.4,6.4,0.8
	c2.5,1.1,3.9,3,4.7,3.9c1.3,1.8,2,3.7,2.4,4.5c0.6,1.6,0.4,1.9,1.1,3.3c0.7,1.6,1.3,2.3,2.4,3.7c1,1.5,2.3,3.2,3,5.4
	c1.2,3.4,0.5,6.3,0.2,7.6c-0.3,1.4-0.7,3.1-2,4.6c-1,1.3-2.2,1.9-3.6,2.6c-1.2,0.7-2.6,1.5-4.6,1.7c-2.3,0.3-4.2-0.1-5.2-0.5
	c-2.9-0.8-2.8-1.7-6.1-2.9c-1.8-0.8-3.4-0.9-5.4-1.3c-3-0.5-3.2-0.4-5.7-0.8c-2.3-0.5-3.8-0.8-5.4-1.9
	C100.6,207.1,99.9,206.3,98.9,205.1z"/>
</svg>
