<?xml version="1.0" encoding="utf-8"?>
<!-- Generator: Adobe Illustrator 25.4.8, SVG Export Plug-In . SVG Version: 6.00 Build 0)  -->
<svg version="1.1" xmlns="http://www.w3.org/2000/svg" xmlns:xlink="http://www.w3.org/1999/xlink" x="0px" y="0px"
	 viewBox="0 0 600 600" style="enable-background:new 0 0 600 600;" xml:space="preserve">
<style type="text/css">
	.st0{display:none;}
	.st1{display:inline;fill:#F6E1ED;}
	.st2{fill:url(#SVGID_1_);}
	.st3{fill:url(#SVGID_00000144339513578815629420000002431132412133892752_);}
	.st4{fill:url(#SVGID_00000050645362670015123350000000249674046733190278_);}
	.st5{fill:url(#SVGID_00000114780475371865419660000016804685737411084703_);}
	.st6{fill:url(#SVGID_00000067921963173604223100000008689936776867285410_);}
	.st7{fill:url(#SVGID_00000160177415333269990990000011386893713208604804_);}
	.st8{fill:url(#SVGID_00000063629458738440525220000006851878599384095361_);}
	.st9{fill:url(#SVGID_00000020362569679105663660000016751233601624157357_);}
	.st10{fill:url(#SVGID_00000162328928736732524050000001588031510042047912_);}
	.st11{fill:url(#SVGID_00000134944387433487020960000005131365442790719164_);}
	.st12{fill:url(#SVGID_00000119102250824322024420000018091934012500268434_);}
	.st13{fill:url(#SVGID_00000114775165270027321150000007470601404171832989_);}
	.st14{fill:url(#SVGID_00000093170551079414276530000009585655513864181397_);}
	.st15{fill:url(#SVGID_00000137849461089891288910000004895453170977662116_);}
	.st16{fill:url(#SVGID_00000049218887277860986170000000458234067258144395_);}
</style>
<g id="Layer_3" class="st0">
	<rect y="-0.9" class="st1" width="600.9" height="600.9"/>
</g>
<g id="Layer_2">
	<radialGradient id="SVGID_1_" cx="368.7058" cy="151.7974" r="27.1055" gradientUnits="userSpaceOnUse">
		<stop  offset="0" style="stop-color:#FDFDFD"/>
		<stop  offset="1" style="stop-color:#FFD994"/>
	</radialGradient>
	<polygon class="st2" points="380.17,178.93 364.89,167.37 346.7,173.39 352.98,155.29 341.63,139.85 360.79,140.23 371.96,124.66 
		377.52,143 395.78,148.81 380.06,159.77 	"/>
	
		<radialGradient id="SVGID_00000093876477665754276480000007954567723196051846_" cx="305.0336" cy="105.7648" r="17.7294" gradientTransform="matrix(0.9599 0.2803 -0.2803 0.9599 59.4339 -96.6619)" gradientUnits="userSpaceOnUse">
		<stop  offset="0" style="stop-color:#FFFFFF"/>
		<stop  offset="1" style="stop-color:#FFD994"/>
	</radialGradient>
	<polygon style="fill:url(#SVGID_00000093876477665754276480000007954567723196051846_);" points="331.41,108.52 321.41,100.95 
		309.51,104.89 313.62,93.04 306.19,82.94 318.73,83.19 326.04,73 329.68,85 341.63,88.81 331.34,95.98 	"/>
	
		<radialGradient id="SVGID_00000172437418124098716200000002303556177373735324_" cx="300.4988" cy="219.8685" r="60.4176" gradientTransform="matrix(0.9297 -0.3684 0.3684 0.9297 -63.93 126.0583)" gradientUnits="userSpaceOnUse">
		<stop  offset="0" style="stop-color:#FDFDFD"/>
		<stop  offset="1" style="stop-color:#FFD994"/>
	</radialGradient>
	<polygon style="fill:url(#SVGID_00000172437418124098716200000002303556177373735324_);" points="342.47,266.59 301.31,255.16 
		268.57,282.59 266.72,239.92 230.52,217.25 270.53,202.3 280.9,160.87 307.48,194.3 350.09,191.36 326.51,226.97 	"/>
	
		<radialGradient id="SVGID_00000029028629211546788000000016549189518692571270_" cx="581.1301" cy="274.6705" r="27.1055" gradientTransform="matrix(-0.4227 0.9063 -0.9063 -0.4227 641.355 111.6924)" gradientUnits="userSpaceOnUse">
		<stop  offset="0" style="stop-color:#FDFDFD"/>
		<stop  offset="1" style="stop-color:#FFD994"/>
	</radialGradient>
	<polygon style="fill:url(#SVGID_00000029028629211546788000000016549189518692571270_);" points="117.35,521.18 134.29,512.22 
		136.52,493.19 150.27,506.53 169.06,502.77 160.62,519.97 170.01,536.68 151.04,533.96 138.05,548.05 134.77,529.17 	"/>
	
		<radialGradient id="SVGID_00000091001553800360932620000012400896832680840355_" cx="543.3815" cy="164.1782" r="17.7294" gradientTransform="matrix(-0.6597 0.7515 -0.7515 -0.6597 703.8351 206.4138)" gradientUnits="userSpaceOnUse">
		<stop  offset="0" style="stop-color:#FFFFFF"/>
		<stop  offset="1" style="stop-color:#FFD994"/>
	</radialGradient>
	<polygon style="fill:url(#SVGID_00000091001553800360932620000012400896832680840355_);" points="201.78,506.75 212.86,500.89 
		214.32,488.43 223.32,497.17 235.62,494.7 230.1,505.96 236.24,516.9 223.82,515.12 215.32,524.34 213.17,511.99 	"/>
	
		<radialGradient id="SVGID_00000005249113517355829190000013205389988355511946_" cx="452.7224" cy="412.3517" r="60.4176" gradientTransform="matrix(-0.0591 0.9983 -0.9983 -0.0591 554.1342 0.4706)" gradientUnits="userSpaceOnUse">
		<stop  offset="0" style="stop-color:#FDFDFD"/>
		<stop  offset="1" style="stop-color:#FFD994"/>
	</radialGradient>
	<polygon style="fill:url(#SVGID_00000005249113517355829190000013205389988355511946_);" points="53.85,449.96 81.6,417.49 
		70.58,376.22 110.04,392.58 145.88,369.35 142.52,411.93 175.69,438.84 134.15,448.8 118.81,488.66 96.5,452.23 	"/>
	
		<radialGradient id="SVGID_00000103239494158548883040000003559089880743816858_" cx="549.6142" cy="361.3672" r="13.5528" gradientUnits="userSpaceOnUse">
		<stop  offset="0" style="stop-color:#FDFDFD"/>
		<stop  offset="1" style="stop-color:#FFD994"/>
	</radialGradient>
	<polygon style="fill:url(#SVGID_00000103239494158548883040000003559089880743816858_);" points="555.35,374.93 547.71,369.15 
		538.61,372.17 541.75,363.11 536.08,355.39 545.66,355.58 551.24,347.8 554.02,356.97 563.15,359.88 555.29,365.35 	"/>
	
		<radialGradient id="SVGID_00000074440325071293829890000015893364823573311125_" cx="568.1658" cy="279.2625" r="8.8647" gradientTransform="matrix(0.9599 0.2803 -0.2803 0.9599 59.4339 -96.6619)" gradientUnits="userSpaceOnUse">
		<stop  offset="0" style="stop-color:#FFFFFF"/>
		<stop  offset="1" style="stop-color:#FFD994"/>
	</radialGradient>
	<polygon style="fill:url(#SVGID_00000074440325071293829890000015893364823573311125_);" points="530.97,339.73 525.97,335.94 
		520.02,337.92 522.07,331.99 518.36,326.94 524.62,327.06 528.28,321.97 530.1,327.97 536.08,329.87 530.93,333.46 	"/>
	
		<radialGradient id="SVGID_00000018929220832414793820000002512359638988831917_" cx="437.6025" cy="463.0577" r="30.2088" gradientTransform="matrix(0.9297 -0.3684 0.3684 0.9297 -63.93 126.0583)" gradientUnits="userSpaceOnUse">
		<stop  offset="0" style="stop-color:#FDFDFD"/>
		<stop  offset="1" style="stop-color:#FFD994"/>
	</radialGradient>
	<polygon style="fill:url(#SVGID_00000018929220832414793820000002512359638988831917_);" points="536.5,418.76 515.92,413.05 
		499.55,426.76 498.62,405.43 480.52,394.09 500.52,386.62 505.71,365.9 519,382.62 540.31,381.15 528.51,398.95 	"/>
	
		<radialGradient id="SVGID_00000183213746646600227840000016573501829440187776_" cx="600.0717" cy="277.6667" r="13.5528" gradientTransform="matrix(-0.8356 -0.5494 0.5494 -0.8356 385.8412 715.4892)" gradientUnits="userSpaceOnUse">
		<stop  offset="0" style="stop-color:#FDFDFD"/>
		<stop  offset="1" style="stop-color:#FFD994"/>
	</radialGradient>
	<polygon style="fill:url(#SVGID_00000183213746646600227840000016573501829440187776_);" points="39.67,139.31 42.87,148.34 
		52.13,150.82 44.53,156.66 45.03,166.23 37.13,160.8 28.19,164.24 30.9,155.05 24.87,147.61 34.45,147.35 	"/>
	
		<radialGradient id="SVGID_00000026857597200679122930000009649005640199336067_" cx="593.1428" cy="184.775" r="8.8647" gradientTransform="matrix(-0.6481 -0.7616 0.7616 -0.6481 283.0739 763.6014)" gradientUnits="userSpaceOnUse">
		<stop  offset="0" style="stop-color:#FFFFFF"/>
		<stop  offset="1" style="stop-color:#FFD994"/>
	</radialGradient>
	<polygon style="fill:url(#SVGID_00000026857597200679122930000009649005640199336067_);" points="40.7,182.12 42.79,188.03 
		48.85,189.65 43.88,193.48 44.21,199.74 39.04,196.19 33.18,198.44 34.96,192.42 31.01,187.55 37.28,187.38 	"/>
	
		<radialGradient id="SVGID_00000000189423847040658140000001510722110735143048_" cx="515.3445" cy="403.8301" r="30.2088" gradientTransform="matrix(-0.9792 -0.203 0.203 -0.9792 508.5161 645.285)" gradientUnits="userSpaceOnUse">
		<stop  offset="0" style="stop-color:#FDFDFD"/>
		<stop  offset="1" style="stop-color:#FFD994"/>
	</radialGradient>
	<polygon style="fill:url(#SVGID_00000000189423847040658140000001510722110735143048_);" points="79.5,113.05 93.55,129.13 
		114.77,126.66 103.82,145 112.72,164.41 91.9,159.67 76.18,174.13 74.26,152.86 55.65,142.38 75.29,133.98 	"/>
	
		<radialGradient id="SVGID_00000000191584617226015700000005198320508370369700_" cx="293.0632" cy="543.201" r="13.5528" gradientTransform="matrix(0.5818 0.8133 -0.8133 0.5818 772.8736 -456.8038)" gradientUnits="userSpaceOnUse">
		<stop  offset="0" style="stop-color:#FDFDFD"/>
		<stop  offset="1" style="stop-color:#FFD994"/>
	</radialGradient>
	<polygon style="fill:url(#SVGID_00000000191584617226015700000005198320508370369700_);" points="493.87,110.14 494.13,100.56 
		486.39,94.92 495.58,92.21 498.55,83.1 503.97,91 513.55,91.02 507.71,98.61 510.66,107.73 501.63,104.52 	"/>
	
		<radialGradient id="SVGID_00000056408185325290176790000000783483414970466964_" cx="372.8585" cy="525.7113" r="8.8647" gradientTransform="matrix(0.3305 0.9438 -0.9438 0.3305 886.0705 -464.7009)" gradientUnits="userSpaceOnUse">
		<stop  offset="0" style="stop-color:#FFFFFF"/>
		<stop  offset="1" style="stop-color:#FFD994"/>
	</radialGradient>
	<polygon style="fill:url(#SVGID_00000056408185325290176790000000783483414970466964_);" points="508.32,69.83 508.49,63.56 
		503.42,59.87 509.44,58.09 511.38,52.13 514.93,57.3 521.2,57.31 517.38,62.28 519.31,68.25 513.4,66.15 	"/>
	
		<radialGradient id="SVGID_00000011025709805679965640000001544529164680445594_" cx="151.2051" cy="577.5624" r="19.7719" gradientTransform="matrix(0.8405 0.5418 -0.5418 0.8405 633.1516 -435.461)" gradientUnits="userSpaceOnUse">
		<stop  offset="0" style="stop-color:#FDFDFD"/>
		<stop  offset="1" style="stop-color:#FFD994"/>
	</radialGradient>
	<polygon style="fill:url(#SVGID_00000011025709805679965640000001544529164680445594_);" points="443.6,153.07 438.81,139.94 
		425.27,136.45 436.28,127.83 435.42,113.88 447.01,121.68 460.02,116.55 456.18,129.99 465.08,140.77 451.11,141.28 	"/>
</g>
<g id="Layer_1">
</g>
</svg>
